<svg width="784" height="631" viewBox="0 0 784 631" fill="none" xmlns="http://www.w3.org/2000/svg">
<g filter="url(#filter0_d_2445_53)">
<path d="M22.4403 131.549C21.882 128.261 24.112 125.149 27.4048 124.621L299.389 80.9657L397.29 140.571L483.803 193.067L560.204 643.013C560.759 646.28 558.561 649.378 555.294 649.932L128.844 722.344C125.577 722.899 122.479 720.7 121.925 717.433L22.4403 131.549Z" fill="url(#paint0_linear_2445_53)"/>
<path d="M320.804 222.314L296.393 78.5495C296.249 77.7012 297.172 77.0792 297.904 77.5313L485.74 193.546C486.524 194.03 486.291 195.228 485.382 195.382L321.957 223.132C321.413 223.225 320.897 222.858 320.804 222.314Z" fill="#256ED9"/>
<path d="M65.3352 198.4L62.7572 183.218L68.9821 182.161C70.0376 181.981 70.9551 181.997 71.7346 182.207C72.5141 182.416 73.1349 182.787 73.597 183.318C74.0712 183.833 74.3733 184.473 74.5035 185.24C74.6336 186.006 74.5766 186.678 74.3324 187.255C74.0882 187.832 73.7159 188.312 73.2156 188.694C72.7272 189.06 72.1614 189.319 71.518 189.473L71.8246 189.176C72.5235 189.087 73.17 189.171 73.7639 189.427C74.3699 189.666 74.8725 190.042 75.272 190.554C75.6858 191.064 75.9492 191.652 76.0622 192.317C76.1997 193.127 76.126 193.875 75.8412 194.563C75.5563 195.252 75.0759 195.839 74.3998 196.326C73.7213 196.798 72.847 197.125 71.777 197.307L65.3352 198.4ZM67.8582 195.517L70.8947 195.002C71.69 194.867 72.2739 194.582 72.6463 194.146C73.0187 193.711 73.1472 193.154 73.0318 192.474C72.9164 191.795 72.6026 191.305 72.0906 191.005C71.576 190.691 70.9211 190.601 70.1258 190.736L67.1327 191.244L67.8582 195.517ZM66.7607 189.054L69.5803 188.575C70.3467 188.445 70.8956 188.173 71.2271 187.76C71.573 187.344 71.692 186.818 71.584 186.182C71.4784 185.56 71.1937 185.11 70.7299 184.832C70.2781 184.537 69.6618 184.455 68.881 184.588L66.083 185.063L66.7607 189.054ZM77.6483 196.31L75.7921 185.378L78.7202 184.881L80.5764 195.812L77.6483 196.31ZM77.0129 183.631C76.4923 183.719 76.0327 183.641 75.6341 183.397C75.2475 183.135 75.0137 182.765 74.9327 182.288C74.8517 181.811 74.9517 181.393 75.2327 181.032C75.5257 180.655 75.9325 180.423 76.453 180.334C76.9881 180.243 77.4489 180.329 77.8354 180.59C78.234 180.835 78.4738 181.196 78.5549 181.673C78.6359 182.15 78.5299 182.578 78.2369 182.955C77.9559 183.315 77.5479 183.54 77.0129 183.631ZM87.2232 194.952C86.1821 195.128 85.2017 195.049 84.282 194.715C83.3743 194.363 82.6022 193.802 81.9657 193.033C81.3412 192.246 80.9345 191.296 80.7454 190.183C80.5514 189.04 80.6206 188.002 80.9529 187.068C81.2972 186.117 81.8482 185.332 82.6058 184.712C83.361 184.078 84.2592 183.673 85.3003 183.496C86.3558 183.317 87.3374 183.403 88.2451 183.754C89.1648 184.089 89.9369 184.65 90.5614 185.436C91.1979 186.206 91.6119 187.155 91.8034 188.283C91.9949 189.411 91.9185 190.45 91.5742 191.401C91.2419 192.335 90.6981 193.119 89.943 193.753C89.1853 194.373 88.2787 194.772 87.2232 194.952ZM86.7923 192.414C87.2839 192.33 87.698 192.141 88.0347 191.846C88.3858 191.548 88.6293 191.142 88.7652 190.628C88.9155 190.112 88.9305 189.499 88.8102 188.791C88.6899 188.082 88.4748 187.516 88.1649 187.093C87.867 186.653 87.5032 186.35 87.0735 186.185C86.6558 186.003 86.2083 185.952 85.7312 186.033C85.2685 186.112 84.8628 186.307 84.5141 186.619C84.163 186.917 83.9122 187.324 83.7619 187.841C83.6236 188.34 83.6146 188.944 83.7349 189.653C83.8552 190.361 84.0643 190.936 84.3622 191.376C84.6746 191.814 85.0384 192.117 85.4537 192.284C85.8833 192.449 86.3295 192.492 86.7923 192.414ZM93.7368 193.578L91.0851 177.961L94.0132 177.464L96.6649 193.081L93.7368 193.578ZM103.207 192.237C102.166 192.414 101.186 192.335 100.266 192C99.3585 191.649 98.5864 191.088 97.9499 190.318C97.3254 189.532 96.9186 188.582 96.7296 187.469C96.5356 186.326 96.6048 185.288 96.9371 184.354C97.2814 183.403 97.8324 182.617 98.59 181.998C99.3452 181.364 100.243 180.958 101.284 180.782C102.34 180.602 103.322 180.689 104.229 181.04C105.149 181.375 105.921 181.936 106.546 182.722C107.182 183.492 107.596 184.441 107.788 185.569C107.979 186.696 107.903 187.736 107.558 188.687C107.226 189.621 106.682 190.405 105.927 191.039C105.169 191.659 104.263 192.058 103.207 192.237ZM102.776 189.7C103.268 189.616 103.682 189.427 104.019 189.132C104.37 188.834 104.614 188.428 104.749 187.914C104.9 187.398 104.915 186.785 104.794 186.077C104.674 185.368 104.459 184.802 104.149 184.379C103.851 183.939 103.487 183.636 103.058 183.471C102.64 183.289 102.193 183.238 101.715 183.319C101.253 183.398 100.847 183.593 100.498 183.905C100.147 184.203 99.8964 184.61 99.7461 185.126C99.6078 185.626 99.5987 186.23 99.7191 186.939C99.8394 187.647 100.048 188.222 100.346 188.662C100.659 189.1 101.023 189.402 101.438 189.57C101.868 189.735 102.314 189.778 102.776 189.7ZM114.583 195.215C113.542 195.392 112.609 195.416 111.784 195.289C110.961 195.175 110.289 194.895 109.767 194.449C109.262 194.014 108.945 193.42 108.817 192.668C108.731 192.162 108.781 191.663 108.965 191.171C109.149 190.678 109.456 190.209 109.886 189.764C110.329 189.303 110.904 188.878 111.611 188.49L112.961 189.733C112.332 190.063 111.893 190.413 111.644 190.783C111.411 191.164 111.326 191.543 111.39 191.919C111.447 192.252 111.603 192.515 111.859 192.71C112.13 192.902 112.462 193.016 112.855 193.054C113.265 193.103 113.709 193.087 114.186 193.006C114.648 192.928 115.036 192.802 115.349 192.63C115.677 192.456 115.915 192.237 116.063 191.974C116.229 191.722 116.286 191.445 116.234 191.141C116.168 190.751 115.977 190.456 115.66 190.257C115.344 190.058 114.769 189.999 113.935 190.081C113.187 190.149 112.516 190.181 111.92 190.178C111.337 190.158 110.816 190.112 110.357 190.041C109.897 189.956 109.498 189.845 109.163 189.709C108.842 189.57 108.571 189.422 108.351 189.266L108.267 188.767L110.164 185.879L112.382 186.194L110.106 189.348L110.687 187.776C110.861 187.836 111.027 187.897 111.187 187.959C111.358 188.005 111.565 188.044 111.809 188.077C112.05 188.095 112.364 188.102 112.749 188.096C113.135 188.09 113.621 188.059 114.207 188.004C115.176 187.929 115.987 187.977 116.641 188.149C117.31 188.318 117.828 188.609 118.195 189.023C118.561 189.422 118.8 189.954 118.913 190.619C119.023 191.27 118.946 191.908 118.68 192.533C118.431 193.171 117.967 193.725 117.289 194.198C116.613 194.684 115.711 195.024 114.583 195.215ZM113.18 186.951C112.269 187.106 111.451 187.066 110.727 186.832C110.015 186.581 109.428 186.19 108.966 185.659C108.516 185.11 108.228 184.467 108.103 183.73C107.978 182.992 108.038 182.298 108.285 181.646C108.543 180.977 108.967 180.407 109.556 179.935C110.16 179.461 110.917 179.146 111.828 178.991C112.754 178.834 113.572 178.881 114.285 179.132C115.011 179.381 115.599 179.779 116.05 180.327C116.497 180.861 116.784 181.497 116.909 182.235C117.034 182.972 116.975 183.674 116.731 184.34C116.484 184.992 116.059 185.555 115.456 186.029C114.864 186.487 114.105 186.794 113.18 186.951ZM112.801 184.717C113.364 184.622 113.795 184.4 114.093 184.052C114.391 183.703 114.492 183.247 114.397 182.683C114.301 182.12 114.055 181.722 113.659 181.492C113.26 181.247 112.779 181.173 112.215 181.269C111.666 181.362 111.236 181.591 110.926 181.956C110.628 182.304 110.527 182.76 110.623 183.324C110.718 183.888 110.964 184.285 111.36 184.516C111.771 184.743 112.251 184.811 112.801 184.717ZM114.048 181.024L113.217 179.023L117.707 178.261L118.002 179.996L114.048 181.024ZM122.623 193.582L124.252 187.147L123.602 187.257L117.57 178.284L120.759 177.743L125.079 184.261L126.702 176.734L129.803 176.207L125.724 193.055L122.623 193.582ZM141.57 185.723C140.456 185.912 139.406 185.86 138.419 185.567C137.432 185.273 136.595 184.723 135.907 183.918C135.22 183.112 134.759 182.015 134.523 180.627L132.939 171.301L135.867 170.803L137.455 180.152C137.582 180.904 137.813 181.519 138.148 181.998C138.479 182.462 138.897 182.778 139.402 182.945C139.921 183.11 140.506 183.137 141.156 183.027C141.821 182.914 142.364 182.695 142.785 182.371C143.221 182.044 143.518 181.606 143.678 181.059C143.836 180.496 143.851 179.839 143.723 179.087L142.136 169.739L145.064 169.242L146.647 178.568C146.883 179.957 146.802 181.145 146.405 182.135C146.008 183.125 145.377 183.924 144.514 184.532C143.664 185.137 142.683 185.534 141.57 185.723ZM148.912 184.209L147.056 173.277L149.637 172.839L150.156 174.581C150.385 173.917 150.772 173.346 151.315 172.866C151.873 172.385 152.579 172.072 153.432 171.927C154.343 171.772 155.141 171.83 155.827 172.1C156.512 172.371 157.076 172.84 157.516 173.509C157.972 174.176 158.289 175.037 158.468 176.093L159.54 182.404L156.634 182.898L155.61 176.868C155.462 176 155.162 175.367 154.707 174.968C154.267 174.567 153.664 174.431 152.897 174.562C152.406 174.645 151.984 174.836 151.633 175.133C151.297 175.428 151.057 175.811 150.913 176.282C150.768 176.738 150.746 177.27 150.85 177.877L151.84 183.712L148.912 184.209ZM160.845 182.183L158.989 171.251L161.917 170.754L163.774 181.685L160.845 182.183ZM160.21 169.504C159.689 169.592 159.23 169.514 158.831 169.27C158.445 169.008 158.211 168.638 158.13 168.161C158.049 167.684 158.149 167.265 158.43 166.905C158.723 166.528 159.13 166.296 159.65 166.207C160.185 166.116 160.646 166.202 161.033 166.463C161.431 166.708 161.671 167.069 161.752 167.546C161.833 168.023 161.727 168.451 161.434 168.828C161.153 169.188 160.745 169.413 160.21 169.504ZM170.138 180.605C169.371 180.735 168.679 180.733 168.061 180.6C167.456 180.45 166.947 180.127 166.536 179.632C166.122 179.122 165.833 178.383 165.668 177.414L164.88 172.772L163.015 173.089L162.599 170.638L164.464 170.321L164.285 167.295L166.888 166.853L167.392 169.824L170.277 169.334L170.693 171.785L167.808 172.275L168.604 176.96C168.687 177.452 168.853 177.773 169.102 177.924C169.351 178.075 169.736 178.107 170.256 178.018L171.688 177.775L172.111 180.27L170.138 180.605ZM181.785 178.895C180.802 179.062 179.867 179.034 178.982 178.813C178.096 178.591 177.345 178.154 176.728 177.5C176.111 176.846 175.693 175.957 175.472 174.834L178.335 174.348C178.431 174.823 178.613 175.238 178.881 175.594C179.148 175.936 179.496 176.189 179.925 176.354C180.353 176.505 180.834 176.535 181.369 176.444C181.875 176.358 182.292 176.183 182.619 175.919C182.946 175.655 183.175 175.341 183.307 174.977C183.438 174.612 183.467 174.213 183.393 173.779C183.307 173.273 183.106 172.876 182.789 172.588C182.485 172.282 182.093 172.081 181.616 171.984C181.152 171.884 180.639 171.882 180.075 171.977L178.947 172.169L178.538 169.761L179.666 169.57C180.375 169.45 180.939 169.183 181.36 168.769C181.795 168.353 181.956 167.812 181.843 167.147C181.75 166.598 181.494 166.187 181.076 165.916C180.673 165.643 180.153 165.56 179.517 165.668C178.823 165.786 178.315 166.08 177.993 166.551C177.671 167.023 177.539 167.558 177.597 168.158L174.734 168.645C174.615 167.683 174.715 166.825 175.033 166.072C175.364 165.302 175.874 164.672 176.564 164.183C177.255 163.694 178.099 163.365 179.097 163.195C180.152 163.016 181.074 163.053 181.86 163.306C182.659 163.542 183.299 163.94 183.781 164.497C184.262 165.055 184.565 165.696 184.687 166.419C184.788 167.012 184.762 167.559 184.609 168.061C184.471 168.561 184.24 168.994 183.915 169.362C183.591 169.729 183.215 170.016 182.789 170.222C183.373 170.242 183.903 170.383 184.378 170.644C184.866 170.889 185.269 171.244 185.586 171.711C185.918 172.175 186.14 172.74 186.253 173.405C186.393 174.23 186.321 175.03 186.036 175.808C185.764 176.568 185.265 177.225 184.541 177.78C183.832 178.332 182.913 178.703 181.785 178.895ZM193.144 176.81C192.594 176.903 192.126 176.819 191.74 176.557C191.351 176.281 191.116 175.905 191.035 175.427C190.954 174.95 191.052 174.524 191.331 174.15C191.607 173.761 192.02 173.52 192.569 173.426C193.09 173.338 193.545 173.432 193.934 173.708C194.32 173.969 194.554 174.339 194.635 174.816C194.716 175.293 194.619 175.726 194.342 176.115C194.064 176.49 193.664 176.721 193.144 176.81ZM191.796 168.871C191.246 168.965 190.778 168.881 190.392 168.619C190.003 168.343 189.768 167.966 189.687 167.489C189.606 167.012 189.704 166.586 189.983 166.211C190.259 165.822 190.672 165.581 191.221 165.488C191.742 165.399 192.197 165.493 192.586 165.769C192.972 166.031 193.206 166.4 193.287 166.878C193.368 167.355 193.271 167.788 192.995 168.177C192.716 168.552 192.316 168.783 191.796 168.871ZM199.443 175.629L196.865 160.446L202.547 159.481C203.776 159.272 204.831 159.309 205.712 159.591C206.593 159.873 207.289 160.335 207.8 160.977C208.311 161.619 208.643 162.396 208.798 163.307C208.94 164.145 208.884 164.951 208.628 165.723C208.372 166.496 207.878 167.175 207.144 167.76C206.408 168.332 205.411 168.724 204.153 168.938L201.398 169.405L202.371 175.131L199.443 175.629ZM200.997 167.041L203.578 166.603C204.518 166.443 205.155 166.12 205.488 165.632C205.834 165.127 205.947 164.52 205.826 163.811C205.699 163.059 205.391 162.517 204.903 162.183C204.427 161.832 203.719 161.737 202.779 161.896L200.198 162.335L200.997 167.041ZM211.182 173.635L209.326 162.704L211.929 162.262L212.553 164.231C212.733 163.71 212.989 163.25 213.323 162.851C213.671 162.449 214.083 162.112 214.557 161.838C215.046 161.561 215.601 161.371 216.223 161.265L216.749 164.367L215.751 164.536C215.318 164.61 214.921 164.729 214.563 164.894C214.218 165.057 213.928 165.277 213.693 165.555C213.455 165.818 213.297 166.158 213.219 166.573C213.14 166.988 213.152 167.492 213.252 168.084L214.11 173.138L211.182 173.635ZM222.27 172.02C221.359 172.175 220.583 172.158 219.941 171.97C219.297 171.767 218.788 171.444 218.415 171.001C218.055 170.542 217.823 170.008 217.72 169.401C217.607 168.736 217.674 168.122 217.92 167.56C218.181 166.995 218.627 166.51 219.258 166.105C219.903 165.698 220.746 165.406 221.787 165.229L224.498 164.769C224.407 164.234 224.26 163.805 224.056 163.483C223.85 163.146 223.581 162.916 223.248 162.794C222.915 162.673 222.495 162.655 221.989 162.74C221.439 162.834 220.99 163.036 220.642 163.349C220.305 163.644 220.135 164.045 220.132 164.551L217.29 165.033C217.23 164.24 217.369 163.525 217.707 162.887C218.057 162.233 218.567 161.685 219.236 161.244C219.919 160.801 220.709 160.503 221.605 160.351C222.632 160.177 223.551 160.199 224.362 160.418C225.173 160.638 225.836 161.038 226.351 161.62C226.866 162.202 227.205 162.97 227.367 163.925L228.516 170.692L226.044 171.112L225.435 169.497C225.325 169.813 225.181 170.105 225.003 170.374C224.826 170.642 224.607 170.887 224.347 171.11C224.088 171.332 223.784 171.518 223.438 171.666C223.093 171.828 222.704 171.947 222.27 172.02ZM222.581 169.647C222.957 169.583 223.279 169.461 223.546 169.282C223.825 169.086 224.053 168.854 224.231 168.586C224.406 168.303 224.526 168 224.59 167.677C224.666 167.336 224.695 166.982 224.677 166.613L224.673 166.591L222.439 166.971C221.991 167.047 221.632 167.167 221.363 167.332C221.105 167.48 220.929 167.666 220.833 167.891C220.737 168.115 220.711 168.358 220.755 168.618C220.805 168.907 220.91 169.135 221.072 169.3C221.234 169.466 221.447 169.579 221.71 169.639C221.973 169.698 222.263 169.701 222.581 169.647ZM235.066 169.848C233.967 170.034 232.949 169.954 232.013 169.607C231.076 169.261 230.297 168.701 229.675 167.929C229.053 167.157 228.648 166.221 228.462 165.122C228.27 163.995 228.341 162.964 228.673 162.029C229.003 161.081 229.552 160.288 230.322 159.652C231.089 159.001 232.022 158.582 233.121 158.396C234.524 158.157 235.765 158.326 236.844 158.901C237.924 159.477 238.703 160.386 239.182 161.629L236.08 162.155C235.864 161.671 235.522 161.32 235.054 161.102C234.6 160.882 234.091 160.819 233.527 160.915C233.021 161.001 232.587 161.209 232.227 161.538C231.878 161.85 231.63 162.271 231.482 162.802C231.346 163.316 231.334 163.906 231.447 164.571C231.533 165.077 231.676 165.521 231.875 165.904C232.071 166.272 232.31 166.582 232.59 166.831C232.868 167.067 233.178 167.23 233.521 167.321C233.878 167.409 234.245 167.421 234.621 167.357C234.997 167.293 235.325 167.17 235.607 166.989C235.903 166.805 236.14 166.578 236.317 166.31C236.492 166.028 236.594 165.705 236.622 165.344L239.723 164.817C239.677 166.119 239.233 167.228 238.392 168.145C237.563 169.044 236.454 169.612 235.066 169.848ZM243.584 173.043L245.214 166.607L244.563 166.718L238.532 157.745L241.72 157.203L246.041 163.722L247.663 156.194L250.765 155.667L246.686 172.516L243.584 173.043ZM253.023 166.531L251.166 155.599L254.094 155.102L255.951 166.034L253.023 166.531ZM252.387 153.852C251.867 153.941 251.407 153.862 251.008 153.618C250.622 153.356 250.388 152.987 250.307 152.509C250.226 152.032 250.326 151.614 250.607 151.254C250.9 150.876 251.307 150.644 251.827 150.555C252.362 150.465 252.823 150.55 253.21 150.812C253.608 151.056 253.848 151.417 253.929 151.894C254.01 152.372 253.904 152.799 253.611 153.176C253.33 153.536 252.922 153.761 252.387 153.852ZM262.728 165.151C261.629 165.337 260.611 165.257 259.674 164.91C258.738 164.564 257.958 164.004 257.336 163.232C256.714 162.46 256.31 161.524 256.123 160.425C255.932 159.298 256.002 158.267 256.335 157.332C256.664 156.384 257.214 155.591 257.984 154.955C258.751 154.304 259.684 153.885 260.783 153.698C262.186 153.46 263.427 153.629 264.506 154.204C265.586 154.78 266.365 155.689 266.844 156.931L263.742 157.458C263.526 156.974 263.184 156.623 262.715 156.405C262.261 156.185 261.753 156.122 261.189 156.218C260.682 156.304 260.249 156.512 259.888 156.841C259.54 157.153 259.291 157.574 259.144 158.105C259.008 158.619 258.996 159.209 259.109 159.874C259.195 160.38 259.338 160.824 259.536 161.207C259.733 161.575 259.971 161.885 260.252 162.134C260.53 162.37 260.84 162.533 261.183 162.624C261.54 162.712 261.906 162.724 262.282 162.66C262.658 162.596 262.987 162.473 263.269 162.292C263.565 162.107 263.801 161.881 263.979 161.613C264.154 161.33 264.256 161.008 264.284 160.647L267.385 160.12C267.339 161.422 266.895 162.531 266.054 163.448C265.224 164.347 264.116 164.915 262.728 165.151ZM272.779 163.444C271.868 163.598 271.092 163.582 270.45 163.393C269.805 163.19 269.297 162.867 268.924 162.425C268.563 161.965 268.331 161.432 268.228 160.825C268.115 160.16 268.182 159.546 268.429 158.983C268.69 158.418 269.136 157.933 269.766 157.529C270.411 157.122 271.254 156.83 272.295 156.653L275.007 156.193C274.916 155.658 274.769 155.229 274.565 154.906C274.359 154.569 274.089 154.34 273.756 154.218C273.423 154.096 273.004 154.078 272.498 154.164C271.948 154.257 271.499 154.46 271.15 154.772C270.814 155.067 270.644 155.468 270.64 155.974L267.799 156.457C267.739 155.664 267.878 154.948 268.216 154.311C268.566 153.656 269.075 153.109 269.744 152.668C270.428 152.224 271.218 151.927 272.114 151.774C273.141 151.6 274.06 151.623 274.87 151.842C275.681 152.061 276.344 152.462 276.86 153.044C277.375 153.626 277.714 154.394 277.876 155.348L279.025 162.115L276.552 162.535L275.943 160.92C275.833 161.237 275.69 161.529 275.512 161.797C275.334 162.065 275.116 162.311 274.856 162.533C274.596 162.756 274.293 162.941 273.946 163.089C273.602 163.252 273.213 163.37 272.779 163.444ZM273.09 161.07C273.466 161.006 273.788 160.885 274.055 160.706C274.334 160.509 274.562 160.277 274.74 160.009C274.915 159.726 275.035 159.423 275.099 159.1C275.175 158.76 275.204 158.405 275.186 158.037L275.182 158.015L272.948 158.394C272.5 158.47 272.141 158.591 271.871 158.756C271.614 158.903 271.437 159.09 271.341 159.314C271.246 159.539 271.22 159.781 271.264 160.041C271.313 160.331 271.419 160.558 271.581 160.724C271.743 160.89 271.955 161.003 272.218 161.062C272.481 161.122 272.772 161.124 273.09 161.07ZM280.238 161.909L277.586 146.293L280.514 145.796L283.166 161.412L280.238 161.909ZM289.015 160.687C288.017 160.856 287.122 160.845 286.331 160.652C285.539 160.459 284.886 160.116 284.371 159.623C283.856 159.131 283.509 158.535 283.331 157.836L286.237 157.343C286.356 157.605 286.522 157.837 286.735 158.039C286.945 158.227 287.206 158.361 287.518 158.442C287.829 158.523 288.187 158.529 288.592 158.46C288.982 158.394 289.292 158.289 289.52 158.146C289.747 157.989 289.901 157.807 289.985 157.599C290.083 157.389 290.115 157.183 290.081 156.98C290.029 156.676 289.903 156.46 289.703 156.33C289.5 156.186 289.224 156.092 288.874 156.047C288.524 156.002 288.102 155.97 287.608 155.95C287.07 155.937 286.536 155.901 286.005 155.842C285.486 155.767 285.012 155.647 284.583 155.481C284.153 155.316 283.792 155.073 283.499 154.751C283.206 154.428 283.014 154 282.924 153.465C282.813 152.814 282.888 152.206 283.149 151.641C283.408 151.062 283.844 150.564 284.458 150.147C285.071 149.73 285.848 149.442 286.788 149.283C288.104 149.059 289.195 149.179 290.062 149.642C290.929 150.104 291.523 150.844 291.845 151.861L289.09 152.328C288.947 152.011 288.708 151.783 288.372 151.647C288.049 151.494 287.641 151.459 287.149 151.542C286.629 151.631 286.247 151.792 286.004 152.027C285.761 152.261 285.666 152.53 285.717 152.834C285.752 153.037 285.869 153.203 286.07 153.332C286.285 153.459 286.568 153.552 286.921 153.612C287.27 153.656 287.692 153.689 288.187 153.709C289.055 153.74 289.827 153.817 290.502 153.941C291.175 154.05 291.728 154.283 292.161 154.641C292.591 154.984 292.872 155.547 293.005 156.327C293.123 157.022 293.04 157.675 292.758 158.288C292.473 158.887 292.009 159.398 291.366 159.819C290.738 160.238 289.954 160.527 289.015 160.687Z" fill="#7E8BB4"/>
<path d="M67.0684 227.006L210.231 202.697" stroke="#727FA7" stroke-width="7"/>
<path d="M69.0996 238.936L262.495 206.097" stroke="#727FA7" stroke-width="7"/>
<path d="M71 252.847L264.396 220.008" stroke="#727FA7" stroke-width="7"/>
<path d="M72.9004 266.758L136 256.008" stroke="#727FA7" stroke-width="7"/>
<path d="M84.877 331.867L273.249 299.881" stroke="#727FA7" stroke-width="7"/>
<path d="M88.2891 351.96L407.266 297.797" stroke="#727FA7" stroke-width="7"/>
<path d="M91.7021 372.053L393.098 320.875" stroke="#727FA7" stroke-width="7"/>
<path d="M95.1143 392.146L426.65 335.85" stroke="#727FA7" stroke-width="7"/>
<path d="M98.5244 412.238L447.641 352.958" stroke="#727FA7" stroke-width="7"/>
<path d="M101.937 432.332L438.495 375.184" stroke="#727FA7" stroke-width="7"/>
<path d="M105.35 452.425L401.722 402.1" stroke="#727FA7" stroke-width="7"/>
<path d="M108.762 472.518L209.227 455.458" stroke="#727FA7" stroke-width="7"/>
<path d="M112.172 492.61L468.824 432.05" stroke="#727FA7" stroke-width="7"/>
<path d="M115.584 512.703L364.236 470.482" stroke="#727FA7" stroke-width="7"/>
<path d="M118.997 532.798L407.835 483.753" stroke="#727FA7" stroke-width="7"/>
</g>
<g filter="url(#filter1_d_2445_53)">
<path d="M150.916 56.2741C150.561 52.9581 152.978 49.989 156.297 49.6641L430.452 22.8309L524.499 88.3488L607.618 146.069L656.183 599.864C656.536 603.159 654.151 606.116 650.856 606.468L220.758 652.498C217.463 652.85 214.506 650.465 214.154 647.17L150.916 56.2741Z" fill="url(#paint1_linear_2445_53)"/>
<path d="M443.128 165.229L427.61 20.2351C427.519 19.3796 428.479 18.8155 429.182 19.3119L609.521 146.667C610.275 147.199 609.968 148.38 609.051 148.478L444.228 166.117C443.679 166.176 443.186 165.778 443.128 165.229Z" fill="#488CF1"/>
<path d="M192.34 125.347L190.701 110.034L196.432 109.421C197.672 109.288 198.723 109.39 199.585 109.725C200.447 110.061 201.113 110.565 201.583 111.237C202.053 111.909 202.337 112.705 202.436 113.624C202.526 114.47 202.42 115.27 202.118 116.025C201.815 116.78 201.279 117.428 200.511 117.967C199.741 118.492 198.722 118.823 197.453 118.958L194.675 119.256L195.293 125.031L192.34 125.347ZM194.42 116.871L197.023 116.593C197.971 116.491 198.626 116.207 198.989 115.741C199.366 115.258 199.515 114.659 199.439 113.945C199.358 113.186 199.084 112.625 198.617 112.262C198.164 111.883 197.463 111.744 196.515 111.846L193.912 112.124L194.42 116.871ZM204.18 124.08L202.494 108.329L205.448 108.013L206.129 114.379C206.431 113.757 206.863 113.246 207.425 112.846C208 112.431 208.689 112.18 209.491 112.094C210.409 111.996 211.203 112.11 211.873 112.437C212.54 112.749 213.074 113.252 213.473 113.947C213.871 114.642 214.129 115.529 214.244 116.608L214.921 122.93L211.989 123.244L211.341 117.184C211.247 116.309 210.993 115.658 210.579 115.23C210.163 114.788 209.561 114.609 208.773 114.693C208.292 114.745 207.867 114.908 207.498 115.184C207.129 115.459 206.853 115.836 206.668 116.313C206.496 116.774 206.442 117.31 206.508 117.923L207.133 123.763L204.18 124.08ZM217.702 127.5L219.724 121.177L219.068 121.247L213.6 111.92L216.816 111.576L220.727 118.348L222.81 110.934L225.938 110.6L220.83 127.165L217.702 127.5ZM231.458 121.426C230.451 121.533 229.559 121.467 228.781 121.225C228.003 120.984 227.372 120.602 226.888 120.078C226.404 119.555 226.095 118.939 225.96 118.231L228.892 117.917C228.994 118.186 229.145 118.428 229.345 118.643C229.544 118.843 229.796 118.993 230.102 119.093C230.407 119.193 230.764 119.221 231.173 119.177C231.566 119.135 231.882 119.05 232.119 118.921C232.354 118.778 232.52 118.605 232.617 118.403C232.727 118.2 232.772 117.996 232.75 117.792C232.717 117.485 232.605 117.261 232.413 117.12C232.219 116.963 231.949 116.852 231.603 116.786C231.256 116.72 230.837 116.661 230.345 116.611C229.809 116.565 229.278 116.496 228.752 116.405C228.239 116.298 227.773 116.149 227.354 115.957C226.936 115.766 226.59 115.501 226.318 115.161C226.045 114.822 225.88 114.382 225.823 113.842C225.752 113.186 225.865 112.584 226.16 112.036C226.454 111.474 226.92 111.003 227.558 110.625C228.196 110.247 228.989 110.008 229.937 109.906C231.264 109.764 232.346 109.951 233.183 110.466C234.02 110.981 234.568 111.756 234.826 112.79L232.048 113.088C231.924 112.762 231.699 112.52 231.373 112.363C231.059 112.19 230.655 112.13 230.159 112.184C229.634 112.24 229.243 112.377 228.986 112.597C228.729 112.816 228.617 113.079 228.65 113.385C228.672 113.589 228.779 113.762 228.971 113.904C229.178 114.044 229.455 114.154 229.803 114.235C230.149 114.301 230.569 114.36 231.061 114.41C231.925 114.495 232.691 114.619 233.358 114.784C234.023 114.934 234.56 115.201 234.97 115.585C235.378 115.954 235.625 116.533 235.709 117.32C235.784 118.02 235.661 118.667 235.341 119.262C235.02 119.842 234.526 120.323 233.858 120.704C233.206 121.084 232.406 121.324 231.458 121.426ZM237.1 120.556L235.92 109.531L238.873 109.215L240.053 120.24L237.1 120.556ZM237.246 107.863C236.721 107.919 236.267 107.813 235.884 107.544C235.515 107.259 235.304 106.876 235.253 106.395C235.201 105.913 235.327 105.502 235.629 105.159C235.945 104.801 236.365 104.594 236.89 104.538C237.43 104.48 237.885 104.594 238.254 104.879C238.637 105.147 238.854 105.522 238.906 106.004C238.957 106.485 238.825 106.905 238.51 107.263C238.207 107.605 237.786 107.805 237.246 107.863ZM246.872 119.776C245.763 119.895 244.752 119.752 243.839 119.348C242.925 118.945 242.182 118.338 241.609 117.529C241.035 116.721 240.689 115.762 240.571 114.654C240.449 113.516 240.583 112.491 240.972 111.579C241.36 110.653 241.957 109.896 242.764 109.308C243.57 108.705 244.527 108.345 245.636 108.226C247.05 108.075 248.278 108.319 249.321 108.96C250.363 109.601 251.084 110.556 251.486 111.826L248.358 112.161C248.172 111.664 247.852 111.293 247.398 111.047C246.958 110.799 246.454 110.705 245.885 110.766C245.375 110.821 244.93 111.001 244.549 111.307C244.182 111.597 243.908 112.003 243.728 112.523C243.561 113.028 243.513 113.616 243.585 114.287C243.639 114.797 243.754 115.25 243.929 115.644C244.103 116.024 244.322 116.347 244.586 116.613C244.849 116.866 245.149 117.047 245.485 117.159C245.836 117.269 246.201 117.303 246.581 117.263C246.96 117.222 247.295 117.12 247.588 116.956C247.894 116.79 248.145 116.579 248.338 116.322C248.531 116.051 248.652 115.736 248.702 115.376L251.83 115.042C251.703 116.338 251.192 117.418 250.296 118.281C249.413 119.128 248.272 119.626 246.872 119.776ZM257.797 118.607C256.79 118.715 255.898 118.648 255.12 118.407C254.342 118.165 253.711 117.783 253.227 117.26C252.743 116.736 252.434 116.12 252.299 115.412L255.231 115.098C255.333 115.367 255.484 115.609 255.684 115.824C255.883 116.024 256.135 116.174 256.441 116.274C256.746 116.374 257.103 116.402 257.512 116.359C257.905 116.316 258.221 116.231 258.458 116.102C258.693 115.959 258.859 115.787 258.956 115.584C259.066 115.381 259.111 115.177 259.089 114.973C259.056 114.667 258.944 114.443 258.752 114.301C258.558 114.145 258.288 114.033 257.942 113.967C257.595 113.901 257.176 113.843 256.684 113.792C256.148 113.746 255.617 113.678 255.091 113.586C254.578 113.479 254.112 113.33 253.693 113.139C253.275 112.947 252.929 112.682 252.657 112.342C252.384 112.003 252.219 111.563 252.162 111.024C252.091 110.367 252.204 109.765 252.499 109.217C252.793 108.655 253.259 108.185 253.897 107.807C254.535 107.429 255.328 107.189 256.276 107.087C257.603 106.945 258.685 107.132 259.522 107.647C260.359 108.162 260.907 108.937 261.165 109.972L258.387 110.269C258.263 109.943 258.038 109.701 257.712 109.545C257.398 109.372 256.994 109.312 256.498 109.365C255.973 109.421 255.582 109.559 255.325 109.778C255.068 109.997 254.956 110.26 254.989 110.566C255.011 110.77 255.118 110.943 255.31 111.085C255.517 111.225 255.794 111.335 256.142 111.416C256.488 111.482 256.908 111.541 257.4 111.591C258.264 111.676 259.03 111.8 259.697 111.965C260.362 112.115 260.899 112.382 261.309 112.766C261.717 113.135 261.964 113.714 262.048 114.501C262.123 115.201 262 115.849 261.68 116.443C261.359 117.024 260.865 117.504 260.197 117.885C259.545 118.265 258.744 118.506 257.797 118.607ZM273.012 116.979C271.889 117.099 270.844 116.982 269.877 116.628C268.91 116.274 268.108 115.674 267.472 114.828C266.836 113.981 266.443 112.858 266.293 111.458L265.286 102.052L268.239 101.736L269.248 111.164C269.329 111.922 269.522 112.551 269.826 113.049C270.129 113.533 270.527 113.874 271.02 114.072C271.528 114.269 272.11 114.332 272.766 114.261C273.437 114.19 273.992 114.005 274.432 113.707C274.887 113.407 275.211 112.989 275.404 112.452C275.596 111.901 275.651 111.246 275.57 110.488L274.561 101.059L277.514 100.743L278.521 110.15C278.671 111.55 278.517 112.731 278.06 113.695C277.602 114.658 276.924 115.417 276.024 115.97C275.139 116.522 274.135 116.858 273.012 116.979ZM280.434 115.919L279.254 104.894L281.858 104.615L282.268 106.385C282.538 105.737 282.959 105.191 283.531 104.746C284.117 104.3 284.841 104.03 285.701 103.938C286.62 103.84 287.413 103.947 288.081 104.259C288.749 104.571 289.282 105.074 289.681 105.769C290.094 106.462 290.358 107.341 290.472 108.406L291.153 114.772L288.222 115.085L287.571 109.004C287.477 108.129 287.216 107.479 286.787 107.052C286.372 106.625 285.779 106.452 285.006 106.535C284.51 106.588 284.078 106.752 283.709 107.028C283.355 107.302 283.092 107.669 282.92 108.13C282.746 108.576 282.692 109.106 282.758 109.718L283.387 115.603L280.434 115.919ZM292.47 114.631L291.29 103.606L294.243 103.29L295.423 114.315L292.47 114.631ZM292.616 101.937C292.091 101.993 291.637 101.887 291.254 101.618C290.884 101.333 290.674 100.95 290.622 100.469C290.571 99.9876 290.696 99.5759 290.999 99.2338C291.315 98.8755 291.735 98.6683 292.26 98.6121C292.799 98.5543 293.254 98.6679 293.624 98.9529C294.007 99.2217 294.224 99.5967 294.275 100.078C294.327 100.559 294.195 100.979 293.879 101.337C293.576 101.679 293.155 101.879 292.616 101.937ZM301.841 113.628C301.068 113.71 300.378 113.666 299.769 113.495C299.174 113.308 298.686 112.955 298.306 112.435C297.925 111.901 297.681 111.145 297.577 110.168L297.076 105.487L295.195 105.688L294.93 103.216L296.811 103.015L296.819 99.9827L299.444 99.7018L299.765 102.699L302.674 102.387L302.938 104.859L300.029 105.171L300.535 109.896C300.588 110.391 300.734 110.722 300.973 110.889C301.212 111.055 301.594 111.11 302.119 111.054L303.563 110.899L303.832 113.415L301.841 113.628ZM315.491 112.167L315.193 109.389L307.668 110.194L307.418 107.854L313.458 96.8966L316.805 96.5384L317.873 106.513L319.863 106.3L320.137 108.86L318.146 109.073L318.444 111.851L315.491 112.167ZM310.544 107.298L315.116 106.808L314.398 100.093L310.544 107.298ZM326.084 111.144C325.53 111.203 325.068 111.09 324.698 110.805C324.327 110.506 324.116 110.116 324.064 109.634C324.013 109.153 324.137 108.734 324.439 108.377C324.738 108.006 325.165 107.791 325.719 107.731C326.244 107.675 326.692 107.797 327.064 108.096C327.433 108.381 327.644 108.764 327.695 109.246C327.747 109.727 327.623 110.153 327.323 110.525C327.022 110.881 326.609 111.088 326.084 111.144ZM325.227 103.138C324.673 103.197 324.211 103.084 323.842 102.799C323.47 102.5 323.259 102.109 323.207 101.628C323.156 101.147 323.281 100.728 323.582 100.371C323.881 99.9997 324.308 99.7844 324.862 99.7251C325.387 99.6689 325.835 99.7906 326.207 100.09C326.576 100.375 326.787 100.758 326.839 101.239C326.89 101.721 326.766 102.147 326.467 102.518C326.165 102.875 325.752 103.081 325.227 103.138ZM332.444 110.353L330.805 95.0401L333.758 94.724L341.933 104.536L340.802 93.9702L343.755 93.6542L345.394 108.967L342.441 109.283L334.269 99.4928L335.397 110.037L332.444 110.353ZM352.018 108.523C350.968 108.636 349.994 108.497 349.097 108.106C348.212 107.699 347.476 107.092 346.888 106.284C346.313 105.461 345.966 104.488 345.846 103.365C345.722 102.213 345.855 101.181 346.245 100.269C346.647 99.3408 347.245 98.5908 348.039 98.0191C348.832 97.4327 349.753 97.0833 350.803 96.971C351.868 96.857 352.842 97.0035 353.727 97.4104C354.624 97.8011 355.36 98.4082 355.935 99.2317C356.523 100.039 356.878 101.012 357 102.149C357.121 103.287 356.981 104.319 356.579 105.247C356.19 106.159 355.599 106.908 354.806 107.495C354.012 108.067 353.082 108.409 352.018 108.523ZM351.744 105.964C352.24 105.911 352.665 105.747 353.019 105.474C353.388 105.198 353.656 104.808 353.823 104.303C354.005 103.797 354.057 103.187 353.981 102.472C353.904 101.758 353.725 101.179 353.441 100.738C353.171 100.28 352.827 99.9553 352.408 99.7641C352.002 99.5568 351.559 99.4789 351.077 99.5304C350.611 99.5803 350.194 99.7503 349.827 100.04C349.458 100.316 349.182 100.707 349.001 101.213C348.832 101.703 348.786 102.305 348.862 103.02C348.939 103.734 349.112 104.321 349.382 104.779C349.667 105.235 350.012 105.559 350.416 105.752C350.834 105.943 351.277 106.014 351.744 105.964ZM363.142 107.067C362.369 107.15 361.678 107.106 361.07 106.935C360.475 106.748 359.987 106.395 359.607 105.875C359.225 105.34 358.982 104.585 358.878 103.607L358.377 98.9262L356.495 99.1275L356.231 96.6556L358.112 96.4543L358.119 93.4223L360.744 93.1414L361.065 96.1383L363.975 95.8269L364.239 98.2988L361.33 98.6101L361.835 103.335C361.888 103.831 362.034 104.162 362.274 104.328C362.513 104.494 362.895 104.549 363.42 104.493L364.863 104.339L365.133 106.854L363.142 107.067ZM371.153 106.476C370.044 106.594 369.035 106.466 368.125 106.092C367.227 105.701 366.493 105.108 365.921 104.314C365.362 103.503 365.023 102.537 364.903 101.414C364.779 100.262 364.904 99.2233 365.277 98.2983C365.663 97.3572 366.253 96.5935 367.045 96.0071C367.837 95.4062 368.794 95.0456 369.917 94.9255C371.01 94.8084 371.991 94.9468 372.86 95.3407C373.728 95.7345 374.432 96.3156 374.971 97.0839C375.511 97.8522 375.836 98.754 375.946 99.7894C375.962 99.9353 375.98 100.103 376 100.293C376.019 100.468 376.024 100.651 376.015 100.844L367.068 101.802L366.876 100.008L372.892 99.3641C372.772 98.6542 372.456 98.12 371.946 97.7616C371.45 97.4017 370.86 97.2584 370.174 97.3317C369.678 97.3848 369.231 97.5506 368.833 97.8292C368.434 98.0932 368.135 98.4718 367.937 98.965C367.754 99.4567 367.7 100.06 367.777 100.774L367.845 101.409C367.909 102.007 368.074 102.52 368.341 102.949C368.622 103.361 368.979 103.67 369.414 103.874C369.847 104.063 370.334 104.129 370.873 104.072C371.413 104.014 371.845 103.85 372.17 103.579C372.51 103.306 372.748 102.979 372.884 102.595L375.902 102.272C375.772 102.979 375.495 103.636 375.073 104.242C374.651 104.847 374.108 105.348 373.442 105.744C372.776 106.14 372.013 106.383 371.153 106.476ZM381.993 105.315C380.987 105.423 380.095 105.356 379.317 105.115C378.539 104.874 377.908 104.491 377.424 103.968C376.94 103.444 376.631 102.829 376.496 102.12L379.427 101.806C379.53 102.076 379.681 102.318 379.881 102.532C380.079 102.732 380.332 102.882 380.637 102.982C380.943 103.082 381.3 103.111 381.708 103.067C382.102 103.025 382.417 102.939 382.654 102.811C382.89 102.668 383.056 102.495 383.152 102.293C383.263 102.089 383.308 101.885 383.286 101.681C383.253 101.375 383.141 101.151 382.948 101.009C382.755 100.853 382.485 100.742 382.138 100.676C381.792 100.609 381.373 100.551 380.881 100.5C380.345 100.455 379.814 100.386 379.288 100.295C378.775 100.187 378.309 100.038 377.89 99.8469C377.471 99.6557 377.126 99.3903 376.853 99.0507C376.581 98.7111 376.416 98.2715 376.358 97.7319C376.288 97.0757 376.401 96.4736 376.696 95.9257C376.99 95.3633 377.456 94.893 378.094 94.515C378.732 94.1369 379.525 93.8972 380.473 93.7957C381.8 93.6537 382.882 93.8403 383.719 94.3555C384.556 94.8707 385.103 95.6455 385.361 96.6799L382.583 96.9772C382.46 96.6512 382.235 96.4097 381.908 96.2529C381.595 96.08 381.19 96.02 380.694 96.0731C380.169 96.1293 379.778 96.267 379.522 96.4862C379.265 96.7055 379.153 96.9682 379.186 97.2745C379.207 97.4786 379.314 97.6516 379.507 97.7933C379.713 97.9334 379.991 98.0438 380.339 98.1246C380.685 98.1908 381.104 98.2492 381.596 98.2997C382.461 98.3842 383.227 98.5088 383.893 98.6735C384.558 98.8235 385.096 99.0905 385.506 99.4744C385.914 99.8437 386.16 100.422 386.244 101.21C386.319 101.91 386.197 102.557 385.877 103.152C385.556 103.732 385.061 104.213 384.394 104.594C383.741 104.973 382.941 105.214 381.993 105.315Z" fill="#7E8BB4"/>
<path d="M193 173.46L337.388 158.007" stroke="#727FA7" stroke-width="7"/>
<path d="M194.292 185.491L389.342 164.617" stroke="#727FA7" stroke-width="7"/>
<path d="M200.905 260.055L390.889 239.722" stroke="#727FA7" stroke-width="7"/>
<path d="M203.075 280.319L524.781 245.89" stroke="#727FA7" stroke-width="7"/>
<path d="M205.244 300.584L509.218 268.052" stroke="#727FA7" stroke-width="7"/>
<path d="M207.414 320.85L541.786 285.065" stroke="#727FA7" stroke-width="7"/>
<path d="M209.581 341.114L561.685 303.432" stroke="#727FA7" stroke-width="7"/>
<path d="M211.75 361.379L551.188 325.052" stroke="#727FA7" stroke-width="7"/>
<path d="M213.919 381.644L512.827 349.654" stroke="#727FA7" stroke-width="7"/>
<path d="M216.089 401.909L317.414 391.065" stroke="#727FA7" stroke-width="7"/>
<path d="M218.256 422.174L577.959 383.678" stroke="#727FA7" stroke-width="7"/>
<path d="M220.425 442.438L471.204 415.6" stroke="#727FA7" stroke-width="7"/>
<path d="M222.595 462.704L513.903 431.528" stroke="#727FA7" stroke-width="7"/>
</g>
<g filter="url(#filter2_d_2445_53)">
<path d="M327.93 88.5945C328.129 85.2655 331.005 82.7381 334.332 82.9679L609.143 101.944L691.03 182.143L763.433 252.84L736.115 708.409C735.917 711.716 733.075 714.237 729.767 714.039L297.989 688.148C294.681 687.949 292.161 685.107 292.359 681.799L327.93 88.5945Z" fill="url(#paint2_linear_2445_53)"/>
<path d="M598.043 244.473L606.771 98.9127C606.822 98.0538 607.863 97.6566 608.473 98.2626L765.212 253.745C765.866 254.395 765.368 255.509 764.447 255.453L598.981 245.531C598.43 245.498 598.01 245.025 598.043 244.473Z" fill="#488CF1"/>
<path d="M363.813 140.141C362.276 140.049 360.971 139.64 359.897 138.914C358.84 138.175 358.046 137.194 357.517 135.973C357.004 134.737 356.794 133.336 356.888 131.769C356.982 130.203 357.357 128.837 358.015 127.671C358.687 126.507 359.593 125.621 360.731 125.013C361.884 124.407 363.229 124.149 364.766 124.241C366.626 124.353 368.121 124.905 369.251 125.899C370.382 126.892 371.043 128.24 371.235 129.941L368.007 129.747C367.865 128.916 367.501 128.255 366.913 127.764C366.341 127.26 365.565 126.978 364.584 126.919C363.676 126.865 362.88 127.038 362.194 127.437C361.525 127.823 360.991 128.401 360.592 129.17C360.194 129.925 359.962 130.852 359.896 131.95C359.831 133.033 359.951 133.981 360.255 134.792C360.559 135.604 361.02 136.241 361.639 136.705C362.272 137.169 363.043 137.428 363.95 137.482C364.931 137.541 365.735 137.376 366.36 136.988C366.987 136.584 367.419 136.001 367.655 135.236L370.906 135.431C370.517 137.009 369.703 138.217 368.462 139.053C367.222 139.89 365.672 140.252 363.813 140.141ZM371.543 140.34L372.491 124.528L375.456 124.706L375.073 131.097C375.474 130.533 375.985 130.101 376.605 129.8C377.241 129.486 377.962 129.352 378.767 129.401C379.689 129.456 380.453 129.7 381.059 130.133C381.666 130.552 382.108 131.136 382.386 131.888C382.665 132.639 382.771 133.557 382.706 134.64L382.326 140.987L379.383 140.81L379.748 134.727C379.8 133.849 379.658 133.164 379.32 132.674C378.983 132.169 378.419 131.892 377.629 131.845C377.145 131.816 376.699 131.907 376.29 132.117C375.88 132.328 375.545 132.653 375.284 133.093C375.038 133.519 374.896 134.039 374.859 134.654L374.508 140.518L371.543 140.34ZM388.88 141.644C387.767 141.577 386.793 141.284 385.957 140.763C385.137 140.229 384.511 139.523 384.079 138.645C383.662 137.753 383.487 136.744 383.555 135.616C383.624 134.46 383.92 133.456 384.441 132.606C384.977 131.742 385.685 131.087 386.564 130.64C387.444 130.178 388.448 129.981 389.575 130.049C390.673 130.115 391.618 130.414 392.408 130.946C393.199 131.478 393.797 132.168 394.202 133.015C394.607 133.862 394.778 134.805 394.715 135.845C394.707 135.991 394.696 136.16 394.685 136.35C394.675 136.526 394.649 136.708 394.608 136.896L385.626 136.358L385.734 134.557L391.773 134.919C391.773 134.199 391.55 133.62 391.106 133.182C390.677 132.745 390.118 132.506 389.43 132.464C388.932 132.435 388.464 132.524 388.026 132.733C387.588 132.927 387.231 133.251 386.954 133.704C386.691 134.159 386.539 134.745 386.496 135.462L386.457 136.099C386.421 136.699 386.5 137.233 386.692 137.7C386.9 138.153 387.201 138.517 387.596 138.79C387.992 139.049 388.461 139.195 389.003 139.227C389.544 139.259 389.998 139.169 390.363 138.956C390.743 138.744 391.032 138.46 391.23 138.104L394.26 138.286C394.014 138.962 393.633 139.563 393.116 140.091C392.6 140.618 391.981 141.022 391.259 141.302C390.536 141.582 389.744 141.696 388.88 141.644ZM395.255 141.762L395.918 130.694L398.532 130.85L398.685 132.336C399.068 131.83 399.554 131.441 400.143 131.167C400.748 130.88 401.424 130.759 402.171 130.804C402.727 130.837 403.221 130.941 403.651 131.113C404.081 131.286 404.457 131.522 404.777 131.82C405.111 132.119 405.376 132.488 405.57 132.925C406.016 132.35 406.578 131.913 407.257 131.616C407.936 131.319 408.664 131.193 409.44 131.24C410.406 131.298 411.199 131.544 411.82 131.978C412.441 132.397 412.891 132.982 413.169 133.734C413.462 134.486 413.576 135.396 413.512 136.465L413.13 142.834L410.188 142.657L410.554 136.552C410.606 135.674 410.471 134.99 410.148 134.5C409.839 134.012 409.326 133.746 408.609 133.703C408.14 133.675 407.716 133.767 407.336 133.979C406.956 134.191 406.65 134.511 406.419 134.938C406.202 135.366 406.076 135.887 406.039 136.502L405.686 142.387L402.721 142.209L403.087 136.104C403.14 135.226 403.005 134.542 402.681 134.052C402.358 133.563 401.83 133.296 401.098 133.252C400.645 133.225 400.228 133.318 399.847 133.53C399.482 133.743 399.184 134.063 398.952 134.49C398.736 134.918 398.609 135.439 398.572 136.054L398.219 141.94L395.255 141.762ZM414.457 142.913L415.121 131.845L418.085 132.023L417.422 143.091L414.457 142.913ZM416.705 130.419C416.178 130.388 415.748 130.208 415.415 129.879C415.097 129.537 414.953 129.124 414.982 128.641C415.011 128.158 415.203 127.773 415.558 127.485C415.929 127.184 416.378 127.05 416.905 127.081C417.447 127.114 417.876 127.301 418.194 127.643C418.527 127.972 418.679 128.378 418.65 128.861C418.621 129.344 418.421 129.736 418.05 130.037C417.695 130.324 417.247 130.452 416.705 130.419ZM423.388 143.713C422.378 143.653 421.509 143.439 420.782 143.072C420.055 142.705 419.496 142.224 419.105 141.627C418.715 141.031 418.512 140.372 418.497 139.651L421.439 139.828C421.496 140.11 421.605 140.374 421.767 140.619C421.929 140.849 422.153 141.038 422.438 141.188C422.723 141.337 423.07 141.424 423.48 141.449C423.875 141.472 424.2 141.44 424.455 141.353C424.711 141.251 424.904 141.108 425.032 140.925C425.175 140.742 425.253 140.549 425.265 140.344C425.284 140.036 425.21 139.797 425.044 139.625C424.879 139.439 424.631 139.284 424.3 139.162C423.97 139.039 423.566 138.912 423.089 138.78C422.568 138.646 422.056 138.491 421.552 138.314C421.064 138.123 420.629 137.898 420.248 137.64C419.867 137.382 419.57 137.063 419.358 136.683C419.145 136.303 419.056 135.842 419.088 135.301C419.128 134.642 419.338 134.067 419.72 133.576C420.103 133.07 420.641 132.683 421.333 132.416C422.025 132.149 422.846 132.044 423.798 132.101C425.13 132.181 426.166 132.544 426.906 133.191C427.646 133.838 428.058 134.693 428.141 135.755L425.352 135.588C425.284 135.246 425.103 134.971 424.807 134.762C424.526 134.54 424.137 134.413 423.639 134.384C423.112 134.352 422.704 134.423 422.414 134.597C422.125 134.77 421.971 135.011 421.952 135.318C421.94 135.523 422.017 135.711 422.183 135.883C422.363 136.055 422.619 136.21 422.948 136.348C423.279 136.47 423.683 136.597 424.16 136.729C424.998 136.955 425.733 137.205 426.363 137.478C426.994 137.736 427.48 138.089 427.82 138.535C428.162 138.967 428.309 139.578 428.261 140.369C428.219 141.072 427.991 141.69 427.577 142.223C427.164 142.742 426.597 143.134 425.875 143.4C425.169 143.666 424.34 143.77 423.388 143.713ZM433.673 144.065C432.897 144.019 432.223 143.861 431.652 143.592C431.096 143.308 430.673 142.879 430.384 142.303C430.097 141.713 429.982 140.928 430.041 139.947L430.323 135.247L428.434 135.134L428.583 132.652L430.471 132.766L430.981 129.777L433.617 129.935L433.436 132.943L436.357 133.118L436.208 135.6L433.287 135.425L433.003 140.168C432.973 140.666 433.062 141.017 433.27 141.22C433.479 141.424 433.846 141.541 434.373 141.573L435.823 141.66L435.671 144.185L433.673 144.065ZM436.651 144.244L437.315 133.176L439.95 133.334L440.113 135.393C440.406 134.926 440.76 134.536 441.175 134.223C441.605 133.911 442.082 133.675 442.606 133.515C443.144 133.357 443.728 133.296 444.358 133.334L444.17 136.474L443.159 136.414C442.72 136.387 442.307 136.414 441.92 136.494C441.548 136.574 441.216 136.723 440.924 136.941C440.633 137.144 440.402 137.438 440.232 137.825C440.062 138.211 439.959 138.705 439.923 139.305L439.616 144.422L436.651 144.244ZM445.215 149.606L448.258 143.706L447.599 143.666L443.753 133.562L446.981 133.756L449.716 141.082L452.999 134.116L456.139 134.305L448.356 149.795L445.215 149.606ZM465.449 146.235C464.321 146.168 463.31 145.879 462.415 145.37C461.52 144.861 460.829 144.136 460.341 143.196C459.854 142.256 459.653 141.083 459.737 139.678L460.303 130.235L463.268 130.412L462.7 139.877C462.654 140.639 462.74 141.29 462.958 141.832C463.176 142.36 463.512 142.762 463.965 143.039C464.433 143.317 464.997 143.475 465.656 143.515C466.329 143.555 466.908 143.465 467.391 143.244C467.889 143.024 468.278 142.666 468.558 142.168C468.838 141.656 469.001 141.019 469.047 140.258L469.614 130.793L472.579 130.971L472.013 140.414C471.928 141.819 471.581 142.959 470.97 143.834C470.359 144.708 469.565 145.343 468.586 145.74C467.622 146.138 466.576 146.303 465.449 146.235ZM472.943 146.42L473.607 135.352L476.22 135.509L476.332 137.323C476.706 136.728 477.211 136.259 477.849 135.915C478.501 135.572 479.259 135.427 480.123 135.478C481.046 135.534 481.81 135.771 482.417 136.189C483.024 136.607 483.466 137.192 483.744 137.944C484.037 138.696 484.151 139.606 484.087 140.675L483.704 147.066L480.761 146.889L481.127 140.784C481.18 139.906 481.03 139.221 480.678 138.729C480.34 138.239 479.783 137.97 479.007 137.924C478.509 137.894 478.056 137.984 477.646 138.195C477.251 138.406 476.931 138.725 476.685 139.151C476.44 139.563 476.299 140.076 476.262 140.691L475.908 146.598L472.943 146.42ZM485.026 147.145L485.69 136.077L488.654 136.254L487.991 147.323L485.026 147.145ZM487.274 134.651C486.747 134.619 486.317 134.439 485.984 134.111C485.666 133.768 485.522 133.356 485.551 132.873C485.58 132.389 485.772 132.004 486.127 131.717C486.498 131.416 486.947 131.281 487.474 131.313C488.016 131.345 488.445 131.533 488.763 131.875C489.095 132.204 489.247 132.609 489.218 133.093C489.19 133.576 488.99 133.968 488.619 134.269C488.264 134.556 487.815 134.683 487.274 134.651ZM494.434 147.709C493.658 147.662 492.984 147.504 492.413 147.235C491.857 146.952 491.434 146.523 491.146 145.947C490.858 145.357 490.743 144.571 490.802 143.59L491.084 138.891L489.195 138.777L489.344 136.296L491.233 136.409L491.743 133.42L494.378 133.578L494.197 136.587L497.118 136.762L496.969 139.243L494.049 139.068L493.764 143.812C493.734 144.31 493.823 144.66 494.032 144.864C494.24 145.067 494.607 145.185 495.135 145.216L496.584 145.303L496.432 147.829L494.434 147.709ZM508.137 148.531L508.304 145.742L500.75 145.289L500.89 142.939L508.663 133.134L512.023 133.336L511.423 143.35L513.421 143.47L513.267 146.039L511.269 145.919L511.101 148.708L508.137 148.531ZM504.066 142.909L508.656 143.184L509.06 136.442L504.066 142.909ZM518.753 149.277C518.197 149.244 517.76 149.056 517.443 148.714C517.126 148.357 516.982 147.937 517.011 147.454C517.04 146.971 517.233 146.578 517.589 146.276C517.946 145.96 518.403 145.818 518.959 145.852C519.486 145.883 519.908 146.077 520.224 146.434C520.542 146.777 520.686 147.189 520.657 147.672C520.628 148.156 520.435 148.555 520.078 148.872C519.722 149.174 519.28 149.309 518.753 149.277ZM519.235 141.24C518.679 141.206 518.242 141.019 517.925 140.676C517.608 140.319 517.464 139.899 517.493 139.416C517.522 138.933 517.715 138.541 518.071 138.239C518.428 137.922 518.884 137.781 519.441 137.814C519.968 137.846 520.39 138.04 520.706 138.397C521.024 138.739 521.168 139.152 521.139 139.635C521.11 140.118 520.917 140.518 520.56 140.834C520.204 141.136 519.762 141.271 519.235 141.24ZM365.723 163.032L366.501 150.054L361.999 149.784L362.143 147.39L374.067 148.105L373.924 150.499L369.444 150.23L368.666 163.209L365.723 163.032ZM376.881 163.966C375.827 163.903 374.89 163.604 374.07 163.07C373.265 162.522 372.64 161.801 372.194 160.908C371.764 160 371.582 158.983 371.65 157.856C371.719 156.699 372.021 155.703 372.556 154.869C373.107 154.02 373.821 153.38 374.699 152.947C375.578 152.501 376.545 152.309 377.599 152.372C378.667 152.436 379.604 152.742 380.409 153.29C381.229 153.824 381.854 154.545 382.285 155.452C382.731 156.346 382.919 157.363 382.851 158.505C382.783 159.647 382.473 160.643 381.923 161.491C381.388 162.326 380.681 162.967 379.802 163.414C378.924 163.846 377.95 164.03 376.881 163.966ZM377.036 161.396C377.533 161.426 377.98 161.336 378.374 161.124C378.784 160.914 379.113 160.573 379.361 160.103C379.624 159.634 379.777 159.041 379.82 158.324C379.863 157.606 379.782 157.006 379.576 156.524C379.385 156.027 379.099 155.65 378.718 155.392C378.352 155.121 377.928 154.97 377.445 154.941C376.976 154.913 376.537 155.012 376.127 155.237C375.717 155.448 375.381 155.787 375.118 156.256C374.87 156.712 374.725 157.298 374.682 158.015C374.639 158.733 374.712 159.34 374.903 159.836C375.108 160.333 375.394 160.71 375.761 160.967C376.142 161.225 376.567 161.368 377.036 161.396ZM383.247 168.932L384.201 153.032L386.836 153.19L387.073 154.747C387.327 154.439 387.623 154.163 387.96 153.919C388.299 153.66 388.693 153.463 389.142 153.329C389.606 153.18 390.139 153.124 390.739 153.16C391.778 153.222 392.678 153.533 393.438 154.093C394.198 154.653 394.778 155.386 395.179 156.291C395.596 157.183 395.771 158.185 395.704 159.298C395.638 160.411 395.344 161.392 394.823 162.243C394.302 163.078 393.632 163.721 392.811 164.172C391.991 164.622 391.076 164.817 390.066 164.756C389.246 164.707 388.544 164.518 387.962 164.189C387.395 163.847 386.936 163.401 386.587 162.851L386.212 169.11L383.247 168.932ZM389.518 162.123C390.104 162.158 390.624 162.057 391.079 161.82C391.549 161.583 391.923 161.231 392.2 160.763C392.478 160.295 392.636 159.746 392.674 159.116C392.712 158.487 392.62 157.923 392.401 157.425C392.182 156.912 391.853 156.511 391.415 156.22C390.992 155.915 390.488 155.746 389.903 155.71C389.332 155.676 388.811 155.785 388.34 156.036C387.885 156.273 387.512 156.625 387.219 157.092C386.941 157.56 386.784 158.109 386.746 158.739C386.708 159.368 386.799 159.94 387.018 160.452C387.252 160.951 387.581 161.346 388.005 161.635C388.443 161.926 388.947 162.089 389.518 162.123ZM396.456 164.875L397.12 153.807L400.084 153.985L399.421 165.053L396.456 164.875ZM398.704 152.381C398.177 152.35 397.747 152.17 397.414 151.841C397.096 151.499 396.952 151.086 396.981 150.603C397.01 150.12 397.202 149.735 397.557 149.447C397.928 149.146 398.377 149.012 398.904 149.043C399.446 149.076 399.875 149.263 400.193 149.605C400.526 149.934 400.677 150.34 400.649 150.823C400.62 151.306 400.42 151.698 400.049 151.999C399.694 152.286 399.245 152.414 398.704 152.381ZM406.222 165.725C405.109 165.658 404.136 165.35 403.302 164.801C402.468 164.251 401.835 163.53 401.404 162.637C400.972 161.745 400.79 160.742 400.857 159.629C400.925 158.487 401.227 157.499 401.762 156.664C402.298 155.815 403.013 155.167 403.906 154.721C404.801 154.26 405.804 154.063 406.917 154.13C408.337 154.215 409.508 154.66 410.429 155.465C411.351 156.269 411.904 157.331 412.09 158.65L408.949 158.461C408.848 157.941 408.594 157.522 408.187 157.204C407.795 156.886 407.313 156.71 406.742 156.676C406.23 156.645 405.761 156.749 405.335 156.988C404.925 157.214 404.588 157.568 404.324 158.052C404.075 158.522 403.93 159.093 403.89 159.767C403.859 160.279 403.898 160.744 404.005 161.162C404.113 161.565 404.275 161.921 404.492 162.227C404.709 162.52 404.975 162.749 405.288 162.914C405.616 163.081 405.97 163.176 406.351 163.198C406.732 163.221 407.08 163.176 407.395 163.063C407.725 162.95 408.007 162.783 408.241 162.562C408.475 162.327 408.647 162.036 408.756 161.69L411.896 161.878C411.556 163.136 410.873 164.116 409.846 164.819C408.835 165.507 407.627 165.809 406.222 165.725ZM426.95 169.128L421.878 159.986L425.282 160.19L430.486 169.34L426.95 169.128ZM423.456 166.759C421.962 166.669 420.665 166.253 419.563 165.511C418.462 164.769 417.624 163.786 417.051 162.562C416.479 161.323 416.24 159.92 416.334 158.353C416.428 156.787 416.833 155.43 417.548 154.283C418.264 153.121 419.213 152.237 420.396 151.632C421.578 151.027 422.916 150.77 424.409 150.859C425.917 150.95 427.222 151.366 428.323 152.108C429.425 152.85 430.254 153.84 430.812 155.078C431.385 156.302 431.625 157.698 431.531 159.264C431.437 160.831 431.032 162.195 430.316 163.357C429.615 164.505 428.673 165.382 427.491 165.987C426.309 166.592 424.964 166.849 423.456 166.759ZM423.615 164.101C424.552 164.158 425.37 163.994 426.069 163.609C426.783 163.211 427.355 162.629 427.783 161.861C428.211 161.093 428.457 160.167 428.522 159.084C428.588 157.986 428.454 157.038 428.12 156.239C427.786 155.425 427.289 154.786 426.626 154.32C425.978 153.855 425.185 153.595 424.248 153.538C423.326 153.483 422.508 153.647 421.795 154.03C421.081 154.414 420.51 154.989 420.082 155.757C419.655 156.51 419.408 157.436 419.343 158.534C419.278 159.617 419.412 160.565 419.745 161.379C420.078 162.192 420.576 162.839 421.238 163.32C421.9 163.785 422.693 164.046 423.615 164.101ZM436.109 167.517C435.216 167.464 434.458 167.235 433.836 166.83C433.229 166.412 432.779 165.834 432.485 165.096C432.193 164.344 432.078 163.433 432.142 162.365L432.528 155.93L435.493 156.108L435.125 162.235C435.072 163.128 435.214 163.812 435.553 164.288C435.907 164.765 436.471 165.027 437.247 165.073C437.745 165.103 438.191 165.019 438.585 164.823C438.979 164.611 439.299 164.3 439.544 163.888C439.805 163.463 439.954 162.936 439.992 162.306L440.346 156.399L443.289 156.575L442.625 167.644L440.034 167.488L439.9 165.673C439.54 166.283 439.034 166.76 438.382 167.103C437.73 167.431 436.973 167.569 436.109 167.517ZM449.29 168.308C448.177 168.241 447.203 167.947 446.367 167.427C445.547 166.893 444.921 166.187 444.489 165.309C444.072 164.417 443.898 163.407 443.965 162.28C444.034 161.124 444.33 160.12 444.851 159.27C445.388 158.406 446.095 157.75 446.974 157.303C447.854 156.842 448.858 156.645 449.985 156.713C451.083 156.778 452.028 157.077 452.819 157.61C453.609 158.142 454.207 158.832 454.612 159.679C455.017 160.526 455.188 161.469 455.125 162.509C455.117 162.655 455.107 162.823 455.095 163.014C455.085 163.189 455.059 163.371 455.018 163.56L446.036 163.021L446.144 161.221L452.184 161.583C452.183 160.863 451.96 160.284 451.516 159.846C451.087 159.409 450.528 159.169 449.84 159.128C449.343 159.098 448.874 159.188 448.436 159.397C447.998 159.591 447.641 159.915 447.364 160.368C447.101 160.823 446.949 161.409 446.906 162.126L446.867 162.763C446.831 163.363 446.91 163.897 447.102 164.364C447.31 164.817 447.611 165.18 448.006 165.454C448.402 165.713 448.871 165.858 449.413 165.891C449.954 165.923 450.408 165.833 450.773 165.62C451.153 165.407 451.442 165.123 451.64 164.768L454.671 164.95C454.424 165.626 454.043 166.227 453.526 166.754C453.01 167.282 452.391 167.686 451.669 167.965C450.947 168.245 450.154 168.359 449.29 168.308ZM460.173 168.96C459.163 168.9 458.294 168.686 457.566 168.319C456.839 167.952 456.28 167.471 455.89 166.874C455.5 166.278 455.297 165.619 455.281 164.898L458.224 165.075C458.28 165.357 458.389 165.621 458.551 165.866C458.714 166.096 458.937 166.286 459.222 166.435C459.507 166.584 459.854 166.671 460.264 166.696C460.66 166.719 460.985 166.687 461.24 166.6C461.496 166.498 461.688 166.355 461.817 166.172C461.96 165.989 462.037 165.796 462.05 165.591C462.068 165.283 461.994 165.044 461.828 164.872C461.663 164.686 461.415 164.531 461.085 164.409C460.754 164.286 460.35 164.159 459.873 164.028C459.353 163.893 458.84 163.738 458.337 163.561C457.849 163.37 457.414 163.145 457.033 162.887C456.651 162.629 456.355 162.31 456.142 161.93C455.93 161.55 455.84 161.089 455.873 160.548C455.912 159.889 456.123 159.314 456.505 158.823C456.888 158.317 457.425 157.93 458.117 157.663C458.809 157.396 459.631 157.291 460.583 157.348C461.915 157.428 462.951 157.791 463.691 158.438C464.431 159.085 464.842 159.94 464.926 161.002L462.137 160.835C462.069 160.493 461.887 160.218 461.591 160.009C461.311 159.787 460.921 159.66 460.424 159.631C459.897 159.599 459.488 159.67 459.199 159.844C458.909 160.017 458.755 160.258 458.737 160.565C458.724 160.77 458.801 160.958 458.967 161.13C459.148 161.303 459.403 161.457 459.733 161.595C460.063 161.717 460.467 161.844 460.944 161.976C461.783 162.203 462.517 162.452 463.147 162.725C463.778 162.983 464.264 163.336 464.605 163.782C464.946 164.214 465.093 164.825 465.046 165.616C465.003 166.319 464.775 166.937 464.361 167.47C463.948 167.989 463.381 168.381 462.66 168.647C461.953 168.913 461.124 169.017 460.173 168.96ZM470.457 169.312C469.681 169.266 469.008 169.108 468.436 168.839C467.88 168.556 467.458 168.126 467.169 167.551C466.881 166.96 466.767 166.175 466.825 165.194L467.107 160.494L465.219 160.381L465.367 157.899L467.256 158.013L467.766 155.024L470.401 155.182L470.221 158.19L473.141 158.366L472.993 160.847L470.072 160.672L469.787 165.415C469.758 165.913 469.847 166.264 470.055 166.467C470.263 166.671 470.631 166.788 471.158 166.82L472.607 166.907L472.456 169.432L470.457 169.312ZM473.501 169.495L474.165 158.427L477.13 158.605L476.466 169.673L473.501 169.495ZM475.749 157.001C475.222 156.97 474.792 156.79 474.459 156.461C474.142 156.119 473.998 155.706 474.027 155.223C474.056 154.74 474.248 154.355 474.603 154.067C474.974 153.766 475.422 153.632 475.949 153.663C476.491 153.696 476.921 153.883 477.238 154.225C477.571 154.554 477.723 154.96 477.694 155.443C477.665 155.926 477.465 156.318 477.095 156.619C476.739 156.906 476.291 157.034 475.749 157.001ZM483.135 170.337C482.081 170.274 481.144 169.975 480.324 169.441C479.519 168.893 478.894 168.173 478.448 167.279C478.018 166.372 477.836 165.354 477.904 164.227C477.973 163.07 478.275 162.075 478.81 161.24C479.361 160.391 480.075 159.751 480.953 159.319C481.832 158.872 482.799 158.68 483.853 158.743C484.921 158.807 485.858 159.113 486.663 159.661C487.483 160.195 488.108 160.916 488.539 161.823C488.985 162.717 489.173 163.735 489.105 164.877C489.036 166.019 488.727 167.014 488.177 167.862C487.642 168.697 486.935 169.338 486.056 169.785C485.178 170.217 484.204 170.401 483.135 170.337ZM483.289 167.768C483.787 167.798 484.233 167.707 484.628 167.495C485.038 167.285 485.366 166.945 485.615 166.475C485.878 166.006 486.031 165.412 486.074 164.695C486.117 163.978 486.036 163.378 485.83 162.895C485.639 162.399 485.353 162.022 484.972 161.764C484.606 161.492 484.182 161.342 483.699 161.313C483.23 161.285 482.791 161.383 482.381 161.608C481.971 161.819 481.635 162.159 481.372 162.628C481.124 163.083 480.979 163.669 480.936 164.387C480.893 165.104 480.966 165.711 481.157 166.207C481.362 166.705 481.648 167.082 482.015 167.339C482.396 167.597 482.821 167.74 483.289 167.768ZM489.791 170.472L490.455 159.404L493.068 159.56L493.18 161.374C493.553 160.78 494.059 160.31 494.697 159.967C495.349 159.624 496.107 159.478 496.971 159.53C497.893 159.585 498.658 159.822 499.264 160.241C499.871 160.659 500.314 161.244 500.592 161.995C500.885 162.747 500.999 163.658 500.935 164.727L500.552 171.117L497.609 170.941L497.975 164.836C498.028 163.957 497.878 163.272 497.525 162.781C497.187 162.291 496.63 162.022 495.854 161.976C495.357 161.946 494.903 162.036 494.494 162.247C494.099 162.458 493.779 162.777 493.533 163.203C493.288 163.614 493.147 164.127 493.11 164.742L492.756 170.65L489.791 170.472ZM506.316 171.727C505.305 171.667 504.437 171.453 503.709 171.086C502.982 170.719 502.423 170.237 502.033 169.641C501.642 169.045 501.44 168.386 501.424 167.665L504.367 167.842C504.423 168.124 504.532 168.388 504.694 168.633C504.856 168.863 505.08 169.052 505.365 169.202C505.65 169.351 505.997 169.438 506.407 169.463C506.803 169.486 507.128 169.454 507.383 169.367C507.639 169.265 507.831 169.122 507.959 168.939C508.103 168.756 508.18 168.562 508.193 168.357C508.211 168.05 508.137 167.811 507.971 167.639C507.806 167.453 507.558 167.298 507.228 167.176C506.897 167.053 506.493 166.926 506.016 166.794C505.495 166.66 504.983 166.505 504.48 166.328C503.991 166.137 503.557 165.912 503.175 165.654C502.794 165.396 502.497 165.077 502.285 164.697C502.073 164.317 501.983 163.856 502.015 163.315C502.055 162.656 502.266 162.081 502.648 161.589C503.031 161.083 503.568 160.697 504.26 160.43C504.952 160.163 505.774 160.058 506.725 160.115C508.058 160.195 509.094 160.558 509.834 161.205C510.574 161.852 510.985 162.706 511.068 163.769L508.279 163.602C508.212 163.26 508.03 162.985 507.734 162.776C507.453 162.553 507.064 162.427 506.567 162.397C506.039 162.366 505.631 162.437 505.342 162.611C505.052 162.784 504.898 163.025 504.88 163.332C504.867 163.537 504.944 163.725 505.11 163.897C505.291 164.069 505.546 164.224 505.876 164.362C506.206 164.484 506.61 164.611 507.087 164.743C507.926 164.969 508.66 165.219 509.29 165.492C509.921 165.75 510.407 166.103 510.748 166.549C511.089 166.981 511.236 167.592 511.189 168.383C511.146 169.086 510.918 169.704 510.504 170.237C510.091 170.756 509.524 171.148 508.803 171.413C508.096 171.68 507.267 171.784 506.316 171.727Z" fill="#7E8BB4"/>
<path d="M349.817 191.671L494.769 200.363" stroke="#727FA7" stroke-width="7"/>
<path d="M349.099 203.75L544.911 215.492" stroke="#727FA7" stroke-width="7"/>
<path d="M343.454 297.842L534.18 309.278" stroke="#727FA7" stroke-width="7"/>
<path d="M342.234 318.187L665.197 337.553" stroke="#727FA7" stroke-width="7"/>
<path d="M341.016 338.53L646.178 356.829" stroke="#727FA7" stroke-width="7"/>
<path d="M339.796 358.875L675.474 379.003" stroke="#727FA7" stroke-width="7"/>
<path d="M338.574 379.219L692.054 400.415" stroke="#727FA7" stroke-width="7"/>
<path d="M337.355 399.562L678.12 419.996" stroke="#727FA7" stroke-width="7"/>
<path d="M336.136 419.906L636.212 437.9" stroke="#727FA7" stroke-width="7"/>
<path d="M334.917 440.251L436.638 446.35" stroke="#727FA7" stroke-width="7"/>
<path d="M333.695 460.595L694.804 482.248" stroke="#727FA7" stroke-width="7"/>
<path d="M332.476 480.938L584.234 496.035" stroke="#727FA7" stroke-width="7"/>
<path d="M331.256 501.284L623.703 518.82" stroke="#727FA7" stroke-width="7"/>
</g>
<defs>
<filter id="filter0_d_2445_53" x="0.754492" y="62.7799" width="577.136" height="684.25" filterUnits="userSpaceOnUse" color-interpolation-filters="sRGB">
<feFlood flood-opacity="0" result="BackgroundImageFix"/>
<feColorMatrix in="SourceAlpha" type="matrix" values="0 0 0 0 0 0 0 0 0 0 0 0 0 0 0 0 0 0 127 0" result="hardAlpha"/>
<feOffset dx="-2" dy="5"/>
<feGaussianBlur stdDeviation="9.8"/>
<feComposite in2="hardAlpha" operator="out"/>
<feColorMatrix type="matrix" values="0 0 0 0 0 0 0 0 0 0 0 0 0 0 0 0 0 0 0.25 0"/>
<feBlend mode="normal" in2="BackgroundImageFix" result="effect1_dropShadow_2445_53"/>
<feBlend mode="normal" in="SourceGraphic" in2="effect1_dropShadow_2445_53" result="shape"/>
</filter>
<filter id="filter1_d_2445_53" x="129.281" y="4.52598" width="544.537" height="672.606" filterUnits="userSpaceOnUse" color-interpolation-filters="sRGB">
<feFlood flood-opacity="0" result="BackgroundImageFix"/>
<feColorMatrix in="SourceAlpha" type="matrix" values="0 0 0 0 0 0 0 0 0 0 0 0 0 0 0 0 0 0 127 0" result="hardAlpha"/>
<feOffset dx="-2" dy="5"/>
<feGaussianBlur stdDeviation="9.8"/>
<feComposite in2="hardAlpha" operator="out"/>
<feColorMatrix type="matrix" values="0 0 0 0 0 0 0 0 0 0 0 0 0 0 0 0 0 0 0.25 0"/>
<feBlend mode="normal" in2="BackgroundImageFix" result="effect1_dropShadow_2445_53"/>
<feBlend mode="normal" in="SourceGraphic" in2="effect1_dropShadow_2445_53" result="shape"/>
</filter>
<filter id="filter2_d_2445_53" x="270.748" y="68.3531" width="512.362" height="670.297" filterUnits="userSpaceOnUse" color-interpolation-filters="sRGB">
<feFlood flood-opacity="0" result="BackgroundImageFix"/>
<feColorMatrix in="SourceAlpha" type="matrix" values="0 0 0 0 0 0 0 0 0 0 0 0 0 0 0 0 0 0 127 0" result="hardAlpha"/>
<feOffset dx="-2" dy="5"/>
<feGaussianBlur stdDeviation="9.8"/>
<feComposite in2="hardAlpha" operator="out"/>
<feColorMatrix type="matrix" values="0 0 0 0 0 0 0 0 0 0 0 0 0 0 0 0 0 0 0.25 0"/>
<feBlend mode="normal" in2="BackgroundImageFix" result="effect1_dropShadow_2445_53"/>
<feBlend mode="normal" in="SourceGraphic" in2="effect1_dropShadow_2445_53" result="shape"/>
</filter>
<linearGradient id="paint0_linear_2445_53" x1="181.981" y1="173.255" x2="481.361" y2="595.674" gradientUnits="userSpaceOnUse">
<stop stop-color="#E3EAF4"/>
<stop offset="1" stop-color="#A3C6FF"/>
</linearGradient>
<linearGradient id="paint1_linear_2445_53" x1="307.587" y1="107.72" x2="580.402" y2="547.763" gradientUnits="userSpaceOnUse">
<stop stop-color="#E3EAF4"/>
<stop offset="1" stop-color="#A3C6FF"/>
</linearGradient>
<linearGradient id="paint2_linear_2445_53" x1="473.908" y1="165.295" x2="670.018" y2="644.468" gradientUnits="userSpaceOnUse">
<stop stop-color="#E3EAF4"/>
<stop offset="1" stop-color="#A3C6FF"/>
</linearGradient>
</defs>
</svg>
