<svg width="624" height="729" viewBox="0 0 624 729" fill="none" xmlns="http://www.w3.org/2000/svg">
<g filter="url(#filter0_d_2289_53)">
<path d="M22.4079 112.367C21.8621 109.077 24.1039 105.974 27.3986 105.458L299.546 62.835L397.22 122.812L483.534 175.635L558.228 625.867C558.77 629.136 556.56 632.226 553.291 632.768L126.57 703.562C123.301 704.104 120.211 701.894 119.669 698.625L22.4079 112.367Z" fill="url(#paint0_linear_2289_53)"/>
<path d="M320.426 204.263L296.56 60.4073C296.419 59.5585 297.345 58.94 298.075 59.3949L485.47 176.121C486.252 176.609 486.014 177.806 485.105 177.956L321.576 205.086C321.031 205.176 320.516 204.808 320.426 204.263Z" fill="#256ED9"/>
<path d="M64.9335 179.4L62.4131 164.207L68.0994 163.264C69.3292 163.06 70.3841 163.1 71.264 163.386C72.1438 163.671 72.8379 164.135 73.3462 164.78C73.8545 165.424 74.1842 166.202 74.3354 167.113C74.4747 167.952 74.415 168.758 74.1564 169.529C73.8979 170.3 73.4006 170.978 72.6648 171.561C71.9266 172.129 70.928 172.518 69.6692 172.727L66.9129 173.184L67.8635 178.914L64.9335 179.4ZM66.5204 170.818L69.1031 170.39C70.0436 170.234 70.6816 169.912 71.0171 169.425C71.3647 168.922 71.4797 168.315 71.3621 167.606C71.2373 166.854 70.9314 166.31 70.4446 165.975C69.9699 165.622 69.2623 165.524 68.3218 165.68L65.7391 166.109L66.5204 170.818ZM76.6806 177.451L74.0882 161.824L77.0181 161.338L78.0659 167.654C78.3316 167.015 78.7335 166.48 79.2715 166.049C79.8216 165.601 80.4945 165.311 81.2903 165.179C82.2019 165.028 83.0011 165.096 83.6881 165.383C84.3727 165.656 84.9341 166.128 85.3724 166.799C85.8108 167.469 86.1188 168.34 86.2964 169.411L87.337 175.683L84.4287 176.165L83.4314 170.153C83.2873 169.285 82.9961 168.65 82.5575 168.247C82.1166 167.829 81.5055 167.685 80.7241 167.815C80.2467 167.894 79.8318 168.082 79.4795 168.378C79.1273 168.675 78.8726 169.066 78.7155 169.553C78.5705 170.023 78.5484 170.562 78.6492 171.17L79.6106 176.965L76.6806 177.451ZM90.3773 180.085L92.0313 173.655L91.3802 173.763L85.3831 164.767L88.5735 164.238L92.8689 170.773L94.5202 163.252L97.6238 162.737L93.4809 179.57L90.3773 180.085ZM103.759 173.226C102.761 173.392 101.867 173.376 101.076 173.181C100.285 172.985 99.6331 172.639 99.1199 172.145C98.6067 171.65 98.2623 171.053 98.0868 170.354L100.995 169.871C101.113 170.134 101.278 170.367 101.49 170.57C101.7 170.758 101.96 170.893 102.271 170.975C102.582 171.057 102.94 171.065 103.345 170.998C103.736 170.933 104.046 170.829 104.275 170.687C104.502 170.531 104.657 170.349 104.742 170.142C104.841 169.932 104.874 169.726 104.84 169.523C104.79 169.219 104.664 169.002 104.464 168.872C104.262 168.727 103.986 168.632 103.636 168.586C103.287 168.539 102.865 168.505 102.371 168.483C101.833 168.468 101.299 168.431 100.768 168.37C100.25 168.292 99.7763 168.17 99.3472 168.004C98.9182 167.837 98.5579 167.592 98.2664 167.269C97.9749 166.945 97.7847 166.516 97.6959 165.981C97.5879 165.33 97.6655 164.722 97.9287 164.158C98.1895 163.579 98.6275 163.083 99.2427 162.669C99.8579 162.255 100.636 161.969 101.576 161.813C102.893 161.595 103.984 161.719 104.849 162.185C105.714 162.651 106.306 163.393 106.623 164.41L103.867 164.868C103.725 164.549 103.486 164.321 103.151 164.184C102.828 164.029 102.421 163.993 101.929 164.074C101.408 164.161 101.026 164.321 100.782 164.554C100.538 164.788 100.442 165.057 100.492 165.361C100.526 165.563 100.643 165.73 100.843 165.86C101.057 165.988 101.34 166.082 101.692 166.143C102.042 166.189 102.464 166.223 102.958 166.245C103.826 166.279 104.598 166.36 105.273 166.485C105.945 166.597 106.497 166.832 106.929 167.192C107.358 167.537 107.637 168.1 107.766 168.882C107.882 169.576 107.797 170.229 107.512 170.842C107.224 171.439 106.759 171.948 106.115 172.367C105.485 172.784 104.7 173.07 103.759 173.226ZM109.342 172.032L107.528 161.094L110.458 160.608L112.272 171.546L109.342 172.032ZM108.755 159.351C108.234 159.438 107.775 159.358 107.377 159.112C106.992 158.848 106.759 158.478 106.68 158.001C106.601 157.523 106.702 157.105 106.985 156.746C107.279 156.37 107.687 156.139 108.208 156.052C108.743 155.964 109.204 156.051 109.589 156.314C109.987 156.56 110.225 156.922 110.304 157.399C110.384 157.877 110.276 158.304 109.982 158.679C109.699 159.039 109.29 159.262 108.755 159.351ZM119.052 170.689C117.953 170.871 116.935 170.787 116 170.437C115.065 170.087 114.288 169.524 113.669 168.75C113.049 167.975 112.649 167.038 112.466 165.939C112.279 164.81 112.353 163.779 112.689 162.846C113.023 161.899 113.575 161.109 114.347 160.475C115.117 159.827 116.052 159.412 117.151 159.229C118.555 158.997 119.795 159.17 120.873 159.749C121.95 160.329 122.726 161.241 123.2 162.485L120.096 163C119.882 162.515 119.541 162.163 119.073 161.943C118.62 161.721 118.112 161.657 117.547 161.751C117.041 161.835 116.607 162.04 116.245 162.368C115.895 162.679 115.645 163.099 115.495 163.63C115.357 164.143 115.344 164.733 115.454 165.398C115.538 165.905 115.679 166.35 115.876 166.733C116.071 167.102 116.309 167.412 116.588 167.663C116.865 167.9 117.175 168.064 117.517 168.156C117.874 168.245 118.241 168.259 118.617 168.197C118.993 168.134 119.322 168.013 119.604 167.832C119.901 167.649 120.139 167.424 120.317 167.156C120.494 166.874 120.596 166.552 120.626 166.191L123.729 165.676C123.678 166.978 123.229 168.085 122.385 168.999C121.552 169.895 120.442 170.458 119.052 170.689ZM129.892 168.891C128.893 169.056 127.999 169.041 127.208 168.845C126.417 168.649 125.765 168.304 125.252 167.809C124.739 167.315 124.395 166.718 124.219 166.018L127.127 165.536C127.245 165.799 127.41 166.031 127.622 166.234C127.832 166.422 128.092 166.558 128.403 166.64C128.714 166.722 129.072 166.73 129.477 166.662C129.868 166.598 130.178 166.494 130.407 166.352C130.634 166.195 130.79 166.013 130.874 165.806C130.973 165.596 131.006 165.39 130.972 165.188C130.922 164.884 130.797 164.667 130.597 164.536C130.394 164.392 130.118 164.296 129.769 164.25C129.419 164.204 128.997 164.17 128.503 164.148C127.965 164.133 127.431 164.095 126.901 164.035C126.382 163.957 125.909 163.835 125.479 163.668C125.05 163.502 124.69 163.257 124.399 162.933C124.107 162.61 123.917 162.181 123.828 161.645C123.72 160.994 123.798 160.387 124.061 159.823C124.322 159.244 124.76 158.748 125.375 158.333C125.99 157.919 126.768 157.634 127.708 157.478C129.025 157.26 130.116 157.383 130.981 157.849C131.847 158.315 132.438 159.057 132.755 160.075L129.999 160.532C129.857 160.214 129.619 159.986 129.284 159.848C128.961 159.694 128.553 159.657 128.061 159.739C127.54 159.825 127.158 159.985 126.914 160.219C126.671 160.453 126.574 160.721 126.624 161.025C126.658 161.228 126.775 161.394 126.975 161.525C127.189 161.653 127.473 161.747 127.824 161.807C128.174 161.853 128.596 161.888 129.09 161.91C129.958 161.944 130.73 162.024 131.405 162.15C132.077 162.261 132.629 162.497 133.061 162.857C133.49 163.202 133.769 163.765 133.899 164.546C134.014 165.241 133.929 165.894 133.644 166.506C133.357 167.104 132.891 167.612 132.247 168.032C131.617 168.448 130.832 168.735 129.892 168.891ZM144.988 166.386C143.874 166.571 142.824 166.515 141.838 166.217C140.852 165.92 140.017 165.367 139.333 164.559C138.649 163.751 138.191 162.652 137.961 161.263L136.413 151.931L139.342 151.445L140.894 160.799C141.019 161.551 141.248 162.167 141.58 162.647C141.91 163.113 142.327 163.43 142.831 163.6C143.349 163.766 143.934 163.796 144.585 163.688C145.251 163.577 145.794 163.361 146.217 163.038C146.653 162.713 146.953 162.276 147.115 161.729C147.274 161.168 147.291 160.511 147.167 159.758L145.615 150.404L148.545 149.918L150.093 159.25C150.323 160.639 150.238 161.828 149.837 162.816C149.436 163.805 148.803 164.601 147.937 165.206C147.085 165.808 146.102 166.201 144.988 166.386ZM152.336 164.899L150.522 153.961L153.104 153.532L153.617 155.276C153.849 154.613 154.237 154.043 154.782 153.566C155.342 153.087 156.049 152.776 156.903 152.635C157.814 152.483 158.612 152.544 159.297 152.817C159.981 153.09 160.543 153.562 160.981 154.233C161.434 154.901 161.748 155.763 161.923 156.819L162.971 163.135L160.063 163.618L159.062 157.584C158.918 156.716 158.619 156.082 158.166 155.681C157.728 155.278 157.125 155.14 156.358 155.267C155.866 155.349 155.444 155.538 155.092 155.834C154.754 156.128 154.513 156.51 154.368 156.98C154.22 157.436 154.197 157.967 154.298 158.575L155.266 164.413L152.336 164.899ZM164.277 162.918L162.463 151.98L165.392 151.494L167.207 162.432L164.277 162.918ZM163.69 150.237C163.169 150.324 162.71 150.244 162.312 149.998C161.927 149.735 161.694 149.364 161.615 148.887C161.536 148.409 161.637 147.991 161.92 147.632C162.214 147.256 162.622 147.025 163.143 146.939C163.678 146.85 164.138 146.937 164.524 147.2C164.922 147.446 165.16 147.808 165.239 148.286C165.319 148.763 165.211 149.19 164.916 149.566C164.634 149.925 164.225 150.149 163.69 150.237ZM173.575 161.376C172.808 161.503 172.116 161.499 171.499 161.363C170.894 161.211 170.387 160.886 169.977 160.389C169.565 159.878 169.279 159.137 169.118 158.168L168.348 153.524L166.481 153.833L166.074 151.381L167.941 151.071L167.773 148.044L170.377 147.612L170.871 150.585L173.757 150.106L174.164 152.559L171.278 153.037L172.055 157.725C172.137 158.217 172.302 158.539 172.55 158.691C172.798 158.843 173.183 158.876 173.704 158.79L175.136 158.552L175.55 161.048L173.575 161.376ZM179.76 160.35L179.404 158.201C180.207 157.31 180.982 156.423 181.728 155.541C182.488 154.657 183.155 153.795 183.73 152.956C184.302 152.103 184.733 151.296 185.023 150.534C185.312 149.772 185.403 149.066 185.295 148.415C185.228 148.01 185.095 147.653 184.895 147.344C184.692 147.021 184.415 146.784 184.063 146.635C183.724 146.468 183.3 146.427 182.794 146.511C182.288 146.595 181.88 146.781 181.571 147.07C181.262 147.359 181.053 147.714 180.945 148.133C180.833 148.538 180.817 148.979 180.897 149.457L178.053 149.929C177.912 148.807 178.01 147.832 178.349 147.003C178.687 146.174 179.217 145.513 179.938 145.022C180.657 144.516 181.501 144.183 182.47 144.022C183.541 143.844 184.479 143.897 185.284 144.18C186.087 144.448 186.733 144.891 187.222 145.508C187.725 146.124 188.05 146.873 188.197 147.755C188.307 148.421 188.292 149.092 188.152 149.77C188.026 150.445 187.796 151.122 187.463 151.802C187.142 152.465 186.759 153.115 186.315 153.754C185.871 154.393 185.401 155.013 184.907 155.616C184.409 156.204 183.922 156.76 183.444 157.285L189.977 156.202L190.373 158.589L179.76 160.35ZM196.045 157.76C195.495 157.851 195.027 157.765 194.642 157.502C194.254 157.224 194.02 156.847 193.941 156.369C193.862 155.892 193.962 155.466 194.242 155.093C194.519 154.705 194.933 154.465 195.483 154.374C196.004 154.287 196.458 154.383 196.846 154.661C197.232 154.924 197.464 155.294 197.544 155.771C197.623 156.249 197.524 156.682 197.246 157.07C196.966 157.443 196.566 157.673 196.045 157.76ZM194.727 149.816C194.177 149.907 193.709 149.821 193.324 149.558C192.936 149.281 192.702 148.903 192.623 148.426C192.544 147.948 192.644 147.523 192.924 147.149C193.202 146.761 193.615 146.522 194.165 146.43C194.686 146.344 195.14 146.44 195.528 146.717C195.914 146.98 196.146 147.351 196.226 147.828C196.305 148.306 196.206 148.738 195.928 149.126C195.648 149.5 195.248 149.73 194.727 149.816ZM205.408 156.095L198.894 141.565L202.02 141.046L206.637 152.479L207.793 140.089L211.026 139.552L216.034 150.92L216.734 138.605L219.881 138.083L218.3 153.956L214.806 154.536L210.061 143.949L208.881 155.519L205.408 156.095ZM225.31 153.061C224.398 153.212 223.622 153.192 222.98 153.001C222.337 152.796 221.829 152.471 221.458 152.027C221.1 151.566 220.87 151.032 220.769 150.424C220.658 149.759 220.728 149.145 220.976 148.583C221.24 148.019 221.687 147.536 222.319 147.134C222.966 146.73 223.81 146.441 224.852 146.268L227.565 145.818C227.476 145.283 227.33 144.853 227.128 144.53C226.923 144.192 226.655 143.962 226.322 143.839C225.989 143.715 225.57 143.696 225.063 143.78C224.513 143.871 224.064 144.072 223.714 144.383C223.376 144.677 223.205 145.077 223.199 145.583L220.356 146.055C220.299 145.262 220.441 144.547 220.781 143.91C221.133 143.257 221.645 142.712 222.316 142.273C223.001 141.832 223.792 141.538 224.689 141.389C225.716 141.218 226.635 141.244 227.445 141.467C228.255 141.689 228.916 142.092 229.43 142.676C229.943 143.26 230.279 144.03 230.437 144.985L231.56 151.756L229.086 152.166L228.483 150.549C228.372 150.865 228.227 151.157 228.049 151.424C227.87 151.692 227.65 151.936 227.39 152.158C227.129 152.38 226.825 152.564 226.478 152.711C226.133 152.872 225.744 152.989 225.31 153.061ZM225.63 150.688C226.006 150.626 226.328 150.506 226.596 150.327C226.875 150.132 227.105 149.901 227.283 149.633C227.46 149.351 227.58 149.049 227.646 148.726C227.723 148.386 227.753 148.032 227.737 147.663L227.733 147.641L225.498 148.012C225.049 148.086 224.69 148.205 224.42 148.369C224.162 148.516 223.984 148.701 223.888 148.926C223.791 149.15 223.764 149.392 223.808 149.653C223.856 149.942 223.96 150.17 224.122 150.336C224.283 150.503 224.495 150.616 224.758 150.677C225.021 150.737 225.311 150.741 225.63 150.688ZM235.386 151.121L229.557 140.849L232.638 140.338L236.709 148.07L238.064 139.437L241.124 138.93L238.946 150.531L235.386 151.121ZM247.996 149.297C246.896 149.479 245.881 149.41 244.951 149.089C244.032 148.75 243.265 148.201 242.648 147.441C242.043 146.664 241.648 145.719 241.464 144.605C241.274 143.462 241.339 142.418 241.658 141.473C241.989 140.511 242.533 139.714 243.291 139.083C244.046 138.438 244.98 138.022 246.095 137.838C247.18 137.658 248.167 137.739 249.057 138.082C249.946 138.425 250.682 138.965 251.265 139.7C251.848 140.436 252.225 141.318 252.395 142.345C252.419 142.49 252.447 142.656 252.478 142.844C252.507 143.018 252.522 143.201 252.525 143.394L243.648 144.867L243.353 143.087L249.321 142.097C249.16 141.395 248.815 140.88 248.284 140.552C247.769 140.221 247.171 140.112 246.491 140.225C245.999 140.307 245.562 140.498 245.181 140.799C244.797 141.086 244.521 141.481 244.352 141.985C244.197 142.486 244.179 143.091 244.296 143.8L244.401 144.43C244.499 145.023 244.694 145.526 244.985 145.938C245.289 146.334 245.664 146.621 246.11 146.8C246.553 146.964 247.043 147.002 247.578 146.913C248.113 146.824 248.535 146.635 248.844 146.346C249.168 146.055 249.386 145.714 249.5 145.323L252.495 144.826C252.405 145.54 252.167 146.211 251.781 146.84C251.394 147.469 250.88 148.001 250.239 148.434C249.597 148.868 248.849 149.155 247.996 149.297ZM258.751 147.513C257.753 147.678 256.858 147.663 256.067 147.467C255.277 147.271 254.625 146.926 254.112 146.431C253.598 145.937 253.254 145.34 253.078 144.64L255.987 144.158C256.105 144.421 256.27 144.654 256.482 144.856C256.691 145.044 256.952 145.18 257.263 145.262C257.574 145.344 257.932 145.352 258.337 145.284C258.727 145.22 259.037 145.116 259.267 144.974C259.493 144.818 259.649 144.636 259.734 144.428C259.833 144.219 259.865 144.012 259.832 143.81C259.781 143.506 259.656 143.289 259.456 143.159C259.254 143.014 258.978 142.918 258.628 142.872C258.278 142.826 257.856 142.792 257.362 142.77C256.824 142.755 256.29 142.717 255.76 142.657C255.242 142.579 254.768 142.457 254.339 142.29C253.91 142.124 253.55 141.879 253.258 141.555C252.966 141.232 252.776 140.803 252.688 140.267C252.579 139.616 252.657 139.009 252.92 138.445C253.181 137.866 253.619 137.37 254.234 136.956C254.849 136.541 255.627 136.256 256.568 136.1C257.884 135.882 258.975 136.005 259.841 136.471C260.706 136.937 261.297 137.679 261.615 138.697L258.859 139.154C258.717 138.836 258.478 138.608 258.143 138.47C257.82 138.316 257.412 138.279 256.921 138.361C256.4 138.447 256.017 138.607 255.774 138.841C255.53 139.075 255.433 139.343 255.484 139.647C255.517 139.85 255.634 140.016 255.834 140.147C256.049 140.275 256.332 140.369 256.684 140.429C257.034 140.476 257.455 140.51 257.95 140.532C258.818 140.566 259.589 140.646 260.264 140.772C260.937 140.884 261.489 141.119 261.92 141.479C262.349 141.824 262.628 142.387 262.758 143.168C262.873 143.863 262.788 144.516 262.503 145.128C262.216 145.726 261.75 146.235 261.106 146.654C260.477 147.07 259.692 147.357 258.751 147.513Z" fill="#7E8BB4"/>
<path d="M66.6738 207.993L209.928 184.227" stroke="#727FA7" stroke-width="7"/>
<path d="M68.6592 219.93L262.178 187.825" stroke="#727FA7" stroke-width="7"/>
<path d="M84.084 312.921L272.576 281.65" stroke="#727FA7" stroke-width="7"/>
<path d="M87.4199 333.026L406.6 280.074" stroke="#727FA7" stroke-width="7"/>
<path d="M90.7568 353.132L392.345 303.099" stroke="#727FA7" stroke-width="7"/>
<path d="M94.0928 373.238L425.84 318.201" stroke="#727FA7" stroke-width="7"/>
<path d="M97.4268 393.344L446.766 335.388" stroke="#727FA7" stroke-width="7"/>
<path d="M100.763 413.45L437.536 357.579" stroke="#727FA7" stroke-width="7"/>
<path d="M104.099 433.555L400.66 384.355" stroke="#727FA7" stroke-width="7"/>
<path d="M107.436 453.661L207.965 436.983" stroke="#727FA7" stroke-width="7"/>
<path d="M110.769 473.767L467.648 414.56" stroke="#727FA7" stroke-width="7"/>
<path d="M114.105 493.873L362.916 452.595" stroke="#727FA7" stroke-width="7"/>
<path d="M117.441 513.979L406.463 466.03" stroke="#727FA7" stroke-width="7"/>
</g>
<g filter="url(#filter1_d_2289_53)">
<path d="M101.203 55.4267C100.855 52.11 103.277 49.1455 106.597 48.8269L380.803 22.5133L474.725 88.2093L557.734 146.087L605.439 599.973C605.786 603.269 603.395 606.221 600.1 606.567L169.916 651.782C166.62 652.128 163.668 649.737 163.321 646.442L101.203 55.4267Z" fill="url(#paint1_linear_2289_53)"/>
<path d="M393.208 164.935L377.966 19.9119C377.876 19.0562 378.837 18.4939 379.538 18.9916L559.637 146.688C560.389 147.221 560.08 148.402 559.163 148.498L394.307 165.825C393.758 165.883 393.266 165.484 393.208 164.935Z" fill="#256ED9"/>
<path d="M144.398 124.378L142.788 109.062L149.067 108.402C150.132 108.29 151.047 108.363 151.812 108.622C152.576 108.881 153.172 109.29 153.6 109.85C154.04 110.394 154.301 111.052 154.382 111.825C154.464 112.598 154.364 113.265 154.084 113.825C153.804 114.386 153.402 114.841 152.878 115.191C152.367 115.525 151.786 115.748 151.134 115.861L151.459 115.583C152.162 115.539 152.802 115.663 153.379 115.957C153.968 116.234 154.446 116.641 154.812 117.178C155.193 117.713 155.419 118.316 155.489 118.987C155.575 119.804 155.454 120.546 155.126 121.215C154.798 121.883 154.281 122.439 153.576 122.882C152.869 123.31 151.975 123.581 150.896 123.695L144.398 124.378ZM147.099 121.66L150.162 121.338C150.964 121.254 151.565 121.007 151.964 120.596C152.363 120.185 152.527 119.637 152.455 118.952C152.383 118.266 152.101 117.757 151.609 117.426C151.115 117.079 150.467 116.948 149.665 117.033L146.646 117.35L147.099 121.66ZM146.413 115.14L149.258 114.841C150.031 114.76 150.596 114.524 150.953 114.132C151.324 113.739 151.476 113.222 151.409 112.58C151.343 111.953 151.088 111.486 150.642 111.179C150.21 110.855 149.6 110.735 148.813 110.818L145.99 111.114L146.413 115.14ZM156.819 123.072L155.66 112.045L158.613 111.734L159.772 122.762L156.819 123.072ZM156.989 110.379C156.464 110.434 156.01 110.327 155.628 110.057C155.258 109.772 155.049 109.388 154.998 108.907C154.947 108.425 155.074 108.014 155.377 107.672C155.693 107.315 156.114 107.108 156.639 107.053C157.179 106.996 157.633 107.111 158.003 107.396C158.385 107.666 158.601 108.041 158.652 108.523C158.702 109.004 158.57 109.424 158.253 109.781C157.95 110.123 157.528 110.322 156.989 110.379ZM166.46 122.324C165.41 122.435 164.437 122.294 163.54 121.901C162.657 121.493 161.922 120.884 161.335 120.076C160.762 119.251 160.416 118.277 160.298 117.154C160.177 116.002 160.312 114.97 160.703 114.059C161.107 113.131 161.707 112.383 162.502 111.812C163.296 111.227 164.218 110.88 165.268 110.769C166.333 110.658 167.307 110.806 168.191 111.214C169.087 111.607 169.822 112.215 170.395 113.04C170.982 113.848 171.335 114.822 171.454 115.959C171.574 117.097 171.432 118.13 171.028 119.057C170.637 119.968 170.045 120.716 169.251 121.301C168.455 121.871 167.525 122.212 166.46 122.324ZM166.191 119.764C166.687 119.712 167.113 119.549 167.467 119.276C167.837 119.001 168.105 118.612 168.274 118.108C168.456 117.602 168.51 116.991 168.435 116.277C168.36 115.562 168.181 114.983 167.899 114.541C167.629 114.083 167.285 113.758 166.867 113.566C166.462 113.358 166.018 113.279 165.537 113.329C165.07 113.378 164.653 113.548 164.285 113.837C163.916 114.112 163.64 114.502 163.457 115.008C163.287 115.498 163.24 116.1 163.315 116.815C163.39 117.529 163.563 118.116 163.832 118.574C164.116 119.031 164.46 119.356 164.864 119.55C165.282 119.742 165.725 119.813 166.191 119.764ZM173.048 121.366L171.392 105.613L174.346 105.303L176.002 121.056L173.048 121.366ZM182.585 120.629C181.534 120.74 180.561 120.599 179.664 120.206C178.781 119.798 178.046 119.189 177.459 118.381C176.886 117.556 176.54 116.582 176.422 115.459C176.301 114.307 176.436 113.275 176.827 112.364C177.231 111.437 177.831 110.688 178.626 110.118C179.42 109.533 180.342 109.185 181.392 109.075C182.457 108.963 183.431 109.111 184.315 109.52C185.211 109.912 185.946 110.521 186.52 111.345C187.106 112.154 187.459 113.127 187.579 114.265C187.698 115.402 187.556 116.435 187.152 117.362C186.761 118.273 186.169 119.021 185.375 119.606C184.579 120.176 183.649 120.518 182.585 120.629ZM182.315 118.07C182.811 118.017 183.237 117.855 183.591 117.581C183.961 117.307 184.23 116.917 184.398 116.413C184.581 115.907 184.634 115.297 184.559 114.582C184.484 113.867 184.305 113.289 184.023 112.846C183.754 112.388 183.41 112.063 182.991 111.871C182.586 111.663 182.143 111.584 181.661 111.635C181.195 111.684 180.777 111.853 180.409 112.142C180.04 112.417 179.764 112.807 179.581 113.313C179.412 113.803 179.364 114.405 179.439 115.12C179.515 115.835 179.687 116.421 179.956 116.88C180.24 117.336 180.584 117.662 180.988 117.855C181.406 118.047 181.849 118.119 182.315 118.07ZM193.749 124.323C192.698 124.433 191.766 124.398 190.95 124.219C190.137 124.053 189.483 123.731 188.991 123.252C188.514 122.786 188.236 122.174 188.156 121.415C188.102 120.905 188.183 120.41 188.398 119.93C188.613 119.45 188.949 119.002 189.407 118.585C189.878 118.152 190.478 117.765 191.209 117.422L192.477 118.749C191.829 119.038 191.369 119.36 191.096 119.713C190.84 120.079 190.731 120.452 190.771 120.831C190.806 121.166 190.946 121.439 191.189 121.65C191.447 121.858 191.771 121.994 192.161 122.056C192.567 122.132 193.011 122.144 193.492 122.093C193.959 122.044 194.354 121.944 194.677 121.792C195.015 121.638 195.266 121.435 195.431 121.182C195.613 120.941 195.687 120.668 195.655 120.362C195.614 119.968 195.441 119.662 195.138 119.443C194.835 119.224 194.264 119.129 193.427 119.158C192.677 119.178 192.005 119.167 191.411 119.127C190.829 119.07 190.312 118.991 189.859 118.891C189.405 118.777 189.015 118.641 188.688 118.484C188.377 118.325 188.116 118.16 187.907 117.991L187.854 117.487L189.93 114.725L192.124 115.18L189.652 118.183L190.332 116.652C190.502 116.722 190.664 116.794 190.819 116.866C190.987 116.922 191.192 116.974 191.433 117.023C191.672 117.057 191.985 117.083 192.37 117.101C192.755 117.12 193.242 117.12 193.83 117.103C194.802 117.089 195.609 117.189 196.251 117.401C196.907 117.612 197.406 117.936 197.746 118.372C198.086 118.794 198.291 119.34 198.361 120.011C198.43 120.667 198.312 121.299 198.007 121.906C197.719 122.527 197.221 123.051 196.513 123.479C195.808 123.922 194.886 124.203 193.749 124.323ZM192.872 115.987C191.953 116.083 191.14 115.992 190.432 115.712C189.738 115.417 189.176 114.989 188.749 114.429C188.334 113.853 188.088 113.193 188.01 112.45C187.932 111.706 188.036 111.016 188.324 110.381C188.624 109.73 189.083 109.188 189.701 108.755C190.334 108.319 191.109 108.053 192.028 107.957C192.962 107.859 193.776 107.958 194.471 108.253C195.18 108.547 195.742 108.982 196.156 109.558C196.569 110.119 196.815 110.772 196.893 111.516C196.971 112.26 196.867 112.956 196.582 113.606C196.295 114.241 195.835 114.776 195.202 115.211C194.582 115.63 193.806 115.889 192.872 115.987ZM192.635 113.733C193.204 113.673 193.648 113.479 193.968 113.151C194.287 112.822 194.417 112.373 194.357 111.805C194.298 111.236 194.077 110.824 193.697 110.569C193.314 110.299 192.839 110.194 192.27 110.254C191.716 110.312 191.272 110.514 190.94 110.859C190.62 111.187 190.491 111.636 190.55 112.205C190.61 112.774 190.83 113.185 191.211 113.44C191.606 113.694 192.081 113.791 192.635 113.733ZM194.115 110.127L193.413 108.077L197.942 107.601L198.126 109.351L194.115 110.127ZM201.875 123.203L203.91 116.884L203.254 116.953L197.804 107.615L201.02 107.277L204.918 114.057L207.015 106.647L210.144 106.318L205.004 122.874L201.875 123.203ZM221.283 116.562C220.16 116.68 219.115 116.561 218.148 116.206C217.182 115.85 216.381 115.249 215.746 114.401C215.112 113.553 214.721 112.429 214.574 111.029L213.585 101.621L216.538 101.31L217.53 110.741C217.609 111.499 217.801 112.128 218.104 112.627C218.406 113.111 218.803 113.453 219.296 113.652C219.803 113.849 220.385 113.913 221.041 113.844C221.712 113.774 222.268 113.59 222.709 113.293C223.164 112.995 223.489 112.577 223.683 112.04C223.876 111.489 223.932 110.834 223.853 110.076L222.862 100.646L225.815 100.335L226.804 109.744C226.951 111.144 226.795 112.325 226.336 113.288C225.877 114.251 225.197 115.008 224.296 115.56C223.41 116.11 222.406 116.444 221.283 116.562ZM228.707 115.516L227.548 104.489L230.151 104.215L230.559 105.987C230.83 105.339 231.252 104.793 231.824 104.349C232.412 103.904 233.136 103.636 233.996 103.546C234.915 103.449 235.708 103.558 236.375 103.871C237.042 104.184 237.575 104.689 237.972 105.384C238.384 106.078 238.646 106.958 238.758 108.023L239.428 114.39L236.496 114.698L235.856 108.615C235.764 107.74 235.504 107.089 235.076 106.662C234.662 106.234 234.069 106.06 233.296 106.141C232.8 106.193 232.367 106.357 231.998 106.632C231.643 106.905 231.379 107.272 231.207 107.732C231.032 108.178 230.977 108.708 231.042 109.32L231.66 115.206L228.707 115.516ZM240.744 114.251L239.585 103.224L242.539 102.913L243.698 113.941L240.744 114.251ZM240.915 101.558C240.389 101.613 239.936 101.506 239.553 101.236C239.184 100.951 238.974 100.567 238.924 100.086C238.873 99.6045 239 99.193 239.303 98.8515C239.619 98.4938 240.04 98.2873 240.565 98.2321C241.105 98.1754 241.559 98.2899 241.928 98.5755C242.311 98.845 242.527 99.2205 242.578 99.7018C242.628 100.183 242.495 100.603 242.179 100.96C241.876 101.302 241.454 101.501 240.915 101.558ZM250.118 113.266C249.345 113.347 248.654 113.302 248.046 113.13C247.451 112.942 246.964 112.587 246.585 112.067C246.204 111.532 245.963 110.775 245.86 109.798L245.368 105.116L243.486 105.314L243.226 102.841L245.108 102.643L245.121 99.6114L247.747 99.3355L248.062 102.333L250.972 102.027L251.232 104.5L248.322 104.805L248.818 109.531C248.871 110.027 249.016 110.359 249.255 110.525C249.493 110.692 249.875 110.748 250.4 110.692L251.844 110.541L252.109 113.057L250.118 113.266ZM263.77 111.831L263.478 109.052L255.951 109.843L255.705 107.502L261.766 96.5568L265.114 96.205L266.163 106.182L268.154 105.973L268.423 108.533L266.432 108.742L266.724 111.521L263.77 111.831ZM258.833 106.952L263.406 106.472L262.7 99.7548L258.833 106.952ZM274.366 110.828C273.811 110.886 273.349 110.773 272.98 110.487C272.61 110.187 272.399 109.796 272.348 109.315C272.298 108.833 272.423 108.414 272.725 108.058C273.025 107.688 273.453 107.473 274.007 107.415C274.532 107.36 274.98 107.482 275.351 107.782C275.72 108.068 275.93 108.452 275.98 108.933C276.031 109.414 275.906 109.84 275.606 110.211C275.304 110.567 274.891 110.773 274.366 110.828ZM273.524 102.82C272.97 102.878 272.508 102.765 272.139 102.479C271.768 102.179 271.557 101.788 271.507 101.307C271.456 100.825 271.582 100.407 271.883 100.05C272.184 99.6797 272.611 99.4652 273.165 99.4069C273.69 99.3518 274.138 99.4743 274.509 99.7745C274.878 100.06 275.088 100.444 275.139 100.925C275.189 101.406 275.064 101.832 274.764 102.203C274.462 102.559 274.049 102.765 273.524 102.82ZM280.727 110.049L279.117 94.7332L282.071 94.4228L290.227 104.25L289.116 93.6823L292.07 93.3718L293.679 108.687L290.726 108.998L282.572 99.1925L283.68 109.738L280.727 110.049ZM300.304 108.257C299.254 108.367 298.28 108.226 297.384 107.834C296.5 107.425 295.765 106.817 295.179 106.008C294.605 105.183 294.26 104.21 294.142 103.086C294.021 101.934 294.155 100.902 294.546 99.9912C294.95 99.0639 295.55 98.3151 296.345 97.7448C297.139 97.16 298.061 96.8124 299.112 96.702C300.176 96.5901 301.151 96.7384 302.034 97.1469C302.931 97.5394 303.666 98.1479 304.239 98.9725C304.825 99.7809 305.178 100.754 305.298 101.892C305.417 103.029 305.275 104.062 304.871 104.989C304.48 105.901 303.888 106.649 303.094 107.233C302.299 107.804 301.369 108.145 300.304 108.257ZM300.035 105.697C300.531 105.645 300.956 105.482 301.311 105.209C301.68 104.934 301.949 104.544 302.117 104.04C302.3 103.534 302.354 102.924 302.279 102.209C302.203 101.494 302.025 100.916 301.742 100.474C301.473 100.015 301.129 99.6901 300.711 99.4982C300.305 99.2901 299.862 99.2113 299.381 99.2619C298.914 99.3109 298.497 99.4802 298.129 99.7695C297.759 100.044 297.483 100.435 297.301 100.94C297.131 101.43 297.084 102.032 297.159 102.747C297.234 103.462 297.406 104.048 297.675 104.507C297.959 104.964 298.303 105.289 298.707 105.482C299.125 105.674 299.568 105.746 300.035 105.697ZM311.431 106.822C310.658 106.903 309.967 106.858 309.359 106.685C308.764 106.497 308.277 106.143 307.898 105.622C307.517 105.087 307.276 104.331 307.173 103.354L306.681 98.6716L304.799 98.8693L304.539 96.3969L306.421 96.1992L306.434 93.1672L309.06 92.8912L309.375 95.8887L312.285 95.5829L312.545 98.0553L309.635 98.3611L310.131 103.087C310.184 103.583 310.329 103.914 310.568 104.081C310.806 104.248 311.188 104.303 311.713 104.248L313.157 104.096L313.422 106.612L311.431 106.822ZM319.443 106.245C318.334 106.362 317.325 106.232 316.415 105.855C315.519 105.463 314.785 104.869 314.215 104.074C313.658 103.262 313.32 102.295 313.202 101.172C313.081 100.019 313.208 98.981 313.583 98.0568C313.971 97.1164 314.561 96.3538 315.355 95.7689C316.148 95.1695 317.105 94.8108 318.229 94.6927C319.323 94.5777 320.303 94.718 321.171 95.1135C322.038 95.509 322.741 96.0914 323.279 96.8607C323.817 97.63 324.14 98.5325 324.249 99.5681C324.264 99.714 324.282 99.8817 324.302 100.071C324.32 100.246 324.325 100.43 324.316 100.623L315.367 101.563L315.179 99.7693L321.195 99.1369C321.076 98.4268 320.762 97.8921 320.253 97.5327C319.757 97.1718 319.167 97.0274 318.482 97.0994C317.986 97.1516 317.538 97.3166 317.14 97.5944C316.74 97.8576 316.44 98.2357 316.242 98.7285C316.057 99.2198 316.003 99.8228 316.078 100.538L316.144 101.172C316.207 101.77 316.372 102.284 316.638 102.713C316.918 103.126 317.274 103.435 317.709 103.64C318.142 103.83 318.628 103.897 319.168 103.841C319.708 103.784 320.14 103.62 320.466 103.35C320.806 103.079 321.044 102.751 321.181 102.368L324.2 102.051C324.068 102.758 323.791 103.414 323.368 104.019C322.944 104.623 322.4 105.123 321.733 105.518C321.067 105.912 320.303 106.155 319.443 106.245ZM330.285 105.105C329.279 105.211 328.387 105.143 327.609 104.9C326.832 104.657 326.201 104.274 325.719 103.749C325.236 103.225 324.928 102.608 324.794 101.9L327.726 101.592C327.828 101.861 327.979 102.103 328.179 102.318C328.377 102.519 328.628 102.669 328.934 102.77C329.239 102.871 329.596 102.899 330.005 102.856C330.399 102.815 330.714 102.73 330.951 102.602C331.187 102.459 331.353 102.287 331.45 102.085C331.561 101.882 331.606 101.678 331.585 101.474C331.553 101.167 331.441 100.943 331.249 100.801C331.055 100.645 330.786 100.533 330.439 100.466C330.093 100.399 329.674 100.34 329.182 100.288C328.646 100.242 328.115 100.172 327.589 100.08C327.077 99.9714 326.611 99.8213 326.193 99.6293C325.774 99.4373 325.429 99.1712 325.157 98.8311C324.886 98.491 324.722 98.0511 324.665 97.5114C324.596 96.855 324.71 96.2531 325.006 95.7058C325.301 95.1439 325.768 94.6746 326.406 94.2977C327.045 93.9209 327.839 93.6826 328.787 93.583C330.114 93.4435 331.196 93.6321 332.032 94.1489C332.868 94.6657 333.414 95.4415 333.67 96.4764L330.891 96.7685C330.769 96.4422 330.544 96.2003 330.218 96.0429C329.905 95.8693 329.5 95.8086 329.004 95.8608C328.479 95.9159 328.088 96.0529 327.831 96.2717C327.573 96.4904 327.461 96.753 327.493 97.0593C327.515 97.2635 327.621 97.4366 327.813 97.5787C328.02 97.7192 328.297 97.8301 328.644 97.9116C328.991 97.9784 329.41 98.0376 329.902 98.0891C330.766 98.1752 331.532 98.3013 332.198 98.4672C332.863 98.6185 333.4 98.8865 333.809 99.2712C334.216 99.6413 334.462 100.22 334.544 101.008C334.618 101.708 334.494 102.355 334.173 102.949C333.851 103.529 333.356 104.009 332.688 104.388C332.034 104.767 331.234 105.006 330.285 105.105Z" fill="#7E8BB4"/>
<path d="M139.687 153.522L284.103 138.344" stroke="#727FA7" stroke-width="7"/>
<path d="M140.956 165.557L336.045 145.052" stroke="#727FA7" stroke-width="7"/>
<path d="M150.807 259.302L340.829 239.33" stroke="#727FA7" stroke-width="7"/>
<path d="M152.938 279.571L474.708 245.751" stroke="#727FA7" stroke-width="7"/>
<path d="M155.068 299.839L459.104 267.884" stroke="#727FA7" stroke-width="7"/>
<path d="M157.199 320.108L491.638 284.957" stroke="#727FA7" stroke-width="7"/>
<path d="M159.328 340.377L511.502 303.362" stroke="#727FA7" stroke-width="7"/>
<path d="M161.459 360.646L500.965 324.963" stroke="#727FA7" stroke-width="7"/>
<path d="M163.59 380.915L462.558 349.492" stroke="#727FA7" stroke-width="7"/>
<path d="M165.722 401.184L267.067 390.532" stroke="#727FA7" stroke-width="7"/>
<path d="M167.85 421.453L527.625 383.639" stroke="#727FA7" stroke-width="7"/>
<path d="M169.98 441.722L420.81 415.359" stroke="#727FA7" stroke-width="7"/>
<path d="M172.111 461.992L463.479 431.368" stroke="#727FA7" stroke-width="7"/>
</g>
<defs>
<filter id="filter0_d_2289_53" x="0.726171" y="44.6412" width="575.183" height="683.602" filterUnits="userSpaceOnUse" color-interpolation-filters="sRGB">
<feFlood flood-opacity="0" result="BackgroundImageFix"/>
<feColorMatrix in="SourceAlpha" type="matrix" values="0 0 0 0 0 0 0 0 0 0 0 0 0 0 0 0 0 0 127 0" result="hardAlpha"/>
<feOffset dx="-2" dy="5"/>
<feGaussianBlur stdDeviation="9.8"/>
<feComposite in2="hardAlpha" operator="out"/>
<feColorMatrix type="matrix" values="0 0 0 0 0 0 0 0 0 0 0 0 0 0 0 0 0 0 0.25 0"/>
<feBlend mode="normal" in2="BackgroundImageFix" result="effect1_dropShadow_2289_53"/>
<feBlend mode="normal" in="SourceGraphic" in2="effect1_dropShadow_2289_53" result="shape"/>
</filter>
<filter id="filter1_d_2289_53" x="79.5699" y="4.20469" width="543.503" height="672.21" filterUnits="userSpaceOnUse" color-interpolation-filters="sRGB">
<feFlood flood-opacity="0" result="BackgroundImageFix"/>
<feColorMatrix in="SourceAlpha" type="matrix" values="0 0 0 0 0 0 0 0 0 0 0 0 0 0 0 0 0 0 127 0" result="hardAlpha"/>
<feOffset dx="-2" dy="5"/>
<feGaussianBlur stdDeviation="9.8"/>
<feComposite in2="hardAlpha" operator="out"/>
<feColorMatrix type="matrix" values="0 0 0 0 0 0 0 0 0 0 0 0 0 0 0 0 0 0 0.25 0"/>
<feBlend mode="normal" in2="BackgroundImageFix" result="effect1_dropShadow_2289_53"/>
<feBlend mode="normal" in="SourceGraphic" in2="effect1_dropShadow_2289_53" result="shape"/>
</filter>
<linearGradient id="paint0_linear_2289_53" x1="181.789" y1="154.678" x2="479.564" y2="578.23" gradientUnits="userSpaceOnUse">
<stop stop-color="#E3EAF4"/>
<stop offset="1" stop-color="#A3C6FF"/>
</linearGradient>
<linearGradient id="paint1_linear_2289_53" x1="257.777" y1="107.169" x2="529.757" y2="547.728" gradientUnits="userSpaceOnUse">
<stop stop-color="#E3EAF4"/>
<stop offset="1" stop-color="#A3C6FF"/>
</linearGradient>
</defs>
</svg>
