<svg width="3328" height="562" viewBox="0 0 3328 562" fill="none" xmlns="http://www.w3.org/2000/svg">
<path d="M105.75 116.258V247.508H282V330.758H105.75V469.508H304.5V555.008H0.750004V30.7578H304.5V116.258H105.75ZM320.42 345.758C320.42 303.758 328.67 266.508 345.17 234.008C362.17 201.508 385.17 176.508 414.17 159.008C443.17 141.508 475.42 132.758 510.92 132.758C537.92 132.758 563.67 138.758 588.17 150.758C612.67 162.258 632.17 177.758 646.67 197.258V0.00780535H753.17V555.008H646.67V493.508C633.67 514.008 615.42 530.508 591.92 543.008C568.42 555.508 541.17 561.758 510.17 561.758C475.17 561.758 443.17 552.758 414.17 534.758C385.17 516.758 362.17 491.508 345.17 459.008C328.67 426.008 320.42 388.258 320.42 345.758ZM647.42 347.258C647.42 321.758 642.42 300.008 632.42 282.008C622.42 263.508 608.92 249.508 591.92 240.008C574.92 230.008 556.67 225.008 537.17 225.008C517.67 225.008 499.67 229.758 483.17 239.258C466.67 248.758 453.17 262.758 442.67 281.258C432.67 299.258 427.67 320.758 427.67 345.758C427.67 370.758 432.67 392.758 442.67 411.758C453.17 430.258 466.67 444.508 483.17 454.508C500.17 464.508 518.17 469.508 537.17 469.508C556.67 469.508 574.92 464.758 591.92 455.258C608.92 445.258 622.42 431.258 632.42 413.258C642.42 394.758 647.42 372.758 647.42 347.258ZM1195.47 139.508V555.008H1089.72V502.508C1076.22 520.508 1058.47 534.758 1036.47 545.258C1014.97 555.258 991.471 560.258 965.971 560.258C933.471 560.258 904.721 553.508 879.721 540.008C854.721 526.008 834.971 505.758 820.471 479.258C806.471 452.258 799.471 420.258 799.471 383.258V139.508H904.471V368.258C904.471 401.258 912.721 426.758 929.221 444.758C945.721 462.258 968.221 471.008 996.721 471.008C1025.72 471.008 1048.47 462.258 1064.97 444.758C1081.47 426.758 1089.72 401.258 1089.72 368.258V139.508H1195.47ZM1419.82 458.258L1524.82 139.508H1636.57L1482.82 555.008H1355.32L1202.32 139.508H1314.82L1419.82 458.258ZM1616.04 345.758C1616.04 303.758 1624.29 266.508 1640.79 234.008C1657.79 201.508 1680.54 176.508 1709.04 159.008C1738.04 141.508 1770.29 132.758 1805.79 132.758C1836.79 132.758 1863.79 139.008 1886.79 151.508C1910.29 164.008 1929.04 179.758 1943.04 198.758V139.508H2048.79V555.008H1943.04V494.258C1929.54 513.758 1910.79 530.008 1886.79 543.008C1863.29 555.508 1836.04 561.758 1805.04 561.758C1770.04 561.758 1738.04 552.758 1709.04 534.758C1680.54 516.758 1657.79 491.508 1640.79 459.008C1624.29 426.008 1616.04 388.258 1616.04 345.758ZM1943.04 347.258C1943.04 321.758 1938.04 300.008 1928.04 282.008C1918.04 263.508 1904.54 249.508 1887.54 240.008C1870.54 230.008 1852.29 225.008 1832.79 225.008C1813.29 225.008 1795.29 229.758 1778.79 239.258C1762.29 248.758 1748.79 262.758 1738.29 281.258C1728.29 299.258 1723.29 320.758 1723.29 345.758C1723.29 370.758 1728.29 392.758 1738.29 411.758C1748.79 430.258 1762.29 444.508 1778.79 454.508C1795.79 464.508 1813.79 469.508 1832.79 469.508C1852.29 469.508 1870.54 464.758 1887.54 455.258C1904.54 445.258 1918.04 431.258 1928.04 413.258C1938.04 394.758 1943.04 372.758 1943.04 347.258ZM2329.1 133.508C2378.6 133.508 2418.6 149.258 2449.1 180.758C2479.6 211.758 2494.85 255.258 2494.85 311.258V555.008H2389.85V325.508C2389.85 292.508 2381.6 267.258 2365.1 249.758C2348.6 231.758 2326.1 222.758 2297.6 222.758C2268.6 222.758 2245.6 231.758 2228.6 249.758C2212.1 267.258 2203.85 292.508 2203.85 325.508V555.008H2098.85V139.508H2203.85V191.258C2217.85 173.258 2235.6 159.258 2257.1 149.258C2279.1 138.758 2303.1 133.508 2329.1 133.508ZM2515.2 347.258C2515.2 304.258 2523.95 266.758 2541.45 234.758C2558.95 202.258 2583.2 177.258 2614.2 159.758C2645.2 141.758 2680.7 132.758 2720.7 132.758C2772.2 132.758 2814.7 145.758 2848.2 171.758C2882.2 197.258 2904.95 233.258 2916.45 279.758H2803.2C2797.2 261.758 2786.95 247.758 2772.45 237.758C2758.45 227.258 2740.95 222.008 2719.95 222.008C2689.95 222.008 2666.2 233.008 2648.7 255.008C2631.2 276.508 2622.45 307.258 2622.45 347.258C2622.45 386.758 2631.2 417.508 2648.7 439.508C2666.2 461.008 2689.95 471.758 2719.95 471.758C2762.45 471.758 2790.2 452.758 2803.2 414.758H2916.45C2904.95 459.758 2882.2 495.508 2848.2 522.008C2814.2 548.508 2771.7 561.758 2720.7 561.758C2680.7 561.758 2645.2 553.008 2614.2 535.508C2583.2 517.508 2558.95 492.508 2541.45 460.508C2523.95 428.008 2515.2 390.258 2515.2 347.258ZM3327.12 338.258C3327.12 353.258 3326.12 366.758 3324.12 378.758H3020.37C3022.87 408.758 3033.37 432.258 3051.87 449.258C3070.37 466.258 3093.12 474.758 3120.12 474.758C3159.12 474.758 3186.87 458.008 3203.37 424.508H3316.62C3304.62 464.508 3281.62 497.508 3247.62 523.508C3213.62 549.008 3171.87 561.758 3122.37 561.758C3082.37 561.758 3046.37 553.008 3014.37 535.508C2982.87 517.508 2958.12 492.258 2940.12 459.758C2922.62 427.258 2913.87 389.758 2913.87 347.258C2913.87 304.258 2922.62 266.508 2940.12 234.008C2957.62 201.508 2982.12 176.508 3013.62 159.008C3045.12 141.508 3081.37 132.758 3122.37 132.758C3161.87 132.758 3197.12 141.258 3228.12 158.258C3259.62 175.258 3283.87 199.508 3300.87 231.008C3318.37 262.008 3327.12 297.758 3327.12 338.258ZM3218.37 308.258C3217.87 281.258 3208.12 259.758 3189.12 243.758C3170.12 227.258 3146.87 219.008 3119.37 219.008C3093.37 219.008 3071.37 227.008 3053.37 243.008C3035.87 258.508 3025.12 280.258 3021.12 308.258H3218.37Z" fill="white" fill-opacity="0.71"/>
</svg>
