<svg width="507" height="177" viewBox="0 0 507 177" fill="none" xmlns="http://www.w3.org/2000/svg">
<path d="M169.481 105.847C169.447 105.303 169.413 104.504 169.379 103.45C169.379 102.362 169.362 101.274 169.328 100.186C169.328 99.098 169.328 98.282 169.328 97.738C169.022 98.214 168.444 98.894 167.594 99.778C166.778 100.662 165.656 101.58 164.228 102.532C162.8 103.45 161.015 104.232 158.873 104.878C156.731 105.524 154.198 105.847 151.274 105.847C146.786 105.847 142.944 104.844 139.748 102.838C136.586 100.798 134.172 97.993 132.506 94.423C130.84 90.853 130.007 86.756 130.007 82.132C130.007 77.746 130.84 73.649 132.506 69.841C134.206 66.033 136.756 62.956 140.156 60.61C143.556 58.264 147.789 57.091 152.855 57.091C155.779 57.091 158.38 57.414 160.658 58.06C162.936 58.706 164.857 59.488 166.421 60.406C167.985 61.29 169.107 62.123 169.787 62.905C169.855 61.307 169.957 59.369 170.093 57.091C170.263 54.779 170.433 52.382 170.603 49.9C170.807 47.384 170.994 44.97 171.164 42.658C171.334 40.312 171.487 38.272 171.623 36.538C171.793 34.804 171.929 33.614 172.031 32.968C173.595 32.968 175.329 33.053 177.233 33.223C179.171 33.359 180.837 33.597 182.231 33.937C181.653 41.825 181.194 49.696 180.854 57.55C180.548 65.404 180.327 73.343 180.191 81.367C180.089 89.391 180.038 97.653 180.038 106.153C179.426 106.153 178.423 106.136 177.029 106.102C175.635 106.102 174.224 106.068 172.796 106C171.368 105.966 170.263 105.915 169.481 105.847ZM154.283 94.678C156.357 94.678 158.21 94.389 159.842 93.811C161.508 93.233 162.936 92.502 164.126 91.618C165.35 90.734 166.37 89.85 167.186 88.966C168.002 88.048 168.631 87.283 169.073 86.671C169.073 85.889 169.073 84.835 169.073 83.509C169.073 82.183 169.073 80.789 169.073 79.327C169.107 77.831 169.124 76.454 169.124 75.196C169.158 73.904 169.192 72.935 169.226 72.289C168.478 71.575 167.356 70.827 165.86 70.045C164.398 69.263 162.698 68.6 160.76 68.056C158.856 67.478 156.85 67.189 154.742 67.189C150.39 67.189 147.041 68.481 144.695 71.065C142.383 73.615 141.227 77.032 141.227 81.316C141.227 85.702 142.349 89.034 144.593 91.312C146.871 93.556 150.101 94.678 154.283 94.678ZM221.313 55.357C221.959 55.153 222.86 55 224.016 54.898C225.206 54.762 226.362 54.694 227.484 54.694C228.47 54.694 229.541 54.728 230.697 54.796C231.853 54.864 232.788 54.966 233.502 55.102C234.012 58.23 234.42 61.409 234.726 64.639C235.066 67.835 235.236 70.997 235.236 74.125C235.236 78.851 234.828 83.305 234.012 87.487C233.196 91.635 231.853 95.307 229.983 98.503C228.147 101.665 225.682 104.147 222.588 105.949C219.494 107.751 215.652 108.652 211.062 108.652C206.098 108.652 202.018 107.683 198.822 105.745C195.626 103.773 193.144 101.053 191.376 97.585C189.608 94.117 188.367 90.088 187.653 85.498C186.939 80.908 186.582 75.978 186.582 70.708C186.582 67.852 186.667 64.945 186.837 61.987C187.041 58.995 187.245 56.071 187.449 53.215C188.163 53.147 189.064 53.113 190.152 53.113C191.274 53.113 192.277 53.13 193.161 53.164C194.419 53.198 195.677 53.283 196.935 53.419C198.227 53.555 199.264 53.742 200.046 53.98C199.74 56.802 199.485 59.658 199.281 62.548C199.077 65.404 198.975 68.209 198.975 70.963C198.975 76.471 199.417 81.214 200.301 85.192C201.185 89.136 202.528 92.179 204.33 94.321C206.132 96.429 208.444 97.483 211.266 97.483C213.918 97.483 216.111 96.531 217.845 94.627C219.579 92.689 220.871 89.952 221.721 86.416C222.605 82.88 223.047 78.698 223.047 73.87C223.047 70.844 222.894 67.75 222.588 64.588C222.282 61.392 221.857 58.315 221.313 55.357ZM273.574 50.359C275.444 50.665 277.178 51.039 278.776 51.481C280.408 51.889 281.768 52.263 282.856 52.603C283.944 52.943 284.607 53.164 284.845 53.266C284.233 55.714 283.417 58.638 282.397 62.038C281.377 65.438 280.204 69.093 278.878 73.003C277.586 76.913 276.226 80.857 274.798 84.835C273.37 88.813 271.959 92.621 270.565 96.259C269.171 99.863 267.862 103.059 266.638 105.847C265.278 106.085 263.527 106.204 261.385 106.204C260.433 106.204 259.498 106.17 258.58 106.102C257.662 106.034 256.863 105.949 256.183 105.847C254.313 101.971 252.494 97.84 250.726 93.454C248.958 89.034 247.241 84.529 245.575 79.939C243.909 75.349 242.328 70.776 240.832 66.22C239.37 61.63 238.01 57.21 236.752 52.96C237.228 52.824 237.908 52.654 238.792 52.45C239.71 52.246 240.696 52.008 241.75 51.736C242.838 51.464 243.875 51.209 244.861 50.971C245.881 50.699 246.731 50.478 247.411 50.308C247.955 52.45 248.686 55.051 249.604 58.111C250.556 61.137 251.593 64.35 252.715 67.75C253.837 71.116 254.976 74.414 256.132 77.644C257.288 80.874 258.342 83.781 259.294 86.365C260.28 88.949 261.079 90.955 261.691 92.383L260.977 92.587C261.759 90.547 262.592 88.218 263.476 85.6C264.394 82.982 265.329 80.194 266.281 77.236C267.233 74.278 268.168 71.252 269.086 68.158C270.004 65.064 270.837 62.004 271.585 58.978C272.367 55.952 273.03 53.079 273.574 50.359ZM307.786 106.969C303.536 106.969 299.677 106.408 296.209 105.286C292.775 104.164 290.021 102.328 287.947 99.778C285.907 97.228 284.887 93.845 284.887 89.629C284.887 85.481 286.043 82.098 288.355 79.48C290.701 76.862 293.812 74.941 297.688 73.717C301.598 72.459 305.916 71.83 310.642 71.83C312.75 71.83 314.79 71.983 316.762 72.289C318.734 72.595 320.451 72.952 321.913 73.36C323.375 73.734 324.378 74.074 324.922 74.38C324.82 73.326 324.616 72.255 324.31 71.167C324.004 70.045 323.562 69.076 322.984 68.26C321.794 66.254 320.077 64.605 317.833 63.313C315.623 62.021 312.801 61.375 309.367 61.375C305.797 61.375 302.737 62.157 300.187 63.721C297.637 65.285 295.716 67.104 294.424 69.178L284.785 62.854C286.281 60.678 288.287 58.757 290.803 57.091C293.319 55.391 296.192 54.065 299.422 53.113C302.652 52.127 306.086 51.634 309.724 51.634C315.572 51.634 320.366 52.688 324.106 54.796C327.846 56.904 330.583 59.743 332.317 63.313C333.201 65.081 333.898 67.019 334.408 69.127C334.952 71.235 335.292 73.785 335.428 76.777C335.496 79.769 335.564 82.37 335.632 84.58C335.734 86.79 335.836 88.762 335.938 90.496C336.04 92.842 336.346 94.355 336.856 95.035C337.4 95.715 338.131 96.055 339.049 96.055C340.103 96.055 340.987 95.664 341.701 94.882C342.415 94.1 342.84 92.995 342.976 91.567L348.025 98.554C347.787 101.002 346.767 102.906 344.965 104.266C343.197 105.592 341.055 106.255 338.539 106.255C336.635 106.255 334.918 105.898 333.388 105.184C331.858 104.47 330.617 103.552 329.665 102.43C328.713 101.274 328.152 100.05 327.982 98.758C327.37 100.016 326.112 101.291 324.208 102.583C322.338 103.841 320.009 104.895 317.221 105.745C314.433 106.561 311.288 106.969 307.786 106.969ZM310.132 97.636C312.138 97.636 314.127 97.33 316.099 96.718C318.071 96.106 319.873 95.307 321.505 94.321C323.171 93.301 324.514 92.213 325.534 91.057C325.466 89.323 325.432 87.725 325.432 86.263C325.432 84.767 325.466 83.424 325.534 82.234C324.65 81.894 322.916 81.486 320.332 81.01C317.782 80.5 314.96 80.245 311.866 80.245C309.18 80.245 306.715 80.585 304.471 81.265C302.227 81.945 300.425 82.948 299.065 84.274C297.739 85.566 297.076 87.164 297.076 89.068C297.076 91.278 297.62 93.012 298.708 94.27C299.83 95.494 301.36 96.361 303.298 96.871C305.27 97.381 307.548 97.636 310.132 97.636ZM359.088 106.663C358.306 106.663 357.354 106.663 356.232 106.663C355.144 106.663 354.039 106.663 352.917 106.663C351.931 106.629 350.792 106.578 349.5 106.51C348.242 106.442 347.341 106.374 346.797 106.306C347.103 103.484 347.375 100.356 347.613 96.922C347.885 93.488 348.089 89.646 348.225 85.396C348.395 81.112 348.514 76.318 348.582 71.014C348.684 65.71 348.735 59.777 348.735 53.215C349.721 53.079 350.877 52.96 352.203 52.858C353.563 52.756 354.94 52.705 356.334 52.705C357.286 52.705 358.204 52.739 359.088 52.807C360.006 52.841 360.805 52.909 361.485 53.011C361.519 53.351 361.536 54.014 361.536 55C361.536 55.986 361.536 57.057 361.536 58.213C361.536 59.369 361.519 60.389 361.485 61.273C362.641 59.947 364.307 58.553 366.483 57.091C368.693 55.629 371.192 54.405 373.98 53.419C376.802 52.433 379.641 51.94 382.497 51.94C387.665 51.94 391.609 52.977 394.329 55.051C397.049 57.091 398.902 60.151 399.888 64.231C400.874 68.311 401.367 73.36 401.367 79.378C401.367 81.656 401.299 84.257 401.163 87.181C401.027 90.105 400.84 93.182 400.602 96.412C400.364 99.642 400.041 102.889 399.633 106.153C399.089 106.221 398.239 106.272 397.083 106.306C395.961 106.374 394.771 106.408 393.513 106.408C392.221 106.408 390.98 106.374 389.79 106.306C388.6 106.272 387.682 106.221 387.036 106.153C387.478 103.569 387.886 100.764 388.26 97.738C388.668 94.678 389.008 91.584 389.28 88.456C389.552 85.294 389.688 82.302 389.688 79.48C389.688 76.148 389.433 73.258 388.923 70.81C388.413 68.328 387.427 66.407 385.965 65.047C384.503 63.653 382.361 62.956 379.539 62.956C376.785 62.956 374.235 63.432 371.889 64.384C369.577 65.302 367.52 66.407 365.718 67.699C363.916 68.957 362.437 70.113 361.281 71.167C361.179 76.777 360.992 81.911 360.72 86.569C360.482 91.193 360.21 95.222 359.904 98.656C359.598 102.056 359.326 104.725 359.088 106.663ZM452.952 95.341C452.034 97.041 450.589 98.741 448.617 100.441C446.645 102.141 444.18 103.569 441.222 104.725C438.298 105.847 434.932 106.408 431.124 106.408C426.092 106.408 421.74 105.133 418.068 102.583C414.396 100.033 411.574 96.633 409.602 92.383C407.63 88.133 406.644 83.475 406.644 78.409C406.644 72.935 407.63 68.073 409.602 63.823C411.608 59.573 414.464 56.241 418.17 53.827C421.91 51.379 426.432 50.155 431.736 50.155C434.898 50.155 437.771 50.665 440.355 51.685C442.939 52.705 445.183 54.099 447.087 55.867C448.991 57.601 450.521 59.556 451.677 61.732L443.262 66.934C443.092 66.56 442.786 65.999 442.344 65.251C441.936 64.503 441.307 63.704 440.457 62.854C439.607 62.004 438.485 61.29 437.091 60.712C435.731 60.134 434.031 59.845 431.991 59.845C429.033 59.845 426.534 60.542 424.494 61.936C422.488 63.296 420.958 65.2 419.904 67.648C418.85 70.062 418.323 72.901 418.323 76.165C418.323 79.123 418.748 81.979 419.598 84.733C420.448 87.487 421.842 89.748 423.78 91.516C425.752 93.25 428.353 94.117 431.583 94.117C433.555 94.117 435.306 93.811 436.836 93.199C438.4 92.553 439.726 91.805 440.814 90.955C441.902 90.071 442.769 89.255 443.415 88.507C444.061 87.725 444.469 87.198 444.639 86.926L452.952 95.341ZM503.309 95.392C502.561 96.412 501.49 97.517 500.096 98.707C498.736 99.897 497.07 101.019 495.098 102.073C493.126 103.127 490.831 103.994 488.213 104.674C485.629 105.354 482.722 105.694 479.492 105.694C474.358 105.694 469.853 104.674 465.977 102.634C462.101 100.594 459.075 97.602 456.899 93.658C454.757 89.714 453.686 84.869 453.686 79.123C453.686 73.547 454.842 68.702 457.154 64.588C459.466 60.44 462.645 57.244 466.691 55C470.771 52.722 475.463 51.583 480.767 51.583C487.431 51.583 492.65 53.572 496.424 57.55C500.232 61.494 502.306 66.849 502.646 73.615C502.68 74.737 502.68 75.808 502.646 76.828C502.646 77.814 502.578 78.868 502.442 79.99C501.966 79.956 500.98 79.922 499.484 79.888C498.022 79.82 496.322 79.769 494.384 79.735C492.48 79.667 490.61 79.616 488.774 79.582C486.938 79.514 485.425 79.48 484.235 79.48C480.971 79.48 477.673 79.65 474.341 79.99C471.009 80.296 468.085 80.636 465.569 81.01C465.603 81.826 465.671 82.625 465.773 83.407C465.909 84.155 466.062 84.869 466.232 85.549C466.776 87.419 467.745 89.034 469.139 90.394C470.533 91.72 472.199 92.74 474.137 93.454C476.075 94.168 478.115 94.525 480.257 94.525C482.467 94.525 484.405 94.219 486.071 93.607C487.771 92.961 489.25 92.179 490.508 91.261C491.766 90.309 492.82 89.374 493.67 88.456C494.52 87.538 495.234 86.79 495.812 86.212C496.016 86.382 496.441 86.807 497.087 87.487C497.767 88.133 498.515 88.915 499.331 89.833C500.181 90.751 500.963 91.703 501.677 92.689C502.425 93.641 502.969 94.542 503.309 95.392ZM465.875 73.309C468.017 72.935 470.567 72.612 473.525 72.34C476.483 72.068 479.866 71.932 483.674 71.932C485.68 71.932 487.397 71.966 488.825 72.034C490.253 72.068 491.273 72.119 491.885 72.187C491.885 71.201 491.749 70.147 491.477 69.025C491.137 67.495 490.508 66.033 489.59 64.639C488.672 63.211 487.431 62.038 485.867 61.12C484.337 60.168 482.45 59.692 480.206 59.692C477.52 59.692 475.106 60.27 472.964 61.426C470.822 62.582 469.122 64.18 467.864 66.22C466.64 68.26 465.977 70.623 465.875 73.309Z" fill="#1A69FA"/>
<path d="M106.84 165.338C106.525 165.338 106.113 165.33 105.603 165.315C105.108 165.3 104.575 165.278 104.005 165.248C103.45 165.233 102.91 165.21 102.385 165.18C101.875 165.15 101.448 165.12 101.103 165.09C101.253 164.265 101.47 163.147 101.755 161.737C102.04 160.312 102.37 158.707 102.745 156.922C103.135 155.137 103.548 153.27 103.983 151.32C104.433 149.37 104.883 147.435 105.333 145.515C105.798 143.595 106.24 141.787 106.66 140.093C107.08 138.382 107.463 136.897 107.808 135.637C108.933 135.472 110.178 135.322 111.543 135.187C112.908 135.052 114.28 134.985 115.66 134.985C116.32 134.985 116.988 135.007 117.663 135.052C118.353 135.082 119.013 135.142 119.643 135.232C119.943 136.552 120.235 138.105 120.52 139.89C120.82 141.675 121.113 143.767 121.398 146.167C121.683 148.552 121.968 151.297 122.253 154.402C122.553 157.507 122.845 161.033 123.13 164.977C122.725 165.038 122.178 165.098 121.488 165.158C120.813 165.218 120.1 165.263 119.35 165.293C118.615 165.323 117.955 165.338 117.37 165.338C117.34 164.902 117.31 164.355 117.28 163.695C117.25 163.035 117.213 162.315 117.168 161.535C117.123 160.755 117.078 159.975 117.033 159.195C117.003 158.4 116.973 157.657 116.943 156.967C116.913 156.262 116.883 155.677 116.853 155.212C116.373 155.212 115.81 155.227 115.165 155.257C114.52 155.287 113.853 155.325 113.163 155.37C112.473 155.415 111.813 155.467 111.183 155.527C110.553 155.587 110.005 155.647 109.54 155.707C109.075 155.752 108.76 155.79 108.595 155.82C108.34 157.005 108.093 158.205 107.853 159.42C107.613 160.635 107.403 161.76 107.223 162.795C107.058 163.815 106.93 164.662 106.84 165.338ZM109.315 151.162C109.795 151.057 110.485 150.96 111.385 150.87C112.285 150.78 113.223 150.705 114.198 150.645C115.173 150.57 116.013 150.517 116.718 150.487C116.688 150.082 116.635 149.392 116.56 148.417C116.5 147.442 116.425 146.377 116.335 145.222C116.26 144.052 116.178 142.965 116.088 141.96C115.998 140.94 115.915 140.175 115.84 139.665C115.525 139.665 115.075 139.687 114.49 139.732C113.905 139.762 113.343 139.8 112.803 139.845C112.263 139.89 111.88 139.927 111.655 139.957C111.565 140.347 111.43 140.94 111.25 141.735C111.085 142.515 110.89 143.422 110.665 144.457C110.455 145.492 110.23 146.587 109.99 147.742C109.75 148.882 109.525 150.022 109.315 151.162ZM140.916 164.932C140.901 164.692 140.886 164.34 140.871 163.875C140.871 163.395 140.863 162.915 140.848 162.435C140.848 161.955 140.848 161.595 140.848 161.355C140.713 161.565 140.458 161.865 140.083 162.255C139.723 162.645 139.228 163.05 138.598 163.47C137.968 163.875 137.181 164.22 136.236 164.505C135.291 164.79 134.173 164.932 132.883 164.932C130.903 164.932 129.208 164.49 127.798 163.605C126.403 162.705 125.338 161.467 124.603 159.892C123.868 158.317 123.501 156.51 123.501 154.47C123.501 152.535 123.868 150.727 124.603 149.047C125.353 147.367 126.478 146.01 127.978 144.975C129.478 143.94 131.346 143.422 133.581 143.422C134.871 143.422 136.018 143.565 137.023 143.85C138.028 144.135 138.876 144.48 139.566 144.885C140.256 145.275 140.751 145.642 141.051 145.987C141.081 145.282 141.126 144.427 141.186 143.422C141.261 142.402 141.336 141.345 141.411 140.25C141.501 139.14 141.583 138.075 141.658 137.055C141.733 136.02 141.801 135.12 141.861 134.355C141.936 133.59 141.996 133.065 142.041 132.78C142.731 132.78 143.496 132.817 144.336 132.892C145.191 132.952 145.926 133.057 146.541 133.207C146.286 136.687 146.083 140.16 145.933 143.625C145.798 147.09 145.701 150.592 145.641 154.132C145.596 157.672 145.573 161.317 145.573 165.068C145.303 165.068 144.861 165.06 144.246 165.045C143.631 165.045 143.008 165.03 142.378 165C141.748 164.985 141.261 164.962 140.916 164.932ZM134.211 160.005C135.126 160.005 135.943 159.877 136.663 159.622C137.398 159.367 138.028 159.045 138.553 158.655C139.093 158.265 139.543 157.875 139.903 157.485C140.263 157.08 140.541 156.742 140.736 156.472C140.736 156.127 140.736 155.662 140.736 155.077C140.736 154.492 140.736 153.877 140.736 153.232C140.751 152.572 140.758 151.965 140.758 151.41C140.773 150.84 140.788 150.412 140.803 150.127C140.473 149.812 139.978 149.482 139.318 149.137C138.673 148.792 137.923 148.5 137.068 148.26C136.228 148.005 135.343 147.877 134.413 147.877C132.493 147.877 131.016 148.447 129.981 149.587C128.961 150.712 128.451 152.22 128.451 154.11C128.451 156.045 128.946 157.515 129.936 158.52C130.941 159.51 132.366 160.005 134.211 160.005ZM163.04 140.452C163.865 140.587 164.63 140.752 165.335 140.947C166.055 141.127 166.655 141.292 167.135 141.442C167.615 141.592 167.908 141.69 168.013 141.735C167.743 142.815 167.383 144.105 166.933 145.605C166.483 147.105 165.965 148.717 165.38 150.442C164.81 152.167 164.21 153.907 163.58 155.662C162.95 157.417 162.328 159.097 161.713 160.702C161.098 162.292 160.52 163.702 159.98 164.932C159.38 165.038 158.608 165.09 157.663 165.09C157.243 165.09 156.83 165.075 156.425 165.045C156.02 165.015 155.668 164.977 155.368 164.932C154.543 163.222 153.74 161.4 152.96 159.465C152.18 157.515 151.423 155.527 150.688 153.502C149.953 151.477 149.255 149.46 148.595 147.45C147.95 145.425 147.35 143.475 146.795 141.6C147.005 141.54 147.305 141.465 147.695 141.375C148.1 141.285 148.535 141.18 149 141.06C149.48 140.94 149.938 140.827 150.373 140.723C150.823 140.602 151.198 140.505 151.498 140.43C151.738 141.375 152.06 142.522 152.465 143.872C152.885 145.207 153.343 146.625 153.838 148.125C154.333 149.61 154.835 151.065 155.345 152.49C155.855 153.915 156.32 155.197 156.74 156.337C157.175 157.477 157.528 158.362 157.798 158.992L157.483 159.082C157.828 158.182 158.195 157.155 158.585 156C158.99 154.845 159.403 153.615 159.823 152.31C160.243 151.005 160.655 149.67 161.06 148.305C161.465 146.94 161.833 145.59 162.163 144.255C162.508 142.92 162.8 141.652 163.04 140.452ZM178.133 165.428C176.258 165.428 174.556 165.18 173.026 164.685C171.511 164.19 170.296 163.38 169.381 162.255C168.481 161.13 168.031 159.637 168.031 157.777C168.031 155.947 168.541 154.455 169.561 153.3C170.596 152.145 171.968 151.297 173.678 150.757C175.403 150.202 177.308 149.925 179.393 149.925C180.323 149.925 181.223 149.992 182.093 150.127C182.963 150.262 183.721 150.42 184.366 150.6C185.011 150.765 185.453 150.915 185.693 151.05C185.648 150.585 185.558 150.112 185.423 149.632C185.288 149.137 185.093 148.71 184.838 148.35C184.313 147.465 183.556 146.737 182.566 146.167C181.591 145.597 180.346 145.312 178.831 145.312C177.256 145.312 175.906 145.657 174.781 146.347C173.656 147.037 172.808 147.84 172.238 148.755L167.986 145.965C168.646 145.005 169.531 144.157 170.641 143.422C171.751 142.672 173.018 142.087 174.443 141.667C175.868 141.232 177.383 141.015 178.988 141.015C181.568 141.015 183.683 141.48 185.333 142.41C186.983 143.34 188.191 144.592 188.956 146.167C189.346 146.947 189.653 147.802 189.878 148.732C190.118 149.662 190.268 150.787 190.328 152.107C190.358 153.427 190.388 154.575 190.418 155.55C190.463 156.525 190.508 157.395 190.553 158.16C190.598 159.195 190.733 159.862 190.958 160.162C191.198 160.462 191.521 160.612 191.926 160.612C192.391 160.612 192.781 160.44 193.096 160.095C193.411 159.75 193.598 159.262 193.658 158.632L195.886 161.715C195.781 162.795 195.331 163.635 194.536 164.235C193.756 164.82 192.811 165.113 191.701 165.113C190.861 165.113 190.103 164.955 189.428 164.64C188.753 164.325 188.206 163.92 187.786 163.425C187.366 162.915 187.118 162.375 187.043 161.805C186.773 162.36 186.218 162.922 185.378 163.492C184.553 164.047 183.526 164.512 182.296 164.887C181.066 165.248 179.678 165.428 178.133 165.428ZM179.168 161.31C180.053 161.31 180.931 161.175 181.801 160.905C182.671 160.635 183.466 160.282 184.186 159.847C184.921 159.397 185.513 158.917 185.963 158.407C185.933 157.642 185.918 156.937 185.918 156.292C185.918 155.632 185.933 155.04 185.963 154.515C185.573 154.365 184.808 154.185 183.668 153.975C182.543 153.75 181.298 153.638 179.933 153.638C178.748 153.638 177.661 153.787 176.671 154.087C175.681 154.387 174.886 154.83 174.286 155.415C173.701 155.985 173.408 156.69 173.408 157.53C173.408 158.505 173.648 159.27 174.128 159.825C174.623 160.365 175.298 160.747 176.153 160.972C177.023 161.197 178.028 161.31 179.168 161.31ZM200.767 165.293C200.422 165.293 200.002 165.293 199.507 165.293C199.027 165.293 198.539 165.293 198.044 165.293C197.609 165.278 197.107 165.255 196.537 165.225C195.982 165.195 195.584 165.165 195.344 165.135C195.479 163.89 195.599 162.51 195.704 160.995C195.824 159.48 195.914 157.785 195.974 155.91C196.049 154.02 196.102 151.905 196.132 149.565C196.177 147.225 196.199 144.607 196.199 141.712C196.634 141.652 197.144 141.6 197.729 141.555C198.329 141.51 198.937 141.487 199.552 141.487C199.972 141.487 200.377 141.502 200.767 141.532C201.172 141.547 201.524 141.577 201.824 141.622C201.839 141.772 201.847 142.065 201.847 142.5C201.847 142.935 201.847 143.407 201.847 143.917C201.847 144.427 201.839 144.877 201.824 145.267C202.334 144.682 203.069 144.067 204.029 143.422C205.004 142.777 206.107 142.237 207.337 141.802C208.582 141.367 209.834 141.15 211.094 141.15C213.374 141.15 215.114 141.607 216.314 142.522C217.514 143.422 218.332 144.772 218.767 146.572C219.202 148.372 219.419 150.6 219.419 153.255C219.419 154.26 219.389 155.407 219.329 156.697C219.269 157.987 219.187 159.345 219.082 160.77C218.977 162.195 218.834 163.627 218.654 165.068C218.414 165.098 218.039 165.12 217.529 165.135C217.034 165.165 216.509 165.18 215.954 165.18C215.384 165.18 214.837 165.165 214.312 165.135C213.787 165.12 213.382 165.098 213.097 165.068C213.292 163.927 213.472 162.69 213.637 161.355C213.817 160.005 213.967 158.64 214.087 157.26C214.207 155.865 214.267 154.545 214.267 153.3C214.267 151.83 214.154 150.555 213.929 149.475C213.704 148.38 213.269 147.532 212.624 146.932C211.979 146.317 211.034 146.01 209.789 146.01C208.574 146.01 207.449 146.22 206.414 146.64C205.394 147.045 204.487 147.532 203.692 148.102C202.897 148.657 202.244 149.167 201.734 149.632C201.689 152.107 201.607 154.372 201.487 156.427C201.382 158.467 201.262 160.245 201.127 161.76C200.992 163.26 200.872 164.437 200.767 165.293ZM242.177 160.297C241.772 161.047 241.135 161.797 240.265 162.547C239.395 163.297 238.307 163.927 237.002 164.437C235.712 164.933 234.227 165.18 232.547 165.18C230.327 165.18 228.407 164.617 226.787 163.492C225.167 162.367 223.922 160.867 223.052 158.992C222.182 157.117 221.747 155.062 221.747 152.827C221.747 150.412 222.182 148.267 223.052 146.392C223.937 144.517 225.197 143.047 226.832 141.982C228.482 140.902 230.477 140.362 232.817 140.362C234.212 140.362 235.48 140.587 236.62 141.037C237.76 141.487 238.75 142.102 239.59 142.882C240.43 143.647 241.105 144.51 241.615 145.47L237.902 147.765C237.827 147.6 237.692 147.352 237.497 147.022C237.317 146.692 237.04 146.34 236.665 145.965C236.29 145.59 235.795 145.275 235.18 145.02C234.58 144.765 233.83 144.637 232.93 144.637C231.625 144.637 230.522 144.945 229.622 145.56C228.737 146.16 228.062 147 227.597 148.08C227.132 149.145 226.9 150.397 226.9 151.837C226.9 153.142 227.087 154.402 227.462 155.617C227.837 156.832 228.452 157.83 229.307 158.61C230.177 159.375 231.325 159.757 232.75 159.757C233.62 159.757 234.392 159.622 235.067 159.352C235.757 159.067 236.342 158.737 236.822 158.362C237.302 157.972 237.685 157.612 237.97 157.282C238.255 156.937 238.435 156.705 238.51 156.585L242.177 160.297ZM264.393 160.32C264.063 160.77 263.591 161.257 262.976 161.782C262.376 162.307 261.641 162.802 260.771 163.267C259.901 163.732 258.888 164.115 257.733 164.415C256.593 164.715 255.311 164.865 253.886 164.865C251.621 164.865 249.633 164.415 247.923 163.515C246.213 162.615 244.878 161.295 243.918 159.555C242.973 157.815 242.501 155.677 242.501 153.142C242.501 150.682 243.011 148.545 244.031 146.73C245.051 144.9 246.453 143.49 248.238 142.5C250.038 141.495 252.108 140.992 254.448 140.992C257.388 140.992 259.691 141.87 261.356 143.625C263.036 145.365 263.951 147.727 264.101 150.712C264.116 151.207 264.116 151.68 264.101 152.13C264.101 152.565 264.071 153.03 264.011 153.525C263.801 153.51 263.366 153.495 262.706 153.48C262.061 153.45 261.311 153.427 260.456 153.412C259.616 153.382 258.791 153.36 257.981 153.345C257.171 153.315 256.503 153.3 255.978 153.3C254.538 153.3 253.083 153.375 251.613 153.525C250.143 153.66 248.853 153.81 247.743 153.975C247.758 154.335 247.788 154.687 247.833 155.032C247.893 155.362 247.961 155.677 248.036 155.977C248.276 156.802 248.703 157.515 249.318 158.115C249.933 158.7 250.668 159.15 251.523 159.465C252.378 159.78 253.278 159.937 254.223 159.937C255.198 159.937 256.053 159.802 256.788 159.532C257.538 159.247 258.191 158.902 258.746 158.497C259.301 158.077 259.766 157.665 260.141 157.26C260.516 156.855 260.831 156.525 261.086 156.27C261.176 156.345 261.363 156.532 261.648 156.832C261.948 157.117 262.278 157.462 262.638 157.867C263.013 158.272 263.358 158.692 263.673 159.127C264.003 159.547 264.243 159.945 264.393 160.32ZM247.878 150.577C248.823 150.412 249.948 150.27 251.253 150.15C252.558 150.03 254.051 149.97 255.731 149.97C256.616 149.97 257.373 149.985 258.003 150.015C258.633 150.03 259.083 150.052 259.353 150.082C259.353 149.647 259.293 149.182 259.173 148.687C259.023 148.012 258.746 147.367 258.341 146.752C257.936 146.122 257.388 145.605 256.698 145.2C256.023 144.78 255.191 144.57 254.201 144.57C253.016 144.57 251.951 144.825 251.006 145.335C250.061 145.845 249.311 146.55 248.756 147.45C248.216 148.35 247.923 149.392 247.878 150.577ZM284.006 164.842C282.476 164.842 281.216 164.475 280.226 163.74C279.236 163.005 278.456 162 277.886 160.725C277.316 159.435 276.918 157.957 276.693 156.292C276.468 154.612 276.356 152.835 276.356 150.96C276.356 149.37 276.416 147.742 276.536 146.077C276.656 144.397 276.791 142.762 276.941 141.172C277.646 141.172 278.471 141.195 279.416 141.24C280.376 141.27 281.223 141.315 281.958 141.375C281.778 143.16 281.636 144.9 281.531 146.595C281.426 148.29 281.373 149.88 281.373 151.365C281.373 152.985 281.471 154.432 281.666 155.707C281.861 156.967 282.183 157.957 282.633 158.677C283.098 159.397 283.736 159.757 284.546 159.757C285.251 159.757 285.858 159.442 286.368 158.812C286.878 158.182 287.291 157.312 287.606 156.202C287.936 155.077 288.176 153.772 288.326 152.288C288.476 150.802 288.551 149.205 288.551 147.495C288.551 146.625 288.543 145.65 288.528 144.57C288.513 143.49 288.491 142.492 288.461 141.577C288.806 141.577 289.278 141.585 289.878 141.6C290.478 141.6 291.078 141.607 291.678 141.622C292.278 141.637 292.758 141.66 293.118 141.69C293.118 142.365 293.118 143.04 293.118 143.715C293.118 144.375 293.118 145.027 293.118 145.672C293.118 147.832 293.148 149.805 293.208 151.59C293.268 153.375 293.411 154.92 293.636 156.225C293.861 157.515 294.206 158.512 294.671 159.218C295.151 159.922 295.803 160.275 296.628 160.275C297.408 160.275 298.068 159.93 298.608 159.24C299.148 158.55 299.583 157.597 299.913 156.382C300.243 155.167 300.476 153.772 300.611 152.197C300.761 150.622 300.836 148.957 300.836 147.202C300.836 146.692 300.828 146.115 300.813 145.47C300.813 144.81 300.806 144.142 300.791 143.467C300.776 142.792 300.753 142.162 300.723 141.577C301.053 141.562 301.413 141.555 301.803 141.555C302.193 141.555 302.576 141.555 302.951 141.555C303.326 141.555 303.768 141.57 304.278 141.6C304.788 141.63 305.193 141.66 305.493 141.69C305.538 142.245 305.576 142.89 305.606 143.625C305.651 144.36 305.681 145.087 305.696 145.807C305.726 146.527 305.741 147.157 305.741 147.697C305.741 149.467 305.643 151.185 305.448 152.85C305.253 154.515 304.938 156.06 304.503 157.485C304.083 158.91 303.521 160.162 302.816 161.242C302.126 162.322 301.286 163.162 300.296 163.762C299.306 164.362 298.143 164.662 296.808 164.662C295.728 164.662 294.813 164.482 294.063 164.122C293.313 163.762 292.698 163.282 292.218 162.682C291.753 162.082 291.386 161.43 291.116 160.725C290.846 160.005 290.643 159.292 290.508 158.587C290.388 157.882 290.313 157.237 290.283 156.652L291.228 156.787C291.168 157.627 290.981 158.52 290.666 159.465C290.351 160.395 289.901 161.272 289.316 162.097C288.731 162.907 287.996 163.567 287.111 164.077C286.226 164.587 285.191 164.842 284.006 164.842ZM314.64 165C314.4 165.015 314.01 165.038 313.47 165.068C312.945 165.113 312.39 165.135 311.805 165.135C311.34 165.135 310.875 165.12 310.41 165.09C309.96 165.06 309.525 165.015 309.105 164.955C309.165 164.565 309.24 163.762 309.33 162.547C309.42 161.332 309.51 159.892 309.6 158.227C309.705 156.562 309.795 154.845 309.87 153.075C309.96 151.29 310.028 149.632 310.073 148.102C310.118 146.557 310.14 145.32 310.14 144.39C310.35 144.375 310.673 144.36 311.108 144.345C311.558 144.315 312.038 144.292 312.548 144.277C313.058 144.247 313.545 144.225 314.01 144.21C314.475 144.195 314.835 144.187 315.09 144.187C315.15 144.622 315.195 145.29 315.225 146.19C315.27 147.09 315.293 148.095 315.293 149.205C315.293 150.6 315.278 152.107 315.248 153.727C315.218 155.332 315.173 156.9 315.113 158.43C315.053 159.96 314.978 161.317 314.888 162.502C314.813 163.672 314.73 164.505 314.64 165ZM312.885 140.88C311.745 140.88 310.823 140.542 310.118 139.867C309.413 139.192 309.06 138.33 309.06 137.28C309.06 136.53 309.233 135.892 309.578 135.367C309.923 134.827 310.373 134.422 310.928 134.152C311.498 133.867 312.098 133.725 312.728 133.725C313.763 133.725 314.603 134.077 315.248 134.782C315.893 135.487 316.215 136.372 316.215 137.437C316.215 138.382 315.908 139.192 315.293 139.867C314.678 140.542 313.875 140.88 312.885 140.88ZM335.422 161.22C335.167 161.88 334.785 162.577 334.275 163.312C333.765 164.047 333.075 164.67 332.205 165.18C331.335 165.705 330.232 165.968 328.897 165.968C327.172 165.968 325.785 165.593 324.735 164.842C323.7 164.092 322.95 163.11 322.485 161.895C322.035 160.665 321.81 159.33 321.81 157.89C321.81 157.11 321.817 156.232 321.832 155.257C321.862 154.282 321.892 153.277 321.922 152.242C321.952 151.207 321.982 150.217 322.012 149.272C322.057 148.327 322.095 147.495 322.125 146.775C322.155 146.04 322.177 145.492 322.192 145.132C320.827 145.267 319.612 145.417 318.547 145.582C317.497 145.747 316.807 145.867 316.477 145.942C316.372 145.357 316.29 144.742 316.23 144.097C316.17 143.437 316.125 142.86 316.095 142.365C316.08 141.855 316.072 141.525 316.072 141.375C316.912 141.255 317.872 141.135 318.952 141.015C320.032 140.895 321.12 140.805 322.215 140.745C322.215 140.22 322.207 139.545 322.192 138.72C322.192 137.895 322.185 137.122 322.17 136.402C322.17 135.787 322.147 135.187 322.102 134.602C322.057 134.002 322.012 133.507 321.967 133.117L327.03 132.757C327.045 132.982 327.067 133.485 327.097 134.265C327.127 135.045 327.142 135.99 327.142 137.1C327.142 137.565 327.142 138.112 327.142 138.742C327.142 139.357 327.142 139.927 327.142 140.452C327.622 140.422 328.192 140.392 328.852 140.362C329.512 140.332 330.037 140.317 330.427 140.317C331.117 140.287 331.762 140.272 332.362 140.272C332.962 140.272 333.472 140.28 333.892 140.295C334.312 140.31 334.575 140.317 334.68 140.317C334.755 140.827 334.807 141.51 334.837 142.365C334.867 143.205 334.882 143.917 334.882 144.502C334.732 144.487 334.222 144.487 333.352 144.502C332.497 144.502 331.65 144.51 330.81 144.525C330.225 144.54 329.572 144.57 328.852 144.615C328.132 144.66 327.54 144.697 327.075 144.727C327.06 145.102 327.03 145.635 326.985 146.325C326.955 147.015 326.925 147.795 326.895 148.665C326.88 149.52 326.857 150.397 326.827 151.297C326.797 152.182 326.775 153.022 326.76 153.817C326.745 154.612 326.737 155.272 326.737 155.797C326.737 156.757 326.79 157.657 326.895 158.497C327 159.322 327.247 159.997 327.637 160.522C328.042 161.032 328.672 161.287 329.527 161.287C330.112 161.287 330.585 161.092 330.945 160.702C331.32 160.312 331.612 159.862 331.822 159.352C332.047 158.842 332.22 158.407 332.34 158.047C332.49 158.227 332.715 158.475 333.015 158.79C333.315 159.105 333.63 159.435 333.96 159.78C334.305 160.11 334.612 160.41 334.882 160.68C335.152 160.95 335.332 161.13 335.422 161.22ZM342.394 165.383C342.109 165.413 341.726 165.435 341.246 165.45C340.766 165.48 340.264 165.495 339.739 165.495C339.169 165.495 338.621 165.473 338.096 165.428C337.586 165.398 337.211 165.338 336.971 165.248C337.091 164.242 337.196 162.96 337.286 161.4C337.391 159.84 337.474 158.1 337.534 156.18C337.609 154.26 337.646 152.265 337.646 150.195C337.646 148.215 337.616 146.22 337.556 144.21C337.496 142.2 337.421 140.257 337.331 138.382C337.241 136.507 337.144 134.797 337.039 133.252C337.159 133.207 337.429 133.147 337.849 133.072C338.269 132.997 338.749 132.922 339.289 132.847C339.829 132.757 340.339 132.682 340.819 132.622C341.314 132.562 341.681 132.532 341.921 132.532C342.161 133.657 342.364 135.045 342.529 136.695C342.694 138.33 342.821 140.122 342.911 142.072C343.016 144.007 343.084 145.995 343.114 148.035C343.624 147.42 344.291 146.842 345.116 146.302C345.941 145.762 346.856 145.327 347.861 144.997C348.866 144.667 349.879 144.502 350.899 144.502C352.609 144.502 353.944 144.87 354.904 145.605C355.864 146.325 356.539 147.36 356.929 148.71C357.319 150.045 357.514 151.642 357.514 153.502C357.514 154.657 357.469 155.917 357.379 157.282C357.289 158.647 357.169 160.005 357.019 161.355C356.884 162.705 356.734 163.942 356.569 165.068C356.179 165.128 355.759 165.173 355.309 165.203C354.874 165.233 354.431 165.248 353.981 165.248C353.516 165.248 353.051 165.225 352.586 165.18C352.121 165.135 351.709 165.083 351.349 165.023C351.454 164.317 351.566 163.507 351.686 162.592C351.806 161.677 351.919 160.74 352.024 159.78C352.129 158.805 352.211 157.86 352.271 156.945C352.346 156.03 352.384 155.212 352.384 154.492C352.384 153.397 352.286 152.452 352.091 151.657C351.896 150.862 351.559 150.247 351.079 149.812C350.614 149.377 349.939 149.16 349.054 149.16C348.319 149.16 347.621 149.31 346.961 149.61C346.316 149.91 345.724 150.277 345.184 150.712C344.659 151.147 344.216 151.567 343.856 151.972C343.496 152.377 343.249 152.677 343.114 152.872C343.114 154.492 343.076 156.127 343.001 157.777C342.926 159.427 342.836 160.927 342.731 162.277C342.626 163.627 342.514 164.662 342.394 165.383ZM381.707 165.788C379.097 165.788 377.05 165.142 375.565 163.852C374.08 162.547 372.985 160.725 372.28 158.385C371.71 156.585 371.342 154.447 371.177 151.972C371.012 149.497 370.93 146.73 370.93 143.67C370.93 142.965 370.937 142.207 370.952 141.397C370.967 140.587 370.99 139.77 371.02 138.945C371.05 138.12 371.08 137.34 371.11 136.605C371.14 135.855 371.162 135.195 371.177 134.625C371.627 134.58 372.085 134.542 372.55 134.512C373.03 134.467 373.487 134.445 373.922 134.445C374.522 134.445 375.115 134.467 375.7 134.512C376.285 134.557 376.795 134.602 377.23 134.647C377.125 135.847 377.027 137.16 376.937 138.585C376.862 139.995 376.802 141.427 376.757 142.882C376.727 144.322 376.712 145.687 376.712 146.977C376.712 148.597 376.757 150.045 376.847 151.32C376.952 152.58 377.117 153.682 377.342 154.627C377.732 156.277 378.317 157.5 379.097 158.295C379.892 159.09 380.905 159.487 382.135 159.487C383.35 159.487 384.317 159.06 385.037 158.205C385.757 157.35 386.275 156.127 386.59 154.537C386.92 152.947 387.085 151.042 387.085 148.822C387.085 148.177 387.077 147.39 387.062 146.46C387.047 145.53 387.017 144.532 386.972 143.467C386.942 142.402 386.897 141.345 386.837 140.295C386.792 139.245 386.732 138.27 386.657 137.37C386.597 136.455 386.53 135.697 386.455 135.097C386.905 135.097 387.422 135.12 388.007 135.165C388.592 135.195 389.17 135.232 389.74 135.277C390.325 135.322 390.835 135.382 391.27 135.457C391.72 135.517 392.027 135.57 392.192 135.615C392.327 136.455 392.44 137.4 392.53 138.45C392.62 139.485 392.687 140.565 392.732 141.69C392.777 142.815 392.8 143.925 392.8 145.02C392.8 147.99 392.657 150.735 392.372 153.255C392.087 155.775 391.547 157.972 390.752 159.847C389.972 161.722 388.855 163.185 387.4 164.235C385.945 165.27 384.047 165.788 381.707 165.788ZM404.115 166.8C402.6 166.8 401.137 166.598 399.727 166.193C398.332 165.803 397.087 165.293 395.992 164.662C394.897 164.032 394.05 163.372 393.45 162.682C393.54 162.457 393.697 162.135 393.922 161.715C394.147 161.28 394.402 160.822 394.687 160.342C394.972 159.862 395.257 159.42 395.542 159.015C395.842 158.595 396.105 158.28 396.33 158.07C396.99 158.76 397.762 159.427 398.647 160.072C399.532 160.717 400.462 161.242 401.437 161.647C402.427 162.037 403.395 162.232 404.34 162.232C405.195 162.232 405.967 162.112 406.657 161.872C407.362 161.617 407.917 161.257 408.322 160.792C408.742 160.312 408.952 159.735 408.952 159.06C408.952 158.28 408.675 157.59 408.12 156.99C407.565 156.375 406.83 155.827 405.915 155.347C405.015 154.867 404.025 154.425 402.945 154.02C401.61 153.51 400.387 152.947 399.277 152.332C398.167 151.702 397.275 150.922 396.6 149.992C395.925 149.047 395.587 147.855 395.587 146.415C395.587 144.96 396.007 143.745 396.847 142.77C397.702 141.78 398.812 141.037 400.177 140.542C401.557 140.032 403.035 139.777 404.61 139.777C406.29 139.777 407.88 140.002 409.38 140.452C410.88 140.887 412.065 141.427 412.935 142.072C412.86 142.342 412.71 142.71 412.485 143.175C412.26 143.64 411.99 144.127 411.675 144.637C411.375 145.147 411.052 145.605 410.707 146.01C410.032 145.515 409.192 145.042 408.187 144.592C407.182 144.142 406.102 143.917 404.947 143.917C404.242 143.917 403.552 144 402.877 144.165C402.217 144.33 401.67 144.6 401.235 144.975C400.815 145.35 400.605 145.867 400.605 146.527C400.605 147.112 400.822 147.63 401.257 148.08C401.692 148.53 402.285 148.942 403.035 149.317C403.8 149.692 404.677 150.067 405.667 150.442C406.777 150.832 407.835 151.282 408.84 151.792C409.86 152.302 410.76 152.895 411.54 153.57C412.32 154.23 412.935 154.995 413.385 155.865C413.835 156.735 414.06 157.725 414.06 158.835C414.06 160.605 413.61 162.082 412.71 163.267C411.81 164.437 410.61 165.315 409.11 165.9C407.61 166.5 405.945 166.8 404.115 166.8Z" fill="black"/>
<path d="M13.1438 39.172L12.4067 40.8172C11.4123 43.0367 10.6225 45.3422 10.0469 47.7052L9.99475 47.9193L9.2591 52.0266L9.10881 55.7684L9 59.3795L9.17211 62.0312L10.0856 66.468L10.5205 67.9409C10.9915 69.5361 11.7321 71.0389 12.7102 72.3841L12.8077 72.5182C13.2639 73.1456 13.7763 73.7302 14.3387 74.2646V74.2646C15.6507 75.5114 17.2129 76.4648 18.9216 77.0616L23.6405 78.7097V78.7097C29.9314 80.9565 36.8442 80.7069 42.9566 78.0122L47.7014 75.9205L62.1283 68.5629L71.3519 62.4552L79.1916 55.6268L86.1431 49.0174L92.271 41.5399L96.4502 35.8934C97.5933 34.3489 98.6237 32.7241 99.5333 31.0315L100.596 29.0542L101.313 27.1987C102.009 25.3994 102.366 23.487 102.366 21.5579V20.5479C102.366 18.3124 101.745 16.1209 100.573 14.2173L100.288 13.7546C99.3904 12.2964 98.133 11.0933 96.6365 10.2607V10.2607C95.1503 9.43392 93.4778 9 91.7772 9H89.4719L86.9565 9.12174C85.3864 9.19773 83.8265 9.41826 82.2968 9.78052V9.78052C80.4456 10.2189 78.649 10.8624 76.9404 11.6991L71.0135 14.6014L65.1047 18.1916C62.9733 19.4867 60.9678 20.9782 59.1142 22.6467L54.6273 26.6857L48.1903 33.7075L41.8179 42.2986L37.1654 50.2448L34.6802 55.1241C33.8005 56.8512 33.0475 58.6399 32.4272 60.4761L30.8668 65.0949C29.9799 67.7203 29.3682 70.4306 29.0415 73.1824L27.5978 85.3452C27.2957 87.8897 27.5436 90.4694 28.3245 92.9099V92.9099C29.378 96.2019 31.3622 99.1185 34.0373 101.307L34.928 102.036C36.7175 103.5 38.7667 104.614 40.9685 105.32V105.32C42.6377 105.855 44.3749 106.148 46.1272 106.192L47.507 106.227C49.0018 106.264 50.4973 106.182 51.9791 105.981L58.481 105.098C61.1171 104.74 63.7108 104.12 66.2237 103.247L72.3162 101.13C75.6446 99.9741 78.8056 98.3832 81.7173 96.3989L92.271 89.2065L102.184 81.1992L112.785 70.3157" stroke="#1A69FA" stroke-width="17" stroke-linecap="round"/>
<path d="M92.2245 64.8518L118.339 91.3822C118.339 91.3828 118.34 91.3825 118.341 91.3818L127.423 56.006C127.423 56.0053 127.422 56.0046 127.421 56.0048L92.225 64.8501C92.2242 64.8503 92.224 64.8513 92.2245 64.8518Z" fill="#1A69FA" stroke="#1A69FA" stroke-width="6" stroke-linecap="round"/>
</svg>
