<svg width="418" height="101" viewBox="0 0 418 101" fill="none" xmlns="http://www.w3.org/2000/svg">
<path d="M11.1955 31.2674L10.0855 33.7449C9.67901 34.6523 9.3561 35.5949 9.1208 36.5609V36.5609L8.76711 38.0129L8.48346 39.5966L8.19981 41.1803L8.08391 44.0658L8 46.8506L8.13272 48.8954L8.83715 52.3169L9.17255 53.4528C9.5358 54.6829 10.1069 55.8418 10.8612 56.8792L10.9363 56.9826C11.2881 57.4665 11.6833 57.9172 12.117 58.3293V58.3293C13.1287 59.2908 14.3335 60.0261 15.6512 60.4863L19.2902 61.7573V61.7573C24.1414 63.4899 29.4723 63.2974 34.1859 61.2194L37.8449 59.6063L48.9703 53.9324L56.0832 49.2224L62.1288 43.9566L67.4895 38.8598L72.2152 33.0934L75.0451 29.2699C76.1882 27.7255 77.2186 26.1006 78.1281 24.4081L78.6349 23.465L79.1882 22.0341C79.7247 20.6466 79.9999 19.1718 79.9999 17.6842V16.9053C79.9999 15.1814 79.5213 13.4913 78.6175 12.0234L78.3978 11.6666C77.7054 10.542 76.7356 9.61425 75.5816 8.97221V8.97221C74.4356 8.33462 73.1458 8 71.8344 8H70.0566L68.1169 8.09388C66.906 8.15248 65.7031 8.32254 64.5235 8.60191V8.60191C63.0959 8.93999 61.7105 9.43624 60.3929 10.0814L55.8223 12.3196L51.9988 14.6427C49.8675 15.9377 47.8619 17.4293 46.0083 19.0978L43.1859 21.6385L38.2219 27.0534L33.3078 33.6785L29.72 39.8063L28.1058 42.9754C27.2262 44.7024 26.4732 46.4912 25.8528 48.3274L25.168 50.3545C24.2811 52.9798 23.6694 55.6902 23.3428 58.442L22.3418 66.8743C22.1089 68.8365 22.3 70.8258 22.9023 72.7078V72.7078C23.7146 75.2465 25.2448 77.4957 27.3078 79.1836L27.9946 79.7455C29.3746 80.8746 30.9548 81.7336 32.6528 82.2777V82.2777C33.94 82.6903 35.2796 82.9168 36.631 82.9506L37.695 82.9772C38.8478 83.0061 40.001 82.9426 41.1437 82.7874L45.2506 82.2297C47.8867 81.8717 50.4804 81.2516 52.9933 80.3787L55.6793 79.4457C59.0077 78.2895 62.1688 76.6986 65.0804 74.7143L72.2152 69.8519L79.8595 63.677L88.0344 55.2841" stroke="#1A69FA" stroke-width="15" stroke-linecap="round"/>
<path d="M72.1798 51.0706L92.3176 71.5291C92.3182 71.5297 92.3191 71.5294 92.3193 71.5287L99.3229 44.2492C99.323 44.2484 99.3224 44.2478 99.3216 44.2479L72.1803 51.0689C72.1796 51.0691 72.1793 51.07 72.1798 51.0706Z" fill="#1A69FA" stroke="#1A69FA" stroke-width="6" stroke-linecap="round"/>
<path d="M161.63 73.42C159.203 73.2567 156.812 73.1167 154.455 73C152.122 72.9067 149.718 72.825 147.245 72.755C145.635 72.7083 143.955 72.65 142.205 72.58C140.478 72.51 138.81 72.4517 137.2 72.405C137.06 68.6483 136.955 64.9733 136.885 61.38C136.815 57.7633 136.78 54.345 136.78 51.125C136.78 45.5017 136.827 40.8117 136.92 37.055C137.013 33.2983 137.107 30.685 137.2 29.215C141.447 28.4683 145.39 27.92 149.03 27.57C152.67 27.1967 155.703 26.9517 158.13 26.835C160.58 26.7183 162.12 26.66 162.75 26.66C162.75 27.85 162.715 28.9933 162.645 30.09C162.575 31.1633 162.482 32.3183 162.365 33.555L145.495 34.92C145.472 35.3867 145.448 36.075 145.425 36.985C145.402 37.8717 145.378 38.8283 145.355 39.855C145.332 40.8817 145.32 41.85 145.32 42.76C145.32 43.6467 145.32 44.3233 145.32 44.79C145.857 44.7667 146.615 44.7433 147.595 44.72C148.575 44.6967 149.66 44.6733 150.85 44.65C152.063 44.6033 153.277 44.5683 154.49 44.545C155.727 44.5217 156.858 44.4983 157.885 44.475C158.935 44.4517 159.775 44.44 160.405 44.44L160.44 51.755C160.113 51.7317 159.448 51.7083 158.445 51.685C157.442 51.6617 156.275 51.6383 154.945 51.615C153.615 51.5917 152.273 51.58 150.92 51.58C149.59 51.5567 148.4 51.545 147.35 51.545C146.3 51.5217 145.553 51.51 145.11 51.51C145.11 51.79 145.098 52.3267 145.075 53.12C145.075 53.89 145.075 54.8 145.075 55.85C145.075 56.8767 145.063 57.95 145.04 59.07C145.04 60.1667 145.04 61.1933 145.04 62.15C145.04 63.1067 145.04 63.8767 145.04 64.46C145.483 64.4367 146.358 64.425 147.665 64.425C148.972 64.425 150.243 64.425 151.48 64.425C152.903 64.425 154.315 64.4483 155.715 64.495C157.138 64.5183 158.445 64.565 159.635 64.635C160.848 64.705 161.817 64.7633 162.54 64.81C162.54 65.51 162.505 66.3033 162.435 67.19C162.365 68.0767 162.283 68.9517 162.19 69.815C162.097 70.6783 162.003 71.4367 161.91 72.09C161.817 72.72 161.723 73.1633 161.63 73.42ZM190.751 72.895C190.728 72.5217 190.704 71.9733 190.681 71.25C190.681 70.5033 190.669 69.7567 190.646 69.01C190.646 68.2633 190.646 67.7033 190.646 67.33C190.436 67.6567 190.039 68.1233 189.456 68.73C188.896 69.3367 188.126 69.9667 187.146 70.62C186.166 71.25 184.941 71.7867 183.471 72.23C182.001 72.6733 180.263 72.895 178.256 72.895C175.176 72.895 172.539 72.2067 170.346 70.83C168.176 69.43 166.519 67.505 165.376 65.055C164.233 62.605 163.661 59.7933 163.661 56.62C163.661 53.61 164.233 50.7983 165.376 48.185C166.543 45.5717 168.293 43.46 170.626 41.85C172.959 40.24 175.864 39.435 179.341 39.435C181.348 39.435 183.133 39.6567 184.696 40.1C186.259 40.5433 187.578 41.08 188.651 41.71C189.724 42.3167 190.494 42.8883 190.961 43.425C191.008 42.3283 191.078 40.9983 191.171 39.435C191.288 37.8483 191.404 36.2033 191.521 34.5C191.661 32.7733 191.789 31.1167 191.906 29.53C192.023 27.92 192.128 26.52 192.221 25.33C192.338 24.14 192.431 23.3233 192.501 22.88C193.574 22.88 194.764 22.9383 196.071 23.055C197.401 23.1483 198.544 23.3117 199.501 23.545C199.104 28.9583 198.789 34.36 198.556 39.75C198.346 45.14 198.194 50.5883 198.101 56.095C198.031 61.6017 197.996 67.2717 197.996 73.105C197.576 73.105 196.888 73.0933 195.931 73.07C194.974 73.07 194.006 73.0467 193.026 73C192.046 72.9767 191.288 72.9417 190.751 72.895ZM180.321 65.23C181.744 65.23 183.016 65.0317 184.136 64.635C185.279 64.2383 186.259 63.7367 187.076 63.13C187.916 62.5233 188.616 61.9167 189.176 61.31C189.736 60.68 190.168 60.155 190.471 59.735C190.471 59.1983 190.471 58.475 190.471 57.565C190.471 56.655 190.471 55.6983 190.471 54.695C190.494 53.6683 190.506 52.7233 190.506 51.86C190.529 50.9733 190.553 50.3083 190.576 49.865C190.063 49.375 189.293 48.8617 188.266 48.325C187.263 47.7883 186.096 47.3333 184.766 46.96C183.459 46.5633 182.083 46.365 180.636 46.365C177.649 46.365 175.351 47.2517 173.741 49.025C172.154 50.775 171.361 53.12 171.361 56.06C171.361 59.07 172.131 61.3567 173.671 62.92C175.234 64.46 177.451 65.23 180.321 65.23ZM225.622 38.245C226.065 38.105 226.684 38 227.477 37.93C228.294 37.8367 229.087 37.79 229.857 37.79C230.534 37.79 231.269 37.8133 232.062 37.86C232.855 37.9067 233.497 37.9767 233.987 38.07C234.337 40.2167 234.617 42.3983 234.827 44.615C235.06 46.8083 235.177 48.9783 235.177 51.125C235.177 54.3683 234.897 57.425 234.337 60.295C233.777 63.1417 232.855 65.6617 231.572 67.855C230.312 70.025 228.62 71.7283 226.497 72.965C224.374 74.2017 221.737 74.82 218.587 74.82C215.18 74.82 212.38 74.155 210.187 72.825C207.994 71.4717 206.29 69.605 205.077 67.225C203.864 64.845 203.012 62.08 202.522 58.93C202.032 55.78 201.787 52.3967 201.787 48.78C201.787 46.82 201.845 44.825 201.962 42.795C202.102 40.7417 202.242 38.735 202.382 36.775C202.872 36.7283 203.49 36.705 204.237 36.705C205.007 36.705 205.695 36.7167 206.302 36.74C207.165 36.7633 208.029 36.8217 208.892 36.915C209.779 37.0083 210.49 37.1367 211.027 37.3C210.817 39.2367 210.642 41.1967 210.502 43.18C210.362 45.14 210.292 47.065 210.292 48.955C210.292 52.735 210.595 55.99 211.202 58.72C211.809 61.4267 212.73 63.515 213.967 64.985C215.204 66.4317 216.79 67.155 218.727 67.155C220.547 67.155 222.052 66.5017 223.242 65.195C224.432 63.865 225.319 61.9867 225.902 59.56C226.509 57.1333 226.812 54.2633 226.812 50.95C226.812 48.8733 226.707 46.75 226.497 44.58C226.287 42.3867 225.995 40.275 225.622 38.245ZM260.788 34.815C262.071 35.025 263.261 35.2817 264.358 35.585C265.478 35.865 266.411 36.1217 267.158 36.355C267.904 36.5883 268.359 36.74 268.523 36.81C268.103 38.49 267.543 40.4967 266.843 42.83C266.143 45.1633 265.338 47.6717 264.428 50.355C263.541 53.0383 262.608 55.745 261.628 58.475C260.648 61.205 259.679 63.8183 258.723 66.315C257.766 68.7883 256.868 70.9817 256.028 72.895C255.094 73.0583 253.893 73.14 252.423 73.14C251.769 73.14 251.128 73.1167 250.498 73.07C249.868 73.0233 249.319 72.965 248.853 72.895C247.569 70.235 246.321 67.4 245.108 64.39C243.894 61.3567 242.716 58.265 241.573 55.115C240.429 51.965 239.344 48.8267 238.318 45.7C237.314 42.55 236.381 39.5167 235.518 36.6C235.844 36.5067 236.311 36.39 236.918 36.25C237.548 36.11 238.224 35.9467 238.948 35.76C239.694 35.5733 240.406 35.3983 241.083 35.235C241.783 35.0483 242.366 34.8967 242.833 34.78C243.206 36.25 243.708 38.035 244.338 40.135C244.991 42.2117 245.703 44.4167 246.473 46.75C247.243 49.06 248.024 51.3233 248.818 53.54C249.611 55.7567 250.334 57.7517 250.988 59.525C251.664 61.2983 252.213 62.675 252.633 63.655L252.143 63.795C252.679 62.395 253.251 60.7967 253.858 59C254.488 57.2033 255.129 55.29 255.783 53.26C256.436 51.23 257.078 49.1533 257.708 47.03C258.338 44.9067 258.909 42.8067 259.423 40.73C259.959 38.6533 260.414 36.6817 260.788 34.815ZM283.566 73.665C280.65 73.665 278.001 73.28 275.621 72.51C273.264 71.74 271.374 70.48 269.951 68.73C268.551 66.98 267.851 64.6583 267.851 61.765C267.851 58.9183 268.644 56.5967 270.231 54.8C271.841 53.0033 273.976 51.685 276.636 50.845C279.319 49.9817 282.283 49.55 285.526 49.55C286.973 49.55 288.373 49.655 289.726 49.865C291.08 50.075 292.258 50.32 293.261 50.6C294.265 50.8567 294.953 51.09 295.326 51.3C295.256 50.5767 295.116 49.8417 294.906 49.095C294.696 48.325 294.393 47.66 293.996 47.1C293.18 45.7233 292.001 44.5917 290.461 43.705C288.944 42.8183 287.008 42.375 284.651 42.375C282.201 42.375 280.101 42.9117 278.351 43.985C276.601 45.0583 275.283 46.3067 274.396 47.73L267.781 43.39C268.808 41.8967 270.184 40.5783 271.911 39.435C273.638 38.2683 275.609 37.3583 277.826 36.705C280.043 36.0283 282.399 35.69 284.896 35.69C288.91 35.69 292.2 36.4133 294.766 37.86C297.333 39.3067 299.211 41.255 300.401 43.705C301.008 44.9183 301.486 46.2483 301.836 47.695C302.209 49.1417 302.443 50.8917 302.536 52.945C302.583 54.9983 302.63 56.7833 302.676 58.3C302.746 59.8167 302.816 61.17 302.886 62.36C302.956 63.97 303.166 65.0083 303.516 65.475C303.89 65.9417 304.391 66.175 305.021 66.175C305.745 66.175 306.351 65.9067 306.841 65.37C307.331 64.8333 307.623 64.075 307.716 63.095L311.181 67.89C311.018 69.57 310.318 70.8767 309.081 71.81C307.868 72.72 306.398 73.175 304.671 73.175C303.365 73.175 302.186 72.93 301.136 72.44C300.086 71.95 299.235 71.32 298.581 70.55C297.928 69.7567 297.543 68.9167 297.426 68.03C297.006 68.8933 296.143 69.7683 294.836 70.655C293.553 71.5183 291.954 72.2417 290.041 72.825C288.128 73.385 285.97 73.665 283.566 73.665ZM285.176 67.26C286.553 67.26 287.918 67.05 289.271 66.63C290.625 66.21 291.861 65.6617 292.981 64.985C294.125 64.285 295.046 63.5383 295.746 62.745C295.7 61.555 295.676 60.4583 295.676 59.455C295.676 58.4283 295.7 57.5067 295.746 56.69C295.139 56.4567 293.949 56.1767 292.176 55.85C290.426 55.5 288.49 55.325 286.366 55.325C284.523 55.325 282.831 55.5583 281.291 56.025C279.751 56.4917 278.514 57.18 277.581 58.09C276.671 58.9767 276.216 60.0733 276.216 61.38C276.216 62.8967 276.589 64.0867 277.336 64.95C278.106 65.79 279.156 66.385 280.486 66.735C281.839 67.085 283.403 67.26 285.176 67.26ZM318.073 73.455C317.537 73.455 316.883 73.455 316.113 73.455C315.367 73.455 314.608 73.455 313.838 73.455C313.162 73.4317 312.38 73.3967 311.493 73.35C310.63 73.3033 310.012 73.2567 309.638 73.21C309.848 71.2733 310.035 69.1267 310.198 66.77C310.385 64.4133 310.525 61.7767 310.618 58.86C310.735 55.92 310.817 52.63 310.863 48.99C310.933 45.35 310.968 41.2783 310.968 36.775C311.645 36.6817 312.438 36.6 313.348 36.53C314.282 36.46 315.227 36.425 316.183 36.425C316.837 36.425 317.467 36.4483 318.073 36.495C318.703 36.5183 319.252 36.565 319.718 36.635C319.742 36.8683 319.753 37.3233 319.753 38C319.753 38.6767 319.753 39.4117 319.753 40.205C319.753 40.9983 319.742 41.6983 319.718 42.305C320.512 41.395 321.655 40.4383 323.148 39.435C324.665 38.4317 326.38 37.5917 328.293 36.915C330.23 36.2383 332.178 35.9 334.138 35.9C337.685 35.9 340.392 36.6117 342.258 38.035C344.125 39.435 345.397 41.535 346.073 44.335C346.75 47.135 347.088 50.6 347.088 54.73C347.088 56.2933 347.042 58.0783 346.948 60.085C346.855 62.0917 346.727 64.2033 346.563 66.42C346.4 68.6367 346.178 70.865 345.898 73.105C345.525 73.1517 344.942 73.1867 344.148 73.21C343.378 73.2567 342.562 73.28 341.698 73.28C340.812 73.28 339.96 73.2567 339.143 73.21C338.327 73.1867 337.697 73.1517 337.253 73.105C337.557 71.3317 337.837 69.4067 338.093 67.33C338.373 65.23 338.607 63.1067 338.793 60.96C338.98 58.79 339.073 56.7367 339.073 54.8C339.073 52.5133 338.898 50.53 338.548 48.85C338.198 47.1467 337.522 45.8283 336.518 44.895C335.515 43.9383 334.045 43.46 332.108 43.46C330.218 43.46 328.468 43.7867 326.858 44.44C325.272 45.07 323.86 45.8283 322.623 46.715C321.387 47.5783 320.372 48.3717 319.578 49.095C319.508 52.945 319.38 56.4683 319.193 59.665C319.03 62.8383 318.843 65.6033 318.633 67.96C318.423 70.2933 318.237 72.125 318.073 73.455ZM381.79 65.685C381.16 66.8517 380.168 68.0183 378.815 69.185C377.462 70.3517 375.77 71.3317 373.74 72.125C371.733 72.895 369.423 73.28 366.81 73.28C363.357 73.28 360.37 72.405 357.85 70.655C355.33 68.905 353.393 66.5717 352.04 63.655C350.687 60.7383 350.01 57.5417 350.01 54.065C350.01 50.3083 350.687 46.9717 352.04 44.055C353.417 41.1383 355.377 38.8517 357.92 37.195C360.487 35.515 363.59 34.675 367.23 34.675C369.4 34.675 371.372 35.025 373.145 35.725C374.918 36.425 376.458 37.3817 377.765 38.595C379.072 39.785 380.122 41.1267 380.915 42.62L375.14 46.19C375.023 45.9333 374.813 45.5483 374.51 45.035C374.23 44.5217 373.798 43.9733 373.215 43.39C372.632 42.8067 371.862 42.3167 370.905 41.92C369.972 41.5233 368.805 41.325 367.405 41.325C365.375 41.325 363.66 41.8033 362.26 42.76C360.883 43.6933 359.833 45 359.11 46.68C358.387 48.3367 358.025 50.285 358.025 52.525C358.025 54.555 358.317 56.515 358.9 58.405C359.483 60.295 360.44 61.8467 361.77 63.06C363.123 64.25 364.908 64.845 367.125 64.845C368.478 64.845 369.68 64.635 370.73 64.215C371.803 63.7717 372.713 63.2583 373.46 62.675C374.207 62.0683 374.802 61.5083 375.245 60.995C375.688 60.4583 375.968 60.0967 376.085 59.91L381.79 65.685ZM415.649 65.72C415.135 66.42 414.4 67.1783 413.444 67.995C412.51 68.8117 411.367 69.5817 410.014 70.305C408.66 71.0283 407.085 71.6233 405.289 72.09C403.515 72.5567 401.52 72.79 399.304 72.79C395.78 72.79 392.689 72.09 390.029 70.69C387.369 69.29 385.292 67.2367 383.799 64.53C382.329 61.8233 381.594 58.4983 381.594 54.555C381.594 50.7283 382.387 47.4033 383.974 44.58C385.56 41.7333 387.742 39.54 390.519 38C393.319 36.4367 396.539 35.655 400.179 35.655C404.752 35.655 408.334 37.02 410.924 39.75C413.537 42.4567 414.96 46.1317 415.194 50.775C415.217 51.545 415.217 52.28 415.194 52.98C415.194 53.6567 415.147 54.38 415.054 55.15C414.727 55.1267 414.05 55.1033 413.024 55.08C412.02 55.0333 410.854 54.9983 409.524 54.975C408.217 54.9283 406.934 54.8933 405.674 54.87C404.414 54.8233 403.375 54.8 402.559 54.8C400.319 54.8 398.055 54.9167 395.769 55.15C393.482 55.36 391.475 55.5933 389.749 55.85C389.772 56.41 389.819 56.9583 389.889 57.495C389.982 58.0083 390.087 58.4983 390.204 58.965C390.577 60.2483 391.242 61.3567 392.199 62.29C393.155 63.2 394.299 63.9 395.629 64.39C396.959 64.88 398.359 65.125 399.829 65.125C401.345 65.125 402.675 64.915 403.819 64.495C404.985 64.0517 406 63.515 406.864 62.885C407.727 62.2317 408.45 61.59 409.034 60.96C409.617 60.33 410.107 59.8167 410.504 59.42C410.644 59.5367 410.935 59.8283 411.379 60.295C411.845 60.7383 412.359 61.275 412.919 61.905C413.502 62.535 414.039 63.1883 414.529 63.865C415.042 64.5183 415.415 65.1367 415.649 65.72ZM389.959 50.565C391.429 50.3083 393.179 50.0867 395.209 49.9C397.239 49.7133 399.56 49.62 402.174 49.62C403.55 49.62 404.729 49.6433 405.709 49.69C406.689 49.7133 407.389 49.7483 407.809 49.795C407.809 49.1183 407.715 48.395 407.529 47.625C407.295 46.575 406.864 45.5717 406.234 44.615C405.604 43.635 404.752 42.83 403.679 42.2C402.629 41.5467 401.334 41.22 399.794 41.22C397.95 41.22 396.294 41.6167 394.824 42.41C393.354 43.2033 392.187 44.3 391.324 45.7C390.484 47.1 390.029 48.7217 389.959 50.565Z" fill="black"/>
</svg>
