<svg width="131" height="115" viewBox="0 0 131 115" fill="none" xmlns="http://www.w3.org/2000/svg">
<path d="M13.1438 39.172L12.4067 40.8172C11.4123 43.0367 10.6225 45.3422 10.0469 47.7052L9.99475 47.9193L9.2591 52.0266L9.10881 55.7684L9 59.3795L9.17211 62.0312L10.0856 66.468L10.5205 67.9409C10.9915 69.5361 11.7321 71.0389 12.7102 72.3841L12.8077 72.5182C13.2639 73.1456 13.7763 73.7302 14.3387 74.2646V74.2646C15.6507 75.5114 17.2129 76.4648 18.9216 77.0616L23.6405 78.7097V78.7097C29.9314 80.9565 36.8442 80.7069 42.9566 78.0122L47.7014 75.9205L62.1283 68.5629L71.3519 62.4552L79.1916 55.6268L86.1431 49.0174L92.271 41.5399L96.4502 35.8934C97.5933 34.3489 98.6237 32.7241 99.5333 31.0315L100.596 29.0542L101.313 27.1987C102.009 25.3994 102.366 23.487 102.366 21.5579V20.5479C102.366 18.3124 101.745 16.1209 100.573 14.2173L100.288 13.7546C99.3904 12.2964 98.133 11.0933 96.6365 10.2607V10.2607C95.1503 9.43392 93.4778 9 91.7772 9H89.4719L86.9565 9.12174C85.3864 9.19773 83.8265 9.41826 82.2968 9.78052V9.78052C80.4456 10.2189 78.649 10.8624 76.9404 11.6991L71.0135 14.6014L65.1047 18.1916C62.9733 19.4867 60.9678 20.9782 59.1142 22.6467L54.6273 26.6857L48.1903 33.7075L41.8179 42.2986L37.1654 50.2448L34.6802 55.1241C33.8005 56.8512 33.0475 58.6399 32.4272 60.4761L30.8668 65.0949C29.9799 67.7203 29.3682 70.4306 29.0415 73.1824L27.5978 85.3452C27.2957 87.8897 27.5436 90.4694 28.3245 92.9099V92.9099C29.378 96.2019 31.3622 99.1185 34.0373 101.307L34.928 102.036C36.7175 103.5 38.7667 104.614 40.9685 105.32V105.32C42.6377 105.855 44.3749 106.148 46.1272 106.192L47.507 106.227C49.0018 106.264 50.4973 106.182 51.9791 105.981L58.481 105.098C61.1171 104.74 63.7108 104.12 66.2237 103.247L72.3162 101.13C75.6446 99.9741 78.8056 98.3832 81.7173 96.3989L92.271 89.2065L102.184 81.1992L112.785 70.3157" stroke="white" stroke-width="17" stroke-linecap="round"/>
<path d="M92.2245 64.8518L118.339 91.3822C118.339 91.3828 118.34 91.3825 118.341 91.3818L127.423 56.006C127.423 56.0053 127.422 56.0046 127.421 56.0048L92.225 64.8501C92.2242 64.8503 92.224 64.8513 92.2245 64.8518Z" fill="white" stroke="white" stroke-width="6" stroke-linecap="round"/>
</svg>
