<svg width="550" height="351" viewBox="0 0 550 351" fill="none" xmlns="http://www.w3.org/2000/svg">
<rect width="550" height="351" rx="21" fill="#F2F6FF"/>
<mask id="mask0_3036_239" style="mask-type:alpha" maskUnits="userSpaceOnUse" x="0" y="0" width="550" height="351">
<path d="M0 21C0 9.40202 9.40202 0 21 0H529C540.598 0 550 9.40202 550 21V330C550 341.598 540.598 351 529 351H21C9.40203 351 0 341.598 0 330V21Z" fill="white"/>
</mask>
<g mask="url(#mask0_3036_239)">
<g opacity="0.54">
<g filter="url(#filter0_d_3036_239)">
<path d="M17.0922 167.209C16.0758 164.51 17.5185 161.527 20.3144 160.546L238.504 83.9783C241.3 82.9972 244.39 84.3899 245.407 87.089L350.666 366.636C351.682 369.336 350.24 372.319 347.444 373.3L129.254 449.868C126.458 450.849 123.368 449.456 122.351 446.757L17.0922 167.209Z" fill="white"/>
<path d="M17.0922 167.209C16.0758 164.51 17.5185 161.527 20.3144 160.546L238.504 83.9783C241.3 82.9972 244.39 84.3899 245.407 87.089L252.768 106.638L24.4529 186.758L17.0922 167.209Z" fill="white"/>
<path fill-rule="evenodd" clip-rule="evenodd" d="M252.676 106.393L24.3609 186.514L24.4529 186.758L252.768 106.638L252.676 106.393Z" fill="white"/>
</g>
<path d="M37.6569 199.026C37.2932 198.06 37.185 197.121 37.3322 196.209C37.4854 195.285 37.8592 194.48 38.4537 193.793C39.0542 193.094 39.8253 192.58 40.7671 192.249C41.869 191.862 42.9403 191.805 43.9809 192.077C45.0216 192.348 45.8938 192.924 46.5978 193.802L44.3233 194.6C43.9207 194.21 43.4681 193.971 42.9654 193.882C42.4722 193.79 41.9571 193.838 41.4203 194.026C40.8458 194.228 40.3837 194.544 40.0341 194.975C39.6903 195.392 39.483 195.89 39.4124 196.467C39.3511 197.04 39.4441 197.655 39.6912 198.312C39.9348 198.959 40.2727 199.488 40.7047 199.899C41.1426 200.297 41.634 200.555 42.1791 200.671C42.73 200.775 43.2927 200.726 43.8672 200.525C44.4041 200.336 44.8308 200.054 45.1475 199.677C45.4701 199.288 45.6562 198.819 45.7056 198.271L47.9801 197.473C48.0283 198.592 47.7439 199.578 47.127 200.432C46.5159 201.273 45.6547 201.888 44.5434 202.278C43.6016 202.609 42.6698 202.697 41.7481 202.542C40.8322 202.375 40.0099 201.99 39.2813 201.386C38.5621 200.778 38.0206 199.991 37.6569 199.026ZM54.7425 198.715C53.8195 199.039 52.8907 199.121 51.956 198.96C51.0213 198.8 50.1849 198.419 49.4468 197.818C48.7052 197.208 48.1526 196.42 47.7889 195.454C47.4287 194.498 47.3317 193.56 47.4978 192.642C47.6603 191.714 48.0465 190.899 48.6563 190.197C49.2662 189.495 50.0326 188.982 50.9556 188.658C51.888 188.331 52.8168 188.249 53.7421 188.412C54.6768 188.573 55.5102 188.96 56.2424 189.573C56.9805 190.174 57.5296 190.953 57.8897 191.909C58.2534 192.875 58.354 193.822 58.1915 194.75C58.0348 195.665 57.6516 196.473 57.0417 197.176C56.4319 197.878 55.6654 198.391 54.7425 198.715ZM54.0804 196.957C54.6738 196.748 55.147 196.434 55.5002 196.013C55.8499 195.582 56.0583 195.074 56.1255 194.487C56.1926 193.901 56.1026 193.28 55.8554 192.623C55.6083 191.967 55.2658 191.44 54.8279 191.041C54.3864 190.633 53.8903 190.378 53.3393 190.274C52.7884 190.17 52.2163 190.222 51.6229 190.43C51.0296 190.638 50.5516 190.955 50.189 191.379C49.8358 191.8 49.6256 192.304 49.5585 192.89C49.4878 193.467 49.576 194.084 49.8232 194.74C50.0704 195.397 50.4146 195.929 50.8561 196.336C51.2975 196.744 51.7954 197.005 52.3499 197.118C52.9102 197.219 53.4871 197.165 54.0804 196.957ZM65.5996 194.793L61.9834 191.731L61.051 192.058L62.4916 195.884L60.5138 196.578L56.817 186.76L60.5183 185.461C61.2811 185.194 61.9822 185.101 62.6214 185.185C63.2571 185.259 63.7933 185.48 64.23 185.847C64.6726 186.201 64.9999 186.659 65.2117 187.222C65.4553 187.869 65.4877 188.521 65.3087 189.179C65.1261 189.827 64.6999 190.38 64.0301 190.838L67.8882 193.99L65.5996 194.793ZM60.4949 190.581L62.1478 190.001C62.6846 189.813 63.0372 189.546 63.2056 189.2C63.3704 188.845 63.3663 188.438 63.1933 187.978C63.0238 187.528 62.7613 187.227 62.4058 187.076C62.0468 186.915 61.5988 186.929 61.062 187.118L59.4091 187.698L60.4949 190.581ZM67.7371 184.727L68.6639 187.189L71.9838 186.024L72.5717 187.585L69.2518 188.75L70.2316 191.353L73.9753 190.039L74.5791 191.642L68.8576 193.65L65.1555 183.818L70.8769 181.81L71.4807 183.414L67.7371 184.727ZM82.9678 181.023C83.1655 181.548 83.2237 182.085 83.1425 182.634C83.0706 183.179 82.8192 183.687 82.3883 184.156C81.9668 184.623 81.3511 184.998 80.5412 185.282L78.8883 185.862L80.3077 189.632L78.3299 190.326L74.6331 180.508L78.2637 179.234C79.0266 178.966 79.7259 178.869 80.3616 178.944C80.9973 179.018 81.5335 179.238 81.9702 179.605C82.4163 179.969 82.7489 180.442 82.9678 181.023ZM79.8579 183.723C80.4042 183.531 80.7632 183.267 80.9351 182.931C81.1035 182.585 81.103 182.187 80.9335 181.737C80.5733 180.78 79.8564 180.49 78.7828 180.867L77.2147 181.418L78.2898 184.273L79.8579 183.723ZM91.3042 185.773L87.688 182.711L86.7556 183.038L88.1962 186.864L86.2185 187.558L82.5216 177.74L86.2229 176.441C86.9858 176.173 87.6868 176.081 88.326 176.165C88.9617 176.239 89.4979 176.459 89.9347 176.826C90.3773 177.181 90.7045 177.639 90.9163 178.202C91.16 178.849 91.1923 179.501 91.0133 180.158C90.8308 180.806 90.4046 181.359 89.7347 181.817L93.5928 184.97L91.3042 185.773ZM86.1995 181.561L87.8524 180.981C88.3892 180.793 88.7418 180.525 88.9102 180.18C89.075 179.825 89.0709 179.417 88.8979 178.958C88.7284 178.508 88.466 178.207 88.1104 178.056C87.7514 177.895 87.3035 177.909 86.7666 178.097L85.1138 178.677L86.1995 181.561ZM99.9042 180.637L95.9769 182.015L96.0315 184.114L93.9548 184.843L93.7985 173.767L96.1013 172.958L103.349 181.546L101.258 182.28L99.9042 180.637ZM98.7742 179.25L95.8008 175.644L95.9205 180.252L98.7742 179.25ZM101.634 176.574C101.271 175.609 101.162 174.67 101.31 173.758C101.463 172.834 101.837 172.029 102.431 171.342C103.032 170.643 103.803 170.128 104.744 169.798C105.846 169.411 106.918 169.354 107.958 169.626C108.999 169.897 109.871 170.473 110.575 171.351L108.301 172.149C107.898 171.759 107.445 171.52 106.943 171.431C106.45 171.339 105.935 171.387 105.398 171.575C104.823 171.777 104.361 172.093 104.011 172.524C103.668 172.941 103.46 173.439 103.39 174.016C103.328 174.589 103.421 175.204 103.669 175.861C103.912 176.508 104.25 177.037 104.682 177.448C105.12 177.846 105.611 178.104 106.156 178.22C106.707 178.324 107.27 178.275 107.845 178.074C108.381 177.885 108.808 177.603 109.125 177.226C109.447 176.837 109.634 176.368 109.683 175.82L111.957 175.022C112.006 176.141 111.721 177.127 111.104 177.981C110.493 178.822 109.632 179.437 108.521 179.827C107.579 180.158 106.647 180.246 105.725 180.091C104.81 179.924 103.987 179.539 103.259 178.935C102.539 178.327 101.998 177.54 101.634 176.574ZM117.119 165.599L117.718 167.188L115.09 168.11L118.188 176.339L116.211 177.033L113.112 168.804L110.485 169.726L109.886 168.137L117.119 165.599ZM119.834 164.646L123.53 174.464L121.553 175.158L117.856 165.34L119.834 164.646ZM122.444 169.272C122.08 168.306 121.972 167.367 122.119 166.456C122.273 165.531 122.646 164.726 123.241 164.04C123.841 163.341 124.613 162.826 125.554 162.495C126.656 162.109 127.728 162.051 128.768 162.323C129.809 162.595 130.681 163.17 131.385 164.048L129.111 164.846C128.708 164.457 128.255 164.218 127.753 164.129C127.259 164.036 126.744 164.084 126.208 164.273C125.633 164.474 125.171 164.79 124.821 165.221C124.477 165.639 124.27 166.136 124.2 166.713C124.138 167.287 124.231 167.902 124.478 168.558C124.722 169.205 125.06 169.734 125.492 170.145C125.93 170.544 126.421 170.801 126.966 170.918C127.517 171.022 128.08 170.973 128.654 170.771C129.191 170.583 129.618 170.3 129.935 169.924C130.257 169.534 130.443 169.066 130.493 168.518L132.767 167.719C132.815 168.838 132.531 169.825 131.914 170.678C131.303 171.519 130.442 172.134 129.331 172.524C128.389 172.855 127.457 172.943 126.535 172.789C125.619 172.622 124.797 172.236 124.068 171.632C123.349 171.024 122.808 170.238 122.444 169.272ZM140.257 166.476L136.33 167.855L136.385 169.953L134.308 170.682L134.152 159.606L136.454 158.798L143.702 167.385L141.612 168.119L140.257 166.476ZM139.127 165.089L136.154 161.483L136.274 166.091L139.127 165.089ZM145.711 164.913L148.961 163.773L149.549 165.334L144.322 167.168L140.625 157.35L142.602 156.656L145.711 164.913ZM153.672 163.998C153.314 164.124 152.977 164.12 152.66 163.987C152.349 163.841 152.132 163.604 152.009 163.276C151.885 162.948 151.896 162.636 152.041 162.341C152.191 162.034 152.446 161.817 152.803 161.692C153.152 161.569 153.482 161.581 153.792 161.727C154.1 161.863 154.315 162.095 154.439 162.424C154.562 162.752 154.553 163.068 154.412 163.372C154.267 163.667 154.021 163.876 153.672 163.998ZM151.479 158.175C151.122 158.301 150.784 158.297 150.468 158.164C150.157 158.018 149.94 157.781 149.816 157.453C149.692 157.125 149.703 156.813 149.848 156.518C149.999 156.21 150.253 155.994 150.611 155.868C150.959 155.746 151.289 155.758 151.6 155.903C151.907 156.04 152.122 156.272 152.246 156.6C152.369 156.928 152.361 157.245 152.219 157.549C152.075 157.844 151.828 158.053 151.479 158.175ZM53.1978 223.563L49.5816 220.501L48.6492 220.828L50.0898 224.654L48.112 225.348L44.4152 215.53L48.1165 214.231C48.8793 213.963 49.5804 213.871 50.2196 213.955C50.8553 214.029 51.3915 214.25 51.8282 214.616C52.2708 214.971 52.598 215.429 52.8099 215.992C53.0535 216.639 53.0858 217.291 52.9069 217.948C52.7243 218.596 52.2981 219.149 51.6283 219.607L55.4863 222.76L53.1978 223.563ZM48.0931 219.351L49.7459 218.771C50.2828 218.583 50.6354 218.316 50.8037 217.97C50.9686 217.615 50.9645 217.207 50.7915 216.748C50.622 216.298 50.3595 215.997 50.004 215.846C49.645 215.685 49.197 215.699 48.6602 215.887L47.0073 216.467L48.0931 219.351ZM62.2006 215.802C62.3065 216.083 62.383 216.343 62.4301 216.581L56.7086 218.589C56.9676 219.135 57.3313 219.506 57.7998 219.703C58.2683 219.899 58.7569 219.908 59.2655 219.73C60.0001 219.472 60.4045 218.975 60.4787 218.237L62.6119 217.489C62.6683 218.318 62.4681 219.089 62.0113 219.802C61.551 220.505 60.8546 221.02 59.9222 221.347C59.1688 221.611 58.4289 221.685 57.7026 221.568C56.9821 221.439 56.3376 221.129 55.769 220.638C55.2099 220.145 54.7803 219.499 54.4801 218.702C54.1765 217.896 54.0747 217.13 54.1748 216.405C54.275 215.679 54.5599 215.049 55.0297 214.512C55.4994 213.976 56.1204 213.572 56.8927 213.301C57.6367 213.04 58.3607 212.966 59.0647 213.08C59.7781 213.191 60.4061 213.485 60.9488 213.964C61.4973 214.43 61.9146 215.042 62.2006 215.802ZM59.9403 215.958C59.7402 215.455 59.4048 215.116 58.9339 214.942C58.4595 214.758 57.9633 214.757 57.4453 214.938C56.9555 215.11 56.5976 215.406 56.3716 215.825C56.1514 216.231 56.1025 216.71 56.2249 217.262L59.9403 215.958ZM67.5111 218.684C66.8707 218.908 66.2538 218.998 65.6605 218.951C65.0636 218.895 64.5404 218.723 64.0907 218.435C63.6504 218.143 63.3262 217.764 63.1178 217.295L65.1097 216.596C65.2604 216.883 65.5 217.08 65.8284 217.188C66.1662 217.292 66.5282 217.277 66.9144 217.141C67.2911 217.009 67.5548 216.832 67.7055 216.609C67.8656 216.383 67.9016 216.153 67.8133 215.918C67.718 215.665 67.5155 215.524 67.2059 215.494C66.9022 215.452 66.4395 215.455 65.8179 215.504C65.181 215.568 64.646 215.591 64.2128 215.573C63.789 215.552 63.3823 215.435 62.9926 215.221C62.6124 215.004 62.3234 214.633 62.1257 214.108C61.9633 213.677 61.9374 213.24 62.0481 212.798C62.1682 212.352 62.4202 211.945 62.804 211.577C63.1972 211.205 63.7093 210.909 64.3403 210.688C65.2727 210.36 66.105 210.334 66.8372 210.608C67.5659 210.872 68.1068 211.388 68.4599 212.156L66.5669 212.82C66.4221 212.521 66.1984 212.323 65.8959 212.228C65.5992 212.12 65.2579 212.133 64.8717 212.269C64.5138 212.394 64.2607 212.557 64.1124 212.758C63.9734 212.955 63.9481 213.171 64.0364 213.406C64.1352 213.668 64.343 213.824 64.6597 213.872C64.9728 213.911 65.4337 213.903 66.0423 213.848C66.6604 213.791 67.1813 213.773 67.6051 213.794C68.0289 213.815 68.4327 213.939 68.8164 214.165C69.2061 214.378 69.5027 214.741 69.7063 215.254C69.8758 215.704 69.9005 216.152 69.7804 216.597C69.6697 217.04 69.4177 217.447 69.0245 217.818C68.6372 218.177 68.1327 218.466 67.5111 218.684ZM69.1796 208.082C68.8311 208.204 68.4985 208.199 68.1819 208.065C67.8711 207.92 67.6539 207.683 67.5304 207.355C67.4068 207.026 67.4174 206.715 67.5622 206.42C67.7129 206.112 67.9625 205.897 68.311 205.775C68.6594 205.653 68.9891 205.664 69.2998 205.81C69.6165 205.943 69.8366 206.174 69.9602 206.502C70.0838 206.83 70.0702 207.148 69.9195 207.456C69.7747 207.751 69.528 207.959 69.1796 208.082ZM70.5039 208.668L73.4381 216.46L71.4603 217.155L68.5261 209.362L70.5039 208.668ZM77.7284 215.098C77.088 215.323 76.4711 215.412 75.8778 215.365C75.2809 215.309 74.7577 215.137 74.308 214.849C73.8677 214.558 73.5434 214.178 73.3351 213.71L75.327 213.011C75.4777 213.298 75.7172 213.495 76.0457 213.603C76.3835 213.707 76.7455 213.691 77.1317 213.556C77.5084 213.424 77.7721 213.246 77.9228 213.024C78.0829 212.797 78.1188 212.567 78.0306 212.333C77.9352 212.08 77.7328 211.938 77.4232 211.909C77.1194 211.867 76.6568 211.87 76.0352 211.918C75.3983 211.983 74.8633 212.006 74.4301 211.988C74.0063 211.967 73.5996 211.849 73.2099 211.636C72.8297 211.419 72.5407 211.048 72.343 210.523C72.1806 210.091 72.1547 209.655 72.2654 209.212C72.3855 208.767 72.6375 208.36 73.0213 207.992C73.4145 207.62 73.9266 207.323 74.5576 207.102C75.49 206.775 76.3223 206.748 77.0545 207.022C77.7832 207.287 78.3241 207.803 78.6772 208.571L76.7842 209.235C76.6394 208.935 76.4157 208.738 76.1132 208.642C75.8165 208.534 75.4751 208.548 75.089 208.683C74.7311 208.809 74.478 208.972 74.3297 209.173C74.1907 209.37 74.1654 209.586 74.2537 209.82C74.3525 210.083 74.5603 210.238 74.877 210.286C75.1901 210.325 75.651 210.317 76.2596 210.263C76.8777 210.205 77.3986 210.187 77.8224 210.208C78.2462 210.229 78.65 210.353 79.0337 210.579C79.4234 210.793 79.72 211.156 79.9236 211.668C80.0931 212.119 80.1178 212.566 79.9977 213.012C79.887 213.454 79.635 213.861 79.2418 214.233C78.8544 214.592 78.35 214.88 77.7284 215.098ZM81.6552 206.586L83.0746 210.356C83.1735 210.618 83.3071 210.789 83.4754 210.868C83.6496 210.934 83.8874 210.914 84.1888 210.809L85.1071 210.486L85.732 212.146L84.4889 212.583C82.8219 213.167 81.6847 212.654 81.0774 211.041L79.6633 207.285L78.7309 207.612L78.1218 205.995L79.0542 205.667L78.3286 203.74L80.3205 203.041L81.0461 204.968L82.7979 204.354L83.407 205.971L81.6552 206.586ZM84.1675 202.822C83.819 202.944 83.4865 202.939 83.1698 202.806C82.859 202.66 82.6419 202.423 82.5183 202.095C82.3947 201.767 82.4053 201.455 82.5501 201.16C82.7009 200.852 82.9504 200.637 83.2989 200.515C83.6474 200.393 83.977 200.405 84.2878 200.55C84.6044 200.683 84.8246 200.914 84.9481 201.242C85.0717 201.57 85.0582 201.888 84.9074 202.196C84.7626 202.491 84.516 202.7 84.1675 202.822ZM85.4918 203.408L88.426 211.201L86.4482 211.895L83.514 204.102L85.4918 203.408ZM92.2538 207.803L91.9807 201.131L94.0856 200.393L94.1237 209.201L91.7221 210.044L85.906 203.263L88.0251 202.519L92.2538 207.803ZM95.1436 198.97C94.7951 199.093 94.4625 199.087 94.1459 198.954C93.8351 198.808 93.6179 198.571 93.4944 198.243C93.3708 197.915 93.3814 197.603 93.5262 197.308C93.6769 197.001 93.9265 196.786 94.275 196.663C94.6234 196.541 94.9531 196.553 95.2638 196.699C95.5805 196.832 95.8006 197.062 95.9242 197.391C96.0478 197.719 96.0342 198.037 95.8835 198.344C95.7387 198.639 95.492 198.848 95.1436 198.97ZM96.4679 199.557L99.4021 207.349L97.4243 208.043L94.4901 200.251L96.4679 199.557ZM100.627 199.928L102.047 203.698C102.146 203.961 102.279 204.131 102.448 204.21C102.622 204.276 102.86 204.257 103.161 204.151L104.079 203.829L104.704 205.489L103.461 205.925C101.794 206.51 100.657 205.996 100.05 204.383L98.6355 200.627L97.7031 200.954L97.094 199.337L98.0264 199.01L97.3008 197.083L99.2927 196.384L100.018 198.311L101.77 197.696L102.379 199.314L100.627 199.928ZM109.974 194.817L109.45 207.995L107.345 208.734L107.578 204.257L101.582 197.762L103.8 196.984L107.87 201.718L107.869 195.556L109.974 194.817Z" fill="black"/>
<path d="M26.8194 169.879L26.7612 170.721L26.7629 170.944V170.944C26.7786 171.144 26.8088 171.342 26.8533 171.539L26.9476 171.954L27.1305 172.507L27.3125 173.039L27.4835 173.416L27.8625 174.015L28.0064 174.205C28.1649 174.414 28.3582 174.595 28.5777 174.741L28.5974 174.754C28.7005 174.822 28.8095 174.881 28.923 174.93V174.93C29.1856 175.043 29.4683 175.1 29.7526 175.098L30.5474 175.092V175.092C31.6061 175.091 32.6176 174.695 33.379 173.983L33.9681 173.431L35.7073 171.608L36.7422 170.237L37.5321 168.834L38.202 167.508L38.702 166.1L39.0274 165.011C39.1029 164.758 39.1596 164.501 39.1972 164.239V164.239L39.2536 163.847L39.2595 163.467V163.467C39.2634 163.216 39.2196 162.966 39.1305 162.729L39.0518 162.52C38.928 162.192 38.7137 161.902 38.4336 161.684L38.373 161.637C38.1568 161.469 37.9016 161.358 37.632 161.315V161.315C37.3675 161.272 37.0976 161.296 36.8474 161.383L36.5012 161.505L36.1335 161.654C35.905 161.747 35.6859 161.86 35.4788 161.992V161.992C35.2276 162.153 34.9956 162.341 34.787 162.552L34.0669 163.283L33.4976 163.978C33.178 164.368 32.8964 164.788 32.6565 165.231V165.231L32.296 165.898L31.7251 167.256L31.2499 168.84L30.9947 170.24L30.9301 170.775C30.8697 171.276 30.8466 171.781 30.8611 172.286L30.8632 172.361C30.8826 173.036 30.9738 173.709 31.1354 174.368L31.4982 175.849C31.5935 176.237 31.773 176.603 32.0241 176.919V176.919C32.3598 177.342 32.8108 177.662 33.3221 177.839L33.4998 177.901C33.8484 178.022 34.2155 178.077 34.5822 178.065V178.065C34.8586 178.056 35.1316 178.009 35.393 177.924L35.6019 177.857C35.8259 177.784 36.0434 177.694 36.2524 177.588L36.7859 177.316C37.4131 176.996 38.0057 176.616 38.5551 176.18V176.18C39.2861 175.6 39.9352 174.926 40.4858 174.176L41.3168 173.044L42.3499 171.361L43.3274 169.223" stroke="#2D74F8" stroke-width="4" stroke-linecap="round"/>
<path d="M40.6527 167.984L45.7479 170.327C45.7486 170.328 45.7494 170.327 45.7493 170.326L45.2111 165.006C45.2111 165.005 45.2102 165.005 45.2096 165.005L40.6526 167.982C40.6519 167.982 40.652 167.983 40.6527 167.984Z" fill="#2D74F8" stroke="#2D74F8" stroke-width="2" stroke-linecap="round"/>
<rect width="116.642" height="14.5928" transform="matrix(0.941804 -0.330499 0.353089 0.937733 50.3672 156.64)" fill="#F5F5F5"/>
<rect width="77.9407" height="14.5928" transform="matrix(0.941804 -0.330499 0.353089 0.937733 165.283 116.313)" fill="#F5F5F5"/>
<g filter="url(#filter1_d_3036_239)">
<path d="M160.247 178.187C160.042 175.322 162.281 172.838 165.249 172.64L396.851 157.148C399.819 156.95 402.392 159.111 402.597 161.976L423.894 458.708C424.099 461.574 421.86 464.057 418.892 464.256L187.29 479.747C184.322 479.945 181.749 477.784 181.544 474.919L160.247 178.187Z" fill="white"/>
<path d="M160.247 178.187C160.042 175.322 162.281 172.838 165.249 172.64L396.851 157.148C399.819 156.95 402.392 159.111 402.597 161.976L404.086 182.727L161.737 198.937L160.247 178.187Z" fill="white"/>
<path fill-rule="evenodd" clip-rule="evenodd" d="M404.068 182.467L161.718 198.678L161.737 198.937L404.086 182.727L404.068 182.467Z" fill="white"/>
</g>
<path d="M178.749 208.802L178.878 210.601L175.903 210.8L176.571 220.116L174.332 220.266L173.663 210.95L170.688 211.149L170.559 209.35L178.749 208.802ZM184.809 210.573C185.481 210.528 186.089 210.636 186.633 210.899C187.176 211.15 187.612 211.553 187.941 212.107C188.28 212.65 188.478 213.319 188.535 214.116L188.907 219.291L186.667 219.441L186.318 214.568C186.267 213.867 186.053 213.343 185.674 212.995C185.295 212.636 184.801 212.477 184.193 212.518C183.575 212.559 183.098 212.783 182.763 213.19C182.438 213.585 182.3 214.133 182.35 214.833L182.7 219.706L180.461 219.856L179.615 208.072L181.854 207.922L182.146 211.983C182.406 211.581 182.769 211.258 183.234 211.014C183.697 210.759 184.223 210.612 184.809 210.573ZM198.225 214.044C198.247 214.362 198.247 214.65 198.222 214.908L191.744 215.341C191.843 215.974 192.102 216.458 192.523 216.793C192.943 217.128 193.442 217.276 194.017 217.237C194.849 217.181 195.416 216.786 195.717 216.051L198.132 215.89C197.937 216.756 197.497 217.49 196.811 218.09C196.125 218.68 195.254 219.011 194.198 219.081C193.345 219.138 192.564 219.004 191.855 218.678C191.155 218.341 190.589 217.84 190.155 217.175C189.733 216.51 189.489 215.727 189.424 214.824C189.359 213.911 189.488 213.097 189.811 212.382C190.135 211.667 190.62 211.101 191.265 210.685C191.91 210.268 192.67 210.031 193.544 209.972C194.387 209.916 195.152 210.046 195.839 210.363C196.536 210.679 197.091 211.159 197.501 211.804C197.922 212.437 198.163 213.184 198.225 214.044ZM195.859 213.562C195.807 212.989 195.567 212.547 195.137 212.234C194.707 211.911 194.198 211.769 193.612 211.808C193.057 211.845 192.6 212.046 192.241 212.412C191.891 212.766 191.695 213.243 191.652 213.843L195.859 213.562ZM212.111 217.739L209.872 217.889L204.253 210.6L204.801 218.228L202.561 218.378L201.763 207.246L204.002 207.097L209.622 214.401L209.073 206.757L211.312 206.608L212.111 217.739ZM212.71 213.235C212.646 212.343 212.765 211.54 213.068 210.827C213.381 210.112 213.828 209.549 214.409 209.137C215.001 208.724 215.675 208.492 216.432 208.441C217.094 208.397 217.679 208.491 218.189 208.724C218.709 208.956 219.133 209.263 219.46 209.647L219.37 208.389L221.626 208.238L222.259 217.06L220.003 217.211L219.911 215.921C219.652 216.355 219.277 216.726 218.785 217.037C218.303 217.335 217.731 217.507 217.07 217.551C216.324 217.601 215.627 217.456 214.981 217.115C214.346 216.773 213.822 216.27 213.41 215.604C213.008 214.927 212.775 214.137 212.71 213.235ZM219.687 212.8C219.648 212.259 219.508 211.804 219.267 211.436C219.026 211.057 218.717 210.779 218.339 210.602C217.962 210.414 217.565 210.334 217.149 210.362C216.733 210.389 216.356 210.516 216.019 210.741C215.681 210.966 215.415 211.283 215.219 211.691C215.033 212.087 214.959 212.551 214.997 213.082C215.036 213.612 215.176 214.072 215.418 214.462C215.67 214.839 215.98 215.123 216.347 215.312C216.725 215.5 217.116 215.58 217.521 215.553C217.937 215.525 218.319 215.398 218.668 215.172C219.015 214.936 219.281 214.619 219.467 214.223C219.652 213.816 219.726 213.341 219.687 212.8ZM225.832 209.797L226.138 214.065C226.16 214.362 226.244 214.575 226.393 214.704C226.551 214.821 226.801 214.868 227.143 214.845L228.182 214.776L228.317 216.655L226.91 216.749C225.022 216.875 224.013 216.026 223.882 214.2L223.576 209.948L222.521 210.018L222.389 208.187L223.445 208.116L223.288 205.935L225.544 205.784L225.7 207.965L227.684 207.833L227.815 209.664L225.832 209.797ZM236.941 207.214L237.574 216.036L235.319 216.187L235.239 215.072C234.978 215.473 234.621 215.801 234.168 216.056C233.725 216.299 233.231 216.438 232.687 216.475C231.994 216.521 231.371 216.419 230.817 216.168C230.262 215.906 229.81 215.504 229.461 214.962C229.121 214.409 228.923 213.74 228.866 212.954L228.495 207.778L230.734 207.629L231.083 212.486C231.133 213.186 231.348 213.716 231.728 214.075C232.106 214.423 232.599 214.576 233.207 214.536C233.826 214.494 234.298 214.276 234.623 213.881C234.947 213.475 235.084 212.922 235.034 212.221L234.686 207.364L236.941 207.214ZM240.769 208.334C241.023 207.847 241.37 207.456 241.81 207.16C242.26 206.863 242.783 206.695 243.381 206.655L243.549 208.996L242.957 209.035C242.253 209.082 241.732 209.283 241.393 209.636C241.064 209.989 240.929 210.574 240.988 211.391L241.304 215.786L239.064 215.936L238.431 207.114L240.67 206.964L240.769 208.334ZM252.719 210.398C252.742 210.717 252.742 211.005 252.717 211.263L246.239 211.696C246.338 212.329 246.597 212.813 247.018 213.148C247.438 213.483 247.937 213.631 248.512 213.592C249.344 213.536 249.911 213.141 250.211 212.406L252.627 212.245C252.432 213.111 251.992 213.845 251.306 214.445C250.62 215.035 249.749 215.365 248.693 215.436C247.84 215.493 247.059 215.359 246.35 215.033C245.65 214.696 245.084 214.195 244.65 213.53C244.228 212.865 243.984 212.082 243.919 211.179C243.854 210.266 243.983 209.452 244.306 208.737C244.63 208.022 245.115 207.456 245.76 207.04C246.405 206.623 247.165 206.386 248.039 206.327C248.882 206.271 249.647 206.401 250.334 206.718C251.031 207.034 251.586 207.514 251.996 208.159C252.417 208.792 252.658 209.539 252.719 210.398ZM250.354 209.917C250.302 209.344 250.062 208.901 249.632 208.589C249.202 208.266 248.693 208.124 248.107 208.163C247.552 208.2 247.095 208.401 246.736 208.767C246.386 209.121 246.19 209.598 246.147 210.198L250.354 209.917ZM261.002 214.613C260.149 214.67 259.368 214.535 258.658 214.21C257.948 213.873 257.371 213.373 256.927 212.709C256.494 212.045 256.245 211.261 256.18 210.359C256.115 209.457 256.255 208.647 256.6 207.931C256.956 207.214 257.467 206.646 258.134 206.228C258.799 205.799 259.559 205.557 260.412 205.5C261.265 205.443 262.052 205.582 262.773 205.918C263.493 206.243 264.075 206.737 264.519 207.401C264.973 208.064 265.233 208.847 265.298 209.749C265.363 210.652 265.212 211.462 264.846 212.18C264.49 212.897 263.974 213.47 263.297 213.899C262.631 214.317 261.866 214.555 261.002 214.613ZM260.862 212.67C261.268 212.643 261.639 212.522 261.978 212.307C262.326 212.081 262.592 211.765 262.777 211.358C262.962 210.951 263.035 210.466 262.994 209.903C262.934 209.065 262.664 208.437 262.184 208.021C261.714 207.594 261.159 207.402 260.52 207.445C259.88 207.487 259.357 207.752 258.953 208.237C258.558 208.712 258.391 209.368 258.451 210.207C258.512 211.046 258.766 211.679 259.215 212.108C259.673 212.526 260.223 212.713 260.862 212.67ZM270.099 206.836L268.547 206.94L269.049 213.931L266.777 214.082L266.276 207.092L265.268 207.159L265.136 205.328L266.144 205.26L266.112 204.814C266.035 203.731 266.287 202.915 266.869 202.364C267.451 201.813 268.367 201.511 269.617 201.46L269.751 203.339C269.207 203.365 268.835 203.48 268.635 203.686C268.436 203.891 268.354 204.243 268.389 204.742L268.416 205.108L269.967 205.004L270.099 206.836ZM276.53 206.406L276.836 210.673C276.857 210.971 276.942 211.184 277.091 211.312C277.249 211.43 277.499 211.477 277.84 211.454L278.88 211.385L279.015 213.264L277.607 213.358C275.72 213.484 274.71 212.634 274.579 210.808L274.274 206.557L273.218 206.627L273.087 204.796L274.143 204.725L273.986 202.544L276.242 202.393L276.398 204.574L278.382 204.442L278.513 206.273L276.53 206.406ZM284.254 203.921C284.926 203.876 285.534 203.985 286.078 204.247C286.621 204.499 287.057 204.901 287.386 205.455C287.725 205.998 287.923 206.668 287.981 207.464L288.352 212.639L286.112 212.789L285.763 207.916C285.712 207.216 285.498 206.691 285.119 206.343C284.74 205.985 284.246 205.826 283.639 205.866C283.02 205.908 282.543 206.131 282.208 206.538C281.883 206.933 281.745 207.481 281.796 208.182L282.145 213.055L279.906 213.204L279.06 201.42L281.3 201.27L281.591 205.331C281.852 204.93 282.214 204.607 282.679 204.362C283.143 204.107 283.668 203.96 284.254 203.921ZM297.67 207.392C297.693 207.71 297.692 207.998 297.667 208.256L291.189 208.689C291.288 209.323 291.548 209.807 291.968 210.141C292.389 210.476 292.887 210.624 293.463 210.585C294.294 210.53 294.861 210.135 295.162 209.4L297.577 209.238C297.382 210.105 296.942 210.838 296.256 211.439C295.57 212.029 294.699 212.359 293.643 212.429C292.79 212.487 292.009 212.352 291.3 212.026C290.6 211.689 290.034 211.188 289.601 210.524C289.178 209.859 288.934 209.075 288.869 208.172C288.804 207.259 288.933 206.445 289.257 205.73C289.58 205.015 290.065 204.45 290.71 204.033C291.355 203.617 292.115 203.379 292.989 203.321C293.832 203.264 294.597 203.394 295.284 203.711C295.982 204.027 296.536 204.507 296.946 205.152C297.367 205.785 297.608 206.532 297.67 207.392ZM295.304 206.91C295.253 206.337 295.012 205.895 294.582 205.582C294.152 205.259 293.643 205.117 293.057 205.156C292.502 205.193 292.045 205.395 291.686 205.76C291.336 206.114 291.14 206.591 291.097 207.191L295.304 206.91ZM309.223 203.435C308.934 202.985 308.556 202.653 308.091 202.438C307.625 202.224 307.094 202.137 306.497 202.177C305.836 202.221 305.26 202.409 304.769 202.741C304.279 203.072 303.909 203.524 303.661 204.095C303.413 204.666 303.314 205.313 303.366 206.035C303.42 206.778 303.61 207.416 303.938 207.949C304.276 208.481 304.717 208.878 305.261 209.14C305.805 209.403 306.423 209.511 307.116 209.464C307.969 209.407 308.652 209.137 309.164 208.655C309.675 208.162 309.987 207.507 310.1 206.688L306.26 206.945L306.138 205.241L312.185 204.837L312.324 206.78C312.231 207.565 311.962 208.303 311.519 208.994C311.075 209.685 310.479 210.258 309.729 210.713C308.99 211.158 308.14 211.412 307.18 211.476C306.103 211.548 305.11 211.374 304.202 210.955C303.303 210.525 302.572 209.896 302.009 209.07C301.457 208.243 301.141 207.282 301.063 206.189C300.984 205.095 301.159 204.102 301.588 203.209C302.027 202.305 302.661 201.586 303.491 201.05C304.33 200.503 305.283 200.194 306.349 200.123C307.608 200.039 308.723 200.273 309.695 200.827C310.666 201.37 311.367 202.182 311.799 203.263L309.223 203.435ZM321.473 205.8C321.496 206.118 321.495 206.406 321.471 206.664L314.992 207.097C315.091 207.731 315.351 208.215 315.772 208.549C316.192 208.884 316.69 209.032 317.266 208.993C318.098 208.938 318.664 208.542 318.965 207.808L321.381 207.646C321.186 208.512 320.745 209.246 320.06 209.846C319.374 210.436 318.503 210.767 317.447 210.837C316.594 210.894 315.812 210.76 315.103 210.434C314.404 210.097 313.838 209.596 313.404 208.932C312.981 208.266 312.738 207.483 312.673 206.58C312.607 205.667 312.736 204.853 313.06 204.138C313.384 203.423 313.868 202.857 314.514 202.441C315.159 202.024 315.919 201.787 316.793 201.728C317.635 201.672 318.4 201.802 319.087 202.119C319.785 202.435 320.339 202.915 320.75 203.56C321.17 204.193 321.411 204.94 321.473 205.8ZM319.108 205.318C319.056 204.745 318.815 204.303 318.386 203.99C317.955 203.667 317.447 203.525 316.86 203.564C316.306 203.601 315.849 203.802 315.489 204.168C315.14 204.522 314.944 204.999 314.901 205.599L319.108 205.318ZM326.987 201.063C328.043 200.992 328.92 201.269 329.618 201.895C330.316 202.509 330.708 203.411 330.793 204.6L331.164 209.776L328.925 209.926L328.575 205.053C328.525 204.352 328.311 203.828 327.932 203.48C327.553 203.121 327.059 202.962 326.451 203.003C325.833 203.044 325.356 203.268 325.021 203.674C324.695 204.069 324.558 204.617 324.608 205.318L324.958 210.191L322.718 210.341L322.085 201.518L324.325 201.369L324.404 202.467C324.675 202.065 325.032 201.743 325.475 201.5C325.929 201.245 326.432 201.1 326.987 201.063ZM340.482 204.528C340.505 204.847 340.504 205.135 340.48 205.392L334.001 205.826C334.1 206.459 334.36 206.943 334.781 207.278C335.201 207.612 335.699 207.76 336.275 207.722C337.107 207.666 337.673 207.271 337.974 206.536L340.39 206.375C340.195 207.241 339.754 207.974 339.069 208.575C338.383 209.165 337.512 209.495 336.456 209.566C335.603 209.623 334.821 209.488 334.112 209.163C333.413 208.825 332.847 208.324 332.413 207.66C331.99 206.995 331.747 206.211 331.682 205.309C331.616 204.396 331.745 203.582 332.069 202.867C332.393 202.152 332.877 201.586 333.523 201.169C334.168 200.753 334.928 200.515 335.802 200.457C336.644 200.401 337.409 200.531 338.096 200.848C338.794 201.164 339.348 201.644 339.759 202.288C340.179 202.922 340.42 203.668 340.482 204.528ZM338.117 204.046C338.065 203.474 337.824 203.031 337.395 202.719C336.964 202.395 336.456 202.253 335.869 202.293C335.315 202.33 334.858 202.531 334.498 202.896C334.149 203.25 333.953 203.728 333.91 204.328L338.117 204.046ZM343.833 201.904L344.139 206.172C344.161 206.469 344.246 206.682 344.394 206.811C344.553 206.928 344.802 206.975 345.144 206.953L346.183 206.883L346.318 208.762L344.911 208.856C343.023 208.983 342.014 208.133 341.883 206.307L341.577 202.055L340.522 202.125L340.39 200.294L341.446 200.223L341.289 198.042L343.545 197.891L343.702 200.073L345.685 199.94L345.817 201.771L343.833 201.904ZM347.636 198.753C347.242 198.78 346.902 198.68 346.618 198.453C346.344 198.216 346.194 197.911 346.167 197.539C346.14 197.168 346.246 196.851 346.485 196.59C346.733 196.318 347.054 196.168 347.449 196.142C347.844 196.115 348.178 196.221 348.452 196.459C348.736 196.685 348.892 196.984 348.918 197.355C348.945 197.727 348.834 198.049 348.586 198.322C348.347 198.583 348.031 198.727 347.636 198.753ZM348.816 199.73L349.449 208.553L347.209 208.703L346.576 199.88L348.816 199.73ZM350.049 204.08C349.984 203.167 350.113 202.359 350.438 201.654C350.761 200.939 351.24 200.374 351.875 199.958C352.509 199.531 353.252 199.29 354.105 199.233C355.204 199.159 356.13 199.375 356.884 199.879C357.648 200.372 358.188 201.104 358.504 202.075L356.089 202.236C355.933 201.863 355.694 201.58 355.369 201.388C355.054 201.185 354.673 201.099 354.225 201.129C353.585 201.172 353.096 201.439 352.756 201.931C352.415 202.413 352.276 203.078 352.337 203.927C352.397 204.766 352.63 205.406 353.037 205.849C353.443 206.28 353.966 206.474 354.606 206.432C355.512 206.371 356.075 205.928 356.295 205.103L358.71 204.941C358.533 205.913 358.103 206.705 357.418 207.316C356.733 207.927 355.847 208.269 354.759 208.342C353.906 208.399 353.135 208.264 352.447 207.936C351.759 207.598 351.204 207.102 350.782 206.447C350.359 205.782 350.115 204.993 350.049 204.08ZM172.719 238.775C172.64 237.682 172.815 236.689 173.244 235.796C173.683 234.892 174.312 234.172 175.131 233.637C175.959 233.091 176.907 232.783 177.973 232.711C179.221 232.628 180.337 232.873 181.321 233.447C182.305 234.022 183.024 234.859 183.478 235.959L180.903 236.132C180.609 235.618 180.218 235.244 179.73 235.01C179.252 234.775 178.709 234.678 178.101 234.719C177.451 234.762 176.881 234.955 176.391 235.297C175.911 235.628 175.547 236.079 175.299 236.65C175.061 237.221 174.969 237.878 175.022 238.621C175.075 239.354 175.26 239.992 175.577 240.536C175.905 241.069 176.33 241.472 176.854 241.747C177.387 242.01 177.979 242.12 178.629 242.076C179.237 242.035 179.761 241.867 180.2 241.571C180.65 241.264 180.984 240.836 181.201 240.288L183.777 240.116C183.485 241.277 182.893 242.207 182 242.907C181.117 243.595 180.047 243.981 178.788 244.066C177.722 244.137 176.74 243.963 175.841 243.543C174.953 243.111 174.228 242.482 173.665 241.656C173.112 240.829 172.797 239.869 172.719 238.775ZM189.167 243.419C188.314 243.476 187.532 243.342 186.823 243.016C186.113 242.68 185.536 242.179 185.092 241.516C184.659 240.851 184.41 240.068 184.345 239.166C184.28 238.263 184.42 237.454 184.765 236.737C185.121 236.02 185.632 235.453 186.299 235.035C186.964 234.606 187.724 234.363 188.577 234.306C189.43 234.249 190.217 234.389 190.938 234.724C191.657 235.05 192.239 235.544 192.683 236.208C193.138 236.871 193.398 237.653 193.463 238.556C193.528 239.458 193.377 240.268 193.01 240.986C192.655 241.703 192.139 242.277 191.462 242.706C190.796 243.124 190.03 243.362 189.167 243.419ZM189.027 241.477C189.432 241.449 189.804 241.329 190.142 241.114C190.491 240.888 190.757 240.571 190.942 240.164C191.127 239.757 191.2 239.272 191.159 238.71C191.099 237.871 190.829 237.244 190.349 236.828C189.879 236.401 189.324 236.208 188.684 236.251C188.044 236.294 187.522 236.558 187.118 237.044C186.723 237.518 186.556 238.175 186.616 239.014C186.676 239.852 186.931 240.486 187.38 240.915C187.838 241.332 188.387 241.519 189.027 241.477ZM193.808 238.501C193.744 237.609 193.863 236.806 194.165 236.093C194.478 235.378 194.931 234.815 195.523 234.402C196.114 233.989 196.789 233.757 197.546 233.706C198.122 233.668 198.68 233.758 199.221 233.978C199.761 234.187 200.201 234.489 200.54 234.882L200.239 230.694L202.511 230.542L203.356 242.326L201.085 242.478L200.991 241.172C200.745 241.626 200.381 242.003 199.899 242.302C199.417 242.6 198.845 242.772 198.184 242.816C197.437 242.866 196.741 242.721 196.095 242.38C195.449 242.039 194.92 241.536 194.508 240.87C194.106 240.193 193.872 239.403 193.808 238.501ZM200.784 238.066C200.745 237.525 200.606 237.07 200.365 236.702C200.123 236.323 199.814 236.045 199.437 235.868C199.059 235.68 198.662 235.6 198.247 235.628C197.831 235.655 197.454 235.782 197.116 236.007C196.779 236.232 196.512 236.549 196.317 236.957C196.131 237.353 196.057 237.817 196.095 238.348C196.133 238.878 196.273 239.338 196.516 239.728C196.768 240.105 197.077 240.389 197.444 240.578C197.822 240.766 198.214 240.846 198.619 240.819C199.035 240.791 199.417 240.664 199.765 240.438C200.112 240.202 200.379 239.885 200.565 239.489C200.75 239.082 200.823 238.607 200.784 238.066ZM212.732 237.075C212.755 237.393 212.754 237.681 212.729 237.939L206.251 238.372C206.35 239.006 206.61 239.49 207.03 239.824C207.451 240.159 207.949 240.307 208.525 240.268C209.357 240.213 209.923 239.818 210.224 239.083L212.639 238.921C212.444 239.788 212.004 240.521 211.318 241.122C210.632 241.712 209.761 242.042 208.705 242.112C207.852 242.17 207.071 242.035 206.362 241.709C205.662 241.372 205.096 240.871 204.663 240.207C204.24 239.542 203.996 238.758 203.931 237.855C203.866 236.942 203.995 236.128 204.319 235.413C204.642 234.698 205.127 234.133 205.772 233.716C206.417 233.3 207.177 233.062 208.052 233.004C208.894 232.947 209.659 233.077 210.346 233.394C211.044 233.71 211.598 234.19 212.008 234.835C212.429 235.468 212.67 236.215 212.732 237.075ZM210.367 236.593C210.315 236.02 210.074 235.578 209.644 235.265C209.214 234.942 208.706 234.8 208.119 234.839C207.564 234.876 207.107 235.078 206.748 235.443C206.398 235.797 206.202 236.274 206.159 236.874L210.367 236.593Z" fill="black"/>
<path d="M168.834 183.342L168.537 184.136L168.475 184.35V184.35C168.433 184.547 168.406 184.746 168.392 184.946L168.364 185.371L168.382 185.951L168.405 186.511L168.461 186.919L168.655 187.595L168.739 187.816C168.831 188.059 168.965 188.285 169.135 188.483L169.15 188.501C169.23 188.594 169.317 188.68 169.413 188.757V188.757C169.633 188.935 169.888 189.066 170.162 189.139L170.928 189.345V189.345C171.945 189.627 173.031 189.515 173.966 189.033L174.69 188.66L176.883 187.37L178.269 186.329L179.43 185.19L180.452 184.095L181.335 182.874L181.959 181.914C182.104 181.691 182.232 181.458 182.343 181.217V181.217L182.509 180.855L182.623 180.492V180.492C182.699 180.252 182.728 179.999 182.71 179.748L182.694 179.527C182.669 179.177 182.546 178.842 182.339 178.558L182.294 178.497C182.134 178.278 181.921 178.103 181.674 177.989V177.989C181.432 177.878 181.166 177.829 180.9 177.847L180.533 177.871L180.137 177.917C179.891 177.945 179.648 177.995 179.411 178.067V178.067C179.123 178.155 178.847 178.273 178.586 178.421L177.685 178.932L176.939 179.448C176.52 179.738 176.13 180.067 175.773 180.429V180.429L175.236 180.974L174.299 182.127L173.389 183.523L172.744 184.801L172.529 185.298C172.328 185.763 172.161 186.243 172.031 186.732L172.012 186.804C171.837 187.459 171.733 188.13 171.7 188.807L171.625 190.326C171.606 190.725 171.674 191.124 171.825 191.495V191.495C172.027 191.991 172.369 192.418 172.81 192.725L172.963 192.831C173.263 193.04 173.6 193.192 173.956 193.278V193.278C174.224 193.343 174.5 193.37 174.776 193.358L174.996 193.349C175.232 193.339 175.467 193.311 175.698 193.264L176.289 193.145C176.983 193.004 177.661 192.796 178.314 192.524V192.524C179.182 192.161 179.998 191.686 180.742 191.112L181.864 190.245L183.338 188.902L184.889 187.107" stroke="#2D74F8" stroke-width="4" stroke-linecap="round"/>
<path d="M182.671 185.203L186.899 188.813C186.899 188.813 186.9 188.813 186.9 188.812L187.903 183.555C187.904 183.554 187.903 183.553 187.902 183.554L182.671 185.201C182.671 185.201 182.67 185.202 182.671 185.203Z" fill="#2D74F8" stroke="#2D74F8" stroke-width="2" stroke-linecap="round"/>
<rect width="116.633" height="14.5941" transform="matrix(0.999782 -0.0668733 0.0714322 0.995292 195.252 176.887)" fill="#F5F5F5"/>
<rect width="77.9344" height="14.5941" transform="matrix(0.999782 -0.0668733 0.0714322 0.995292 317.232 168.729)" fill="#F5F5F5"/>
</g>
</g>
<defs>
<filter id="filter0_d_3036_239" x="-3.43438" y="64.4641" width="374.627" height="406.918" filterUnits="userSpaceOnUse" color-interpolation-filters="sRGB">
<feFlood flood-opacity="0" result="BackgroundImageFix"/>
<feColorMatrix in="SourceAlpha" type="matrix" values="0 0 0 0 0 0 0 0 0 0 0 0 0 0 0 0 0 0 127 0" result="hardAlpha"/>
<feOffset dy="1"/>
<feGaussianBlur stdDeviation="10.1"/>
<feComposite in2="hardAlpha" operator="out"/>
<feColorMatrix type="matrix" values="0 0 0 0 0 0 0 0 0 0 0 0 0 0 0 0 0 0 0.15 0"/>
<feBlend mode="normal" in2="BackgroundImageFix" result="effect1_dropShadow_3036_239"/>
<feBlend mode="normal" in="SourceGraphic" in2="effect1_dropShadow_3036_239" result="shape"/>
</filter>
<filter id="filter1_d_3036_239" x="140.034" y="137.936" width="304.072" height="363.024" filterUnits="userSpaceOnUse" color-interpolation-filters="sRGB">
<feFlood flood-opacity="0" result="BackgroundImageFix"/>
<feColorMatrix in="SourceAlpha" type="matrix" values="0 0 0 0 0 0 0 0 0 0 0 0 0 0 0 0 0 0 127 0" result="hardAlpha"/>
<feOffset dy="1"/>
<feGaussianBlur stdDeviation="10.1"/>
<feComposite in2="hardAlpha" operator="out"/>
<feColorMatrix type="matrix" values="0 0 0 0 0 0 0 0 0 0 0 0 0 0 0 0 0 0 0.15 0"/>
<feBlend mode="normal" in2="BackgroundImageFix" result="effect1_dropShadow_3036_239"/>
<feBlend mode="normal" in="SourceGraphic" in2="effect1_dropShadow_3036_239" result="shape"/>
</filter>
</defs>
</svg>
