<svg width="550" height="351" viewBox="0 0 550 351" fill="none" xmlns="http://www.w3.org/2000/svg">
<rect width="550" height="351" rx="21" fill="#F2F6FF"/>
<mask id="mask0_3036_117" style="mask-type:alpha" maskUnits="userSpaceOnUse" x="0" y="0" width="550" height="351">
<rect x="1.5" y="1.5" width="547" height="348" rx="19.5" fill="#BAD1FD" stroke="#153064" stroke-width="3"/>
</mask>
<g mask="url(#mask0_3036_117)">
<g opacity="0.54">
<g filter="url(#filter0_d_3036_117)">
<path d="M25.7133 148.974C24.9526 146.198 26.6674 143.352 29.5433 142.618L253.982 85.3059C256.858 84.5715 259.807 86.2269 260.567 89.0034L339.355 376.557C340.116 379.334 338.401 382.18 335.525 382.914L111.086 440.226C108.21 440.96 105.262 439.305 104.501 436.529L25.7133 148.974Z" fill="white"/>
<path d="M25.7133 148.974C24.9526 146.198 26.6674 143.352 29.5433 142.618L253.982 85.3059C256.858 84.5715 259.807 86.2269 260.567 89.0034L266.077 109.112L31.223 169.083L25.7133 148.974Z" fill="white"/>
<path fill-rule="evenodd" clip-rule="evenodd" d="M266.008 108.861L31.1541 168.832L31.223 169.083L266.077 109.112L266.008 108.861Z" fill="white"/>
</g>
<path d="M55.8894 173.834L55.8285 184.667L53.4331 185.278L49.559 178.565L49.5424 186.272L47.1655 186.894L41.6622 177.467L43.8399 176.911L47.7764 184.305L47.687 175.929L49.9517 175.35L54.0361 182.66L53.6972 174.394L55.8894 173.834ZM57.378 178.847C57.1055 177.852 57.0847 176.907 57.3156 176.011C57.5536 175.103 58.0001 174.333 58.6553 173.701C59.3176 173.057 60.1326 172.611 61.1005 172.364C62.2328 172.075 63.3042 172.111 64.3146 172.473C65.3251 172.835 66.1399 173.484 66.7591 174.421L64.4218 175.018C64.0572 174.595 63.6289 174.317 63.1369 174.184C62.6546 174.049 62.1376 174.052 61.586 174.193C60.9956 174.343 60.5065 174.618 60.1187 175.017C59.7379 175.403 59.4856 175.881 59.3618 176.45C59.2478 177.016 59.2833 177.637 59.4685 178.313C59.6511 178.979 59.9383 179.536 60.3302 179.984C60.729 180.419 61.1943 180.719 61.7259 180.883C62.2645 181.034 62.829 181.035 63.4194 180.884C63.9711 180.743 64.4219 180.499 64.772 180.151C65.129 179.792 65.3575 179.341 65.4575 178.798L67.7948 178.202C67.7392 179.321 67.3649 180.28 66.6719 181.076C65.986 181.861 65.072 182.399 63.93 182.691C62.9622 182.938 62.0268 182.944 61.1238 182.71C60.2278 182.464 59.4452 182.007 58.776 181.341C58.1165 180.673 57.6505 179.842 57.378 178.847ZM75.3136 168.874L78.0836 178.984L76.0512 179.503L74.8725 175.201L70.5318 176.309L71.7105 180.611L69.678 181.13L66.908 171.02L68.9404 170.501L70.0794 174.658L74.4201 173.55L73.2812 169.393L75.3136 168.874ZM76.498 170.09L75.9861 168.222L79.4848 167.328L82.3779 177.887L80.2873 178.421L77.9062 169.731L76.498 170.09ZM81.0319 168.932L80.52 167.064L84.0187 166.171L86.9117 176.729L84.8212 177.263L82.4401 168.573L81.0319 168.932ZM99.4371 162.714L102.207 172.824L100.175 173.343L98.373 166.767L97.4599 174.036L95.9211 174.429L91.3901 168.55L93.1918 175.126L91.1593 175.645L88.3893 165.535L90.6976 164.946L95.9801 171.64L97.1433 163.3L99.4371 162.714ZM101.861 168.588C101.639 167.777 101.601 167.017 101.749 166.308C101.906 165.596 102.214 165.001 102.673 164.522C103.142 164.041 103.72 163.712 104.407 163.537C105.007 163.384 105.562 163.371 106.074 163.499C106.595 163.624 107.041 163.835 107.413 164.133L107.099 162.989L109.146 162.466L111.345 170.49L109.298 171.013L108.976 169.84C108.818 170.283 108.541 170.69 108.145 171.059C107.757 171.417 107.262 171.672 106.662 171.826C105.985 171.999 105.318 171.983 104.661 171.779C104.014 171.572 103.44 171.197 102.939 170.653C102.445 170.097 102.086 169.409 101.861 168.588ZM108.198 167.001C108.063 166.509 107.852 166.113 107.563 165.815C107.271 165.507 106.936 165.304 106.557 165.204C106.175 165.095 105.795 165.089 105.417 165.185C105.04 165.281 104.717 165.462 104.448 165.727C104.178 165.992 103.991 166.329 103.886 166.738C103.788 167.136 103.805 167.575 103.937 168.058C104.069 168.541 104.282 168.941 104.576 169.259C104.878 169.564 105.214 169.773 105.587 169.884C105.969 169.993 106.343 170.001 106.711 169.907C107.089 169.81 107.417 169.629 107.696 169.361C107.972 169.084 108.159 168.747 108.257 168.35C108.353 167.943 108.333 167.493 108.198 167.001ZM118.099 160.18L116.358 173.27L114.195 173.823L114.842 169.38L109.476 162.382L111.755 161.8L115.367 166.875L115.936 160.732L118.099 160.18ZM122.354 153.003L122.91 170.342L120.922 170.85L120.365 153.511L122.354 153.003ZM130.141 154.874L132.085 161.971C132.355 162.956 132.28 163.796 131.86 164.492C131.437 165.179 130.746 165.645 129.788 165.889C128.82 166.136 127.96 166.056 127.206 165.65C126.462 165.24 125.953 164.534 125.678 163.529L127.71 163.01C127.839 163.442 128.033 163.754 128.293 163.946C128.562 164.136 128.886 164.182 129.263 164.086C129.631 163.992 129.88 163.805 130.01 163.523C130.14 163.242 130.149 162.899 130.038 162.493L128.094 155.396L130.141 154.874ZM139.95 154.6L142.148 162.624L140.101 163.147L139.824 162.133C139.658 162.548 139.389 162.911 139.019 163.222C138.656 163.521 138.227 163.734 137.734 163.86C137.105 164.021 136.513 164.033 135.957 163.896C135.399 163.749 134.91 163.455 134.489 163.015C134.075 162.563 133.77 161.98 133.574 161.265L132.285 156.558L134.317 156.039L135.527 160.456C135.702 161.094 135.997 161.545 136.411 161.811C136.823 162.068 137.305 162.126 137.857 161.985C138.418 161.841 138.812 161.56 139.039 161.14C139.263 160.711 139.288 160.178 139.113 159.541L137.903 155.123L139.95 154.6ZM145.654 153.02C146.613 152.775 147.47 152.881 148.227 153.339C148.982 153.787 149.507 154.552 149.803 155.633L151.093 160.34L149.061 160.859L147.846 156.427C147.672 155.79 147.378 155.343 146.966 155.087C146.552 154.821 146.069 154.758 145.517 154.899C144.956 155.042 144.558 155.33 144.324 155.761C144.097 156.181 144.071 156.709 144.246 157.347L145.46 161.779L143.428 162.298L141.229 154.274L143.262 153.755L143.536 154.754C143.711 154.337 143.981 153.979 144.344 153.68C144.714 153.368 145.151 153.148 145.654 153.02ZM158.63 153.937C158.709 154.227 158.761 154.493 158.786 154.734L152.906 156.236C153.113 156.803 153.441 157.204 153.889 157.441C154.337 157.678 154.822 157.73 155.345 157.596C156.1 157.404 156.548 156.943 156.691 156.215L158.883 155.655C158.862 156.487 158.591 157.238 158.071 157.908C157.548 158.568 156.807 159.021 155.849 159.265C155.075 159.463 154.332 159.472 153.62 159.292C152.915 159.1 152.302 158.735 151.781 158.196C151.271 157.655 150.903 156.974 150.678 156.154C150.451 155.323 150.42 154.551 150.587 153.837C150.754 153.123 151.096 152.519 151.613 152.025C152.13 151.531 152.785 151.183 153.579 150.981C154.344 150.785 155.071 150.775 155.761 150.95C156.461 151.123 157.058 151.471 157.554 151.996C158.057 152.508 158.415 153.155 158.63 153.937ZM156.366 153.895C156.213 153.376 155.911 153.009 155.458 152.794C155.003 152.57 154.51 152.525 153.977 152.661C153.474 152.79 153.09 153.053 152.827 153.451C152.57 153.837 152.477 154.31 152.548 154.87L156.366 153.895ZM163.047 154.839C163.764 153.83 164.329 152.998 164.74 152.346C165.149 151.684 165.461 151.025 165.675 150.371C165.889 149.717 165.922 149.12 165.774 148.579C165.639 148.087 165.417 147.73 165.108 147.51C164.799 147.289 164.403 147.24 163.919 147.364C163.435 147.488 163.107 147.747 162.936 148.142C162.762 148.527 162.747 149.001 162.891 149.564L160.916 150.068C160.638 148.899 160.74 147.933 161.225 147.169C161.719 146.402 162.469 145.89 163.476 145.633C164.579 145.351 165.507 145.429 166.258 145.868C167.007 146.296 167.513 146.989 167.775 147.945C167.981 148.698 167.975 149.469 167.757 150.258C167.538 151.048 167.237 151.765 166.855 152.41C166.47 153.046 165.954 153.828 165.308 154.758L169.591 153.664L170.051 155.344L162.879 157.176L162.467 155.669L163.047 154.839ZM169.161 149.931C168.704 148.26 168.645 146.875 168.986 145.776C169.336 144.674 170.213 143.943 171.617 143.585C173.02 143.227 174.151 143.444 175.011 144.237C175.88 145.028 176.543 146.258 177.001 147.929C177.461 149.609 177.517 151.005 177.17 152.116C176.831 153.226 175.961 153.959 174.557 154.318C173.154 154.676 172.016 154.455 171.145 153.655C170.283 152.852 169.622 151.611 169.161 149.931ZM174.997 148.44C174.802 147.726 174.589 147.14 174.36 146.681C174.138 146.211 173.844 145.857 173.479 145.62C173.123 145.38 172.675 145.33 172.133 145.468C171.591 145.606 171.222 145.866 171.026 146.247C170.839 146.625 170.765 147.072 170.803 147.59C170.848 148.095 170.969 148.704 171.165 149.419C171.366 150.153 171.579 150.76 171.803 151.24C172.025 151.71 172.319 152.064 172.684 152.301C173.047 152.529 173.499 152.573 174.041 152.435C174.583 152.296 174.954 152.042 175.152 151.671C175.348 151.29 175.422 150.842 175.375 150.328C175.324 149.803 175.198 149.174 174.997 148.44ZM179.317 150.685C180.034 149.675 180.599 148.844 181.01 148.191C181.419 147.529 181.73 146.871 181.945 146.217C182.159 145.563 182.192 144.966 182.044 144.425C181.909 143.932 181.687 143.576 181.378 143.355C181.069 143.134 180.673 143.086 180.189 143.209C179.705 143.333 179.377 143.592 179.206 143.987C179.032 144.373 179.017 144.847 179.16 145.409L177.186 145.913C176.907 144.745 177.01 143.778 177.495 143.014C177.989 142.247 178.739 141.735 179.746 141.478C180.849 141.197 181.776 141.275 182.528 141.713C183.277 142.142 183.783 142.834 184.045 143.79C184.251 144.543 184.245 145.314 184.026 146.104C183.808 146.893 183.507 147.61 183.125 148.256C182.74 148.891 182.224 149.674 181.578 150.603L185.86 149.51L186.321 151.19L179.149 153.021L178.736 151.515L179.317 150.685ZM184.813 143.408C184.597 142.43 184.732 141.6 185.218 140.918C185.712 140.224 186.476 139.744 187.512 139.48C188.218 139.299 188.857 139.27 189.429 139.393C189.999 139.506 190.468 139.743 190.836 140.103C191.211 140.452 191.471 140.891 191.616 141.423C191.783 142.031 191.765 142.588 191.562 143.095C191.366 143.589 191.07 143.964 190.674 144.22L190.69 144.278C191.299 144.309 191.819 144.506 192.251 144.871C192.692 145.234 193.008 145.763 193.198 146.458C193.357 147.038 193.363 147.589 193.216 148.112C193.079 148.632 192.785 149.09 192.334 149.484C191.89 149.866 191.305 150.15 190.579 150.335C189.485 150.614 188.52 150.566 187.682 150.192C186.844 149.817 186.258 149.098 185.926 148.036L187.9 147.532C188.049 148 188.314 148.341 188.693 148.554C189.079 148.755 189.539 148.787 190.071 148.651C190.565 148.525 190.905 148.294 191.092 147.957C191.287 147.608 191.324 147.216 191.205 146.781C191.046 146.202 190.749 145.834 190.312 145.676C189.876 145.519 189.27 145.54 188.496 145.737L188.075 145.845L187.619 144.179L188.04 144.072C189.414 143.721 189.975 143.087 189.724 142.169C189.61 141.754 189.396 141.463 189.081 141.295C188.775 141.125 188.39 141.1 187.926 141.218C187.471 141.334 187.152 141.55 186.969 141.865C186.793 142.169 186.738 142.513 186.802 142.9L184.813 143.408Z" fill="black"/>
<path d="M35.1513 152.477L35.0148 153.311L34.9958 153.533V153.533C34.9928 153.733 35.0044 153.934 35.0304 154.133L35.0856 154.555L35.2163 155.122L35.3479 155.667L35.4831 156.058L35.8048 156.687L35.9302 156.888C36.0687 157.111 36.2444 157.308 36.4496 157.472L36.4677 157.486C36.5641 157.563 36.6673 157.632 36.7759 157.69V157.69C37.0268 157.825 37.3028 157.907 37.5859 157.929L38.3784 157.993V157.993C39.4331 158.084 40.4771 157.777 41.302 157.134L41.94 156.636L43.8421 154.971L45.0005 153.695L45.9179 152.366L46.7086 151.105L47.3378 149.745L47.7634 148.689C47.862 148.444 47.9425 148.192 48.0043 147.935V147.935L48.097 147.549L48.1383 147.171V147.171C48.1655 146.922 48.1452 146.669 48.0785 146.425L48.0199 146.211C47.927 145.873 47.7405 145.565 47.4815 145.324L47.4265 145.273C47.2264 145.086 46.9823 144.953 46.7176 144.886V144.886C46.4584 144.821 46.1877 144.821 45.9306 144.887L45.5741 144.978L45.1938 145.094C44.9576 145.167 44.7289 145.26 44.5104 145.374V145.374C44.2452 145.512 43.9966 145.679 43.769 145.872L42.9839 146.537L42.3519 147.18C41.9974 147.541 41.678 147.934 41.3978 148.355V148.355L40.9766 148.987L40.2814 150.291L39.6606 151.827L39.276 153.199L39.1617 153.727C39.0549 154.22 38.9849 154.721 38.9523 155.226L38.9474 155.3C38.9038 155.974 38.932 156.652 39.0315 157.323L39.2548 158.828C39.3136 159.224 39.4584 159.604 39.6792 159.941V159.941C39.9739 160.391 40.3928 160.748 40.8848 160.969L41.0567 161.046C41.3929 161.197 41.7536 161.285 42.1201 161.305V161.305C42.3961 161.319 42.6722 161.296 42.9403 161.234L43.1549 161.185C43.3847 161.133 43.6097 161.062 43.8278 160.974L44.385 160.749C45.0391 160.485 45.6645 160.158 46.2521 159.772V159.772C47.0343 159.257 47.7438 158.643 48.3625 157.943L49.295 156.888L50.4807 155.301L51.6535 153.257" stroke="#2D74F8" stroke-width="4" stroke-linecap="round"/>
<path d="M49.1053 151.79L53.9615 154.567C53.9621 154.567 53.963 154.566 53.963 154.566L53.9226 149.22C53.9226 149.219 53.9218 149.219 53.9211 149.219L49.1053 151.788C49.1046 151.789 49.1046 151.79 49.1053 151.79Z" fill="#2D74F8" stroke="#2D74F8" stroke-width="2" stroke-linecap="round"/>
<rect width="116.757" height="14.5776" transform="matrix(0.967831 -0.24714 0.264567 0.965598 59.8379 141.335)" fill="#F5F5F5"/>
<rect width="78.0171" height="14.5776" transform="matrix(0.967831 -0.24714 0.264567 0.965598 178.047 111.151)" fill="#F5F5F5"/>
<g filter="url(#filter1_d_3036_117)">
<path d="M167.266 172.336C167.329 169.464 169.79 167.185 172.764 167.245L404.871 171.927C407.846 171.987 410.206 174.363 410.144 177.234L403.708 474.613C403.646 477.484 401.185 479.763 398.211 479.703L166.103 475.022C163.129 474.962 160.768 472.586 160.831 469.714L167.266 172.336Z" fill="white"/>
<path d="M167.266 172.336C167.329 169.464 169.79 167.185 172.764 167.245L404.871 171.927C407.846 171.987 410.206 174.363 410.144 177.234L409.694 198.03L166.816 193.131L167.266 172.336Z" fill="white"/>
<path fill-rule="evenodd" clip-rule="evenodd" d="M409.7 197.77L166.822 192.871L166.816 193.131L409.694 198.03L409.7 197.77Z" fill="white"/>
</g>
<path d="M190.166 204.589L186.801 215.677L184.159 215.624L182.233 207.641L179.867 215.537L177.24 215.5L174.47 204.272L176.873 204.321L178.655 213.019L181.117 204.406L183.615 204.457L185.575 213.111L187.747 204.54L190.166 204.589ZM190.244 210.152C190.268 209.055 190.535 208.08 191.045 207.228C191.565 206.364 192.258 205.702 193.123 205.24C193.998 204.767 194.97 204.542 196.037 204.563C197.287 204.589 198.374 204.93 199.3 205.588C200.226 206.246 200.863 207.143 201.212 208.28L198.634 208.228C198.389 207.69 198.035 207.283 197.571 207.008C197.117 206.732 196.586 206.588 195.978 206.576C195.326 206.563 194.741 206.706 194.222 207.004C193.714 207.292 193.309 207.71 193.009 208.258C192.72 208.806 192.567 209.453 192.551 210.199C192.535 210.934 192.659 211.586 192.925 212.156C193.201 212.716 193.587 213.155 194.082 213.474C194.588 213.783 195.167 213.944 195.818 213.957C196.427 213.969 196.963 213.847 197.428 213.59C197.904 213.322 198.276 212.925 198.544 212.398L201.122 212.45C200.724 213.582 200.048 214.458 199.094 215.078C198.152 215.687 197.051 215.98 195.791 215.954C194.723 215.933 193.762 215.674 192.907 215.177C192.064 214.67 191.401 213.98 190.917 213.107C190.445 212.234 190.221 211.249 190.244 210.152ZM211.755 205.024L211.514 216.175L209.271 216.13L209.374 211.385L204.585 211.289L204.483 216.034L202.24 215.988L202.482 204.837L204.724 204.882L204.625 209.467L209.413 209.564L209.513 204.979L211.755 205.024ZM212.679 206.609L212.723 204.548L216.583 204.626L216.331 216.273L214.025 216.226L214.232 206.64L212.679 206.609ZM218.585 213.793C219.628 212.961 220.46 212.27 221.081 211.717C221.702 211.154 222.222 210.568 222.641 209.959C223.06 209.349 223.276 208.746 223.289 208.15C223.301 207.607 223.182 207.178 222.933 206.864C222.683 206.55 222.291 206.387 221.757 206.377C221.224 206.366 220.809 206.539 220.513 206.895C220.217 207.241 220.057 207.722 220.033 208.34L217.854 208.296C217.925 207.019 218.325 206.057 219.055 205.411C219.795 204.765 220.72 204.454 221.831 204.476C223.048 204.501 223.975 204.844 224.612 205.507C225.25 206.159 225.557 207.013 225.534 208.067C225.516 208.898 225.275 209.687 224.81 210.434C224.345 211.181 223.819 211.831 223.23 212.384C222.641 212.926 221.874 213.582 220.928 214.351L225.653 214.447L225.613 216.3L217.701 216.14L217.737 214.479L218.585 213.793ZM234.84 216.758C233.793 216.737 232.838 216.472 231.973 215.965C231.108 215.457 230.428 214.767 229.935 213.894C229.441 213.01 229.206 212.02 229.23 210.923C229.253 209.836 229.531 208.867 230.062 208.015C230.593 207.152 231.302 206.484 232.188 206.012C233.074 205.539 234.041 205.314 235.087 205.335C236.144 205.356 237.1 205.621 237.954 206.128C238.819 206.636 239.493 207.331 239.976 208.215C240.469 209.088 240.705 210.067 240.681 211.154C240.657 212.251 240.38 213.231 239.848 214.094C239.328 214.946 238.625 215.609 237.738 216.081C236.852 216.553 235.886 216.779 234.84 216.758ZM234.883 214.761C235.556 214.774 236.151 214.637 236.67 214.349C237.19 214.051 237.599 213.622 237.9 213.064C238.2 212.505 238.359 211.853 238.375 211.107C238.391 210.362 238.261 209.709 237.985 209.149C237.709 208.579 237.317 208.14 236.811 207.831C236.305 207.523 235.716 207.362 235.043 207.348C234.371 207.334 233.77 207.471 233.24 207.759C232.721 208.047 232.311 208.47 232.011 209.029C231.71 209.577 231.552 210.224 231.536 210.969C231.52 211.715 231.65 212.373 231.926 212.943C232.202 213.513 232.593 213.958 233.099 214.277C233.616 214.586 234.21 214.747 234.883 214.761ZM241.026 212.343C241.046 211.427 241.25 210.632 241.639 209.958C242.027 209.274 242.557 208.751 243.227 208.392C243.897 208.022 244.659 207.846 245.514 207.863C246.613 207.885 247.515 208.18 248.218 208.748C248.933 209.306 249.402 210.083 249.626 211.078L247.208 211.03C247.088 210.644 246.875 210.341 246.57 210.122C246.276 209.892 245.905 209.773 245.456 209.764C244.816 209.751 244.304 209.975 243.92 210.436C243.536 210.886 243.335 211.538 243.317 212.39C243.298 213.231 243.471 213.89 243.835 214.366C244.198 214.831 244.701 215.071 245.341 215.084C246.249 215.102 246.85 214.709 247.145 213.905L249.564 213.954C249.297 214.908 248.795 215.659 248.057 216.209C247.319 216.759 246.405 217.023 245.316 217.001C244.462 216.984 243.708 216.782 243.054 216.396C242.4 215.999 241.894 215.456 241.535 214.767C241.176 214.067 241.007 213.259 241.026 212.343ZM253.183 209.999L253.091 214.281C253.084 214.579 253.149 214.799 253.285 214.94C253.431 215.071 253.676 215.14 254.017 215.147L255.058 215.168L255.017 217.053L253.608 217.024C251.718 216.986 250.793 216.051 250.833 214.219L250.925 209.954L249.868 209.933L249.908 208.095L250.965 208.117L251.012 205.928L253.27 205.973L253.223 208.162L255.209 208.202L255.169 210.039L253.183 209.999ZM262.243 202.063L257.529 219.996L255.334 219.952L260.049 202.019L262.243 202.063ZM272.539 217.406L270.297 217.361L265.386 209.606L265.22 217.259L262.978 217.213L263.219 206.046L265.462 206.091L270.373 213.862L270.539 206.194L272.781 206.239L272.539 217.406ZM277.971 217.66C277.117 217.642 276.352 217.441 275.677 217.054C275.002 216.657 274.474 216.108 274.094 215.408C273.725 214.708 273.55 213.905 273.569 213C273.589 212.094 273.804 211.3 274.214 210.615C274.635 209.931 275.196 209.41 275.898 209.051C276.6 208.682 277.379 208.506 278.233 208.523C279.087 208.54 279.857 208.747 280.543 209.145C281.229 209.531 281.762 210.075 282.142 210.775C282.532 211.476 282.718 212.279 282.698 213.184C282.679 214.089 282.453 214.884 282.022 215.568C281.601 216.252 281.034 216.778 280.321 217.148C279.619 217.506 278.836 217.677 277.971 217.66ZM278.013 215.711C278.419 215.719 278.8 215.631 279.156 215.446C279.524 215.251 279.819 214.959 280.041 214.569C280.263 214.179 280.38 213.702 280.392 213.137C280.41 212.296 280.2 211.647 279.761 211.191C279.333 210.724 278.799 210.484 278.159 210.471C277.518 210.458 276.974 210.676 276.526 211.125C276.089 211.564 275.862 212.204 275.844 213.046C275.825 213.887 276.02 214.541 276.426 215.007C276.843 215.463 277.372 215.698 278.013 215.711ZM287.271 215.642L289.66 208.897L292.046 208.945L288.572 217.73L285.849 217.675L282.773 208.758L285.176 208.807L287.271 215.642ZM295.992 215.354C297.036 214.523 297.868 213.831 298.489 213.279C299.11 212.716 299.63 212.13 300.049 211.52C300.468 210.91 300.684 210.307 300.697 209.711C300.708 209.168 300.59 208.739 300.34 208.425C300.09 208.111 299.699 207.949 299.165 207.938C298.631 207.927 298.216 208.1 297.92 208.456C297.624 208.802 297.464 209.284 297.44 209.901L295.262 209.857C295.332 208.58 295.732 207.618 296.462 206.972C297.202 206.327 298.128 206.015 299.238 206.038C300.455 206.062 301.382 206.406 302.02 207.069C302.657 207.721 302.965 208.574 302.942 209.628C302.924 210.459 302.682 211.248 302.218 211.995C301.753 212.742 301.226 213.392 300.637 213.945C300.049 214.488 299.281 215.143 298.335 215.913L303.06 216.008L303.02 217.861L295.108 217.702L295.144 216.04L295.992 215.354ZM303.838 212.06C303.878 210.217 304.24 208.781 304.925 207.751C305.62 206.72 306.742 206.221 308.29 206.252C309.838 206.283 310.932 206.827 311.571 207.885C312.221 208.942 312.526 210.392 312.486 212.234C312.446 214.088 312.079 215.535 311.383 216.575C310.698 217.617 309.582 218.121 308.034 218.09C306.485 218.059 305.386 217.509 304.737 216.441C304.097 215.374 303.798 213.913 303.838 212.06ZM310.276 212.19C310.293 211.402 310.254 210.74 310.159 210.206C310.075 209.66 309.881 209.214 309.579 208.867C309.287 208.52 308.843 208.341 308.245 208.329C307.647 208.317 307.189 208.478 306.872 208.813C306.566 209.147 306.354 209.585 306.235 210.126C306.127 210.657 306.065 211.316 306.048 212.105C306.031 212.914 306.064 213.597 306.148 214.152C306.232 214.697 306.426 215.144 306.728 215.491C307.03 215.827 307.481 216.001 308.079 216.013C308.676 216.025 309.134 215.869 309.451 215.546C309.768 215.211 309.98 214.773 310.088 214.232C310.196 213.68 310.259 212.999 310.276 212.19ZM314.101 215.719C315.145 214.888 315.977 214.196 316.598 213.644C317.219 213.081 317.739 212.495 318.158 211.885C318.577 211.276 318.793 210.673 318.806 210.076C318.818 209.533 318.699 209.105 318.449 208.79C318.2 208.476 317.808 208.314 317.274 208.303C316.74 208.292 316.325 208.465 316.029 208.822C315.733 209.167 315.573 209.649 315.549 210.266L313.371 210.222C313.441 208.945 313.841 207.984 314.571 207.338C315.311 206.692 316.237 206.38 317.347 206.403C318.564 206.427 319.492 206.771 320.129 207.434C320.766 208.086 321.074 208.939 321.051 209.994C321.033 210.824 320.791 211.613 320.327 212.361C319.862 213.108 319.335 213.758 318.746 214.311C318.158 214.853 317.39 215.509 316.444 216.278L321.169 216.373L321.129 218.226L313.217 218.067L313.253 216.405L314.101 215.719ZM322.035 209.822C322.112 208.758 322.503 207.945 323.21 207.384C323.927 206.813 324.857 206.538 325.999 206.561C326.779 206.577 327.443 206.729 327.992 207.017C328.542 207.295 328.95 207.67 329.218 208.145C329.496 208.608 329.629 209.133 329.616 209.719C329.602 210.39 329.413 210.956 329.051 211.418C328.699 211.869 328.282 212.169 327.798 212.319L327.796 212.383C328.411 212.588 328.884 212.938 329.215 213.435C329.557 213.932 329.72 214.564 329.703 215.331C329.689 215.97 329.528 216.537 329.218 217.031C328.919 217.526 328.478 217.911 327.895 218.187C327.323 218.453 326.637 218.577 325.836 218.561C324.629 218.537 323.654 218.213 322.909 217.591C322.164 216.969 321.783 216.066 321.766 214.883L323.944 214.927C323.954 215.449 324.121 215.873 324.445 216.2C324.78 216.515 325.241 216.679 325.828 216.691C326.373 216.702 326.792 216.561 327.087 216.269C327.393 215.966 327.551 215.575 327.561 215.096C327.575 214.457 327.382 213.995 326.982 213.71C326.583 213.424 325.956 213.273 325.102 213.256L324.637 213.247L324.677 211.409L325.141 211.419C326.657 211.449 327.426 210.959 327.448 209.947C327.458 209.489 327.327 209.129 327.055 208.868C326.794 208.607 326.407 208.471 325.894 208.461C325.392 208.451 325 208.582 324.716 208.853C324.443 209.114 324.281 209.452 324.23 209.866L322.035 209.822Z" fill="black"/>
<path d="M175.339 178.217L174.969 178.982L174.888 179.19V179.19C174.827 179.382 174.781 179.578 174.749 179.776L174.682 180.196L174.645 180.776L174.616 181.335L174.634 181.747L174.764 182.437L174.827 182.664C174.897 182.915 175.009 183.151 175.159 183.363L175.173 183.382C175.243 183.482 175.323 183.575 175.411 183.66V183.66C175.613 183.857 175.855 184.009 176.121 184.106L176.865 184.378V184.378C177.852 184.746 178.943 184.729 179.92 184.331L180.676 184.022L182.98 182.928L184.458 182.011L185.719 180.977L186.84 179.975L187.833 178.836L188.544 177.934C188.709 177.725 188.858 177.504 188.991 177.274V177.274L189.19 176.927L189.338 176.575V176.575C189.435 176.343 189.488 176.094 189.494 175.842L189.498 175.621C189.506 175.271 189.415 174.925 189.235 174.624L189.196 174.56C189.057 174.328 188.861 174.135 188.625 174.001V174.001C188.395 173.869 188.135 173.797 187.869 173.791L187.5 173.784L187.101 173.795C186.853 173.801 186.607 173.831 186.364 173.882V173.882C186.07 173.944 185.783 174.038 185.509 174.163L184.565 174.593L183.774 175.043C183.33 175.295 182.91 175.588 182.521 175.918V175.918L181.935 176.414L180.894 177.481L179.859 178.793L179.097 180.009L178.836 180.486C178.593 180.932 178.382 181.394 178.207 181.871L178.181 181.941C177.946 182.577 177.78 183.237 177.684 183.908L177.468 185.414C177.412 185.81 177.442 186.214 177.558 186.597V186.597C177.713 187.108 178.013 187.563 178.423 187.906L178.566 188.026C178.847 188.26 179.168 188.441 179.515 188.557V188.557C179.776 188.645 180.048 188.696 180.323 188.708L180.543 188.718C180.779 188.729 181.016 188.721 181.251 188.694L181.85 188.627C182.554 188.547 183.249 188.399 183.924 188.184V188.184C184.823 187.898 185.681 187.496 186.475 186.989L187.673 186.223L189.266 185.014L190.978 183.361" stroke="#2D74F8" stroke-width="4" stroke-linecap="round"/>
<path d="M188.948 181.271L192.823 185.233C192.823 185.234 192.824 185.234 192.824 185.233L194.313 180.084C194.313 180.083 194.313 180.083 194.312 180.083L188.949 181.27C188.948 181.27 188.948 181.271 188.948 181.271Z" fill="#2D74F8" stroke="#2D74F8" stroke-width="2" stroke-linecap="round"/>
<rect width="116.746" height="14.5789" transform="matrix(1.00098 0.0201895 -0.0216093 0.998496 202.25 174.082)" fill="#F5F5F5"/>
<rect width="78.0103" height="14.5789" transform="matrix(1.00098 0.0201895 -0.0216093 0.998496 324.496 176.547)" fill="#F5F5F5"/>
</g>
</g>
<defs>
<filter id="filter0_d_3036_117" x="5.3332" y="65.9318" width="354.402" height="395.669" filterUnits="userSpaceOnUse" color-interpolation-filters="sRGB">
<feFlood flood-opacity="0" result="BackgroundImageFix"/>
<feColorMatrix in="SourceAlpha" type="matrix" values="0 0 0 0 0 0 0 0 0 0 0 0 0 0 0 0 0 0 127 0" result="hardAlpha"/>
<feOffset dy="1"/>
<feGaussianBlur stdDeviation="10.1"/>
<feComposite in2="hardAlpha" operator="out"/>
<feColorMatrix type="matrix" values="0 0 0 0 0 0 0 0 0 0 0 0 0 0 0 0 0 0 0.15 0"/>
<feBlend mode="normal" in2="BackgroundImageFix" result="effect1_dropShadow_3036_117"/>
<feBlend mode="normal" in="SourceGraphic" in2="effect1_dropShadow_3036_117" result="shape"/>
</filter>
<filter id="filter1_d_3036_117" x="140.63" y="148.044" width="289.714" height="352.86" filterUnits="userSpaceOnUse" color-interpolation-filters="sRGB">
<feFlood flood-opacity="0" result="BackgroundImageFix"/>
<feColorMatrix in="SourceAlpha" type="matrix" values="0 0 0 0 0 0 0 0 0 0 0 0 0 0 0 0 0 0 127 0" result="hardAlpha"/>
<feOffset dy="1"/>
<feGaussianBlur stdDeviation="10.1"/>
<feComposite in2="hardAlpha" operator="out"/>
<feColorMatrix type="matrix" values="0 0 0 0 0 0 0 0 0 0 0 0 0 0 0 0 0 0 0.15 0"/>
<feBlend mode="normal" in2="BackgroundImageFix" result="effect1_dropShadow_3036_117"/>
<feBlend mode="normal" in="SourceGraphic" in2="effect1_dropShadow_3036_117" result="shape"/>
</filter>
</defs>
</svg>
