<svg width="550" height="351" viewBox="0 0 550 351" fill="none" xmlns="http://www.w3.org/2000/svg">
<rect width="550" height="351" rx="21" fill="#F2F6FF"/>
<mask id="mask0_3036_94" style="mask-type:alpha" maskUnits="userSpaceOnUse" x="0" y="0" width="550" height="351">
<rect x="1.5" y="1.5" width="547" height="348" rx="19.5" fill="#BAD1FD" stroke="#153064" stroke-width="3"/>
</mask>
<g mask="url(#mask0_3036_94)">
<g opacity="0.54">
<g filter="url(#filter0_d_3036_94)">
<path d="M28.1453 113.332C28.0381 110.462 30.3612 108.052 33.3342 107.948L265.341 99.87C268.314 99.7665 270.811 102.009 270.918 104.879L282.024 402.13C282.131 405 279.808 407.41 276.835 407.514L44.8279 415.592C41.855 415.695 39.358 413.453 39.2508 410.583L28.1453 113.332Z" fill="white"/>
<path d="M28.1453 113.332C28.0381 110.462 30.3612 108.052 33.3342 107.948L265.341 99.87C268.314 99.7665 270.811 102.009 270.918 104.879L271.695 125.666L28.9219 134.119L28.1453 113.332Z" fill="white"/>
<path fill-rule="evenodd" clip-rule="evenodd" d="M271.685 125.406L28.9122 133.859L28.9219 134.119L271.695 125.666L271.685 125.406Z" fill="white"/>
</g>
<path d="M43.148 154.885C42.1677 154.919 41.2589 154.721 40.4215 154.29C39.5841 153.86 38.9102 153.248 38.3998 152.456C37.8891 151.654 37.6146 150.739 37.5761 149.711C37.5381 148.693 37.744 147.771 38.194 146.945C38.6435 146.11 39.2698 145.449 40.0729 144.961C40.876 144.473 41.7677 144.212 42.7479 144.178C43.7382 144.143 44.6471 144.342 45.4744 144.773C46.3118 145.203 46.9809 145.82 47.4816 146.622C47.992 147.414 48.2662 148.319 48.3042 149.337C48.3426 150.366 48.1371 151.298 47.6875 152.133C47.2476 152.958 46.6261 153.614 45.823 154.102C45.0199 154.59 44.1282 154.851 43.148 154.885ZM43.078 153.013C43.7082 152.991 44.2581 152.832 44.7278 152.536C45.1972 152.23 45.557 151.807 45.8073 151.269C46.0576 150.73 46.1697 150.112 46.1436 149.413C46.1175 148.714 45.9597 148.11 45.6702 147.6C45.3804 147.08 44.9902 146.689 44.4996 146.426C44.009 146.163 43.4486 146.043 42.8184 146.065C42.1883 146.087 41.6333 146.246 41.1536 146.543C40.6839 146.839 40.3239 147.256 40.0736 147.795C39.8229 148.323 39.7106 148.937 39.7368 149.636C39.7629 150.335 39.9208 150.944 40.2107 151.464C40.5005 151.983 40.8909 152.38 41.3819 152.652C41.8825 152.915 42.4479 153.035 43.078 153.013ZM51.1519 147.484C51.4056 147.035 51.7428 146.679 52.1636 146.414C52.5944 146.149 53.0899 146.007 53.6501 145.987L53.7323 148.189L53.1771 148.208C52.517 148.231 52.0226 148.403 51.6941 148.725C51.3755 149.046 51.2306 149.59 51.2593 150.359L51.4138 154.492L49.3132 154.565L49.0032 146.269L51.1038 146.196L51.1519 147.484ZM57.5701 145.836C58.1903 145.814 58.7401 145.92 59.2195 146.153C59.6986 146.377 60.0805 146.678 60.3651 147.058L60.3209 145.875L62.4365 145.801L62.7487 154.158C62.7774 154.926 62.6479 155.616 62.3602 156.225C62.0729 156.845 61.6256 157.341 61.0185 157.712C60.4118 158.093 59.6683 158.298 58.788 158.329C57.6077 158.37 56.6271 158.129 55.8464 157.607C55.0757 157.084 54.6226 156.35 54.4871 155.405L56.5727 155.332C56.6969 155.708 56.9432 155.999 57.3115 156.206C57.6902 156.423 58.1396 156.522 58.6597 156.504C59.2699 156.483 59.7582 156.281 60.1245 155.898C60.4912 155.526 60.6607 154.97 60.6331 154.231L60.585 152.943C60.3294 153.342 59.9665 153.68 59.496 153.956C59.0356 154.232 58.5003 154.381 57.8901 154.402C57.1899 154.426 56.543 154.269 55.9494 153.93C55.3558 153.59 54.8769 153.102 54.5125 152.465C54.1578 151.818 53.9646 151.07 53.9329 150.221C53.9016 149.382 54.0388 148.633 54.3447 147.973C54.6605 147.312 55.097 146.797 55.6541 146.427C56.2212 146.058 56.8599 145.861 57.5701 145.836ZM60.4759 150.023C60.4569 149.514 60.3406 149.083 60.1271 148.731C59.9133 148.368 59.6327 148.098 59.2856 147.92C58.938 147.733 58.5692 147.646 58.179 147.659C57.7889 147.673 57.4324 147.78 57.1094 147.981C56.7864 148.182 56.5267 148.471 56.3305 148.848C56.1438 149.214 56.0599 149.647 56.0785 150.146C56.0971 150.646 56.2136 151.081 56.4278 151.454C56.6517 151.816 56.9324 152.091 57.2699 152.279C57.6175 152.467 57.9813 152.554 58.3614 152.541C58.7516 152.527 59.1131 152.42 59.4461 152.218C59.7788 152.007 60.0384 151.718 60.225 151.352C60.4113 150.975 60.4949 150.532 60.4759 150.023ZM63.3516 149.893C63.3203 149.055 63.4575 148.305 63.7634 147.645C64.0792 146.984 64.5157 146.469 65.0728 146.1C65.6399 145.73 66.2786 145.533 66.9888 145.508C67.609 145.486 68.1538 145.592 68.6232 145.826C69.1027 146.059 69.4896 146.361 69.7838 146.73L69.7396 145.547L71.8552 145.474L72.1652 153.77L70.0496 153.843L70.0042 152.63C69.7487 153.029 69.3857 153.367 68.9153 153.643C68.4545 153.909 67.914 154.053 67.2938 154.074C66.5936 154.099 65.9467 153.941 65.3531 153.602C64.7695 153.263 64.2956 152.774 63.9312 152.137C63.5765 151.49 63.3833 150.742 63.3516 149.893ZM69.8946 149.695C69.8756 149.186 69.7593 148.755 69.5458 148.403C69.332 148.04 69.0514 147.77 68.7043 147.593C68.3567 147.405 67.9879 147.318 67.5978 147.331C67.2076 147.345 66.8511 147.452 66.5281 147.653C66.2051 147.854 65.9454 148.143 65.7492 148.52C65.5626 148.886 65.4786 149.319 65.4972 149.818C65.5159 150.318 65.6323 150.753 65.8465 151.126C66.0704 151.488 66.3511 151.763 66.6887 151.951C67.0362 152.139 67.4 152.226 67.7802 152.213C68.1703 152.199 68.5318 152.092 68.8648 151.89C69.1975 151.679 69.4571 151.39 69.6437 151.024C69.83 150.647 69.9136 150.204 69.8946 149.695ZM77.7584 145.148C78.7487 145.114 79.5607 145.4 80.1944 146.008C80.8277 146.606 81.1652 147.464 81.207 148.582L81.3888 153.449L79.2882 153.522L79.117 148.939C79.0924 148.28 78.9085 147.782 78.5654 147.444C78.2219 147.096 77.765 146.932 77.1948 146.952C76.6147 146.972 76.1613 147.168 75.8346 147.539C75.5176 147.9 75.3713 148.41 75.396 149.069L75.5672 153.651L73.4666 153.724L73.1566 145.428L75.2572 145.355L75.2958 146.388C75.5625 146.019 75.9071 145.727 76.3298 145.513C76.7621 145.288 77.2383 145.166 77.7584 145.148ZM83.3546 144.083C82.9845 144.096 82.6701 143.992 82.4115 143.771C82.1624 143.54 82.0314 143.25 82.0184 142.9C82.0053 142.551 82.1145 142.257 82.346 142.019C82.5871 141.771 82.8927 141.64 83.2628 141.628C83.633 141.615 83.9425 141.724 84.1915 141.955C84.4502 142.176 84.586 142.461 84.5991 142.811C84.6121 143.16 84.4981 143.459 84.257 143.707C84.0255 143.945 83.7247 144.071 83.3546 144.083ZM84.4268 145.036L84.7368 153.332L82.6362 153.405L82.3262 145.109L84.4268 145.036ZM85.3668 149.157C85.3348 148.298 85.4818 147.543 85.8081 146.892C86.1339 146.231 86.6004 145.715 87.2075 145.344C87.8143 144.963 88.5178 144.758 89.318 144.731C90.3483 144.695 91.2082 144.925 91.8978 145.42C92.597 145.906 93.079 146.609 93.3438 147.529L91.0781 147.608C90.9447 147.253 90.7292 146.981 90.4316 146.791C90.1437 146.591 89.7897 146.498 89.3696 146.513C88.7694 146.534 88.3025 146.77 87.9688 147.222C87.6347 147.663 87.4826 148.283 87.5124 149.082C87.5419 149.871 87.7399 150.478 88.1064 150.906C88.4726 151.323 88.9557 151.521 89.5559 151.5C90.4061 151.47 90.9471 151.072 91.1788 150.304L93.4445 150.225C93.248 151.131 92.8195 151.861 92.1591 152.414C91.4987 152.967 90.6583 153.261 89.638 153.296C88.8378 153.324 88.1211 153.174 87.4878 152.846C86.8542 152.509 86.3504 152.026 85.9765 151.4C85.6021 150.763 85.3989 150.015 85.3668 149.157ZM96.4568 147.676C96.4184 146.648 96.6142 145.721 97.0441 144.896C97.4836 144.061 98.0951 143.405 98.8786 142.928C99.6716 142.441 100.568 142.18 101.569 142.145C102.739 142.104 103.775 142.368 104.678 142.936C105.581 143.504 106.227 144.312 106.616 145.358L104.201 145.442C103.942 144.951 103.588 144.589 103.139 144.354C102.699 144.12 102.194 144.012 101.624 144.032C101.014 144.053 100.474 144.217 100.005 144.523C99.5452 144.819 99.19 145.231 98.9393 145.76C98.6986 146.288 98.5913 146.902 98.6174 147.601C98.6432 148.289 98.796 148.894 99.0758 149.414C99.3653 149.924 99.7505 150.315 100.231 150.588C100.722 150.851 101.272 150.972 101.883 150.951C102.453 150.931 102.948 150.789 103.369 150.524C103.799 150.249 104.125 149.858 104.347 149.35L106.762 149.266C106.452 150.347 105.868 151.202 105.01 151.831C104.162 152.451 103.148 152.781 101.968 152.822C100.967 152.857 100.054 152.664 99.2266 152.243C98.4092 151.811 97.7503 151.2 97.25 150.407C96.7596 149.615 96.4952 148.704 96.4568 147.676ZM112.296 143.945C112.927 143.923 113.492 144.044 113.993 144.306C114.493 144.559 114.888 144.95 115.178 145.48C115.478 145.999 115.642 146.633 115.67 147.382L115.852 152.249L113.751 152.322L113.58 147.739C113.555 147.08 113.372 146.582 113.028 146.244C112.685 145.896 112.228 145.732 111.658 145.752C111.078 145.772 110.624 145.968 110.298 146.339C109.981 146.7 109.834 147.21 109.859 147.869L110.03 152.451L107.93 152.525L107.516 141.443L109.616 141.37L109.759 145.188C110.015 144.82 110.365 144.527 110.808 144.312C111.25 144.087 111.746 143.965 112.296 143.945ZM124.665 147.608C124.676 147.908 124.666 148.178 124.635 148.419L118.558 148.631C118.631 149.228 118.858 149.69 119.241 150.016C119.624 150.343 120.085 150.497 120.625 150.478C121.406 150.451 121.948 150.097 122.253 149.417L124.519 149.338C124.309 150.145 123.873 150.82 123.212 151.363C122.551 151.895 121.726 152.179 120.735 152.214C119.935 152.241 119.208 152.092 118.555 151.765C117.911 151.427 117.397 150.94 117.013 150.304C116.639 149.667 116.436 148.924 116.404 148.076C116.372 147.217 116.519 146.457 116.845 145.796C117.171 145.135 117.642 144.619 118.259 144.248C118.876 143.876 119.595 143.676 120.415 143.648C121.205 143.62 121.917 143.765 122.55 144.083C123.193 144.401 123.696 144.868 124.06 145.485C124.433 146.092 124.634 146.8 124.665 147.608ZM122.467 147.085C122.437 146.546 122.225 146.124 121.833 145.818C121.441 145.501 120.97 145.353 120.42 145.372C119.899 145.39 119.465 145.565 119.117 145.897C118.779 146.219 118.58 146.661 118.521 147.222L122.467 147.085ZM135.618 143.133C136.638 143.098 137.47 143.384 138.114 143.991C138.767 144.588 139.115 145.446 139.157 146.564L139.338 151.431L137.238 151.504L137.067 146.922C137.042 146.273 136.859 145.784 136.516 145.456C136.173 145.118 135.716 144.959 135.146 144.979C134.576 144.999 134.127 145.19 133.8 145.551C133.483 145.902 133.336 146.402 133.36 147.051L133.532 151.633L131.431 151.706L131.26 147.124C131.236 146.475 131.052 145.986 130.709 145.658C130.366 145.321 129.91 145.162 129.339 145.181C128.759 145.202 128.306 145.392 127.979 145.754C127.661 146.104 127.515 146.604 127.539 147.253L127.71 151.836L125.609 151.909L125.299 143.613L127.4 143.539L127.438 144.543C127.695 144.184 128.029 143.897 128.442 143.683C128.865 143.468 129.331 143.352 129.841 143.335C130.491 143.312 131.077 143.431 131.597 143.693C132.118 143.945 132.527 144.321 132.826 144.82C133.079 144.331 133.454 143.933 133.954 143.626C134.463 143.319 135.018 143.154 135.618 143.133ZM141.3 142.066C140.93 142.079 140.615 141.975 140.357 141.754C140.108 141.523 139.977 141.232 139.964 140.883C139.951 140.533 140.06 140.24 140.291 140.002C140.532 139.753 140.838 139.623 141.208 139.61C141.578 139.597 141.888 139.706 142.137 139.937C142.395 140.158 142.531 140.444 142.544 140.793C142.557 141.142 142.443 141.441 142.202 141.69C141.971 141.928 141.67 142.053 141.3 142.066ZM142.372 143.018L142.682 151.314L140.581 151.388L140.272 143.091L142.372 143.018ZM147.193 151.292C146.513 151.316 145.898 151.217 145.349 150.997C144.8 150.766 144.357 150.446 144.021 150.038C143.696 149.63 143.508 149.171 143.459 148.663L145.575 148.59C145.627 148.908 145.792 149.167 146.07 149.367C146.358 149.567 146.707 149.66 147.117 149.646C147.517 149.632 147.824 149.541 148.038 149.374C148.262 149.206 148.369 148.997 148.36 148.748C148.35 148.478 148.203 148.283 147.918 148.163C147.642 148.033 147.202 147.898 146.595 147.759C145.97 147.631 145.454 147.494 145.048 147.348C144.652 147.202 144.302 146.97 144 146.65C143.708 146.33 143.551 145.891 143.53 145.332C143.513 144.873 143.627 144.449 143.873 144.061C144.129 143.672 144.498 143.359 144.98 143.122C145.472 142.885 146.053 142.755 146.723 142.732C147.713 142.697 148.513 142.919 149.122 143.398C149.73 143.867 150.08 144.519 150.171 145.356L148.161 145.426C148.119 145.097 147.969 144.843 147.712 144.662C147.464 144.47 147.135 144.382 146.725 144.396C146.345 144.409 146.053 144.489 145.848 144.637C145.653 144.783 145.56 144.981 145.57 145.231C145.58 145.511 145.728 145.72 146.014 145.86C146.299 145.99 146.74 146.12 147.335 146.249C147.941 146.378 148.442 146.516 148.838 146.662C149.234 146.808 149.579 147.046 149.871 147.375C150.174 147.695 150.34 148.129 150.371 148.678C150.389 149.157 150.27 149.591 150.014 149.98C149.768 150.368 149.399 150.681 148.907 150.918C148.425 151.144 147.853 151.269 147.193 151.292ZM153.633 144.35L153.783 148.364C153.794 148.643 153.866 148.846 154.001 148.971C154.146 149.086 154.378 149.138 154.698 149.127L155.673 149.093L155.739 150.86L154.419 150.906C152.649 150.967 151.731 150.14 151.667 148.423L151.518 144.424L150.527 144.459L150.463 142.736L151.453 142.702L151.377 140.65L153.492 140.577L153.569 142.628L155.429 142.564L155.494 144.286L153.633 144.35ZM158.339 143.752C158.593 143.303 158.93 142.946 159.351 142.682C159.781 142.417 160.277 142.275 160.837 142.255L160.919 144.457L160.364 144.476C159.704 144.499 159.21 144.671 158.881 144.992C158.562 145.313 158.418 145.858 158.446 146.627L158.601 150.76L156.5 150.833L156.19 142.537L158.291 142.464L158.339 143.752ZM169.458 142.075L164.768 154.474L162.533 154.552L164.179 150.356L160.546 142.385L162.902 142.303L165.264 148.024L167.223 142.153L169.458 142.075ZM42.8818 180.735C41.8765 179.831 41.0765 178.659 40.4819 177.22C39.8973 175.781 39.5738 174.228 39.5115 172.561C39.4477 170.853 39.668 169.241 40.1722 167.724C40.676 166.197 41.4452 164.936 42.4797 163.94L44.5953 163.867L44.6026 164.061C43.5414 165.148 42.7482 166.435 42.2228 167.923C41.7075 169.41 41.4789 170.933 41.5371 172.49C41.5938 174.007 41.9187 175.466 42.5118 176.865C43.1146 178.253 43.9405 179.449 44.9896 180.452L44.9974 180.662L42.8818 180.735ZM46.0044 175.303C46.9348 174.471 47.6753 173.781 48.2256 173.232C48.7757 172.673 49.2299 172.097 49.5884 171.505C49.9469 170.913 50.1157 170.337 50.0948 169.778C50.0758 169.269 49.9408 168.874 49.6899 168.592C49.439 168.311 49.0635 168.179 48.5634 168.197C48.0632 168.214 47.6845 168.397 47.4271 168.746C47.1693 169.085 47.0462 169.544 47.0579 170.124L45.0173 170.195C45.0125 168.995 45.3337 168.074 45.9807 167.432C46.6378 166.789 47.4865 166.45 48.5268 166.414C49.6671 166.374 50.5538 166.648 51.1867 167.236C51.8192 167.814 52.154 168.597 52.1909 169.585C52.22 170.364 52.0377 171.115 51.6441 171.838C51.2504 172.562 50.7934 173.197 50.273 173.745C49.7523 174.283 49.0706 174.937 48.2279 175.706L52.6542 175.552L52.7191 177.289L45.307 177.547L45.2488 175.989L46.0044 175.303ZM53.0889 171.818C53.0244 170.091 53.2839 168.727 53.8675 167.727C54.4612 166.727 55.4832 166.201 56.9336 166.151C58.384 166.1 59.4376 166.554 60.0943 167.51C60.7611 168.467 61.1267 169.809 61.1912 171.536C61.2561 173.273 60.9919 174.647 60.3987 175.657C59.8154 176.667 58.7986 177.197 57.3482 177.248C55.8978 177.298 54.839 176.84 54.1719 175.874C53.5148 174.907 53.1538 173.555 53.0889 171.818ZM59.1206 171.608C59.093 170.869 59.0199 170.252 58.9012 169.756C58.7922 169.25 58.5866 168.842 58.2846 168.533C57.9926 168.223 57.5665 168.078 57.0063 168.098C56.4462 168.117 56.027 168.292 55.7489 168.621C55.4807 168.951 55.3062 169.372 55.2252 169.884C55.1538 170.386 55.1319 171.007 55.1595 171.746C55.1878 172.505 55.2567 173.142 55.3661 173.658C55.4752 174.164 55.6807 174.572 55.9827 174.881C56.2844 175.18 56.7153 175.32 57.2755 175.301C57.8356 175.281 58.255 175.112 58.5335 174.792C58.8116 174.463 58.9862 174.042 59.0572 173.529C59.1278 173.007 59.149 172.367 59.1206 171.608ZM61.6572 168.131L61.585 166.199L65.2011 166.073L65.6089 176.99L63.4483 177.065L63.1126 168.08L61.6572 168.131ZM69.2499 173.789C69.3463 174.226 69.5391 174.559 69.8281 174.789C70.1267 175.008 70.5161 175.11 70.9963 175.093C71.6165 175.071 72.0571 174.801 72.3181 174.282C72.5788 173.753 72.6864 172.88 72.6409 171.662C72.4228 171.989 72.107 172.25 71.6936 172.445C71.2902 172.639 70.8484 172.744 70.3683 172.761C69.7281 172.783 69.1431 172.673 68.6132 172.432C68.093 172.18 67.6732 171.8 67.3537 171.291C67.0338 170.773 66.8599 170.139 66.832 169.39C66.7906 168.282 67.0878 167.392 67.7238 166.72C68.3593 166.038 69.2473 165.677 70.3876 165.638C71.808 165.588 72.8253 166.007 73.4394 166.896C74.0635 167.784 74.4097 169.141 74.4779 170.968C74.5264 172.266 74.4511 173.333 74.252 174.17C74.0629 175.006 73.7013 175.649 73.1672 176.097C72.6431 176.545 71.9109 176.786 70.9706 176.818C70.2304 176.844 69.595 176.726 69.0644 176.465C68.5334 176.193 68.1193 175.833 67.8221 175.383C67.5345 174.924 67.3602 174.415 67.2993 173.857L69.2499 173.789ZM70.7396 171.038C71.2598 171.02 71.6639 170.846 71.9521 170.516C72.2402 170.186 72.3742 169.752 72.3541 169.213C72.3321 168.624 72.1551 168.175 71.823 167.867C71.5006 167.548 71.0694 167.398 70.5292 167.417C69.9891 167.436 69.5653 167.62 69.2579 167.971C68.9601 168.311 68.8215 168.756 68.842 169.305C68.8617 169.834 69.028 170.263 69.3408 170.592C69.6632 170.911 70.1295 171.06 70.7396 171.038ZM81.9752 170.182L82.0412 171.949L75.6794 172.171L75.6133 170.404L81.9752 170.182ZM84.1452 173.975C85.0756 173.143 85.8161 172.453 86.3664 171.904C86.9165 171.345 87.3707 170.769 87.7292 170.177C88.0877 169.585 88.2565 169.009 88.2356 168.45C88.2166 167.941 88.0816 167.546 87.8307 167.264C87.5798 166.983 87.2043 166.851 86.7042 166.869C86.204 166.886 85.8253 167.069 85.5679 167.418C85.3101 167.757 85.187 168.216 85.1987 168.796L83.1581 168.867C83.1533 167.667 83.4745 166.746 84.1215 166.104C84.7786 165.461 85.6273 165.122 86.6676 165.086C87.8079 165.046 88.6946 165.32 89.3275 165.908C89.96 166.485 90.2948 167.269 90.3317 168.257C90.3608 169.036 90.1785 169.787 89.7849 170.51C89.3912 171.234 88.9342 171.869 88.4138 172.417C87.8931 172.955 87.2114 173.609 86.3687 174.378L90.795 174.224L90.8599 175.961L83.4478 176.219L83.3896 174.661L84.1452 173.975ZM91.2297 170.49C91.1652 168.763 91.4247 167.399 92.0083 166.399C92.602 165.399 93.624 164.873 95.0744 164.823C96.5248 164.772 97.5784 165.226 98.2351 166.182C98.9019 167.139 99.2675 168.481 99.332 170.208C99.3969 171.945 99.1327 173.319 98.5395 174.329C97.9562 175.339 96.9394 175.869 95.489 175.92C94.0386 175.97 92.9798 175.512 92.3127 174.546C91.6556 173.579 91.2946 172.227 91.2297 170.49ZM97.2614 170.28C97.2338 169.541 97.1607 168.924 97.042 168.428C96.933 167.922 96.7274 167.514 96.4254 167.205C96.1334 166.895 95.7073 166.75 95.1471 166.77C94.587 166.789 94.1678 166.964 93.8897 167.293C93.6215 167.623 93.447 168.043 93.366 168.556C93.2946 169.058 93.2727 169.679 93.3003 170.418C93.3286 171.176 93.3975 171.814 93.5069 172.33C93.616 172.836 93.8215 173.244 94.1235 173.553C94.4252 173.852 94.8561 173.992 95.4163 173.973C95.9764 173.953 96.3958 173.784 96.6743 173.464C96.9524 173.135 97.127 172.714 97.198 172.201C97.2686 171.679 97.2898 171.039 97.2614 170.28ZM100.961 173.39C101.891 172.558 102.631 171.867 103.182 171.318C103.732 170.759 104.186 170.184 104.545 169.591C104.903 168.999 105.072 168.423 105.051 167.864C105.032 167.355 104.897 166.96 104.646 166.679C104.395 166.398 104.02 166.266 103.52 166.283C103.019 166.301 102.641 166.484 102.383 166.833C102.125 167.171 102.002 167.631 102.014 168.21L99.9734 168.281C99.9687 167.082 100.29 166.161 100.937 165.518C101.594 164.876 102.443 164.536 103.483 164.5C104.623 164.46 105.51 164.734 106.143 165.322C106.775 165.9 107.11 166.683 107.147 167.671C107.176 168.45 106.994 169.201 106.6 169.925C106.207 170.648 105.75 171.284 105.229 171.832C104.708 172.37 104.027 173.023 103.184 173.792L107.61 173.638L107.675 175.375L100.263 175.633L100.205 174.076L100.961 173.39ZM108.085 173.382L108.023 171.734L112.668 164.555L115.114 164.47L115.369 171.299L116.689 171.253L116.757 173.08L115.437 173.126L115.516 175.252L113.416 175.325L113.336 173.199L108.085 173.382ZM113.232 166.785L110.327 171.474L113.403 171.367L113.232 166.785ZM117.234 178.146L117.226 177.937C118.198 176.863 118.927 175.613 119.415 174.187C119.912 172.75 120.132 171.273 120.076 169.755C120.017 168.198 119.671 166.696 119.036 165.248C118.411 163.8 117.529 162.572 116.389 161.562L116.382 161.367L118.497 161.293C119.604 162.214 120.465 163.419 121.081 164.907C121.697 166.385 122.037 167.978 122.101 169.685C122.163 171.352 121.952 172.924 121.466 174.4C120.99 175.876 120.285 177.1 119.35 178.073L117.234 178.146Z" fill="black"/>
<path d="M36.5478 118.76L36.2242 119.544L36.1549 119.756V119.756C36.1061 119.951 36.0715 120.149 36.0514 120.349L36.0087 120.772L36.0066 121.353L36.0103 121.913L36.0529 122.323L36.2228 123.005L36.2991 123.228C36.3833 123.474 36.5096 123.704 36.6723 123.908L36.6866 123.926C36.763 124.021 36.8481 124.11 36.9406 124.19V124.19C37.1544 124.376 37.405 124.514 37.6758 124.596L38.4345 124.827V124.827C39.4422 125.141 40.5306 125.064 41.4824 124.612L42.2184 124.262L44.4543 123.043L45.8757 122.046L47.0743 120.945L48.1339 119.883L49.0585 118.691L49.715 117.752C49.8672 117.534 50.0033 117.306 50.1223 117.068V117.068L50.301 116.711L50.4275 116.352V116.352C50.5111 116.114 50.5492 115.863 50.5398 115.611L50.5316 115.39C50.5185 115.04 50.4068 114.7 50.2093 114.41L50.1675 114.348C50.0149 114.124 49.8072 113.942 49.5643 113.82V113.82C49.3264 113.701 49.0625 113.644 48.7968 113.653L48.4281 113.666L48.0305 113.699C47.7836 113.719 47.5391 113.762 47.3 113.826V113.826C47.0098 113.904 46.729 114.014 46.463 114.154L45.5453 114.635L44.7818 115.128C44.3536 115.404 43.9521 115.719 43.5827 116.07V116.07L43.0272 116.597L42.0513 117.72L41.0946 119.086L40.4058 120.343L40.1736 120.833C39.9567 121.292 39.7739 121.765 39.6268 122.25L39.605 122.322C39.4083 122.97 39.2807 123.637 39.2245 124.313L39.0982 125.828C39.065 126.227 39.1194 126.628 39.2577 127.004V127.004C39.4422 127.506 39.7691 127.944 40.1984 128.264L40.3485 128.376C40.642 128.594 40.9738 128.757 41.3267 128.854V128.854C41.5925 128.928 41.8671 128.963 42.1427 128.961L42.3633 128.958C42.5994 128.956 42.835 128.935 43.0679 128.896L43.6628 128.795C44.361 128.677 45.0458 128.491 45.7072 128.24V128.24C46.5877 127.905 47.4204 127.456 48.1838 126.905L49.3344 126.075L50.8536 124.781L52.4648 123.036" stroke="#2D74F8" stroke-width="4" stroke-linecap="round"/>
<path d="M50.3163 121.062L54.418 124.805C54.4185 124.806 54.4195 124.805 54.4196 124.805L55.6024 119.582C55.6025 119.582 55.6019 119.581 55.6011 119.581L50.3167 121.061C50.316 121.061 50.3157 121.062 50.3163 121.062Z" fill="#2D74F8" stroke="#2D74F8" stroke-width="2" stroke-linecap="round"/>
<rect width="116.778" height="14.5748" transform="matrix(1.00029 -0.0348292 0.0372989 0.998349 63.1738 113.153)" fill="#F5F5F5"/>
<rect width="78.0311" height="14.5748" transform="matrix(1.00029 -0.0348292 0.0372989 0.998349 185.367 108.898)" fill="#F5F5F5"/>
<g filter="url(#filter1_d_3036_94)">
<path d="M160.866 166.277C161.583 163.49 164.505 161.792 167.392 162.484L392.705 216.504C395.592 217.196 397.352 220.017 396.635 222.804L322.372 511.478C321.655 514.265 318.733 515.964 315.846 515.272L90.5324 461.252C87.6453 460.559 85.886 457.739 86.603 454.951L160.866 166.277Z" fill="white"/>
<path d="M160.866 166.277C161.583 163.49 164.505 161.792 167.392 162.484L392.705 216.504C395.592 217.196 397.352 220.017 396.635 222.804L391.441 242.991L155.673 186.464L160.866 166.277Z" fill="white"/>
<path fill-rule="evenodd" clip-rule="evenodd" d="M391.506 242.739L155.737 186.212L155.673 186.464L391.441 242.991L391.506 242.739Z" fill="white"/>
</g>
<path d="M170.322 201.294L167.537 212.121L165.36 211.599L166.546 206.992L161.898 205.878L160.713 210.485L158.537 209.963L161.322 199.136L163.498 199.658L162.353 204.11L167 205.224L168.146 200.772L170.322 201.294ZM169.533 208.005C169.756 207.136 170.125 206.407 170.64 205.817C171.166 205.229 171.77 204.825 172.454 204.605C173.148 204.387 173.863 204.366 174.599 204.543C175.241 204.697 175.768 204.96 176.178 205.333C176.598 205.708 176.903 206.127 177.092 206.59L177.407 205.364L179.599 205.89L177.389 214.483L175.197 213.958L175.52 212.701C175.136 213.037 174.661 213.28 174.095 213.43C173.541 213.572 172.943 213.565 172.301 213.411C171.575 213.238 170.96 212.892 170.455 212.376C169.96 211.862 169.623 211.227 169.443 210.47C169.277 209.706 169.307 208.884 169.533 208.005ZM176.302 209.661C176.438 209.134 176.45 208.659 176.338 208.237C176.23 207.805 176.024 207.448 175.722 207.167C175.423 206.876 175.072 206.682 174.668 206.585C174.263 206.488 173.865 206.497 173.473 206.611C173.08 206.726 172.726 206.948 172.41 207.279C172.107 207.601 171.889 208.021 171.756 208.538C171.623 209.055 171.609 209.535 171.715 209.977C171.835 210.412 172.039 210.774 172.327 211.063C172.626 211.354 172.973 211.547 173.367 211.641C173.771 211.738 174.174 211.731 174.577 211.619C174.983 211.496 175.337 211.274 175.64 210.951C175.946 210.618 176.166 210.188 176.302 209.661ZM183.943 203.868L180.991 215.347L178.814 214.825L181.767 203.347L183.943 203.868ZM186.229 216.751C185.4 216.552 184.701 216.192 184.13 215.671C183.563 215.14 183.174 214.492 182.964 213.728C182.763 212.967 182.776 212.146 183.002 211.267C183.229 210.388 183.62 209.659 184.176 209.079C184.743 208.501 185.41 208.112 186.176 207.911C186.946 207.701 187.745 207.695 188.574 207.893C189.403 208.092 190.106 208.458 190.684 208.992C191.265 209.516 191.66 210.159 191.871 210.923C192.091 211.69 192.089 212.513 191.863 213.392C191.637 214.271 191.235 214.998 190.658 215.573C190.091 216.151 189.418 216.544 188.638 216.752C187.872 216.952 187.069 216.952 186.229 216.751ZM186.716 214.858C187.11 214.953 187.502 214.948 187.891 214.844C188.294 214.732 188.649 214.509 188.954 214.176C189.26 213.844 189.483 213.403 189.624 212.855C189.834 212.038 189.778 211.36 189.454 210.822C189.144 210.275 188.678 209.927 188.056 209.778C187.434 209.629 186.854 209.726 186.314 210.069C185.788 210.404 185.42 210.98 185.21 211.797C185 212.614 185.039 213.293 185.329 213.834C185.632 214.368 186.094 214.709 186.716 214.858ZM197.274 209.979C197.916 210.133 198.448 210.398 198.868 210.773C199.292 211.138 199.591 211.556 199.767 212.026L200.083 210.801L202.274 211.326L200.048 219.982C199.843 220.778 199.5 221.448 199.019 221.991C198.536 222.545 197.926 222.926 197.19 223.134C196.452 223.352 195.627 223.352 194.715 223.133C193.492 222.84 192.56 222.314 191.919 221.557C191.288 220.802 191.047 219.921 191.196 218.913L193.357 219.431C193.37 219.852 193.534 220.22 193.848 220.537C194.17 220.867 194.601 221.096 195.14 221.226C195.772 221.377 196.334 221.309 196.826 221.021C197.316 220.743 197.659 220.221 197.856 219.456L198.199 218.122C197.816 218.458 197.34 218.701 196.774 218.851C196.218 219.003 195.624 219.003 194.991 218.852C194.266 218.678 193.651 218.333 193.145 217.816C192.64 217.3 192.298 216.663 192.118 215.907C191.952 215.142 191.982 214.32 192.208 213.441C192.431 212.573 192.801 211.843 193.315 211.253C193.841 210.666 194.445 210.262 195.129 210.041C195.823 209.823 196.538 209.803 197.274 209.979ZM198.977 215.097C199.113 214.57 199.125 214.095 199.013 213.673C198.905 213.241 198.699 212.884 198.398 212.604C198.098 212.312 197.747 212.118 197.343 212.021C196.938 211.924 196.54 211.933 196.148 212.048C195.755 212.162 195.401 212.385 195.085 212.715C194.782 213.038 194.564 213.457 194.431 213.974C194.298 214.491 194.284 214.971 194.39 215.414C194.51 215.849 194.714 216.211 195.002 216.499C195.302 216.791 195.648 216.983 196.042 217.078C196.446 217.175 196.849 217.167 197.252 217.055C197.658 216.933 198.012 216.71 198.315 216.388C198.621 216.055 198.842 215.625 198.977 215.097ZM210.648 217.698C210.568 218.008 210.476 218.282 210.37 218.521L204.075 217.011C203.967 217.644 204.06 218.182 204.353 218.626C204.646 219.069 205.072 219.358 205.632 219.492C206.44 219.686 207.104 219.478 207.624 218.867L209.972 219.43C209.51 220.197 208.858 220.765 208.015 221.134C207.174 221.493 206.241 221.549 205.215 221.303C204.386 221.104 203.687 220.744 203.117 220.223C202.56 219.695 202.181 219.049 201.981 218.288C201.791 217.529 201.809 216.71 202.035 215.831C202.264 214.941 202.646 214.204 203.182 213.619C203.717 213.034 204.358 212.638 205.104 212.433C205.85 212.228 206.648 212.227 207.498 212.43C208.316 212.627 209.002 212.978 209.554 213.483C210.116 213.991 210.49 214.613 210.675 215.349C210.872 216.077 210.863 216.86 210.648 217.698ZM208.554 216.537C208.687 215.976 208.599 215.483 208.291 215.058C207.985 214.622 207.547 214.336 206.977 214.199C206.438 214.07 205.939 214.126 205.481 214.368C205.036 214.601 204.697 214.998 204.466 215.557L208.554 216.537ZM217.398 214.821C218.424 215.067 219.17 215.591 219.634 216.394C220.101 217.187 220.186 218.162 219.888 219.32L218.591 224.362L216.415 223.84L217.636 219.093C217.812 218.411 217.775 217.848 217.526 217.404C217.28 216.949 216.861 216.652 216.271 216.51C215.67 216.366 215.145 216.438 214.697 216.725C214.262 217.005 213.957 217.487 213.781 218.169L212.56 222.916L210.384 222.394L212.594 213.801L214.771 214.322L214.495 215.393C214.881 215.09 215.324 214.889 215.822 214.789C216.334 214.681 216.86 214.691 217.398 214.821ZM223.22 225.62C222.516 225.451 221.916 225.175 221.42 224.793C220.927 224.4 220.57 223.947 220.35 223.433C220.141 222.922 220.088 222.399 220.193 221.864L222.385 222.389C222.341 222.73 222.431 223.043 222.655 223.327C222.889 223.614 223.219 223.808 223.644 223.91C224.058 224.009 224.401 224.003 224.671 223.893C224.952 223.784 225.126 223.601 225.193 223.342C225.264 223.063 225.173 222.822 224.917 222.618C224.674 222.406 224.264 222.143 223.684 221.828C223.082 221.519 222.594 221.232 222.223 220.967C221.861 220.705 221.574 220.367 221.361 219.954C221.159 219.543 221.132 219.048 221.281 218.469C221.403 217.993 221.65 217.591 222.02 217.263C222.401 216.937 222.875 216.721 223.441 216.615C224.018 216.512 224.653 216.544 225.348 216.71C226.373 216.956 227.126 217.411 227.604 218.074C228.085 218.728 228.245 219.496 228.084 220.38L226.001 219.88C226.057 219.532 225.982 219.228 225.773 218.969C225.577 218.703 225.267 218.519 224.842 218.417C224.449 218.322 224.124 218.322 223.869 218.414C223.625 218.509 223.469 218.686 223.403 218.945C223.328 219.234 223.416 219.491 223.667 219.716C223.92 219.93 224.332 220.188 224.903 220.49C225.485 220.794 225.957 221.077 226.318 221.34C226.68 221.602 226.961 221.944 227.16 222.365C227.373 222.778 227.411 223.271 227.276 223.842C227.148 224.338 226.894 224.749 226.513 225.075C226.142 225.403 225.669 225.619 225.092 225.723C224.528 225.818 223.904 225.784 223.22 225.62ZM233.712 231.231C232.957 230.018 232.494 228.59 232.322 226.946C232.162 225.304 232.303 223.62 232.748 221.893C233.202 220.125 233.92 218.535 234.899 217.123C235.881 215.7 237.054 214.626 238.418 213.899L240.61 214.424L240.558 214.626C239.139 215.438 237.933 216.533 236.941 217.909C235.959 219.287 235.261 220.783 234.846 222.396C234.442 223.968 234.33 225.555 234.512 227.158C234.707 228.752 235.19 230.213 235.96 231.539L235.904 231.757L233.712 231.231ZM238.647 226.568C239.855 225.979 240.824 225.482 241.556 225.075C242.29 224.659 242.931 224.197 243.48 223.692C244.028 223.187 244.376 222.645 244.525 222.065C244.661 221.538 244.643 221.095 244.471 220.735C244.3 220.376 243.955 220.134 243.437 220.009C242.919 219.885 242.474 219.965 242.104 220.25C241.737 220.524 241.47 220.96 241.306 221.557L239.192 221.05C239.552 219.819 240.162 218.966 241.022 218.492C241.891 218.02 242.865 217.913 243.943 218.171C245.124 218.454 245.95 218.987 246.42 219.769C246.892 220.541 246.997 221.439 246.733 222.463C246.526 223.27 246.11 223.988 245.486 224.618C244.862 225.248 244.199 225.769 243.499 226.183C242.801 226.587 241.903 227.063 240.804 227.612L245.39 228.712L244.927 230.511L237.248 228.67L237.663 227.057L238.647 226.568ZM247.051 225.026C247.511 223.237 248.193 221.913 249.096 221.053C250.01 220.197 251.218 219.948 252.721 220.309C254.223 220.669 255.165 221.433 255.547 222.6C255.939 223.77 255.905 225.249 255.445 227.038C254.982 228.838 254.293 230.171 253.376 231.038C252.471 231.908 251.266 232.163 249.764 231.802C248.261 231.442 247.315 230.672 246.926 229.492C246.546 228.314 246.588 226.825 247.051 225.026ZM253.3 226.524C253.497 225.759 253.61 225.105 253.639 224.563C253.682 224.014 253.595 223.537 253.38 223.134C253.175 222.734 252.782 222.464 252.202 222.325C251.622 222.186 251.139 222.246 250.753 222.505C250.378 222.766 250.07 223.148 249.831 223.65C249.605 224.145 249.393 224.775 249.196 225.54C248.994 226.326 248.871 226.999 248.825 227.559C248.783 228.109 248.87 228.585 249.085 228.988C249.303 229.381 249.702 229.647 250.282 229.786C250.863 229.925 251.344 229.87 251.727 229.622C252.113 229.363 252.42 228.981 252.649 228.476C252.881 227.961 253.098 227.31 253.3 226.524ZM257.038 223.699L257.553 221.698L261.299 222.596L258.39 233.904L256.152 233.367L258.546 224.06L257.038 223.699ZM263.177 231.675C263.143 232.15 263.239 232.546 263.465 232.864C263.704 233.174 264.073 233.389 264.57 233.508C265.213 233.662 265.747 233.51 266.173 233.052C266.601 232.584 266.978 231.719 267.302 230.458C266.979 230.731 266.575 230.909 266.092 230.991C265.62 231.075 265.135 231.058 264.637 230.938C263.974 230.779 263.407 230.501 262.938 230.103C262.481 229.697 262.166 229.188 261.994 228.576C261.824 227.953 261.839 227.254 262.038 226.478C262.334 225.331 262.91 224.503 263.767 223.994C264.626 223.476 265.647 223.358 266.828 223.641C268.299 223.994 269.215 224.713 269.574 225.798C269.943 226.886 269.884 228.376 269.397 230.268C269.052 231.613 268.649 232.685 268.19 233.486C267.741 234.29 267.175 234.846 266.49 235.154C265.816 235.464 264.992 235.503 264.018 235.269C263.251 235.086 262.636 234.784 262.171 234.365C261.71 233.936 261.395 233.449 261.227 232.904C261.072 232.351 261.049 231.78 261.156 231.191L263.177 231.675ZM265.543 229.278C266.082 229.407 266.549 229.344 266.945 229.088C267.341 228.831 267.611 228.424 267.755 227.865C267.912 227.255 267.867 226.745 267.62 226.335C267.387 225.916 266.99 225.64 266.431 225.506C265.871 225.372 265.38 225.441 264.958 225.713C264.549 225.977 264.272 226.394 264.125 226.962C263.984 227.51 264.024 227.997 264.244 228.424C264.478 228.842 264.911 229.127 265.543 229.278ZM277.402 231.611L276.931 233.441L270.34 231.861L270.811 230.031L277.402 231.611ZM278.549 236.135C279.756 235.546 280.726 235.048 281.458 234.642C282.192 234.225 282.833 233.764 283.381 233.259C283.929 232.753 284.278 232.211 284.427 231.632C284.563 231.105 284.545 230.661 284.373 230.302C284.202 229.942 283.857 229.7 283.339 229.576C282.82 229.452 282.376 229.532 282.006 229.817C281.638 230.091 281.372 230.526 281.208 231.124L279.094 230.617C279.454 229.386 280.064 228.533 280.924 228.058C281.793 227.586 282.767 227.479 283.845 227.738C285.026 228.021 285.851 228.554 286.321 229.336C286.794 230.108 286.898 231.006 286.635 232.03C286.428 232.836 286.012 233.555 285.388 234.184C284.764 234.814 284.101 235.336 283.401 235.75C282.703 236.154 281.805 236.63 280.706 237.179L285.292 238.278L284.829 240.078L277.15 238.237L277.565 236.623L278.549 236.135ZM286.953 234.593C287.413 232.804 288.095 231.48 288.998 230.62C289.912 229.763 291.12 229.515 292.622 229.875C294.125 230.235 295.067 230.999 295.449 232.167C295.841 233.337 295.807 234.816 295.347 236.605C294.884 238.404 294.194 239.738 293.278 240.605C292.372 241.475 291.168 241.729 289.666 241.369C288.163 241.009 287.217 240.239 286.827 239.058C286.448 237.881 286.49 236.392 286.953 234.593ZM293.202 236.091C293.399 235.326 293.512 234.672 293.541 234.13C293.584 233.58 293.497 233.104 293.282 232.701C293.077 232.301 292.684 232.031 292.104 231.892C291.523 231.753 291.04 231.812 290.655 232.071C290.279 232.333 289.972 232.715 289.733 233.217C289.507 233.712 289.295 234.342 289.098 235.107C288.896 235.893 288.772 236.566 288.727 237.126C288.685 237.676 288.771 238.152 288.987 238.555C289.205 238.948 289.604 239.213 290.184 239.353C290.765 239.492 291.246 239.437 291.629 239.189C292.015 238.93 292.322 238.548 292.551 238.043C292.783 237.527 293 236.877 293.202 236.091ZM296.125 240.349C297.332 239.76 298.302 239.262 299.034 238.856C299.768 238.439 300.409 237.978 300.957 237.473C301.505 236.967 301.854 236.425 302.003 235.846C302.139 235.319 302.121 234.875 301.949 234.516C301.777 234.156 301.433 233.914 300.914 233.79C300.396 233.666 299.952 233.746 299.582 234.03C299.214 234.305 298.948 234.74 298.784 235.338L296.67 234.831C297.03 233.6 297.64 232.747 298.499 232.272C299.369 231.8 300.343 231.693 301.42 231.952C302.602 232.235 303.427 232.768 303.897 233.55C304.37 234.322 304.474 235.22 304.211 236.244C304.003 237.05 303.588 237.768 302.964 238.398C302.339 239.028 301.677 239.55 300.976 239.964C300.279 240.367 299.38 240.844 298.282 241.393L302.868 242.492L302.405 244.292L294.726 242.451L295.141 240.837L296.125 240.349ZM303.51 242.383L303.949 240.677L310.899 234.636L313.433 235.243L311.613 242.317L312.981 242.645L312.494 244.537L311.127 244.209L310.56 246.412L308.384 245.89L308.95 243.687L303.51 242.383ZM310.798 237.082L306.391 241.064L309.577 241.828L310.798 237.082ZM311.517 249.885L311.573 249.668C312.896 248.843 314.025 247.769 314.96 246.445C315.907 245.114 316.583 243.662 316.988 242.09C317.403 240.477 317.505 238.838 317.295 237.174C317.096 235.512 316.566 234.002 315.705 232.643L315.757 232.441L317.949 232.967C318.802 234.225 319.318 235.705 319.497 237.405C319.678 239.096 319.541 240.825 319.086 242.593C318.642 244.32 317.946 245.871 316.998 247.247C316.06 248.625 314.964 249.68 313.709 250.411L311.517 249.885Z" fill="black"/>
<path d="M167.392 173.733L166.857 174.4L166.729 174.586V174.586C166.627 174.76 166.537 174.941 166.46 175.128L166.298 175.524L166.13 176.081L165.974 176.62L165.898 177.026L165.866 177.727L165.876 177.961C165.886 178.22 165.942 178.475 166.04 178.714L166.049 178.735C166.095 178.848 166.151 178.955 166.217 179.057V179.057C166.37 179.292 166.571 179.492 166.808 179.643L167.471 180.067V180.067C168.35 180.637 169.419 180.853 170.462 180.672L171.27 180.532L173.767 179.956L175.418 179.376L176.885 178.637L178.207 177.898L179.436 176.999L180.336 176.27C180.544 176.102 180.741 175.918 180.923 175.722V175.722L181.197 175.426L181.421 175.115V175.115C181.569 174.908 181.677 174.677 181.74 174.433L181.796 174.218C181.883 173.878 181.873 173.521 181.766 173.19L181.743 173.119C181.661 172.863 181.513 172.633 181.314 172.451V172.451C181.12 172.274 180.883 172.148 180.624 172.086L180.266 172L179.875 171.926C179.632 171.88 179.385 171.856 179.136 171.854V171.854C178.835 171.852 178.534 171.883 178.238 171.946L177.219 172.164L176.344 172.434C175.853 172.586 175.377 172.782 174.922 173.021V173.021L174.238 173.38L172.979 174.199L171.669 175.257L170.648 176.282L170.284 176.691C169.945 177.074 169.634 177.481 169.354 177.908L169.312 177.971C168.938 178.541 168.625 179.149 168.378 179.783L167.823 181.206C167.677 181.581 167.615 181.981 167.641 182.379V182.379C167.675 182.91 167.864 183.418 168.185 183.84L168.297 183.988C168.517 184.276 168.789 184.52 169.101 184.708V184.708C169.335 184.849 169.589 184.957 169.855 185.028L170.067 185.084C170.295 185.145 170.527 185.187 170.762 185.212L171.363 185.273C172.068 185.346 172.779 185.35 173.487 185.284V185.284C174.429 185.196 175.357 184.987 176.249 184.661L177.592 184.17L179.422 183.33L181.469 182.082" stroke="#2D74F8" stroke-width="4" stroke-linecap="round"/>
<path d="M179.967 179.611L182.84 184.301C182.84 184.301 182.841 184.301 182.842 184.301L185.471 179.596C185.471 179.595 185.471 179.595 185.47 179.595L179.968 179.609C179.967 179.609 179.967 179.61 179.967 179.611Z" fill="#2D74F8" stroke="#2D74F8" stroke-width="2" stroke-linecap="round"/>
<rect width="116.767" height="14.5761" transform="matrix(0.971513 0.232925 -0.249396 0.969454 194.586 175.432)" fill="#F5F5F5"/>
<rect width="78.0242" height="14.5761" transform="matrix(0.971513 0.232925 -0.249396 0.969454 313.254 203.883)" fill="#F5F5F5"/>
</g>
</g>
<defs>
<filter id="filter0_d_3036_94" x="7.94258" y="80.6662" width="294.285" height="356.129" filterUnits="userSpaceOnUse" color-interpolation-filters="sRGB">
<feFlood flood-opacity="0" result="BackgroundImageFix"/>
<feColorMatrix in="SourceAlpha" type="matrix" values="0 0 0 0 0 0 0 0 0 0 0 0 0 0 0 0 0 0 127 0" result="hardAlpha"/>
<feOffset dy="1"/>
<feGaussianBlur stdDeviation="10.1"/>
<feComposite in2="hardAlpha" operator="out"/>
<feColorMatrix type="matrix" values="0 0 0 0 0 0 0 0 0 0 0 0 0 0 0 0 0 0 0.15 0"/>
<feBlend mode="normal" in2="BackgroundImageFix" result="effect1_dropShadow_3036_94"/>
<feBlend mode="normal" in="SourceGraphic" in2="effect1_dropShadow_3036_94" result="shape"/>
</filter>
<filter id="filter1_d_3036_94" x="66.2434" y="143.129" width="350.752" height="393.497" filterUnits="userSpaceOnUse" color-interpolation-filters="sRGB">
<feFlood flood-opacity="0" result="BackgroundImageFix"/>
<feColorMatrix in="SourceAlpha" type="matrix" values="0 0 0 0 0 0 0 0 0 0 0 0 0 0 0 0 0 0 127 0" result="hardAlpha"/>
<feOffset dy="1"/>
<feGaussianBlur stdDeviation="10.1"/>
<feComposite in2="hardAlpha" operator="out"/>
<feColorMatrix type="matrix" values="0 0 0 0 0 0 0 0 0 0 0 0 0 0 0 0 0 0 0.15 0"/>
<feBlend mode="normal" in2="BackgroundImageFix" result="effect1_dropShadow_3036_94"/>
<feBlend mode="normal" in="SourceGraphic" in2="effect1_dropShadow_3036_94" result="shape"/>
</filter>
</defs>
</svg>
