<svg width="3012" height="574" viewBox="0 0 3012 574" fill="none" xmlns="http://www.w3.org/2000/svg">
<path d="M238.654 0.00390625V113.341C238.654 113.341 214.88 114.195 193.849 127.966C172.26 142.103 166.189 153.127 153.616 180.978C145.375 199.235 143.349 211.927 138.072 231.249C132.529 251.545 128.014 283.348 128.014 283.348H267V574.004H0V283.348C0 283.348 9.22157 224.064 21.0308 188.291L21.3351 187.369C34.9534 146.113 42.1126 124.424 68.5788 89.5772C91.3531 59.5909 106.579 43.1454 139.901 25.5963C174.853 7.18871 238.654 0.00390625 238.654 0.00390625Z" fill="url(#paint0_linear_2424_567)"/>
<path d="M2773.35 574.004V460.666C2773.35 460.666 2797.12 459.813 2818.15 446.042C2839.74 431.905 2845.81 420.881 2858.38 393.029C2866.62 374.773 2868.65 362.08 2873.93 342.759C2879.47 322.463 2883.99 290.66 2883.99 290.66H2745V0.00390625H3012V290.66C3012 290.66 3002.78 349.944 2990.97 385.717L2990.66 386.639C2977.05 427.895 2969.89 449.584 2943.42 484.431C2920.65 514.417 2905.42 530.862 2872.1 548.412C2837.15 566.819 2773.35 574.004 2773.35 574.004Z" fill="url(#paint1_linear_2424_567)"/>
<path d="M540.654 0.00390625V113.341C540.654 113.341 516.88 114.195 495.849 127.966C474.26 142.103 468.189 153.127 455.616 180.978C447.375 199.235 445.349 211.927 440.072 231.249C434.529 251.545 430.014 283.348 430.014 283.348H569V574.004H302V283.348C302 283.348 311.222 224.064 323.031 188.291L323.335 187.369C336.953 146.113 344.113 124.424 370.579 89.5772C393.353 59.5909 408.579 43.1454 441.901 25.5963C476.853 7.18871 540.654 0.00390625 540.654 0.00390625Z" fill="url(#paint2_linear_2424_567)"/>
<path d="M2471.35 574.004V460.666C2471.35 460.666 2495.12 459.813 2516.15 446.042C2537.74 431.905 2543.81 420.881 2556.38 393.029C2564.62 374.773 2566.65 362.08 2571.93 342.759C2577.47 322.463 2581.99 290.66 2581.99 290.66H2443V0.00390625H2710V290.66C2710 290.66 2700.78 349.944 2688.97 385.717L2688.66 386.639C2675.05 427.895 2667.89 449.584 2641.42 484.431C2618.65 514.417 2603.42 530.862 2570.1 548.412C2535.15 566.819 2471.35 574.004 2471.35 574.004Z" fill="url(#paint3_linear_2424_567)"/>
<defs>
<linearGradient id="paint0_linear_2424_567" x1="133.5" y1="0.00390625" x2="133.5" y2="574.004" gradientUnits="userSpaceOnUse">
<stop stop-color="#357BFD"/>
<stop offset="1" stop-color="#2772FF"/>
</linearGradient>
<linearGradient id="paint1_linear_2424_567" x1="2878.5" y1="574.004" x2="2878.5" y2="0.00390625" gradientUnits="userSpaceOnUse">
<stop stop-color="#357BFD"/>
<stop offset="1" stop-color="#2772FF"/>
</linearGradient>
<linearGradient id="paint2_linear_2424_567" x1="435.5" y1="0.00390625" x2="435.5" y2="574.004" gradientUnits="userSpaceOnUse">
<stop stop-color="#357BFD"/>
<stop offset="1" stop-color="#2772FF"/>
</linearGradient>
<linearGradient id="paint3_linear_2424_567" x1="2576.5" y1="574.004" x2="2576.5" y2="0.00390625" gradientUnits="userSpaceOnUse">
<stop stop-color="#357BFD"/>
<stop offset="1" stop-color="#2772FF"/>
</linearGradient>
</defs>
</svg>
