<svg width="71" height="57" viewBox="0 0 71 57" fill="none" xmlns="http://www.w3.org/2000/svg">
<path d="M48.989 16.21C48.989 23.9674 42.7378 30.256 35.0266 30.256C27.3154 30.256 21.0643 23.9674 21.0643 16.21C21.0643 8.45265 27.3154 2.16406 35.0266 2.16406C42.7378 2.16406 48.989 8.45265 48.989 16.21Z" stroke="#0C58E4" stroke-width="3" stroke-linecap="round"/>
<path d="M56.0816 37.279C64.0927 37.279 67.6028 43.3189 69.069 47.4774C69.7704 49.4678 68.1891 51.3249 66.0897 51.3249H55.6691C54.985 47.9081 53.1674 42.8051 48.3437 39.7823C50.2828 38.3007 52.8015 37.2793 56.0816 37.279Z" stroke="#0C58E4" stroke-width="3" stroke-linecap="round"/>
<path d="M15.0965 37.279C18.3767 37.279 20.8951 38.3009 22.8344 39.7823C18.0114 42.8052 16.1929 47.9084 15.5089 51.3249H5.08832C2.9888 51.3249 1.4106 49.468 2.11246 47.4774C3.57866 43.319 7.0856 37.2791 15.0965 37.279Z" stroke="#0C58E4" stroke-width="3" stroke-linecap="round"/>
<path d="M35.0266 37.279C47.4934 37.279 51.055 46.2374 52.0726 51.3561C52.4506 53.2578 50.9168 54.8364 48.989 54.8364H21.0643C19.1365 54.8364 17.6026 53.2578 17.9807 51.3561C18.9982 46.2374 22.5599 37.279 35.0266 37.279Z" stroke="#0C58E4" stroke-width="3" stroke-linecap="round"/>
</svg>
