<svg width="550" height="351" viewBox="0 0 550 351" fill="none" xmlns="http://www.w3.org/2000/svg">
<rect width="550" height="351" rx="21" fill="#F2F6FF"/>
<mask id="mask0_3036_192" style="mask-type:alpha" maskUnits="userSpaceOnUse" x="0" y="0" width="550" height="351">
<rect x="1.5" y="1.5" width="547" height="348" rx="19.5" fill="#BAD1FD" stroke="#153064" stroke-width="3"/>
</mask>
<g mask="url(#mask0_3036_192)">
<g opacity="0.54">
<g filter="url(#filter0_d_3036_192)">
<path d="M25.7133 148.974C24.9526 146.198 26.6674 143.352 29.5433 142.618L253.982 85.3059C256.858 84.5715 259.807 86.2269 260.567 89.0034L339.355 376.557C340.116 379.334 338.401 382.18 335.525 382.914L111.086 440.226C108.21 440.96 105.262 439.305 104.501 436.529L25.7133 148.974Z" fill="white"/>
<path d="M25.7133 148.974C24.9526 146.198 26.6674 143.352 29.5433 142.618L253.982 85.3059C256.858 84.5715 259.807 86.2269 260.567 89.0034L266.077 109.112L31.223 169.083L25.7133 148.974Z" fill="white"/>
<path fill-rule="evenodd" clip-rule="evenodd" d="M266.008 108.861L31.1541 168.832L31.223 169.083L266.077 109.112L266.008 108.861Z" fill="white"/>
</g>
<path d="M53.3924 174.472L56.1624 184.581L54.1299 185.1L52.3282 178.525L51.4152 185.794L49.8763 186.187L45.3453 180.308L47.147 186.884L45.1146 187.403L42.3446 177.293L44.6528 176.703L49.9354 183.398L51.0986 175.057L53.3924 174.472ZM62.9416 174.265L61.2004 187.355L59.0373 187.908L59.6841 183.465L54.3182 176.467L56.5975 175.885L60.2093 180.96L60.7785 174.817L62.9416 174.265ZM66.8135 172.253C66.4555 172.345 66.125 172.31 65.8222 172.15C65.5264 171.978 65.3322 171.722 65.2396 171.384C65.147 171.046 65.1864 170.737 65.3579 170.455C65.5363 170.162 65.8046 169.969 66.1627 169.878C66.5208 169.786 66.8477 169.827 67.1435 169.999C67.4463 170.16 67.644 170.409 67.7366 170.747C67.8292 171.085 67.7863 171.4 67.6078 171.694C67.4364 171.975 67.1716 172.162 66.8135 172.253ZM68.0772 172.953L70.2757 180.978L68.2433 181.497L66.0447 173.472L68.0772 172.953ZM76.6768 171.78C76.3281 171.415 75.9201 171.173 75.4527 171.055C74.9854 170.936 74.4807 170.946 73.9387 171.085C73.3387 171.238 72.8434 171.509 72.4529 171.898C72.0625 172.287 71.8054 172.766 71.6816 173.335C71.5579 173.904 71.586 174.516 71.7659 175.173C71.9511 175.849 72.2431 176.405 72.642 176.84C73.0506 177.273 73.529 177.564 74.0773 177.713C74.6256 177.862 75.2143 177.857 75.8434 177.696C76.6177 177.498 77.1961 177.134 77.5785 176.602C77.9584 176.061 78.1252 175.404 78.079 174.63L74.5948 175.52L74.1701 173.97L79.6577 172.569L80.1419 174.336C80.1995 175.075 80.0878 175.801 79.8066 176.514C79.5254 177.226 79.0818 177.856 78.4759 178.403C77.8769 178.938 77.1419 179.317 76.2709 179.54C75.2934 179.789 74.3483 179.798 73.4356 179.566C72.5299 179.322 71.7425 178.867 71.0734 178.201C70.4139 177.533 69.9478 176.701 69.6753 175.707C69.4028 174.712 69.382 173.767 69.6129 172.871C69.8509 171.963 70.3023 171.192 70.9672 170.557C71.6391 169.91 72.459 169.463 73.4268 169.216C74.5688 168.925 75.6376 168.951 76.6331 169.296C77.6259 169.632 78.4196 170.261 79.0141 171.183L76.6768 171.78ZM80.0928 173.047C79.8203 172.052 79.7995 171.107 80.0304 170.211C80.2683 169.303 80.7149 168.533 81.3701 167.901C82.0323 167.256 82.8474 166.811 83.8152 166.564C84.9475 166.274 86.0189 166.311 87.0294 166.673C88.0398 167.034 88.8546 167.684 89.4738 168.621L87.1365 169.218C86.7719 168.794 86.3436 168.516 85.8517 168.384C85.3694 168.248 84.8524 168.251 84.3007 168.392C83.7103 168.543 83.2212 168.818 82.8334 169.216C82.4526 169.603 82.2003 170.081 82.0766 170.649C81.9625 171.216 81.9981 171.837 82.1833 172.513C82.3658 173.179 82.653 173.736 83.0449 174.183C83.4438 174.619 83.909 174.918 84.4406 175.082C84.9793 175.234 85.5438 175.235 86.1342 175.084C86.6858 174.943 87.1367 174.699 87.4867 174.351C87.8437 173.991 88.0723 173.54 88.1723 172.998L90.5096 172.401C90.4539 173.521 90.0796 174.479 89.3867 175.276C88.7008 176.061 87.7868 176.599 86.6447 176.891C85.6769 177.138 84.7415 177.144 83.8385 176.91C82.9425 176.663 82.1599 176.207 81.4908 175.541C80.8313 174.873 80.3653 174.041 80.0928 173.047ZM95.9192 174.538C95.2127 174.718 94.5409 174.761 93.9037 174.665C93.2762 174.567 92.7358 174.333 92.2824 173.963C91.829 173.593 91.5128 173.101 91.3338 172.485L93.5114 171.929C93.6542 172.337 93.8893 172.628 94.2168 172.803C94.5539 172.975 94.9547 173.002 95.4193 172.883C95.8935 172.762 96.2357 172.556 96.4459 172.265C96.6534 171.964 96.7069 171.63 96.6063 171.263C96.5243 170.964 96.3649 170.741 96.1281 170.595C95.8913 170.448 95.618 170.358 95.3082 170.324C95.0055 170.277 94.5936 170.248 94.0727 170.236C93.3616 170.211 92.7729 170.16 92.3065 170.083C91.8471 169.993 91.4158 169.799 91.0126 169.499C90.6164 169.187 90.331 168.712 90.1564 168.075C89.9923 167.476 89.9995 166.916 90.1778 166.396C90.3561 165.875 90.6845 165.429 91.163 165.059C91.6389 164.679 92.2252 164.4 92.9221 164.223C93.9673 163.956 94.8843 163.995 95.6729 164.341C96.4686 164.676 97.0247 165.288 97.3412 166.178L95.1055 166.749C94.9909 166.406 94.7628 166.16 94.4213 166.009C94.0868 165.847 93.6921 165.824 93.2372 165.94C92.8404 166.041 92.5488 166.224 92.3624 166.489C92.1857 166.751 92.1503 167.075 92.2561 167.461C92.3302 167.731 92.4794 167.936 92.7039 168.075C92.9354 168.202 93.1977 168.29 93.4908 168.339C93.7909 168.376 94.2027 168.405 94.7263 168.427C95.4374 168.452 96.0274 168.508 96.4965 168.594C96.9656 168.681 97.403 168.879 97.8089 169.189C98.2148 169.499 98.5037 169.967 98.6756 170.595C98.8238 171.136 98.821 171.674 98.6673 172.209C98.5137 172.744 98.2042 173.221 97.7389 173.639C97.271 174.048 96.6645 174.348 95.9192 174.538ZM100.224 164.264L100.919 166.799L104.33 165.928L104.771 167.535L101.359 168.406L102.093 171.086L105.941 170.104L106.393 171.755L100.513 173.256L97.7395 163.132L103.619 161.631L104.071 163.282L100.224 164.264ZM115.724 161.902C115.872 162.443 115.88 162.983 115.749 163.523C115.627 164.061 115.33 164.545 114.857 164.975C114.395 165.403 113.747 165.724 112.915 165.936L111.216 166.37L112.28 170.252L110.248 170.771L107.478 160.661L111.208 159.708C111.992 159.508 112.697 159.472 113.323 159.602C113.949 159.731 114.462 159.998 114.863 160.402C115.273 160.804 115.56 161.304 115.724 161.902ZM112.379 164.322C112.941 164.178 113.323 163.947 113.525 163.626C113.724 163.296 113.761 162.9 113.634 162.436C113.364 161.451 112.677 161.1 111.574 161.381L109.962 161.793L110.768 164.733L112.379 164.322ZM120.653 159.404C121.263 159.248 121.842 159.245 122.39 159.394C122.936 159.534 123.411 159.831 123.815 160.286C124.226 160.728 124.531 161.312 124.73 162.036L126.019 166.743L123.987 167.262L122.772 162.83C122.598 162.193 122.305 161.746 121.893 161.489C121.478 161.223 120.995 161.161 120.443 161.302C119.882 161.445 119.484 161.733 119.25 162.164C119.024 162.584 118.998 163.112 119.172 163.749L120.387 168.181L118.354 168.7L115.417 157.982L117.45 157.463L118.462 161.157C118.628 160.742 118.902 160.383 119.285 160.079C119.665 159.765 120.121 159.54 120.653 159.404ZM132.722 156.446L130.981 169.537L128.818 170.089L129.464 165.646L124.098 158.648L126.378 158.066L129.99 163.141L130.559 156.998L132.722 156.446ZM138.404 163.72C137.745 163.888 137.123 163.923 136.537 163.825C135.948 163.717 135.444 163.5 135.023 163.173C134.612 162.844 134.324 162.437 134.16 161.952L136.207 161.43C136.33 161.729 136.551 161.946 136.867 162.082C137.194 162.216 137.556 162.232 137.953 162.131C138.34 162.032 138.619 161.878 138.789 161.669C138.969 161.458 139.026 161.231 138.96 160.99C138.889 160.729 138.7 160.571 138.395 160.514C138.097 160.446 137.636 160.409 137.013 160.402C136.373 160.411 135.839 160.387 135.409 160.332C134.989 160.273 134.596 160.121 134.228 159.874C133.869 159.624 133.616 159.229 133.468 158.689C133.346 158.244 133.361 157.807 133.512 157.376C133.673 156.942 133.961 156.558 134.377 156.225C134.803 155.889 135.34 155.638 135.988 155.472C136.947 155.228 137.777 155.274 138.481 155.611C139.181 155.938 139.672 156.5 139.952 157.296L138.007 157.793C137.89 157.482 137.686 157.265 137.394 157.144C137.109 157.01 136.768 156.994 136.371 157.095C136.003 157.189 135.736 157.329 135.57 157.517C135.413 157.701 135.368 157.914 135.434 158.156C135.508 158.426 135.701 158.599 136.011 158.675C136.319 158.741 136.779 158.773 137.39 158.772C138.01 158.769 138.53 158.796 138.95 158.854C139.37 158.912 139.76 159.071 140.121 159.33C140.489 159.577 140.75 159.965 140.906 160.493C141.033 160.957 141.016 161.405 140.855 161.839C140.704 162.27 140.415 162.654 139.99 162.99C139.571 163.314 139.042 163.557 138.404 163.72ZM141.045 153.298C140.687 153.389 140.357 153.355 140.054 153.194C139.758 153.022 139.564 152.767 139.472 152.429C139.379 152.091 139.418 151.781 139.59 151.5C139.768 151.206 140.037 151.014 140.395 150.922C140.753 150.831 141.08 150.871 141.375 151.044C141.678 151.204 141.876 151.453 141.969 151.791C142.061 152.129 142.018 152.445 141.84 152.739C141.668 153.02 141.404 153.206 141.045 153.298ZM142.309 153.998L144.508 162.022L142.475 162.541L140.277 154.517L142.309 153.998ZM144.168 157.816C143.94 156.986 143.911 156.218 144.081 155.514C144.248 154.8 144.585 154.197 145.092 153.706C145.597 153.205 146.236 152.856 147.011 152.658C148.008 152.403 148.899 152.444 149.685 152.781C150.478 153.105 151.109 153.688 151.578 154.529L149.385 155.089C149.174 154.771 148.902 154.551 148.568 154.43C148.241 154.296 147.875 154.281 147.468 154.385C146.888 154.533 146.486 154.863 146.264 155.375C146.039 155.876 146.032 156.513 146.244 157.286C146.453 158.049 146.785 158.599 147.24 158.938C147.693 159.266 148.209 159.357 148.79 159.208C149.613 158.998 150.049 158.494 150.1 157.696L152.292 157.136C152.307 158.062 152.056 158.865 151.538 159.545C151.02 160.225 150.268 160.691 149.281 160.943C148.506 161.14 147.773 161.147 147.08 160.962C146.385 160.768 145.783 160.405 145.275 159.873C144.765 159.332 144.395 158.646 144.168 157.816ZM156.911 158.994C156.252 159.162 155.63 159.197 155.044 159.099C154.455 158.991 153.951 158.774 153.53 158.447C153.119 158.118 152.831 157.712 152.667 157.226L154.714 156.704C154.837 157.003 155.058 157.22 155.374 157.356C155.701 157.49 156.063 157.506 156.459 157.405C156.847 157.306 157.125 157.152 157.296 156.943C157.476 156.732 157.533 156.506 157.467 156.264C157.396 156.003 157.207 155.845 156.902 155.789C156.604 155.72 156.143 155.683 155.52 155.677C154.88 155.685 154.346 155.661 153.916 155.606C153.496 155.548 153.102 155.395 152.734 155.148C152.376 154.899 152.123 154.504 151.975 153.963C151.853 153.519 151.868 153.081 152.019 152.65C152.18 152.216 152.468 151.833 152.884 151.499C153.31 151.163 153.847 150.912 154.495 150.747C155.453 150.502 156.284 150.548 156.988 150.885C157.688 151.212 158.179 151.774 158.459 152.571L156.514 153.067C156.397 152.756 156.193 152.54 155.901 152.418C155.616 152.284 155.275 152.268 154.878 152.369C154.51 152.463 154.243 152.604 154.077 152.791C153.92 152.975 153.875 153.188 153.941 153.43C154.015 153.7 154.208 153.873 154.518 153.949C154.826 154.015 155.286 154.047 155.896 154.046C156.517 154.043 157.037 154.07 157.457 154.128C157.877 154.186 158.267 154.345 158.628 154.604C158.996 154.851 159.257 155.239 159.413 155.767C159.54 156.231 159.523 156.679 159.362 157.113C159.211 157.544 158.922 157.928 158.497 158.264C158.078 158.588 157.549 158.831 156.911 158.994ZM172.382 154.904L170.35 155.423L163.847 149.66L165.748 156.598L163.715 157.117L160.941 146.993L162.974 146.474L169.481 152.251L167.576 145.299L169.608 144.78L172.382 154.904ZM177.272 153.795C176.498 153.993 175.755 154.002 175.043 153.822C174.328 153.632 173.706 153.27 173.176 152.733C172.655 152.195 172.283 151.515 172.058 150.694C171.833 149.874 171.813 149.104 172 148.385C172.195 147.663 172.561 147.053 173.098 146.554C173.632 146.046 174.286 145.693 175.06 145.495C175.834 145.298 176.584 145.292 177.308 145.479C178.03 145.657 178.656 146.013 179.186 146.549C179.725 147.083 180.108 147.76 180.333 148.581C180.557 149.402 180.567 150.174 180.362 150.898C180.166 151.62 179.796 152.236 179.253 152.747C178.716 153.245 178.056 153.595 177.272 153.795ZM176.788 152.028C177.156 151.934 177.475 151.759 177.747 151.504C178.026 151.237 178.213 150.899 178.309 150.493C178.405 150.086 178.382 149.627 178.242 149.115C178.033 148.352 177.67 147.82 177.152 147.518C176.642 147.204 176.096 147.121 175.515 147.27C174.935 147.418 174.503 147.75 174.22 148.267C173.944 148.771 173.91 149.405 174.119 150.168C174.328 150.931 174.678 151.471 175.169 151.79C175.668 152.097 176.207 152.176 176.788 152.028ZM182.821 145.435L183.885 149.317C183.959 149.587 184.076 149.769 184.236 149.863C184.403 149.944 184.642 149.945 184.951 149.866L185.895 149.625L186.363 151.334L185.086 151.66C183.373 152.098 182.289 151.486 181.834 149.825L180.774 145.958L179.816 146.203L179.36 144.537L180.318 144.292L179.774 142.308L181.821 141.785L182.365 143.77L184.165 143.31L184.621 144.976L182.821 145.435ZM193.429 145.051C193.508 145.341 193.56 145.606 193.585 145.848L187.706 147.349C187.913 147.916 188.24 148.318 188.688 148.555C189.136 148.792 189.622 148.844 190.144 148.71C190.899 148.517 191.348 148.057 191.49 147.328L193.682 146.769C193.661 147.6 193.391 148.351 192.87 149.022C192.347 149.682 191.606 150.135 190.648 150.379C189.874 150.577 189.131 150.586 188.419 150.406C187.714 150.214 187.101 149.849 186.581 149.31C186.07 148.769 185.702 148.088 185.477 147.267C185.25 146.437 185.22 145.665 185.386 144.951C185.553 144.236 185.895 143.633 186.412 143.139C186.929 142.645 187.585 142.297 188.378 142.094C189.143 141.899 189.87 141.889 190.56 142.064C191.26 142.237 191.858 142.585 192.353 143.11C192.856 143.622 193.215 144.269 193.429 145.051ZM191.165 145.009C191.013 144.49 190.71 144.123 190.258 143.908C189.803 143.683 189.309 143.639 188.777 143.775C188.273 143.903 187.89 144.167 187.626 144.565C187.369 144.95 187.276 145.424 187.347 145.984L191.165 145.009ZM198.447 148.388C197.789 148.556 197.167 148.591 196.581 148.493C195.992 148.385 195.487 148.167 195.066 147.841C194.655 147.512 194.367 147.105 194.203 146.62L196.25 146.097C196.374 146.396 196.594 146.614 196.911 146.75C197.237 146.884 197.599 146.9 197.996 146.798C198.383 146.699 198.662 146.546 198.832 146.337C199.013 146.125 199.07 145.899 199.004 145.658C198.932 145.397 198.744 145.238 198.438 145.182C198.14 145.114 197.679 145.076 197.056 145.07C196.417 145.078 195.882 145.055 195.453 144.999C195.033 144.941 194.639 144.789 194.271 144.542C193.913 144.292 193.659 143.897 193.511 143.356C193.389 142.912 193.404 142.474 193.555 142.043C193.716 141.61 194.004 141.226 194.421 140.892C194.846 140.556 195.383 140.306 196.032 140.14C196.99 139.895 197.821 139.942 198.524 140.279C199.225 140.606 199.715 141.168 199.995 141.964L198.05 142.461C197.934 142.15 197.729 141.933 197.437 141.811C197.152 141.678 196.811 141.661 196.414 141.763C196.046 141.857 195.779 141.997 195.613 142.184C195.457 142.369 195.411 142.582 195.478 142.823C195.552 143.094 195.744 143.267 196.055 143.342C196.363 143.408 196.822 143.441 197.433 143.44C198.053 143.436 198.573 143.464 198.993 143.522C199.413 143.58 199.803 143.738 200.164 143.998C200.532 144.245 200.794 144.632 200.949 145.161C201.076 145.624 201.059 146.073 200.898 146.507C200.747 146.938 200.459 147.321 200.033 147.657C199.614 147.981 199.086 148.225 198.447 148.388Z" fill="black"/>
<path d="M35.1513 152.478L35.0148 153.312L34.9958 153.534V153.534C34.9928 153.734 35.0044 153.935 35.0304 154.134L35.0856 154.556L35.2163 155.123L35.3479 155.668L35.4831 156.059L35.8048 156.688L35.9302 156.889C36.0687 157.112 36.2444 157.309 36.4496 157.473L36.4677 157.487C36.5641 157.564 36.6673 157.632 36.7759 157.691V157.691C37.0268 157.826 37.3028 157.908 37.5859 157.93L38.3784 157.994V157.994C39.4331 158.085 40.4771 157.778 41.302 157.135L41.94 156.637L43.8421 154.972L45.0005 153.696L45.9179 152.367L46.7086 151.106L47.3378 149.746L47.7634 148.69C47.862 148.445 47.9425 148.193 48.0043 147.936V147.936L48.097 147.55L48.1383 147.172V147.172C48.1655 146.923 48.1452 146.67 48.0785 146.426L48.0199 146.212C47.927 145.873 47.7405 145.566 47.4815 145.325L47.4265 145.273C47.2264 145.087 46.9823 144.954 46.7176 144.887V144.887C46.4584 144.822 46.1877 144.822 45.9306 144.888L45.5741 144.979L45.1938 145.095C44.9576 145.168 44.7289 145.261 44.5104 145.375V145.375C44.2452 145.513 43.9966 145.68 43.769 145.873L42.9839 146.538L42.3519 147.181C41.9974 147.542 41.678 147.935 41.3978 148.356V148.356L40.9766 148.988L40.2814 150.292L39.6606 151.828L39.276 153.2L39.1617 153.728C39.0549 154.221 38.9849 154.722 38.9523 155.226L38.9474 155.301C38.9038 155.975 38.932 156.653 39.0315 157.324L39.2548 158.829C39.3136 159.225 39.4584 159.605 39.6792 159.942V159.942C39.9739 160.392 40.3928 160.749 40.8848 160.97L41.0567 161.047C41.3929 161.198 41.7536 161.286 42.1201 161.305V161.305C42.3961 161.32 42.6722 161.297 42.9403 161.235L43.1549 161.186C43.3847 161.133 43.6097 161.063 43.8278 160.975L44.385 160.75C45.0391 160.486 45.6645 160.159 46.2521 159.773V159.773C47.0343 159.258 47.7438 158.644 48.3625 157.944L49.295 156.889L50.4807 155.302L51.6535 153.258" stroke="#2D74F8" stroke-width="4" stroke-linecap="round"/>
<path d="M49.1053 151.791L53.9615 154.568C53.9621 154.568 53.963 154.567 53.963 154.567L53.9226 149.221C53.9226 149.22 53.9218 149.22 53.9211 149.22L49.1053 151.789C49.1046 151.79 49.1046 151.791 49.1053 151.791Z" fill="#2D74F8" stroke="#2D74F8" stroke-width="2" stroke-linecap="round"/>
<rect width="116.757" height="14.5776" transform="matrix(0.967831 -0.24714 0.264567 0.965598 59.8379 141.336)" fill="#F5F5F5"/>
<rect width="78.0171" height="14.5776" transform="matrix(0.967831 -0.24714 0.264567 0.965598 178.047 111.151)" fill="#F5F5F5"/>
<g filter="url(#filter1_d_3036_192)">
<path d="M225.548 147.199C225.61 144.328 228.071 142.049 231.045 142.109L463.153 146.79C466.127 146.85 468.488 149.226 468.425 152.098L461.99 449.476C461.928 452.348 459.466 454.627 456.492 454.567L224.385 449.885C221.41 449.825 219.05 447.449 219.112 444.578L225.548 147.199Z" fill="white"/>
<path d="M225.548 147.199C225.61 144.328 228.071 142.049 231.045 142.109L463.153 146.79C466.127 146.85 468.488 149.226 468.425 152.098L467.975 172.893L225.098 167.995L225.548 147.199Z" fill="white"/>
<path fill-rule="evenodd" clip-rule="evenodd" d="M467.981 172.633L225.103 167.735L225.098 167.995L467.975 172.893L467.981 172.633Z" fill="white"/>
</g>
<path d="M245.692 179.396L245.451 190.548L243.209 190.502L243.366 183.249L240.214 190.442L238.516 190.408L235.662 183.094L235.505 190.347L233.263 190.302L233.504 179.151L236.051 179.202L239.427 187.565L243.162 179.345L245.692 179.396ZM255.627 181.898L249.851 194.824L247.465 194.776L249.482 190.405L246.114 181.707L248.628 181.757L250.785 187.986L253.241 181.85L255.627 181.898ZM258.595 185.219C258.619 184.122 258.886 183.147 259.396 182.294C259.917 181.431 260.609 180.768 261.474 180.306C262.349 179.834 263.321 179.608 264.388 179.63C265.638 179.655 266.725 179.997 267.651 180.655C268.577 181.312 269.214 182.21 269.563 183.346L266.985 183.294C266.74 182.757 266.386 182.35 265.922 182.074C265.468 181.799 264.937 181.655 264.329 181.642C263.678 181.629 263.092 181.772 262.573 182.07C262.065 182.359 261.661 182.777 261.36 183.325C261.071 183.873 260.918 184.52 260.902 185.265C260.886 186 261.011 186.653 261.276 187.223C261.552 187.782 261.938 188.222 262.433 188.541C262.939 188.849 263.518 189.01 264.169 189.023C264.778 189.036 265.314 188.913 265.779 188.656C266.255 188.389 266.627 187.991 266.895 187.464L269.473 187.516C269.075 188.648 268.399 189.524 267.446 190.144C266.503 190.754 265.402 191.046 264.142 191.021C263.074 190.999 262.113 190.74 261.259 190.243C260.415 189.736 259.752 189.046 259.269 188.173C258.796 187.301 258.572 186.316 258.595 185.219ZM273.09 179.278L272.834 191.1L270.592 191.055L270.847 179.233L273.09 179.278ZM273.848 186.661C273.868 185.767 274.061 184.977 274.428 184.291C274.806 183.606 275.304 183.084 275.92 182.723C276.548 182.363 277.24 182.19 277.998 182.206C278.66 182.219 279.234 182.364 279.72 182.64C280.216 182.916 280.609 183.26 280.899 183.671L280.926 182.409L283.184 182.454L282.993 191.305L280.735 191.259L280.763 189.965C280.465 190.375 280.058 190.713 279.539 190.98C279.031 191.236 278.447 191.357 277.785 191.344C277.037 191.329 276.358 191.123 275.747 190.727C275.147 190.332 274.673 189.784 274.325 189.084C273.987 188.374 273.829 187.567 273.848 186.661ZM280.83 186.834C280.842 186.291 280.745 185.825 280.54 185.438C280.335 185.039 280.053 184.735 279.695 184.526C279.336 184.305 278.949 184.191 278.533 184.182C278.116 184.174 277.73 184.267 277.373 184.463C277.016 184.658 276.721 184.95 276.489 185.34C276.267 185.719 276.15 186.175 276.139 186.707C276.127 187.24 276.224 187.711 276.428 188.12C276.644 188.518 276.926 188.828 277.274 189.048C277.632 189.268 278.014 189.382 278.42 189.391C278.836 189.399 279.228 189.306 279.596 189.111C279.963 188.905 280.258 188.613 280.48 188.233C280.702 187.844 280.819 187.377 280.83 186.834ZM287.854 191.547C287.128 191.532 286.48 191.391 285.909 191.124C285.338 190.846 284.887 190.48 284.555 190.026C284.233 189.572 284.062 189.073 284.042 188.529L286.3 188.575C286.336 188.916 286.495 189.202 286.779 189.431C287.073 189.661 287.439 189.78 287.876 189.789C288.303 189.798 288.636 189.719 288.875 189.554C289.124 189.388 289.252 189.172 289.257 188.906C289.264 188.618 289.119 188.402 288.823 188.258C288.538 188.103 288.077 187.934 287.44 187.75C286.781 187.577 286.24 187.401 285.817 187.222C285.404 187.043 285.047 186.775 284.745 186.417C284.453 186.06 284.314 185.583 284.327 184.987C284.338 184.497 284.486 184.052 284.773 183.653C285.07 183.254 285.482 182.943 286.01 182.719C286.549 182.495 287.177 182.391 287.892 182.405C288.949 182.427 289.787 182.71 290.405 183.255C291.024 183.79 291.355 184.505 291.4 185.401L289.254 185.358C289.23 185.006 289.086 184.726 288.824 184.518C288.572 184.3 288.227 184.186 287.79 184.177C287.384 184.169 287.067 184.237 286.84 184.382C286.623 184.527 286.512 184.732 286.506 184.999C286.499 185.297 286.644 185.529 286.94 185.695C287.235 185.85 287.696 186.014 288.323 186.186C288.96 186.359 289.485 186.534 289.898 186.713C290.31 186.892 290.662 187.166 290.953 187.534C291.255 187.891 291.406 188.363 291.404 188.949C291.392 189.46 291.238 189.916 290.941 190.314C290.655 190.714 290.242 191.025 289.703 191.248C289.175 191.462 288.559 191.561 287.854 191.547ZM295.861 191.708C295.135 191.694 294.486 191.553 293.915 191.285C293.345 191.008 292.893 190.641 292.561 190.187C292.24 189.733 292.069 189.234 292.049 188.691L294.307 188.736C294.342 189.078 294.502 189.363 294.785 189.593C295.079 189.823 295.445 189.942 295.883 189.951C296.31 189.959 296.643 189.881 296.881 189.715C297.131 189.55 297.258 189.334 297.264 189.067C297.27 188.78 297.125 188.564 296.829 188.419C296.544 188.264 296.083 188.095 295.446 187.912C294.788 187.739 294.247 187.563 293.824 187.384C293.411 187.205 293.053 186.937 292.751 186.579C292.46 186.221 292.321 185.745 292.334 185.148C292.344 184.658 292.493 184.214 292.779 183.814C293.076 183.416 293.489 183.104 294.017 182.88C294.556 182.657 295.183 182.552 295.899 182.567C296.956 182.588 297.793 182.871 298.412 183.417C299.03 183.951 299.362 184.667 299.407 185.562L297.261 185.519C297.236 185.167 297.093 184.887 296.83 184.679C296.579 184.461 296.234 184.348 295.796 184.339C295.39 184.331 295.074 184.399 294.846 184.543C294.63 184.688 294.518 184.894 294.513 185.16C294.506 185.458 294.651 185.69 294.946 185.856C295.242 186.011 295.703 186.175 296.329 186.347C296.967 186.52 297.492 186.696 297.904 186.875C298.317 187.054 298.669 187.327 298.96 187.695C299.262 188.053 299.412 188.525 299.41 189.111C299.399 189.622 299.245 190.077 298.948 190.476C298.662 190.875 298.249 191.186 297.71 191.41C297.182 191.623 296.566 191.722 295.861 191.708ZM313.132 191.913L310.89 191.868L305.979 184.113L305.813 191.765L303.571 191.72L303.813 180.553L306.055 180.598L310.966 188.369L311.132 180.7L313.374 180.746L313.132 191.913ZM318.564 192.166C317.71 192.149 316.945 191.947 316.27 191.561C315.595 191.163 315.067 190.615 314.687 189.914C314.318 189.214 314.143 188.412 314.163 187.506C314.182 186.601 314.397 185.806 314.807 185.122C315.228 184.438 315.789 183.916 316.491 183.558C317.194 183.188 317.972 183.012 318.826 183.029C319.68 183.046 320.45 183.254 321.136 183.651C321.822 184.038 322.355 184.582 322.735 185.282C323.126 185.982 323.311 186.785 323.292 187.69C323.272 188.596 323.047 189.39 322.615 190.074C322.194 190.758 321.628 191.285 320.915 191.654C320.212 192.013 319.429 192.184 318.564 192.166ZM318.606 190.217C319.012 190.225 319.393 190.137 319.75 189.953C320.117 189.757 320.412 189.465 320.634 189.075C320.856 188.686 320.973 188.208 320.985 187.644C321.004 186.803 320.793 186.154 320.355 185.697C319.927 185.23 319.392 184.991 318.752 184.978C318.111 184.965 317.567 185.183 317.119 185.632C316.683 186.071 316.455 186.711 316.437 187.552C316.419 188.394 316.613 189.047 317.019 189.514C317.437 189.97 317.966 190.204 318.606 190.217ZM326.882 185.174L326.79 189.455C326.783 189.753 326.848 189.973 326.984 190.114C327.13 190.245 327.374 190.314 327.716 190.321L328.757 190.342L328.716 192.227L327.307 192.199C325.417 192.161 324.492 191.226 324.532 189.394L324.624 185.128L323.567 185.107L323.607 183.27L324.664 183.291L324.711 181.102L326.969 181.148L326.922 183.336L328.908 183.376L328.868 185.214L326.882 185.174ZM337.956 187.794C337.95 188.114 337.922 188.401 337.874 188.656L331.387 188.525C331.427 189.165 331.64 189.67 332.027 190.04C332.415 190.41 332.897 190.601 333.473 190.613C334.306 190.63 334.906 190.285 335.274 189.578L337.692 189.627C337.418 190.474 336.911 191.167 336.173 191.706C335.436 192.235 334.538 192.488 333.481 192.467C332.627 192.45 331.862 192.248 331.187 191.861C330.523 191.464 330.006 190.916 329.636 190.216C329.278 189.516 329.108 188.713 329.128 187.808C329.147 186.892 329.352 186.092 329.74 185.407C330.129 184.722 330.664 184.2 331.344 183.841C332.025 183.482 332.803 183.311 333.679 183.329C334.522 183.346 335.271 183.542 335.925 183.918C336.59 184.293 337.097 184.82 337.445 185.499C337.805 186.166 337.975 186.932 337.956 187.794ZM335.648 187.109C335.65 186.533 335.451 186.071 335.053 185.722C334.655 185.362 334.162 185.177 333.575 185.165C333.02 185.154 332.546 185.315 332.155 185.648C331.774 185.97 331.534 186.429 331.436 187.024L335.648 187.109ZM342.165 192.642C341.439 192.628 340.79 192.487 340.219 192.219C339.648 191.941 339.197 191.575 338.865 191.121C338.544 190.667 338.373 190.168 338.352 189.624L340.611 189.67C340.646 190.012 340.805 190.297 341.089 190.527C341.383 190.756 341.749 190.876 342.187 190.885C342.614 190.893 342.947 190.815 343.185 190.649C343.434 190.483 343.562 190.268 343.568 190.001C343.574 189.714 343.429 189.498 343.133 189.353C342.848 189.198 342.387 189.029 341.75 188.846C341.092 188.673 340.551 188.497 340.127 188.318C339.714 188.139 339.357 187.871 339.055 187.513C338.764 187.155 338.624 186.678 338.637 186.082C338.648 185.592 338.796 185.148 339.083 184.748C339.38 184.35 339.793 184.038 340.321 183.814C340.86 183.591 341.487 183.486 342.202 183.501C343.259 183.522 344.097 183.805 344.715 184.351C345.334 184.885 345.666 185.6 345.71 186.496L343.564 186.453C343.54 186.101 343.396 185.821 343.134 185.613C342.882 185.395 342.538 185.282 342.1 185.273C341.694 185.265 341.377 185.333 341.15 185.477C340.933 185.622 340.822 185.828 340.816 186.094C340.81 186.392 340.954 186.624 341.25 186.79C341.546 186.945 342.007 187.109 342.633 187.281C343.27 187.454 343.795 187.63 344.208 187.809C344.621 187.987 344.973 188.261 345.264 188.629C345.566 188.987 345.716 189.459 345.714 190.045C345.703 190.556 345.549 191.011 345.252 191.41C344.965 191.809 344.553 192.12 344.014 192.344C343.486 192.557 342.869 192.656 342.165 192.642Z" fill="black"/>
<path d="M233.62 153.08L233.251 153.845L233.169 154.053V154.053C233.109 154.245 233.063 154.441 233.031 154.639L232.963 155.06L232.927 155.639L232.897 156.198L232.916 156.61L233.045 157.3L233.108 157.527C233.178 157.778 233.29 158.014 233.441 158.227L233.454 158.245C233.525 158.345 233.604 158.438 233.692 158.523V158.523C233.894 158.72 234.136 158.872 234.402 158.969L235.146 159.241V159.241C236.133 159.61 237.225 159.593 238.201 159.194L238.957 158.885L241.261 157.791L242.739 156.874L244.001 155.841L245.121 154.838L246.114 153.699L246.825 152.797C246.99 152.588 247.139 152.367 247.272 152.137V152.137L247.472 151.791L247.619 151.439V151.439C247.717 151.206 247.769 150.957 247.775 150.706L247.78 150.484C247.787 150.134 247.696 149.788 247.516 149.488L247.477 149.424C247.338 149.191 247.142 148.999 246.907 148.864V148.864C246.676 148.732 246.416 148.66 246.15 148.655L245.781 148.647L245.382 148.658C245.135 148.665 244.888 148.694 244.646 148.745V148.745C244.351 148.807 244.064 148.901 243.791 149.026L242.846 149.456L242.055 149.906C241.611 150.158 241.191 150.451 240.802 150.781V150.781L240.216 151.277L239.176 152.345L238.14 153.656L237.378 154.872L237.118 155.349C236.874 155.795 236.664 156.258 236.488 156.734L236.462 156.804C236.228 157.441 236.061 158.1 235.965 158.771L235.749 160.277C235.693 160.674 235.723 161.077 235.839 161.46V161.46C235.994 161.971 236.295 162.426 236.705 162.769L236.848 162.889C237.128 163.124 237.449 163.304 237.796 163.421V163.421C238.057 163.509 238.329 163.559 238.604 163.572L238.825 163.582C239.061 163.592 239.297 163.584 239.532 163.558L240.132 163.49C240.836 163.411 241.53 163.262 242.206 163.048V163.048C243.105 162.762 243.962 162.36 244.757 161.852L245.954 161.086L247.548 159.877L249.259 158.224" stroke="#2D74F8" stroke-width="4" stroke-linecap="round"/>
<path d="M247.229 156.135L251.104 160.097C251.104 160.097 251.105 160.097 251.105 160.096L252.594 154.947C252.594 154.947 252.594 154.946 252.593 154.946L247.23 156.133C247.229 156.133 247.229 156.134 247.229 156.135Z" fill="#2D74F8" stroke="#2D74F8" stroke-width="2" stroke-linecap="round"/>
<rect width="116.746" height="14.5789" transform="matrix(1.00098 0.0201895 -0.0216093 0.998496 260.531 148.945)" fill="#F5F5F5"/>
<rect width="78.0103" height="14.5789" transform="matrix(1.00098 0.0201895 -0.0216093 0.998496 382.777 151.41)" fill="#F5F5F5"/>
</g>
</g>
<defs>
<filter id="filter0_d_3036_192" x="5.3332" y="65.9318" width="354.402" height="395.669" filterUnits="userSpaceOnUse" color-interpolation-filters="sRGB">
<feFlood flood-opacity="0" result="BackgroundImageFix"/>
<feColorMatrix in="SourceAlpha" type="matrix" values="0 0 0 0 0 0 0 0 0 0 0 0 0 0 0 0 0 0 127 0" result="hardAlpha"/>
<feOffset dy="1"/>
<feGaussianBlur stdDeviation="10.1"/>
<feComposite in2="hardAlpha" operator="out"/>
<feColorMatrix type="matrix" values="0 0 0 0 0 0 0 0 0 0 0 0 0 0 0 0 0 0 0.15 0"/>
<feBlend mode="normal" in2="BackgroundImageFix" result="effect1_dropShadow_3036_192"/>
<feBlend mode="normal" in="SourceGraphic" in2="effect1_dropShadow_3036_192" result="shape"/>
</filter>
<filter id="filter1_d_3036_192" x="198.911" y="122.907" width="289.714" height="352.86" filterUnits="userSpaceOnUse" color-interpolation-filters="sRGB">
<feFlood flood-opacity="0" result="BackgroundImageFix"/>
<feColorMatrix in="SourceAlpha" type="matrix" values="0 0 0 0 0 0 0 0 0 0 0 0 0 0 0 0 0 0 127 0" result="hardAlpha"/>
<feOffset dy="1"/>
<feGaussianBlur stdDeviation="10.1"/>
<feComposite in2="hardAlpha" operator="out"/>
<feColorMatrix type="matrix" values="0 0 0 0 0 0 0 0 0 0 0 0 0 0 0 0 0 0 0.15 0"/>
<feBlend mode="normal" in2="BackgroundImageFix" result="effect1_dropShadow_3036_192"/>
<feBlend mode="normal" in="SourceGraphic" in2="effect1_dropShadow_3036_192" result="shape"/>
</filter>
</defs>
</svg>
