<svg width="20" height="20" viewBox="0 0 20 20" fill="none" xmlns="http://www.w3.org/2000/svg">
<path d="M6.54415 13.6325L5.59547 13.9487V13.9487L6.54415 13.6325ZM6.41886 13.2566L7.36754 12.9404V12.9404L6.41886 13.2566ZM13.5811 13.2566L12.6325 12.9404V12.9404L13.5811 13.2566ZM13.4558 13.6325L12.5072 13.3162L12.5072 13.3162L13.4558 13.6325ZM2.23463 11.8478L2.61732 10.9239L2.23463 11.8478ZM1.15224 10.7654L0.228361 11.1481H0.228361L1.15224 10.7654ZM5.77888 12.1338L5.27924 13L5.27924 13L5.77888 12.1338ZM5.94303 12.2521L6.60681 11.5042L6.60681 11.5042L5.94303 12.2521ZM14.2211 12.1338L14.7208 13L14.7208 13L14.2211 12.1338ZM14.057 12.2521L14.7208 13L14.057 12.2521ZM18.8478 10.7654L19.7716 11.148L18.8478 10.7654ZM17.7654 11.8478L18.1481 12.7716H18.1481L17.7654 11.8478ZM10 5L10.5812 4.18627L10 3.7711L9.41876 4.18627L10 5ZM4.67544 12V11H4V12V13H4.67544V12ZM16 12V11H15.3246V12V13H16V12ZM6.54415 13.6325L7.49284 13.3162L7.36754 12.9404L6.41886 13.2566L5.47018 13.5728L5.59547 13.9487L6.54415 13.6325ZM13.5811 13.2566L12.6325 12.9404L12.5072 13.3162L13.4558 13.6325L14.4045 13.9487L14.5298 13.5728L13.5811 13.2566ZM11.5585 15V14H8.44152V15V16H11.5585V15ZM13.4558 13.6325L12.5072 13.3162C12.3899 13.6681 12.327 13.8518 12.2689 13.9768C12.2216 14.0784 12.2209 14.0421 12.2792 14L12.864 14.8112L13.4487 15.6225C13.7689 15.3917 13.9541 15.096 14.0823 14.8204C14.1997 14.5681 14.3018 14.2568 14.4045 13.9487L13.4558 13.6325ZM11.5585 15V16C11.8833 16 12.2109 16.0015 12.4873 15.97C12.7893 15.9355 13.1284 15.8533 13.4487 15.6225L12.864 14.8112L12.2792 14C12.3376 13.9579 12.3718 13.9701 12.2605 13.9829C12.1236 13.9985 11.9294 14 11.5585 14V15ZM6.54415 13.6325L5.59547 13.9487C5.69819 14.2568 5.80035 14.5681 5.9177 14.8204C6.04591 15.096 6.23108 15.3917 6.55134 15.6225L7.13605 14.8112L7.72076 14C7.77913 14.0421 7.77836 14.0784 7.73108 13.9768C7.67297 13.8518 7.61012 13.6681 7.49284 13.3162L6.54415 13.6325ZM8.44152 15V14C8.07063 14 7.87643 13.9985 7.73953 13.9829C7.62818 13.9701 7.66239 13.9579 7.72076 14L7.13605 14.8112L6.55134 15.6225C6.8716 15.8533 7.21068 15.9355 7.51266 15.97C7.7891 16.0015 8.11669 16 8.44152 16V15ZM4 12V11C3.52038 11 3.21074 10.9995 2.97376 10.9833C2.74576 10.9677 2.65893 10.9411 2.61732 10.9239L2.23463 11.8478L1.85195 12.7716C2.17788 12.9066 2.50779 12.9561 2.83762 12.9787C3.15846 13.0005 3.54774 13 4 13V12ZM1 9H0C0 9.45226 -0.000541568 9.84154 0.0213497 10.1624C0.0438537 10.4922 0.0933575 10.8221 0.228361 11.1481L1.15224 10.7654L2.07612 10.3827C2.05888 10.3411 2.03227 10.2542 2.01671 10.0262C2.00054 9.78926 2 9.47962 2 9H1ZM2.23463 11.8478L2.61732 10.9239C2.37229 10.8224 2.17761 10.6277 2.07612 10.3827L1.15224 10.7654L0.228361 11.1481C0.532843 11.8831 1.11687 12.4672 1.85195 12.7716L2.23463 11.8478ZM4.67544 12V13C4.98506 13 5.14705 13.0011 5.26255 13.0121C5.35856 13.0214 5.33297 13.031 5.27924 13L5.77888 12.1338L6.27851 11.2675C5.99287 11.1028 5.70607 11.0455 5.4536 11.0213C5.22061 10.9989 4.94684 11 4.67544 11V12ZM6.41886 13.2566L7.36754 12.9404C7.28172 12.6829 7.19616 12.4228 7.10127 12.2089C6.99845 11.977 6.85344 11.723 6.60681 11.5042L5.94303 12.2521L5.27924 13C5.23285 12.9588 5.23389 12.9315 5.27299 13.0197C5.32003 13.1257 5.37227 13.2791 5.47018 13.5728L6.41886 13.2566ZM5.77888 12.1338L5.27924 13L5.27924 13L5.94303 12.2521L6.60681 11.5042C6.50566 11.4144 6.39566 11.3351 6.27851 11.2675L5.77888 12.1338ZM15.3246 12V11C15.0532 11 14.7794 10.9989 14.5464 11.0213C14.2939 11.0455 14.0071 11.1028 13.7215 11.2675L14.2211 12.1338L14.7208 13C14.667 13.031 14.6414 13.0214 14.7375 13.0121C14.8529 13.0011 15.0149 13 15.3246 13V12ZM13.5811 13.2566L14.5298 13.5728C14.6277 13.2791 14.68 13.1257 14.727 13.0197C14.7661 12.9315 14.7672 12.9588 14.7208 13L14.057 12.2521L13.3932 11.5042C13.1466 11.723 13.0015 11.977 12.8987 12.2089C12.8038 12.4228 12.7183 12.6829 12.6325 12.9404L13.5811 13.2566ZM14.2211 12.1338L13.7215 11.2675C13.6043 11.3351 13.4943 11.4144 13.3932 11.5042L14.057 12.2521L14.7208 13L14.7208 13L14.2211 12.1338ZM19 9H18C18 9.47962 17.9995 9.78926 17.9833 10.0262C17.9677 10.2542 17.9411 10.3411 17.9239 10.3827L18.8478 10.7654L19.7716 11.148C19.9066 10.8221 19.9561 10.4922 19.9787 10.1624C20.0005 9.84154 20 9.45226 20 9H19ZM16 12V13C16.4523 13 16.8415 13.0005 17.1624 12.9787C17.4922 12.9561 17.8221 12.9066 18.1481 12.7716L17.7654 11.8478L17.3827 10.9239C17.3411 10.9411 17.2542 10.9677 17.0262 10.9833C16.7893 10.9995 16.4796 11 16 11V12ZM18.8478 10.7654L17.9239 10.3827C17.8224 10.6277 17.6277 10.8224 17.3827 10.9239L17.7654 11.8478L18.1481 12.7716C18.8831 12.4672 19.4672 11.8831 19.7716 11.148L18.8478 10.7654ZM19 3H18V17H19H20V3H19ZM17 19V18H3V19V20H17V19ZM1 17H2V3H1H0V17H1ZM3 1V2H17V1V0H3V1ZM3 19V18C2.44771 18 2 17.5523 2 17H1H0C0 18.6569 1.34315 20 3 20V19ZM19 17H18C18 17.5523 17.5523 18 17 18V19V20C18.6569 20 20 18.6569 20 17H19ZM19 3H20C20 1.34315 18.6569 0 17 0V1V2C17.5523 2 18 2.44772 18 3H19ZM1 3H2C2 2.44772 2.44772 2 3 2V1V0C1.34315 0 0 1.34315 0 3H1ZM6.5 7.5L7.08124 8.31373L10.5812 5.81373L10 5L9.41876 4.18627L5.91876 6.68627L6.5 7.5ZM10 5L9.41876 5.81373L12.9188 8.31373L13.5 7.5L14.0812 6.68627L10.5812 4.18627L10 5ZM10 5H9V11H10H11V5H10Z" fill="#33363F"/>
</svg>
