<svg width="493" height="634" viewBox="0 0 493 634" fill="none" xmlns="http://www.w3.org/2000/svg">
<g filter="url(#filter0_d_2313_54)">
<path d="M21 30C21 24.4772 25.4772 20 31 20H462C467.523 20 472 24.4772 472 30V602C472 607.523 467.523 612 462 612H31C25.4771 612 21 607.523 21 602V30Z" fill="#F9FBFC" shape-rendering="crispEdges"/>
<path d="M21 30C21 24.4772 25.4772 20 31 20H462C467.523 20 472 24.4772 472 30V70H21V30Z" fill="white" shape-rendering="crispEdges"/>
<path fill-rule="evenodd" clip-rule="evenodd" d="M472 69.5H21V70H472V69.5Z" fill="black" fill-opacity="0.05" shape-rendering="crispEdges"/>
<path d="M471.5 70.5V602C471.5 607.247 467.247 611.5 462 611.5H31C25.7533 611.5 21.5 607.247 21.5 602V70.5H471.5ZM31 20.5H462C467.247 20.5 471.5 24.7533 471.5 30V69H21.5V30C21.5 24.7533 25.7533 20.5 31 20.5Z" stroke="#C0C0C0" shape-rendering="crispEdges"/>
</g>
<path d="M39.2158 38.9943L38.561 40.4792L38.4177 40.8828L38.2616 41.4405L38.076 42.8262L38.0319 43.9416L38 45.0181L38.0505 45.8086L38.3185 47.1312L38.4475 47.5751C38.5848 48.0475 38.8012 48.4932 39.0874 48.8932L39.1191 48.9374C39.2516 49.1227 39.4008 49.2955 39.5647 49.4538V49.4538C39.9507 49.8264 40.412 50.1121 40.9176 50.2915L42.2955 50.7805V50.7805C44.1391 51.4494 46.1706 51.3752 47.9605 50.5735L49.3548 49.949L53.5876 47.7557L56.2938 45.935L58.5939 43.8994L60.6335 41.9292L62.4314 39.7001L63.7126 37.9414C64.0113 37.5313 64.2804 37.1003 64.5176 36.6518V36.6518L64.8739 35.9781L65.1335 35.2958V35.2958C65.3052 34.8448 65.3932 34.3662 65.3932 33.8835V33.4311C65.3932 32.7718 65.2125 32.1251 64.8708 31.5612L64.7779 31.4079C64.5182 30.9794 64.1528 30.6249 63.7166 30.3783V30.3783C63.2779 30.1303 62.7825 30 62.2785 30H61.6101L60.8739 30.0362C60.4121 30.0589 59.9534 30.1248 59.5039 30.2329V30.2329C58.9615 30.3634 58.4356 30.5548 57.9362 30.8032L56.1945 31.6698L54.7512 32.5608C53.9328 33.0661 53.1636 33.6471 52.4539 34.2962V34.2962L51.3869 35.2721L49.4983 37.3653L47.6287 39.9263L46.2636 42.2951L45.8037 43.2124C45.3664 44.0849 44.9922 44.9877 44.6843 45.9138L44.6437 46.036C44.2318 47.2747 43.9479 48.5524 43.7964 49.8489L43.4556 52.7663C43.3676 53.5199 43.4399 54.2837 43.6678 55.0073V55.0073C43.9782 55.993 44.5659 56.8684 45.3605 57.529L45.6133 57.7391C46.1342 58.1721 46.7326 58.5023 47.3767 58.712V58.712C47.8682 58.872 48.3803 58.96 48.897 58.9731L49.2975 58.9833C49.7363 58.9944 50.1752 58.9699 50.61 58.9099L51.7036 58.759C53.0182 58.5776 54.3111 58.2637 55.5625 57.822V57.822C57.2121 57.2398 58.7767 56.4402 60.2149 55.4443L62.4314 53.9095L65.3398 51.5226L68.45 48.2782" stroke="#2D74F8" stroke-width="6" stroke-linecap="round"/>
<path d="M64.5964 44.3386L71.9489 51.8082C71.9494 51.8088 71.9504 51.8085 71.9506 51.8078L74.5076 41.8477C74.5078 41.847 74.5072 41.8463 74.5064 41.8465L64.5968 44.3369C64.5961 44.3371 64.5958 44.338 64.5964 44.3386Z" fill="#2D74F8" stroke="#2D74F8" stroke-width="2" stroke-linecap="round"/>
<rect x="89" y="30" width="217" height="28" fill="#F5F5F5"/>
<rect x="316" y="30" width="145" height="28" fill="#F5F5F5"/>
<defs>
<filter id="filter0_d_2313_54" x="0.799999" y="0.799999" width="491.4" height="632.4" filterUnits="userSpaceOnUse" color-interpolation-filters="sRGB">
<feFlood flood-opacity="0" result="BackgroundImageFix"/>
<feColorMatrix in="SourceAlpha" type="matrix" values="0 0 0 0 0 0 0 0 0 0 0 0 0 0 0 0 0 0 127 0" result="hardAlpha"/>
<feOffset dy="1"/>
<feGaussianBlur stdDeviation="10.1"/>
<feComposite in2="hardAlpha" operator="out"/>
<feColorMatrix type="matrix" values="0 0 0 0 0 0 0 0 0 0 0 0 0 0 0 0 0 0 0.15 0"/>
<feBlend mode="normal" in2="BackgroundImageFix" result="effect1_dropShadow_2313_54"/>
<feBlend mode="normal" in="SourceGraphic" in2="effect1_dropShadow_2313_54" result="shape"/>
</filter>
</defs>
</svg>
