<svg width="743" height="827" viewBox="0 0 743 827" fill="none" xmlns="http://www.w3.org/2000/svg">
<g filter="url(#filter0_d_2331_53)">
<path d="M20.3456 88.9125C19.6024 83.4399 23.4364 78.401 28.9091 77.6578L455.989 19.663C461.462 18.9198 466.501 22.7538 467.244 28.2264L544.212 595.024C544.955 600.497 541.121 605.536 535.648 606.279L108.568 664.274C103.095 665.017 98.0564 661.183 97.3132 655.71L20.3456 88.9125Z" fill="url(#paint0_linear_2331_53)" shape-rendering="crispEdges"/>
<path d="M20.3456 88.9125C19.6024 83.4399 23.4364 78.401 28.9091 77.6578L455.989 19.663C461.462 18.9198 466.501 22.7538 467.244 28.2264L472.626 67.8627L25.7279 128.549L20.3456 88.9125Z" fill="url(#paint1_linear_2331_53)" shape-rendering="crispEdges"/>
<path fill-rule="evenodd" clip-rule="evenodd" d="M472.559 67.3672L25.6607 128.053L25.7279 128.549L472.626 67.8627L472.559 67.3672Z" fill="url(#paint2_linear_2331_53)" shape-rendering="crispEdges"/>
</g>
<path d="M44.135 153.549C43.904 151.848 44.0776 150.277 44.6556 148.837C45.2479 147.377 46.1542 146.186 47.3745 145.263C48.6091 144.322 50.0521 143.739 51.7036 143.515C53.6359 143.252 55.396 143.518 56.9838 144.312C58.5717 145.105 59.7735 146.338 60.5893 148.01L56.6009 148.552C56.0924 147.78 55.4468 147.237 54.6641 146.922C53.8978 146.606 53.0441 146.512 52.1027 146.64C51.0953 146.776 50.2277 147.138 49.5 147.725C48.7866 148.292 48.2653 149.036 47.936 149.955C47.6232 150.872 47.5453 151.909 47.7023 153.065C47.857 154.205 48.2085 155.183 48.7568 156C49.3193 156.798 50.0212 157.384 50.8624 157.758C51.718 158.112 52.6494 158.221 53.6569 158.084C54.5982 157.957 55.3959 157.638 56.05 157.129C56.7184 156.601 57.1947 155.897 57.4789 155.017L61.4673 154.476C61.1292 156.321 60.3008 157.838 58.982 159.026C57.6775 160.196 56.0509 160.913 54.1021 161.178C52.4506 161.402 50.9055 161.233 49.4669 160.672C48.0425 160.092 46.8514 159.185 45.8935 157.953C44.9522 156.718 44.366 155.251 44.135 153.549ZM71.9809 158.775C70.3624 158.995 68.8245 158.817 67.3671 158.241C65.9097 157.665 64.6938 156.762 63.7194 155.532C62.7428 154.286 62.139 152.812 61.908 151.111C61.6792 149.426 61.8704 147.861 62.4815 146.416C63.0903 144.954 64.0202 143.751 65.2713 142.808C66.5224 141.864 67.9572 141.282 69.5756 141.063C71.2106 140.841 72.7486 141.019 74.1895 141.597C75.6469 142.172 76.8556 143.085 77.8157 144.334C78.7901 145.564 79.3917 147.021 79.6204 148.706C79.8514 150.407 79.6625 151.988 79.0537 153.45C78.4591 154.893 77.5363 156.086 76.2852 157.03C75.0341 157.974 73.5994 158.555 71.9809 158.775ZM71.5604 155.679C72.6008 155.537 73.486 155.182 74.216 154.611C74.9436 154.025 75.471 153.264 75.7981 152.328C76.1251 151.392 76.2101 150.346 76.0532 149.19C75.8962 148.034 75.5364 147.057 74.9739 146.259C74.4091 145.444 73.699 144.859 72.8435 144.504C71.9879 144.149 71.04 144.043 69.9995 144.184C68.9591 144.325 68.0656 144.682 67.3192 145.254C66.5892 145.824 66.0607 146.577 65.7337 147.513C65.4044 148.433 65.3182 149.47 65.4752 150.626C65.6322 151.782 65.9931 152.768 66.5579 153.583C67.1226 154.397 67.8339 154.99 68.6917 155.362C69.5637 155.714 70.5199 155.82 71.5604 155.679ZM91.0609 156.008L86.3309 149.787L84.6959 150.009L85.6109 156.748L82.1428 157.219L79.7947 139.927L86.2851 139.046C87.6229 138.864 88.7949 138.949 89.8013 139.3C90.8055 139.635 91.5937 140.175 92.166 140.922C92.7526 141.649 93.1132 142.509 93.2477 143.5C93.4025 144.639 93.2123 145.716 92.6773 146.731C92.1401 147.729 91.2426 148.49 89.985 149.014L95.0741 155.463L91.0609 156.008ZM84.3427 147.408L87.2411 147.015C88.1825 146.887 88.8541 146.569 89.256 146.06C89.6556 145.535 89.8005 144.868 89.6906 144.058C89.5829 143.266 89.2687 142.686 88.748 142.319C88.225 141.936 87.4929 141.809 86.5515 141.936L83.6531 142.33L84.3427 147.408ZM98.2743 140.269L98.863 144.604L104.685 143.813L105.058 146.563L99.2364 147.354L99.8588 151.937L106.424 151.045L106.807 153.869L96.7741 155.232L94.4227 137.916L104.456 136.553L104.839 139.377L98.2743 140.269ZM124.372 139.323C124.498 140.248 124.393 141.146 124.057 142.015C123.737 142.883 123.14 143.628 122.266 144.252C121.409 144.873 120.27 145.28 118.849 145.473L115.951 145.866L116.853 152.505L113.384 152.976L111.036 135.685L117.403 134.82C118.741 134.639 119.912 134.715 120.916 135.05C121.92 135.384 122.708 135.925 123.28 136.671C123.869 137.415 124.233 138.3 124.372 139.323ZM118.321 142.693C119.278 142.563 119.959 142.252 120.364 141.76C120.765 141.251 120.913 140.601 120.805 139.808C120.576 138.123 119.52 137.409 117.638 137.665L114.888 138.038L115.571 143.067L118.321 142.693ZM136.136 149.887L131.406 143.667L129.771 143.889L130.686 150.627L127.217 151.098L124.869 133.806L131.36 132.925C132.697 132.743 133.87 132.828 134.876 133.179C135.88 133.514 136.668 134.054 137.241 134.801C137.827 135.528 138.188 136.388 138.322 137.379C138.477 138.518 138.287 139.595 137.752 140.61C137.215 141.608 136.317 142.369 135.06 142.893L140.149 149.342L136.136 149.887ZM129.417 141.287L132.316 140.894C133.257 140.766 133.929 140.448 134.331 139.939C134.73 139.414 134.875 138.747 134.765 137.937C134.658 137.145 134.343 136.565 133.823 136.198C133.3 135.815 132.567 135.688 131.626 135.816L128.728 136.209L129.417 141.287ZM152.004 144.376L145.117 145.312L144.425 148.761L140.783 149.256L144.65 131.095L148.688 130.547L157.257 147.018L153.591 147.516L152.004 144.376ZM150.686 141.73L147.202 134.836L145.682 142.409L150.686 141.73ZM156.323 138.315C156.092 136.614 156.266 135.043 156.844 133.602C157.436 132.142 158.342 130.951 159.563 130.029C160.797 129.087 162.24 128.505 163.892 128.28C165.824 128.018 167.584 128.284 169.172 129.077C170.76 129.871 171.962 131.103 172.777 132.776L168.789 133.317C168.281 132.545 167.635 132.002 166.852 131.688C166.086 131.372 165.232 131.277 164.291 131.405C163.283 131.542 162.416 131.904 161.688 132.49C160.975 133.058 160.453 133.802 160.124 134.721C159.811 135.638 159.733 136.675 159.89 137.831C160.045 138.97 160.397 139.948 160.945 140.765C161.507 141.564 162.209 142.15 163.051 142.523C163.906 142.878 164.838 142.987 165.845 142.85C166.786 142.722 167.584 142.404 168.238 141.894C168.906 141.366 169.383 140.662 169.667 139.783L173.655 139.241C173.317 141.087 172.489 142.604 171.17 143.792C169.866 144.962 168.239 145.679 166.29 145.943C164.639 146.168 163.094 145.999 161.655 145.437C160.231 144.857 159.04 143.951 158.082 142.718C157.14 141.484 156.554 140.016 156.323 138.315ZM185.538 125.568L185.918 128.367L181.31 128.993L183.278 143.485L179.81 143.956L177.842 129.464L173.235 130.09L172.854 127.29L185.538 125.568ZM190.298 124.922L192.646 142.213L189.178 142.684L186.83 125.393L190.298 124.922ZM192.814 133.36C192.583 131.659 192.757 130.088 193.335 128.647C193.927 127.187 194.834 125.996 196.054 125.073C197.288 124.132 198.731 123.549 200.383 123.325C202.315 123.063 204.075 123.328 205.663 124.122C207.251 124.915 208.453 126.148 209.269 127.82L205.28 128.362C204.772 127.59 204.126 127.047 203.343 126.733C202.577 126.416 201.723 126.322 200.782 126.45C199.775 126.587 198.907 126.948 198.179 127.535C197.466 128.103 196.945 128.846 196.615 129.766C196.303 130.683 196.225 131.719 196.382 132.875C196.536 134.015 196.888 134.993 197.436 135.81C197.999 136.608 198.701 137.194 199.542 137.568C200.397 137.923 201.329 138.032 202.336 137.895C203.278 137.767 204.075 137.448 204.729 136.939C205.398 136.411 205.874 135.707 206.158 134.828L210.147 134.286C209.809 136.132 208.98 137.648 207.661 138.837C206.357 140.006 204.73 140.723 202.782 140.988C201.13 141.212 199.585 141.044 198.146 140.482C196.722 139.902 195.531 138.995 194.573 137.763C193.632 136.529 193.045 135.061 192.814 133.36ZM222.766 134.767L215.879 135.703L215.187 139.152L211.545 139.647L215.412 121.486L219.45 120.938L228.019 137.409L224.353 137.907L222.766 134.767ZM221.448 132.121L217.963 125.227L216.443 132.8L221.448 132.121ZM232.199 134.041L237.897 133.268L238.27 136.017L229.105 137.262L226.756 119.971L230.225 119.5L232.199 134.041ZM245.46 135.218C244.832 135.303 244.286 135.184 243.822 134.86C243.372 134.517 243.107 134.057 243.029 133.479C242.95 132.901 243.083 132.395 243.428 131.962C243.787 131.509 244.281 131.24 244.908 131.155C245.519 131.072 246.05 131.202 246.5 131.544C246.948 131.87 247.211 132.322 247.29 132.9C247.368 133.478 247.236 133.993 246.894 134.443C246.549 134.876 246.071 135.135 245.46 135.218ZM244.067 124.962C243.44 125.047 242.894 124.928 242.429 124.604C241.979 124.261 241.715 123.801 241.636 123.223C241.558 122.645 241.691 122.139 242.035 121.706C242.395 121.253 242.888 120.984 243.515 120.899C244.126 120.816 244.657 120.946 245.107 121.288C245.555 121.615 245.818 122.067 245.897 122.645C245.975 123.223 245.843 123.737 245.501 124.187C245.156 124.621 244.678 124.879 244.067 124.962ZM262.752 132.693L258.022 126.473L256.387 126.695L257.302 133.433L253.834 133.904L251.486 116.613L257.976 115.731C259.314 115.55 260.486 115.634 261.492 115.986C262.496 116.32 263.285 116.861 263.857 117.607C264.443 118.335 264.804 119.194 264.939 120.185C265.093 121.325 264.903 122.402 264.368 123.416C263.831 124.414 262.933 125.175 261.676 125.699L266.765 132.148L262.752 132.693ZM256.034 124.094L258.932 123.7C259.873 123.572 260.545 123.254 260.947 122.745C261.346 122.22 261.491 121.553 261.381 120.744C261.274 119.951 260.96 119.371 260.439 119.005C259.916 118.622 259.184 118.494 258.242 118.622L255.344 119.015L256.034 124.094ZM280.251 123.025C280.318 123.521 280.345 123.971 280.333 124.377L270.3 125.739C270.517 126.719 270.97 127.448 271.657 127.926C272.344 128.405 273.134 128.584 274.026 128.463C275.314 128.288 276.155 127.61 276.55 126.429L280.291 125.921C280.074 127.296 279.462 128.49 278.456 129.501C277.447 130.496 276.125 131.104 274.49 131.326C273.169 131.505 271.941 131.378 270.805 130.943C269.684 130.49 268.753 129.767 268.013 128.774C267.289 127.779 266.832 126.58 266.641 125.176C266.448 123.756 266.568 122.47 267 121.318C267.433 120.166 268.13 119.23 269.092 118.511C270.054 117.792 271.212 117.34 272.566 117.156C273.871 116.979 275.073 117.102 276.173 117.524C277.29 117.944 278.2 118.636 278.903 119.601C279.62 120.546 280.069 121.688 280.251 123.025ZM276.524 122.522C276.386 121.633 275.968 120.966 275.269 120.523C274.567 120.063 273.762 119.895 272.854 120.018C271.995 120.135 271.304 120.498 270.781 121.107C270.273 121.698 270.015 122.464 270.009 123.407L276.524 122.522ZM287.798 129.519C286.675 129.671 285.64 129.61 284.695 129.335C283.747 129.043 282.962 128.586 282.339 127.964C281.733 127.34 281.348 126.61 281.184 125.775L284.677 125.301C284.815 125.82 285.13 126.223 285.623 126.509C286.133 126.793 286.726 126.889 287.403 126.797C288.064 126.708 288.558 126.506 288.885 126.192C289.229 125.877 289.373 125.512 289.317 125.099C289.256 124.653 288.98 124.355 288.489 124.203C288.011 124.032 287.259 123.882 286.233 123.752C285.175 123.643 284.298 123.502 283.601 123.327C282.921 123.151 282.305 122.822 281.752 122.342C281.216 121.86 280.885 121.156 280.759 120.232C280.656 119.472 280.776 118.749 281.121 118.063C281.481 117.375 282.042 116.794 282.801 116.321C283.578 115.846 284.519 115.533 285.626 115.383C287.261 115.161 288.622 115.396 289.708 116.09C290.792 116.767 291.478 117.792 291.766 119.166L288.446 119.617C288.323 119.078 288.033 118.68 287.578 118.423C287.136 118.146 286.577 118.054 285.9 118.146C285.273 118.231 284.801 118.413 284.486 118.691C284.187 118.967 284.065 119.312 284.121 119.725C284.184 120.187 284.464 120.511 284.96 120.696C285.453 120.864 286.204 121.006 287.212 121.121C288.237 121.235 289.089 121.379 289.769 121.556C290.449 121.733 291.059 122.071 291.597 122.57C292.15 123.049 292.497 123.743 292.636 124.649C292.744 125.441 292.618 126.182 292.257 126.87C291.913 127.556 291.352 128.136 290.576 128.612C289.814 129.069 288.888 129.371 287.798 129.519ZM294.449 112.746C293.838 112.829 293.301 112.709 292.836 112.385C292.386 112.043 292.122 111.582 292.043 111.004C291.965 110.426 292.098 109.92 292.443 109.487C292.802 109.034 293.287 108.767 293.898 108.684C294.509 108.601 295.039 108.73 295.49 109.073C295.954 109.397 296.225 109.848 296.304 110.426C296.382 111.004 296.242 111.519 295.883 111.971C295.538 112.405 295.06 112.663 294.449 112.746ZM296.381 114.149L298.244 127.873L294.776 128.344L292.913 114.62L296.381 114.149ZM305.714 127.086C304.591 127.239 303.557 127.177 302.611 126.902C301.663 126.61 300.878 126.153 300.256 125.531C299.649 124.907 299.264 124.177 299.1 123.342L302.593 122.868C302.731 123.387 303.047 123.79 303.54 124.076C304.049 124.36 304.642 124.456 305.32 124.364C305.98 124.275 306.474 124.073 306.802 123.759C307.146 123.444 307.29 123.079 307.233 122.666C307.173 122.22 306.897 121.922 306.405 121.77C305.928 121.599 305.176 121.449 304.149 121.319C303.092 121.21 302.215 121.069 301.518 120.894C300.838 120.718 300.222 120.389 299.669 119.909C299.132 119.427 298.801 118.724 298.676 117.799C298.572 117.039 298.693 116.316 299.037 115.63C299.398 114.942 299.958 114.361 300.718 113.888C301.494 113.413 302.436 113.1 303.542 112.95C305.177 112.728 306.538 112.963 307.625 113.657C308.709 114.334 309.395 115.359 309.682 116.733L306.363 117.184C306.239 116.645 305.95 116.247 305.494 115.99C305.053 115.713 304.494 115.621 303.817 115.713C303.189 115.798 302.718 115.98 302.402 116.258C302.103 116.534 301.982 116.879 302.038 117.292C302.101 117.754 302.38 118.078 302.876 118.263C303.37 118.431 304.121 118.573 305.129 118.688C306.154 118.802 307.006 118.947 307.686 119.123C308.366 119.3 308.975 119.638 309.514 120.137C310.067 120.617 310.413 121.31 310.553 122.216C310.661 123.008 310.534 123.749 310.173 124.437C309.829 125.123 309.269 125.703 308.493 126.179C307.73 126.636 306.804 126.938 305.714 127.086ZM315.254 114.488L316.156 121.127C316.218 121.589 316.372 121.913 316.615 122.099C316.874 122.266 317.267 122.313 317.795 122.241L319.406 122.023L319.803 124.946L317.623 125.242C314.699 125.639 313.045 124.417 312.659 121.576L311.761 114.962L310.126 115.184L309.739 112.335L311.374 112.113L310.913 108.719L314.406 108.245L314.867 111.639L317.939 111.222L318.326 114.071L315.254 114.488ZM320.732 109.177C320.121 109.26 319.583 109.14 319.118 108.816C318.668 108.474 318.404 108.013 318.325 107.435C318.247 106.857 318.38 106.352 318.725 105.918C319.084 105.465 319.569 105.198 320.18 105.115C320.791 105.032 321.322 105.162 321.772 105.504C322.236 105.828 322.508 106.279 322.586 106.857C322.665 107.435 322.524 107.95 322.165 108.402C321.821 108.836 321.343 109.094 320.732 109.177ZM322.663 110.58L324.527 124.304L321.058 124.775L319.195 111.051L322.663 110.58ZM332.003 120.035L334.042 109.035L337.733 108.534L334.518 122.948L330.307 123.519L323.389 110.482L327.105 109.977L332.003 120.035ZM339.979 106.564C339.368 106.647 338.83 106.526 338.366 106.203C337.915 105.86 337.651 105.4 337.572 104.822C337.494 104.244 337.627 103.738 337.972 103.304C338.331 102.852 338.816 102.584 339.427 102.501C340.038 102.418 340.569 102.548 341.019 102.89C341.483 103.214 341.755 103.665 341.833 104.243C341.912 104.821 341.772 105.336 341.413 105.789C341.068 106.222 340.59 106.481 339.979 106.564ZM341.91 107.967L343.774 121.691L340.306 122.162L338.442 108.438L341.91 107.967ZM348.523 109.97L349.424 116.609C349.487 117.072 349.641 117.396 349.884 117.581C350.142 117.748 350.536 117.795 351.064 117.724L352.674 117.505L353.071 120.428L350.891 120.724C347.968 121.121 346.314 119.899 345.928 117.059L345.03 110.444L343.395 110.666L343.008 107.818L344.643 107.596L344.182 104.202L347.675 103.727L348.136 107.121L351.208 106.704L351.595 109.553L348.523 109.97ZM365.593 104.751L359.841 126.119L356.15 126.62L358.194 119.379L350.878 106.749L354.768 106.221L359.612 115.327L361.902 105.252L365.593 104.751Z" fill="black"/>
<path d="M36.9032 97.7591L36.4542 99.3187L36.3666 99.7379L36.2869 100.311L36.2895 101.71L36.3959 102.821L36.5091 103.892L36.6655 104.668L37.109 105.943L37.2966 106.365C37.4962 106.815 37.7706 107.227 38.1081 107.585L38.1453 107.625C38.3017 107.791 38.4727 107.942 38.6564 108.077V108.077C39.089 108.394 39.5846 108.615 40.1097 108.725L41.5409 109.024V109.024C43.4578 109.439 45.4608 109.092 47.1266 108.056L48.4242 107.25L52.3233 104.507L54.7599 102.339L56.7652 100.012L58.5211 97.7854L60.0027 95.3347L61.0356 93.4195C61.2765 92.973 61.485 92.5097 61.6598 92.0334V92.0334L61.9222 91.3179L62.0876 90.6069V90.6069C62.197 90.1368 62.2198 89.6507 62.1549 89.1724L62.094 88.7242C62.0053 88.0708 61.7393 87.4543 61.3248 86.9415L61.2121 86.8021C60.8971 86.4125 60.4873 86.1103 60.0219 85.9247V85.9247C59.5538 85.738 59.0454 85.6756 58.546 85.7434L57.8837 85.8333L57.159 85.9682C56.7045 86.0529 56.2588 86.1799 55.8279 86.3475V86.3475C55.3081 86.5498 54.8127 86.8102 54.3513 87.1236L52.742 88.2166L51.4317 89.2937C50.6887 89.9045 50.0047 90.5838 49.3888 91.3225V91.3225L48.4628 92.4331L46.8731 94.7614L45.365 97.5507L44.3312 100.082L43.9989 101.052C43.6829 101.976 43.4337 102.921 43.2531 103.88L43.2293 104.006C42.9879 105.289 42.8785 106.594 42.9028 107.899L42.9577 110.835C42.9718 111.594 43.1463 112.341 43.4695 113.028V113.028C43.9097 113.962 44.6098 114.751 45.4861 115.298L45.7649 115.473C46.3393 115.832 46.9767 116.078 47.6432 116.199V116.199C48.1517 116.292 48.671 116.31 49.1848 116.254L49.5829 116.21C50.0193 116.162 50.4509 116.078 50.8737 115.96L51.937 115.664C53.2152 115.307 54.4541 114.822 55.6347 114.216V114.216C57.191 113.417 58.6338 112.414 59.9249 111.234L61.9147 109.415L64.4754 106.658L67.1208 103.025" stroke="#2D74F8" stroke-width="6" stroke-linecap="round"/>
<path d="M62.7729 99.6395L71.0636 106.052C71.0642 106.052 71.0651 106.052 71.0652 106.051L72.2588 95.8377C72.2589 95.8369 72.2582 95.8364 72.2575 95.8366L62.7731 99.6378C62.7724 99.6381 62.7722 99.6391 62.7729 99.6395Z" fill="#2D74F8" stroke="#2D74F8" stroke-width="2" stroke-linecap="round"/>
<rect x="85.0254" y="82.1479" width="217" height="28" transform="rotate(-7.73311 85.0254 82.1479)" fill="#F5F5F5"/>
<rect x="309.961" y="51.603" width="145" height="28" transform="rotate(-7.73311 309.961 51.603)" fill="#F5F5F5"/>
<g filter="url(#filter1_d_2331_53)">
<path d="M275.591 165.899C276.387 160.434 281.462 156.648 286.927 157.443L713.435 219.51C718.9 220.306 722.686 225.381 721.89 230.846L639.518 796.884C638.723 802.349 633.648 806.135 628.183 805.34L201.675 743.273C196.21 742.478 192.424 737.402 193.219 731.937L275.591 165.899Z" fill="url(#paint3_linear_2331_53)" shape-rendering="crispEdges"/>
<path d="M275.591 165.899C276.387 160.434 281.462 156.648 286.927 157.443L713.435 219.51C718.9 220.306 722.686 225.381 721.89 230.846L716.13 270.429L269.831 205.482L275.591 165.899Z" fill="url(#paint4_linear_2331_53)" shape-rendering="crispEdges"/>
<path fill-rule="evenodd" clip-rule="evenodd" d="M716.202 269.934L269.903 204.987L269.831 205.482L716.13 270.429L716.202 269.934Z" fill="url(#paint5_linear_2331_53)" shape-rendering="crispEdges"/>
</g>
<path d="M294.472 227.814L294.065 230.609L289.464 229.939L287.358 244.412L283.894 243.908L286 229.435L281.399 228.766L281.806 225.97L294.472 227.814ZM303.115 232.507C304.154 232.658 305.044 233.024 305.785 233.603C306.528 234.166 307.058 234.925 307.374 235.881C307.708 236.822 307.786 237.911 307.606 239.148L306.435 247.188L302.972 246.684L304.074 239.114C304.232 238.025 304.081 237.153 303.621 236.497C303.163 235.824 302.464 235.419 301.524 235.282C300.567 235.143 299.765 235.329 299.118 235.841C298.49 236.339 298.097 237.133 297.938 238.221L296.837 245.791L293.373 245.287L296.037 226.98L299.501 227.484L298.583 233.793C299.114 233.264 299.775 232.888 300.566 232.667C301.358 232.428 302.208 232.375 303.115 232.507ZM322.397 242.21C322.325 242.705 322.227 243.145 322.104 243.532L312.084 242.073C312.023 243.075 312.256 243.901 312.785 244.55C313.314 245.2 314.023 245.589 314.914 245.719C316.2 245.906 317.196 245.487 317.901 244.461L321.637 245.005C321.049 246.266 320.132 247.245 318.885 247.939C317.642 248.617 316.203 248.837 314.57 248.599C313.251 248.407 312.105 247.946 311.134 247.215C310.181 246.47 309.486 245.519 309.048 244.36C308.627 243.204 308.518 241.925 308.722 240.523C308.929 239.105 309.399 237.902 310.132 236.914C310.865 235.925 311.793 235.218 312.916 234.792C314.04 234.366 315.277 234.252 316.63 234.449C317.933 234.638 319.055 235.088 319.996 235.797C320.953 236.509 321.636 237.426 322.046 238.546C322.474 239.653 322.592 240.874 322.397 242.21ZM318.954 240.698C319.067 239.805 318.849 239.049 318.299 238.43C317.751 237.795 317.024 237.411 316.117 237.279C315.259 237.154 314.495 237.313 313.824 237.754C313.173 238.181 312.714 238.847 312.447 239.752L318.954 240.698ZM342.323 252.411L338.859 251.907L332.741 238.915L331.017 250.765L327.553 250.261L330.07 232.969L333.533 233.473L339.647 246.489L341.376 234.614L344.839 235.118L342.323 252.411ZM344.746 245.715C344.947 244.329 345.398 243.14 346.099 242.148C346.815 241.157 347.686 240.442 348.71 240.001C349.751 239.563 350.856 239.429 352.027 239.6C353.05 239.749 353.911 240.084 354.609 240.607C355.324 241.132 355.867 241.742 356.238 242.436L356.522 240.481L360.011 240.989L358.016 254.694L354.528 254.187L354.819 252.183C354.28 252.761 353.584 253.207 352.73 253.521C351.895 253.821 350.966 253.896 349.943 253.747C348.789 253.579 347.776 253.129 346.906 252.396C346.053 251.665 345.423 250.723 345.019 249.569C344.633 248.402 344.542 247.117 344.746 245.715ZM355.525 247.334C355.647 246.493 355.587 245.751 355.343 245.11C355.102 244.451 354.724 243.925 354.209 243.53C353.696 243.118 353.118 242.866 352.475 242.772C351.832 242.679 351.215 242.749 350.625 242.983C350.036 243.217 349.523 243.614 349.088 244.174C348.672 244.72 348.404 245.405 348.284 246.23C348.164 247.054 348.223 247.804 348.462 248.479C348.719 249.139 349.096 249.674 349.592 250.083C350.105 250.495 350.675 250.746 351.301 250.837C351.945 250.931 352.57 250.862 353.176 250.63C353.785 250.382 354.297 249.985 354.713 249.439C355.132 248.877 355.403 248.175 355.525 247.334ZM365.898 244.751L364.934 251.381C364.866 251.843 364.924 252.197 365.108 252.442C365.31 252.674 365.675 252.828 366.202 252.905L367.811 253.139L367.386 256.058L365.209 255.741C362.289 255.316 361.036 253.686 361.449 250.849L362.41 244.243L360.777 244.006L361.191 241.161L362.824 241.398L363.317 238.009L366.806 238.517L366.312 241.906L369.38 242.352L368.966 245.197L365.898 244.751ZM383.697 244.436L381.702 258.141L378.214 257.634L378.466 255.902C377.934 256.431 377.28 256.816 376.504 257.057C375.747 257.283 374.948 257.335 374.107 257.213C373.035 257.057 372.119 256.696 371.359 256.131C370.602 255.549 370.047 254.786 369.696 253.843C369.364 252.885 369.287 251.796 369.464 250.575L370.634 242.535L374.098 243.039L373 250.584C372.841 251.673 372.991 252.554 373.449 253.227C373.909 253.883 374.609 254.28 375.55 254.417C376.506 254.556 377.299 254.376 377.927 253.878C378.558 253.364 378.952 252.562 379.11 251.474L380.209 243.928L383.697 244.436ZM389.155 247.403C389.706 246.742 390.366 246.257 391.135 245.948C391.921 245.641 392.775 245.555 393.699 245.689L393.17 249.326L392.254 249.193C391.166 249.034 390.304 249.17 389.669 249.6C389.05 250.032 388.648 250.883 388.463 252.153L387.47 258.981L384.006 258.477L386.001 244.771L389.464 245.275L389.155 247.403ZM406.676 254.475C406.604 254.969 406.507 255.41 406.383 255.796L396.364 254.338C396.302 255.34 396.536 256.165 397.064 256.815C397.593 257.464 398.302 257.854 399.193 257.984C400.48 258.171 401.475 257.751 402.18 256.726L405.916 257.269C405.328 258.531 404.411 259.509 403.165 260.204C401.921 260.882 400.482 261.102 398.85 260.864C397.53 260.672 396.385 260.211 395.413 259.48C394.461 258.735 393.765 257.783 393.328 256.625C392.906 255.469 392.798 254.19 393.002 252.788C393.208 251.369 393.678 250.166 394.411 249.178C395.145 248.19 396.073 247.483 397.196 247.057C398.319 246.631 399.557 246.516 400.909 246.713C402.212 246.903 403.334 247.352 404.275 248.062C405.232 248.774 405.916 249.69 406.325 250.811C406.754 251.917 406.871 253.139 406.676 254.475ZM403.233 252.963C403.346 252.07 403.128 251.314 402.578 250.695C402.03 250.06 401.303 249.676 400.396 249.544C399.538 249.419 398.774 249.577 398.104 250.019C397.452 250.446 396.993 251.112 396.727 252.016L403.233 252.963ZM417.886 263.634C416.566 263.442 415.421 262.981 414.449 262.25C413.48 261.503 412.769 260.549 412.314 259.388C411.877 258.229 411.76 256.949 411.964 255.547C412.168 254.145 412.653 252.953 413.419 251.97C414.202 250.989 415.171 250.288 416.327 249.866C417.486 249.429 418.725 249.306 420.044 249.498C421.364 249.69 422.516 250.161 423.502 250.91C424.49 251.644 425.211 252.591 425.665 253.752C426.136 254.915 426.269 256.197 426.065 257.599C425.861 259.001 425.36 260.191 424.56 261.17C423.778 262.151 422.799 262.859 421.624 263.294C420.468 263.715 419.222 263.829 417.886 263.634ZM418.325 260.616C418.952 260.707 419.559 260.644 420.146 260.426C420.753 260.195 421.265 259.798 421.684 259.235C422.103 258.673 422.376 257.955 422.503 257.081C422.692 255.778 422.491 254.73 421.899 253.936C421.326 253.129 420.545 252.653 419.555 252.509C418.566 252.365 417.681 252.598 416.902 253.209C416.141 253.806 415.666 254.755 415.477 256.058C415.287 257.361 415.462 258.414 416.002 259.217C416.561 260.006 417.336 260.472 418.325 260.616ZM434.36 254.714L431.96 254.364L430.379 265.225L426.866 264.714L428.447 253.853L426.888 253.626L427.302 250.781L428.861 251.008L428.962 250.316C429.207 248.633 429.865 247.466 430.937 246.813C432.008 246.161 433.506 246 435.428 246.33L435.003 249.249C434.164 249.111 433.559 249.165 433.185 249.414C432.812 249.663 432.569 250.175 432.457 250.95L432.374 251.519L434.774 251.869L434.36 254.714ZM444.305 256.161L443.34 262.791C443.273 263.253 443.331 263.607 443.514 263.852C443.716 264.084 444.081 264.238 444.609 264.315L446.217 264.549L445.792 267.468L443.615 267.151C440.696 266.726 439.443 265.096 439.856 262.259L440.817 255.653L439.184 255.416L439.598 252.571L441.231 252.808L441.724 249.419L445.212 249.927L444.719 253.316L447.787 253.762L447.373 256.607L444.305 256.161ZM456.912 254.888C457.951 255.039 458.841 255.405 459.582 255.984C460.325 256.547 460.855 257.306 461.171 258.262C461.505 259.203 461.583 260.292 461.403 261.529L460.233 269.569L456.769 269.065L457.871 261.495C458.029 260.407 457.878 259.534 457.418 258.878C456.96 258.205 456.261 257.8 455.321 257.663C454.364 257.524 453.562 257.71 452.915 258.222C452.287 258.72 451.894 259.514 451.735 260.602L450.634 268.173L447.17 267.669L449.834 249.361L453.298 249.865L452.38 256.174C452.911 255.645 453.572 255.27 454.363 255.048C455.155 254.809 456.005 254.756 456.912 254.888ZM476.194 264.591C476.122 265.086 476.024 265.526 475.901 265.913L465.881 264.455C465.82 265.456 466.053 266.282 466.582 266.931C467.111 267.581 467.82 267.97 468.711 268.1C469.997 268.287 470.993 267.868 471.698 266.842L475.434 267.386C474.846 268.648 473.929 269.626 472.683 270.32C471.439 270.998 470 271.218 468.367 270.981C467.048 270.789 465.902 270.327 464.931 269.596C463.978 268.851 463.283 267.9 462.845 266.741C462.424 265.585 462.315 264.306 462.52 262.904C462.726 261.486 463.196 260.283 463.929 259.295C464.662 258.307 465.59 257.6 466.713 257.173C467.837 256.747 469.074 256.633 470.427 256.83C471.73 257.019 472.852 257.469 473.793 258.178C474.75 258.89 475.434 259.807 475.843 260.927C476.272 262.034 476.389 263.255 476.194 264.591ZM472.751 263.079C472.864 262.186 472.646 261.43 472.096 260.811C471.548 260.176 470.821 259.792 469.914 259.66C469.056 259.535 468.292 259.694 467.621 260.135C466.97 260.562 466.511 261.228 466.244 262.133L472.751 263.079ZM495.13 262.319C494.84 261.536 494.376 260.904 493.739 260.424C493.101 259.944 492.321 259.637 491.397 259.502C490.375 259.354 489.434 259.452 488.575 259.799C487.716 260.146 487.002 260.715 486.432 261.508C485.861 262.301 485.495 263.258 485.332 264.38C485.164 265.534 485.24 266.573 485.56 267.495C485.897 268.42 486.436 269.172 487.177 269.752C487.918 270.331 488.825 270.699 489.897 270.855C491.216 271.047 492.347 270.857 493.289 270.287C494.233 269.7 494.928 268.799 495.375 267.584L489.437 266.72L489.822 264.073L499.174 265.434L498.735 268.452C498.329 269.623 497.672 270.664 496.764 271.576C495.857 272.488 494.756 273.17 493.46 273.622C492.184 274.059 490.804 274.17 489.319 273.954C487.654 273.711 486.198 273.121 484.954 272.182C483.729 271.229 482.825 270.028 482.245 268.579C481.68 267.133 481.522 265.56 481.769 263.861C482.016 262.163 482.616 260.7 483.569 259.475C484.541 258.235 485.749 257.342 487.193 256.794C488.656 256.232 490.212 256.071 491.862 256.311C493.808 256.594 495.429 257.319 496.724 258.484C498.022 259.633 498.819 261.105 499.113 262.899L495.13 262.319ZM513.008 269.948C512.936 270.443 512.838 270.884 512.714 271.27L502.695 269.812C502.633 270.813 502.867 271.639 503.395 272.288C503.924 272.938 504.634 273.328 505.524 273.457C506.811 273.644 507.806 273.225 508.512 272.199L512.247 272.743C511.659 274.005 510.742 274.983 509.496 275.677C508.252 276.355 506.814 276.575 505.181 276.338C503.861 276.146 502.716 275.684 501.744 274.954C500.792 274.209 500.097 273.257 499.659 272.098C499.238 270.942 499.129 269.663 499.333 268.261C499.539 266.843 500.009 265.64 500.742 264.652C501.476 263.664 502.404 262.957 503.527 262.531C504.65 262.105 505.888 261.99 507.24 262.187C508.543 262.376 509.665 262.826 510.606 263.536C511.563 264.248 512.247 265.164 512.656 266.285C513.085 267.391 513.202 268.612 513.008 269.948ZM509.564 268.437C509.677 267.544 509.459 266.788 508.909 266.169C508.362 265.533 507.634 265.149 506.727 265.017C505.87 264.893 505.105 265.051 504.435 265.492C503.783 265.92 503.324 266.585 503.058 267.49L509.564 268.437ZM523 264.506C524.633 264.743 525.877 265.455 526.732 266.64C527.589 267.809 527.883 269.317 527.614 271.164L526.444 279.205L522.981 278.701L524.082 271.13C524.241 270.042 524.09 269.169 523.63 268.513C523.172 267.84 522.473 267.435 521.533 267.298C520.576 267.159 519.774 267.346 519.127 267.858C518.499 268.356 518.105 269.149 517.947 270.238L516.845 277.808L513.382 277.304L515.376 263.598L518.84 264.102L518.591 265.809C519.14 265.283 519.792 264.906 520.55 264.679C521.326 264.439 522.143 264.381 523 264.506ZM542.406 274.226C542.334 274.721 542.236 275.162 542.113 275.548L532.093 274.09C532.032 275.091 532.265 275.917 532.794 276.567C533.322 277.216 534.032 277.606 534.923 277.735C536.209 277.923 537.205 277.503 537.91 276.477L541.646 277.021C541.058 278.283 540.141 279.261 538.894 279.955C537.65 280.633 536.212 280.854 534.579 280.616C533.26 280.424 532.114 279.963 531.143 279.232C530.19 278.487 529.495 277.535 529.057 276.377C528.636 275.221 528.527 273.942 528.731 272.54C528.938 271.121 529.408 269.918 530.141 268.93C530.874 267.942 531.802 267.235 532.925 266.809C534.048 266.383 535.286 266.268 536.638 266.465C537.941 266.655 539.063 267.104 540.004 267.814C540.962 268.526 541.645 269.442 542.055 270.563C542.483 271.669 542.6 272.891 542.406 274.226ZM538.963 272.715C539.076 271.822 538.857 271.066 538.307 270.447C537.76 269.811 537.033 269.428 536.125 269.296C535.268 269.171 534.504 269.329 533.833 269.77C533.182 270.198 532.723 270.864 532.456 271.768L538.963 272.715ZM548.393 271.308L547.428 277.938C547.361 278.4 547.419 278.754 547.602 279C547.804 279.231 548.169 279.385 548.697 279.462L550.305 279.696L549.88 282.615L547.703 282.298C544.784 281.874 543.531 280.243 543.944 277.406L544.905 270.801L543.272 270.563L543.686 267.718L545.319 267.956L545.812 264.566L549.3 265.074L548.807 268.463L551.875 268.91L551.461 271.755L548.393 271.308ZM555.247 267.733C554.637 267.644 554.153 267.38 553.796 266.941C553.458 266.487 553.331 265.972 553.415 265.395C553.499 264.817 553.766 264.368 554.217 264.046C554.687 263.71 555.227 263.587 555.837 263.676C556.448 263.765 556.922 264.036 557.26 264.489C557.617 264.928 557.754 265.437 557.67 266.014C557.586 266.591 557.309 267.048 556.839 267.384C556.388 267.705 555.857 267.822 555.247 267.733ZM556.716 269.614L554.722 283.32L551.258 282.816L553.253 269.11L556.716 269.614ZM557.137 276.673C557.344 275.255 557.812 274.06 558.543 273.088C559.276 272.1 560.196 271.392 561.303 270.964C562.412 270.519 563.626 270.392 564.945 270.584C566.644 270.832 567.984 271.464 568.964 272.483C569.963 273.487 570.541 274.784 570.697 276.373L566.961 275.829C566.85 275.207 566.579 274.696 566.148 274.296C565.737 273.883 565.185 273.626 564.492 273.525C563.503 273.381 562.666 273.63 561.984 274.271C561.303 274.896 560.867 275.869 560.675 277.188C560.485 278.491 560.626 279.547 561.098 280.357C561.572 281.15 562.304 281.619 563.293 281.763C564.695 281.967 565.702 281.473 566.313 280.282L570.049 280.826C569.453 282.255 568.531 283.325 567.283 284.036C566.034 284.747 564.568 284.98 562.886 284.735C561.567 284.543 560.438 284.084 559.499 283.358C558.563 282.616 557.883 281.675 557.459 280.535C557.038 279.379 556.931 278.092 557.137 276.673ZM576 277.574C576.247 275.875 576.847 274.413 577.801 273.188C578.773 271.948 579.972 271.053 581.4 270.503C582.846 269.939 584.394 269.777 586.043 270.017C587.973 270.297 589.591 271.038 590.899 272.239C592.206 273.44 593.021 274.956 593.344 276.789L589.361 276.209C589.085 275.327 588.614 274.627 587.949 274.109C587.3 273.593 586.505 273.267 585.565 273.13C584.559 272.984 583.625 273.092 582.764 273.455C581.921 273.804 581.215 274.375 580.645 275.168C580.091 275.963 579.731 276.938 579.563 278.093C579.397 279.231 579.465 280.268 579.767 281.204C580.087 282.127 580.6 282.884 581.306 283.475C582.03 284.052 582.895 284.413 583.902 284.56C584.842 284.697 585.696 284.61 586.465 284.301C587.254 283.978 587.906 283.433 588.421 282.666L592.404 283.246C591.57 284.926 590.356 286.156 588.76 286.934C587.184 287.699 585.422 287.939 583.476 287.656C581.827 287.416 580.388 286.828 579.16 285.891C577.951 284.94 577.056 283.741 576.476 282.292C575.911 280.845 575.753 279.273 576 277.574ZM599.511 290.065C598.191 289.873 597.046 289.412 596.074 288.681C595.105 287.933 594.394 286.979 593.939 285.818C593.502 284.66 593.385 283.38 593.589 281.978C593.793 280.576 594.278 279.383 595.044 278.4C595.827 277.419 596.796 276.718 597.952 276.297C599.111 275.859 600.35 275.736 601.669 275.929C602.989 276.121 604.141 276.591 605.127 277.341C606.115 278.074 606.836 279.021 607.29 280.182C607.761 281.346 607.894 282.628 607.69 284.03C607.486 285.432 606.985 286.622 606.185 287.601C605.403 288.581 604.424 289.289 603.249 289.725C602.093 290.146 600.847 290.259 599.511 290.065ZM599.95 287.047C600.577 287.138 601.184 287.075 601.771 286.857C602.378 286.625 602.89 286.228 603.309 285.666C603.728 285.104 604.001 284.386 604.128 283.512C604.317 282.209 604.116 281.16 603.524 280.367C602.951 279.559 602.17 279.084 601.18 278.94C600.191 278.796 599.306 279.029 598.527 279.64C597.766 280.236 597.291 281.186 597.102 282.489C596.912 283.792 597.087 284.845 597.627 285.648C598.186 286.436 598.961 286.903 599.95 287.047ZM608.234 284.059C608.436 282.673 608.887 281.484 609.587 280.491C610.304 279.501 611.182 278.787 612.223 278.349C613.264 277.911 614.369 277.777 615.54 277.947C616.431 278.077 617.252 278.398 618.002 278.912C618.755 279.409 619.324 280.013 619.709 280.726L620.655 274.22L624.168 274.731L621.504 293.038L617.991 292.527L618.287 290.498C617.759 291.112 617.078 291.569 616.243 291.868C615.408 292.168 614.479 292.243 613.456 292.094C612.302 291.926 611.29 291.476 610.419 290.743C609.549 290.01 608.912 289.067 608.507 287.913C608.121 286.745 608.03 285.461 608.234 284.059ZM619.013 285.678C619.136 284.837 619.075 284.095 618.832 283.453C618.591 282.795 618.213 282.269 617.697 281.874C617.185 281.462 616.607 281.21 615.963 281.116C615.32 281.022 614.704 281.093 614.114 281.327C613.524 281.561 613.011 281.958 612.576 282.518C612.16 283.064 611.892 283.749 611.772 284.573C611.652 285.398 611.711 286.148 611.95 286.823C612.207 287.483 612.584 288.018 613.081 288.427C613.593 288.839 614.163 289.09 614.79 289.181C615.433 289.275 616.058 289.206 616.664 288.974C617.273 288.726 617.785 288.329 618.202 287.783C618.62 287.221 618.891 286.519 619.013 285.678ZM637.555 288.073C637.483 288.568 637.385 289.008 637.262 289.394L627.242 287.936C627.181 288.938 627.414 289.764 627.943 290.413C628.471 291.063 629.181 291.452 630.072 291.582C631.358 291.769 632.354 291.35 633.059 290.324L636.795 290.868C636.207 292.129 635.29 293.107 634.043 293.802C632.799 294.48 631.361 294.7 629.728 294.462C628.409 294.27 627.263 293.809 626.292 293.078C625.339 292.333 624.644 291.381 624.206 290.223C623.785 289.067 623.676 287.788 623.88 286.386C624.087 284.968 624.557 283.764 625.29 282.776C626.023 281.788 626.951 281.081 628.074 280.655C629.197 280.229 630.435 280.115 631.788 280.311C633.091 280.501 634.213 280.951 635.153 281.66C636.111 282.372 636.794 283.288 637.204 284.409C637.632 285.516 637.749 286.737 637.555 288.073ZM634.112 286.561C634.225 285.668 634.007 284.912 633.457 284.293C632.909 283.658 632.182 283.274 631.275 283.142C630.417 283.017 629.653 283.176 628.982 283.617C628.331 284.044 627.872 284.71 627.605 285.614L634.112 286.561Z" fill="black"/>
<path d="M289.066 178.97L288.204 180.345L288.004 180.724L287.77 181.253L287.386 182.598L287.182 183.695L286.995 184.756L286.932 185.546L287.006 186.893L287.07 187.351C287.138 187.838 287.288 188.31 287.514 188.747L287.538 188.796C287.643 188.998 287.766 189.191 287.905 189.371V189.371C288.233 189.795 288.649 190.144 289.123 190.395L290.416 191.077V191.077C292.144 192.004 294.165 192.224 296.052 191.688L297.522 191.271L302.026 189.71L304.967 188.298L307.536 186.615L309.838 184.959L311.938 183.012L313.459 181.456C313.814 181.093 314.142 180.705 314.441 180.296V180.296L314.891 179.68L315.246 179.043V179.043C315.481 178.621 315.637 178.16 315.707 177.682L315.772 177.235C315.867 176.582 315.781 175.916 315.524 175.309L315.454 175.144C315.259 174.683 314.948 174.279 314.552 173.972V173.972C314.154 173.664 313.682 173.463 313.184 173.391L312.522 173.295L311.788 173.224C311.328 173.18 310.865 173.179 310.404 173.222V173.222C309.849 173.273 309.301 173.386 308.771 173.56L306.923 174.167L305.366 174.841C304.483 175.223 303.639 175.687 302.843 176.227V176.227L301.646 177.039L299.476 178.839L297.257 181.104L295.565 183.251L294.978 184.093C294.419 184.893 293.919 185.733 293.481 186.605L293.423 186.72C292.837 187.887 292.372 189.11 292.036 190.371L291.278 193.209C291.083 193.942 291.044 194.708 291.166 195.457V195.457C291.331 196.477 291.786 197.428 292.478 198.197L292.698 198.441C293.151 198.944 293.695 199.357 294.302 199.658V199.658C294.766 199.887 295.26 200.047 295.769 200.135L296.164 200.203C296.597 200.277 297.035 200.316 297.474 200.319L298.577 200.327C299.904 200.337 301.229 200.212 302.531 199.956V199.956C304.247 199.617 305.911 199.051 307.477 198.273L309.892 197.073L313.114 195.13L316.659 192.367" stroke="#2D74F8" stroke-width="6" stroke-linecap="round"/>
<path d="M313.412 187.914L319.612 196.364C319.612 196.365 319.613 196.365 319.614 196.364L323.578 186.876C323.579 186.875 323.578 186.874 323.577 186.875L313.412 187.912C313.412 187.912 313.411 187.913 313.412 187.914Z" fill="#2D74F8" stroke="#2D74F8" stroke-width="2" stroke-linecap="round"/>
<rect x="339.627" y="177.239" width="217" height="28" transform="rotate(8.27976 339.627 177.239)" fill="#F5F5F5"/>
<rect x="564.26" y="209.928" width="145" height="28" transform="rotate(8.27976 564.26 209.928)" fill="#F5F5F5"/>
<defs>
<filter id="filter0_d_2331_53" x="0.0539055" y="0.3708" width="564.451" height="685.195" filterUnits="userSpaceOnUse" color-interpolation-filters="sRGB">
<feFlood flood-opacity="0" result="BackgroundImageFix"/>
<feColorMatrix in="SourceAlpha" type="matrix" values="0 0 0 0 0 0 0 0 0 0 0 0 0 0 0 0 0 0 127 0" result="hardAlpha"/>
<feOffset dy="1"/>
<feGaussianBlur stdDeviation="10.1"/>
<feComposite in2="hardAlpha" operator="out"/>
<feColorMatrix type="matrix" values="0 0 0 0 0 0 0 0 0 0 0 0 0 0 0 0 0 0 0.15 0"/>
<feBlend mode="normal" in2="BackgroundImageFix" result="effect1_dropShadow_2331_53"/>
<feBlend mode="normal" in="SourceGraphic" in2="effect1_dropShadow_2331_53" result="shape"/>
</filter>
<filter id="filter1_d_2331_53" x="172.913" y="138.138" width="569.283" height="688.507" filterUnits="userSpaceOnUse" color-interpolation-filters="sRGB">
<feFlood flood-opacity="0" result="BackgroundImageFix"/>
<feColorMatrix in="SourceAlpha" type="matrix" values="0 0 0 0 0 0 0 0 0 0 0 0 0 0 0 0 0 0 127 0" result="hardAlpha"/>
<feOffset dy="1"/>
<feGaussianBlur stdDeviation="10.1"/>
<feComposite in2="hardAlpha" operator="out"/>
<feColorMatrix type="matrix" values="0 0 0 0 0 0 0 0 0 0 0 0 0 0 0 0 0 0 0.15 0"/>
<feBlend mode="normal" in2="BackgroundImageFix" result="effect1_dropShadow_2331_53"/>
<feBlend mode="normal" in="SourceGraphic" in2="effect1_dropShadow_2331_53" result="shape"/>
</filter>
<linearGradient id="paint0_linear_2331_53" x1="242.449" y1="48.6604" x2="259.5" y2="393.5" gradientUnits="userSpaceOnUse">
<stop stop-color="white"/>
<stop offset="1" stop-color="white" stop-opacity="0"/>
</linearGradient>
<linearGradient id="paint1_linear_2331_53" x1="242.449" y1="48.6604" x2="259.5" y2="393.5" gradientUnits="userSpaceOnUse">
<stop stop-color="white"/>
<stop offset="1" stop-color="white" stop-opacity="0"/>
</linearGradient>
<linearGradient id="paint2_linear_2331_53" x1="242.449" y1="48.6604" x2="259.5" y2="393.5" gradientUnits="userSpaceOnUse">
<stop stop-color="white"/>
<stop offset="1" stop-color="white" stop-opacity="0"/>
</linearGradient>
<linearGradient id="paint3_linear_2331_53" x1="472" y1="390.5" x2="468" y2="423" gradientUnits="userSpaceOnUse">
<stop stop-color="white"/>
<stop offset="1" stop-color="white" stop-opacity="0"/>
</linearGradient>
<linearGradient id="paint4_linear_2331_53" x1="472" y1="390.5" x2="468" y2="423" gradientUnits="userSpaceOnUse">
<stop stop-color="white"/>
<stop offset="1" stop-color="white" stop-opacity="0"/>
</linearGradient>
<linearGradient id="paint5_linear_2331_53" x1="472" y1="390.5" x2="468" y2="423" gradientUnits="userSpaceOnUse">
<stop stop-color="white"/>
<stop offset="1" stop-color="white" stop-opacity="0"/>
</linearGradient>
</defs>
</svg>
